<?xml version="1.0" encoding="utf-8"?>
<!-- Generator: Adobe Illustrator 19.0.1, SVG Export Plug-In . SVG Version: 6.00 Build 0)  -->
<svg version="1.1" id="Layer_1" xmlns="http://www.w3.org/2000/svg" xmlns:xlink="http://www.w3.org/1999/xlink" x="0px" y="0px"
	 viewBox="97 -52.1 920 944" style="enable-background:new 97 -52.1 920 944;" xml:space="preserve">
<style type="text/css">
	.st0{fill:#E8EFF2;}
	.st1{fill:#A2A0A0;}
	.st2{fill:#232021;}
	.st3{font-family:'HalisGR-Regular';}
	.st4{font-size:48.7417px;}
	.st5{fill:none;stroke:#E52528;stroke-width:4;stroke-miterlimit:10;}
	.st6{enable-background:new    ;}
	.st7{fill:#E52528;}
	.st8{fill:none;stroke:#E8EFF2;stroke-width:3.2053;stroke-miterlimit:10;}
	.st9{fill:none;}
	.st10{font-family:'ArialMT';}
	.st11{font-size:12.1854px;}
	.st12{fill:none;stroke:#232021;stroke-width:2.3302;}
	.st13{fill:none;stroke:#787878;stroke-width:3.3548;stroke-miterlimit:10;}
	.st14{fill:#020304;}
	.st15{fill:none;stroke:#020203;stroke-width:2.2813;}
	.st16{fill:#020203;}
	.st17{fill:none;stroke:#737373;stroke-width:3.3548;stroke-miterlimit:10;}
	.st18{fill:none;stroke:#000000;stroke-width:2.7886;stroke-miterlimit:10;}
	.st19{fill:none;stroke:#808080;stroke-width:2.7886;stroke-miterlimit:10;}
	.st20{fill:none;stroke:#E8EEF2;stroke-width:5;stroke-miterlimit:10;}
	.st21{font-size:15.2318px;}
	.st22{fill:#8F8F8F;}
	.st23{fill:#B9B8B8;}
	.st24{fill:none;stroke:#232021;stroke-width:1.9586;}
	.st25{fill:#B4B4B3;stroke:#020203;stroke-width:2;}
	.st26{fill:none;stroke:#020203;stroke-width:2;}
	.st27{fill:#020203;stroke:#020203;stroke-width:2.2813;}
	.st28{fill:none;stroke:#000000;stroke-width:2.2166;stroke-miterlimit:10;}
	.st29{fill:none;stroke:#808080;stroke-width:2.2166;stroke-miterlimit:10;}
	.st30{fill:#010202;}
	.st31{stroke:#000000;stroke-width:1.4552;stroke-miterlimit:10;}
	.st32{fill:#AAAAAA;}
	.st33{opacity:0.78;fill:url(#SVGID_1_);enable-background:new    ;}
	.st34{opacity:0.56;fill:url(#SVGID_2_);enable-background:new    ;}
	.st35{fill:#FFFFFF;}
	.st36{fill:none;stroke:#FFFFFF;stroke-width:0.9372;}
	.st37{opacity:0.1;}
	.st38{fill:#717070;}
	.st39{fill:#DDDDDD;}
	.st40{fill:#777777;}
	.st41{fill:none;stroke:#E7E8E9;stroke-width:5;stroke-miterlimit:10;}
	.st42{fill:#8F8F8F;stroke:#010202;stroke-width:2.6458;stroke-miterlimit:10;}
	.st43{fill:#A0A09F;}
	.st44{fill:#231F20;}
	.st45{font-size:48px;}
	.st46{fill:#D1D3D4;}
	.st47{fill:#E8EEF2;}
	.st48{opacity:0.41;}
	.st49{fill:#000100;}
	.st50{fill:url(#SVGID_3_);}
	.st51{fill:url(#SVGID_4_);}
	.st52{fill:url(#SVGID_5_);}
	.st53{fill:#FFFFFF;stroke:#000000;stroke-width:0.8166;stroke-miterlimit:10;}
	.st54{fill:#11273D;}
	.st55{clip-path:url(#SVGID_7_);fill:url(#SVGID_8_);}
	.st56{clip-path:url(#SVGID_10_);fill:url(#SVGID_11_);}
	.st57{opacity:0.74;clip-path:url(#SVGID_13_);fill:url(#SVGID_14_);enable-background:new    ;}
	.st58{fill:#EFF2F5;}
</style>
<circle class="st0" cx="567.4" cy="295" r="120.2"/>
<g>
	<path class="st1" d="M528.2,392.1l-5.2-10.7l20.2-5.2l19.8,5.2l-5.2,10.7H528.2z M543.3,378.4l-16.8,4.2l3.5,7.2h13.3V378.4z"/>
	<polygon class="st1" points="545.7,365.7 545.7,370.8 551.1,370.8 551.1,374 555.1,374 555.1,379.5 557.3,380.2 557.3,372 
		553.2,372 553.2,368.6 548,368.6 548,363.7 538,363.7 538,368.6 532.8,368.6 532.8,372 528.9,372 528.9,380.2 531,379.5 531,374 
		534.9,374 534.9,370.8 540.3,370.8 540.3,365.7 	"/>
</g>
<text transform="matrix(1 0 0 1 530.2206 389.0852)" class="st2 st3 st4">?</text>
<circle class="st5" cx="567.4" cy="295" r="23.4"/>
<g class="st6">
	<path class="st7" d="M532,339h-0.7v-10.1h5.6v0.7H532v4.3h4.6v0.7H532V339z"/>
	<path class="st7" d="M538.9,331.4v4.9c0,0.8,0.2,1.3,0.5,1.7s0.8,0.5,1.5,0.5c0.9,0,1.6-0.2,2-0.7c0.4-0.5,0.6-1.2,0.6-2.2v-4.2
		h0.7v7.5h-0.6l-0.1-1h0c-0.5,0.8-1.4,1.2-2.6,1.2c-1.7,0-2.6-0.9-2.6-2.8v-4.9H538.9z"/>
	<path class="st7" d="M551.4,337c0,0.7-0.3,1.2-0.8,1.6s-1.2,0.5-2.2,0.5c-1,0-1.8-0.2-2.4-0.5v-0.7c0.8,0.4,1.6,0.6,2.4,0.6
		c0.7,0,1.3-0.1,1.7-0.4c0.4-0.2,0.6-0.6,0.6-1c0-0.4-0.2-0.7-0.5-1c-0.3-0.3-0.8-0.5-1.5-0.8c-0.8-0.3-1.3-0.5-1.6-0.7
		c-0.3-0.2-0.5-0.4-0.7-0.7c-0.2-0.2-0.2-0.5-0.2-0.9c0-0.6,0.2-1,0.7-1.3c0.5-0.3,1.1-0.5,2-0.5c0.8,0,1.6,0.2,2.3,0.5l-0.3,0.6
		c-0.7-0.3-1.4-0.5-2.1-0.5c-0.6,0-1.1,0.1-1.5,0.3c-0.4,0.2-0.5,0.5-0.5,0.8c0,0.4,0.1,0.7,0.4,0.9c0.3,0.2,0.8,0.5,1.6,0.8
		c0.7,0.2,1.2,0.5,1.5,0.7c0.3,0.2,0.5,0.4,0.7,0.7C551.3,336.4,551.4,336.7,551.4,337z"/>
	<path class="st7" d="M556.3,339.1c-1.1,0-2-0.3-2.6-1c-0.6-0.7-0.9-1.6-0.9-2.8c0-1.2,0.3-2.2,0.9-2.9c0.6-0.7,1.4-1.1,2.4-1.1
		c0.9,0,1.6,0.3,2.1,0.9s0.8,1.5,0.8,2.5v0.6h-5.4c0,1,0.3,1.8,0.7,2.4c0.5,0.5,1.2,0.8,2,0.8c0.4,0,0.8,0,1.1-0.1s0.7-0.2,1.2-0.4
		v0.6c-0.4,0.2-0.8,0.3-1.2,0.4S556.8,339.1,556.3,339.1z M556.1,331.9c-0.7,0-1.3,0.2-1.7,0.7c-0.4,0.5-0.7,1.2-0.8,2.1h4.7
		c0-0.9-0.2-1.6-0.6-2.1C557.3,332.1,556.8,331.9,556.1,331.9z"/>
	<path class="st7" d="M563.9,331.3c0.5,0,1,0.1,1.4,0.3c0.4,0.2,0.8,0.5,1.1,1h0c0-0.6,0-1.2,0-1.7v-2.7h0.7V339h-0.5l-0.2-1.2h-0.1
		c-0.6,0.9-1.4,1.3-2.5,1.3c-1,0-1.8-0.3-2.4-1c-0.5-0.6-0.8-1.6-0.8-2.8c0-1.3,0.3-2.3,0.8-3S562.8,331.3,563.9,331.3z
		 M563.9,331.9c-0.8,0-1.4,0.3-1.9,0.9c-0.4,0.6-0.6,1.4-0.6,2.5c0,2.1,0.8,3.2,2.5,3.2c0.9,0,1.5-0.2,1.9-0.7
		c0.4-0.5,0.6-1.3,0.6-2.5v-0.1c0-1.2-0.2-2-0.6-2.5C565.4,332.2,564.7,331.9,563.9,331.9z"/>
	<path class="st7" d="M576.1,339h-0.7v-9.5h-3.3v-0.7h7.3v0.7h-3.3V339z"/>
	<path class="st7" d="M583.7,331.3c0.3,0,0.7,0,1,0.1l-0.1,0.7c-0.3-0.1-0.6-0.1-1-0.1c-0.6,0-1.2,0.3-1.6,0.8s-0.6,1.2-0.6,2.1v4.2
		h-0.7v-7.5h0.6l0.1,1.4h0c0.3-0.6,0.6-0.9,1-1.2S583.2,331.3,583.7,331.3z"/>
	<path class="st7" d="M590.8,339l-0.2-1.2h-0.1c-0.4,0.5-0.8,0.8-1.2,1s-0.9,0.3-1.4,0.3c-0.7,0-1.3-0.2-1.7-0.6
		c-0.4-0.4-0.6-0.9-0.6-1.6c0-0.7,0.3-1.3,0.9-1.7s1.5-0.6,2.7-0.6l1.4,0v-0.5c0-0.7-0.1-1.3-0.4-1.6c-0.3-0.4-0.8-0.5-1.4-0.5
		c-0.7,0-1.4,0.2-2.2,0.6l-0.3-0.6c0.8-0.4,1.6-0.6,2.5-0.6c0.8,0,1.4,0.2,1.9,0.6c0.4,0.4,0.6,1.1,0.6,2v5H590.8z M588,338.5
		c0.8,0,1.4-0.2,1.9-0.7c0.5-0.5,0.7-1.1,0.7-1.9v-0.7l-1.3,0.1c-1.1,0.1-1.8,0.2-2.3,0.5c-0.5,0.3-0.7,0.7-0.7,1.3
		c0,0.5,0.1,0.8,0.4,1.1C587.1,338.4,587.5,338.5,588,338.5z"/>
	<path class="st7" d="M596.8,339.1c-1.1,0-1.9-0.3-2.5-1c-0.6-0.7-0.9-1.6-0.9-2.8c0-1.2,0.3-2.2,1-2.9c0.6-0.7,1.5-1,2.6-1
		c0.7,0,1.3,0.1,1.9,0.3l-0.2,0.6c-0.7-0.2-1.2-0.3-1.7-0.3c-0.9,0-1.6,0.3-2.1,0.9s-0.7,1.4-0.7,2.5c0,1,0.2,1.8,0.7,2.4
		s1.1,0.9,2,0.9c0.7,0,1.3-0.1,1.9-0.4v0.6C598.2,339,597.6,339.1,596.8,339.1z"/>
	<path class="st7" d="M601.2,335.7l3.9-4.2h0.8l-3,3.2l3.2,4.3h-0.8l-2.9-3.8l-1.2,1.1v2.7h-0.7v-10.8h0.7v5.4L601.2,335.7
		L601.2,335.7z"/>
</g>
<circle class="st8" cx="567.4" cy="295" r="132.8"/>
<path id="SVGID_x5F_1_x5F_" class="st9" d="M683.6,370.4C641.5,435,555,453.1,490.4,410.9c-64.6-42.1-82.7-128.7-40.5-193.2
	s128.7-82.7,193.2-40.5S725.8,305.9,683.6,370.4z"/>
<text transform="matrix(1 0 0 1 98.0502 -52.1102)" class="st10 st11"> </text>
<g>
	<g>
		<polyline class="st12" points="374.6,38.9 389.4,-27.5 404.3,38.9 		"/>
		<line class="st12" x1="401.2" y1="25.2" x2="377.7" y2="25.2"/>
		<line class="st12" x1="380.6" y1="11.9" x2="398.3" y2="11.9"/>
		<line class="st12" x1="395.9" y1="1.5" x2="382.9" y2="1.5"/>
		<line class="st12" x1="393.8" y1="-8.6" x2="385" y2="-8.6"/>
		<line class="st12" x1="395.9" y1="11.9" x2="379.3" y2="25.2"/>
		<line class="st12" x1="382.4" y1="11.9" x2="399.1" y2="25.2"/>
		<line class="st12" x1="381.6" y1="11.7" x2="394.6" y2="1.5"/>
		<line class="st12" x1="396.9" y1="11.7" x2="384.1" y2="1.5"/>
		<line class="st12" x1="393.2" y1="-8.6" x2="384.1" y2="1.1"/>
		<line class="st12" x1="385.6" y1="-7.8" x2="394.8" y2="1.1"/>
		<line class="st12" x1="391.6" y1="-16.9" x2="386.7" y2="-16.9"/>
		<line class="st12" x1="386.4" y1="-8.6" x2="391.6" y2="-16.9"/>
		<line class="st12" x1="393.1" y1="-7.8" x2="387.2" y2="-16.9"/>
		<circle class="st2" cx="389.4" cy="-26.6" r="2.8"/>
	</g>
	<path class="st13" d="M376.7-44.9c-13.5,7.5-13.4,27.2,1.1,35.9"/>
	<path class="st13" d="M382.3-37.4c-7.7,5.8-7.7,15,0.4,20.5"/>
	<path class="st13" d="M401.6-45.1c13.5,7.5,13.4,27.2-1.1,35.9"/>
	<path class="st13" d="M396-37.6c7.7,5.8,7.7,15-0.4,20.5"/>
</g>
<g>
	<path class="st14" d="M274.1,12.7V7.4c0,0,41.1-2.8,65.6-23.8l2.2,8.8c0,0-13.4,19-17.9,21.2l-24.8,6.2
		C299.3,19.9,277.9,18.2,274.1,12.7z M299.2,15.7l23.7-7.1c4.4-2.1,16.8-18.2,16.8-18.2l-0.5-4C314.8,6.2,274.7,8.2,274.7,8.2v2.9
		C278.4,16.4,299.2,15.7,299.2,15.7z"/>
	<g>
		<polyline class="st15" points="320.3,9.7 297.9,-11.4 302,15.4 		"/>
		<line class="st15" x1="301" y1="9.6" x2="314.8" y2="4.5"/>
		<line class="st15" x1="300.4" y1="4.5" x2="311" y2="1"/>
		<line class="st15" x1="299.8" y1="0.3" x2="307.9" y2="-2.7"/>
		<line class="st15" x1="299.2" y1="-3.5" x2="303.8" y2="-5.1"/>
		<polyline class="st15" points="311,12.9 297.9,-11.4 296.6,-13.9 296.6,-19.3 		"/>
	</g>
	<path class="st16" d="M301.8,21.1c0,0,13.7-4,21.6-4.8l4.6,21.1h-27L301.8,21.1z M320.1,21.1c0,0,1,7.2,2.4,9.8
		c0.4,0.8,3.2,4.4,3.2,4.4L322,19.6l-2,0.7"/>
	<path class="st17" d="M311.2-29.4c-11.4-10.5-30.1-4.1-33.7,12.5"/>
	<path class="st17" d="M306-21.8c-7.9-5.5-16.7-2.5-19.3,6.9"/>
</g>
<g class="st6">
	<path class="st2" d="M383.3,53.1h-3.8l-1.2,2.8h-1.7l4.7-10.8h0.1l4.8,10.8h-1.7L383.3,53.1z M380.1,51.8h2.7l-1.3-3.2L380.1,51.8z
		"/>
	<path class="st2" d="M389.8,55.9h-1.6V45.3h1.6V55.9z"/>
	<path class="st2" d="M399.8,53.2c0,1.6-1.6,2.9-3.8,2.9c-1.6,0-2.7-0.3-3.9-0.9l0.6-1.2c0.9,0.5,2,0.8,3.2,0.8
		c1.2,0,2.3-0.6,2.3-1.5c0-2.9-5.9-1.3-5.9-5.1c0-1.8,1.4-2.9,3.3-2.9c0.6,0,2.1,0.1,3.7,0.9l-0.6,1.3c-0.7-0.3-2-0.7-2.7-0.7
		c-1.1,0-2,0.2-2.1,1.4C393.9,50.4,399.8,49,399.8,53.2z"/>
</g>
<g class="st6">
	<path class="st2" d="M290.5,55.1H289V44.4h3.9c2.8,0,3.7,2,3.7,3.3c0,1.6-1.1,2.7-2.4,3.2l1.9,4.1h-1.7l-1.9-4h-2.1V55.1z
		 M295,47.7c0-0.7-0.4-2-2.1-2h-2.5v4h2.5C294.7,49.7,295,48.4,295,47.7z"/>
	<path class="st2" d="M304.7,52.2h-3.8l-1.2,2.8H298l4.7-10.8h0.1l4.8,10.8h-1.7L304.7,52.2z M301.4,50.9h2.7l-1.3-3.2L301.4,50.9z"
		/>
	<path class="st2" d="M309.5,55.1V44.4h3.7c4.1,0,5.3,3.1,5.3,5.3c0,2.3-1.2,5.3-5.3,5.3H309.5z M313.2,53.7c3.2,0,3.7-3,3.7-4
		c0-1-0.5-4-3.7-4h-2.1v7.9H313.2z"/>
	<path class="st2" d="M326,52.2h-3.8l-1.2,2.8h-1.7l4.7-10.8h0.1l4.8,10.8h-1.7L326,52.2z M322.7,50.9h2.7l-1.3-3.2L322.7,50.9z"/>
	<path class="st2" d="M332.4,55.1h-1.5V44.4h3.9c2.8,0,3.7,2,3.7,3.3c0,1.6-1.1,2.7-2.4,3.2l1.9,4.1h-1.7l-1.9-4h-2.1V55.1z
		 M336.9,47.7c0-0.7-0.4-2-2.1-2h-2.5v4h2.5C336.5,49.7,336.9,48.4,336.9,47.7z"/>
</g>
<g>
	<path class="st18" d="M438.5-4.5l8.3-7.9l9.4,9.8c0,0,1.6,5,1.9,6.4l-3.8,3.6c0,0-2.9-0.5-6.5-2L438.5-4.5z"/>
	<path class="st18" d="M484.5,27.1l-8.2,7.9l-9.4-9.8c0,0-1.6-5-1.9-6.4l3.8-3.6c0,0,2.9,0.5,6.5,2L484.5,27.1z"/>
	<path d="M454.1,11.7c0,0,5.5,1,6.5,6.8L471,9.2c0,0,1-1-0.5-3.5c-0.8-1.4-3.4-3.6-3.4-3.6s-2.2-1.5-3.6-0.7L454.1,11.7z"/>
	<path d="M456.6,15.7c-2.2-2.3-5.8-2.4-8.1-0.3l8.1,8.4C458.7,21.6,458.7,18,456.6,15.7z"/>
	<path class="st19" d="M441.3,12.9c-3.7,10.2,5.4,20.4,17,18.5"/>
	<path class="st19" d="M436.6,24.4c0.9,6.9,6,10.8,11.4,11.3"/>
</g>
<line class="st20" x1="614.2" y1="116.2" x2="614.2" y2="82"/>
<g class="st6">
	<path class="st2" d="M451.3,51.2v-1.4h3.8v3.8c-0.9,0.9-2.1,1.5-3.8,1.5c-4.1,0-5.3-3.2-5.3-5.5c0-2.2,1.2-5.5,5.3-5.5
		c1.8,0,2.8,0.5,3.7,1.5l-1,1c-0.5-0.6-1.6-1.1-2.7-1.1c-3.2,0-3.7,3.1-3.7,4.1c0,1,0.5,4.1,3.7,4.1c0.9,0,1.7-0.2,2.3-0.7v-1.8
		H451.3z"/>
	<path class="st2" d="M459.1,55.1h-1.6V44.4h4c2.8,0,3.7,2,3.7,3.3c0,2-1.8,3.4-3.5,3.4h-2.6V55.1z M463.7,47.7c0-0.7-0.4-2-2.1-2
		h-2.5v4h2.5C463.3,49.7,463.7,48.4,463.7,47.7z"/>
	<path class="st2" d="M474.7,52.3c0,1.6-1.6,2.9-3.8,2.9c-1.6,0-2.7-0.3-3.9-0.9l0.6-1.2c0.9,0.5,2,0.8,3.2,0.8
		c1.2,0,2.3-0.6,2.3-1.5c0-2.9-5.9-1.3-5.9-5.1c0-1.8,1.4-2.9,3.3-2.9c0.6,0,2.1,0.1,3.7,0.9l-0.6,1.3c-0.7-0.3-2-0.7-2.7-0.7
		c-1.1,0-2,0.2-2.1,1.4C468.7,49.5,474.7,48.1,474.7,52.3z"/>
</g>
<g class="st6">
	<path class="st2" d="M518.6,53.7h4.1v1.4H517V44.4h1.6V53.7z"/>
	<path class="st2" d="M526.6,55.1h-1.5V44.4h3.9c2.8,0,3.7,2,3.7,3.3c0,1.6-1.1,2.7-2.4,3.2l1.9,4.1h-1.7l-1.9-4h-2.1V55.1z
		 M531.2,47.7c0-0.7-0.4-2-2.1-2h-2.5v4h2.5C530.8,49.7,531.2,48.4,531.2,47.7z"/>
	<path class="st2" d="M536.7,55.1h-1.6V44.4h1.6V55.1z"/>
	<path class="st2" d="M542,45.8h-3.1v-1.4h7.8v1.4h-3.1v9.3H542V45.8z"/>
</g>
<g class="st6">
	<path class="st2" d="M568.6,51.4v3.2h5.5v1.4h-7V45.3h7v1.4h-5.5V50h4.3v1.4H568.6z"/>
	<path class="st2" d="M578.1,54.6h4.1v1.4h-5.6V45.3h1.6V54.6z"/>
	<path class="st2" d="M586.2,51.4v3.2h5.5v1.4h-7V45.3h7v1.4h-5.5V50h4.3v1.4H586.2z"/>
	<path class="st2" d="M601.6,47.8c-0.6-0.7-1.7-1.3-2.9-1.3c-3.2,0-3.7,3.1-3.7,4.1c0,1,0.5,4.1,3.7,4.1c1.2,0,2.3-0.7,3-1.3
		l0.9,1.1c-1,1-2.2,1.6-3.9,1.6c-4.1,0-5.3-3.2-5.3-5.5c0-2.2,1.2-5.5,5.3-5.5c1.8,0,3,0.7,3.9,1.7L601.6,47.8z"/>
	<path class="st2" d="M607.3,46.7h-3.1v-1.4h7.8v1.4h-3.1v9.3h-1.6V46.7z"/>
	<path class="st2" d="M615.8,55.9h-1.5V45.3h3.9c2.8,0,3.7,2,3.7,3.3c0,1.6-1.1,2.7-2.4,3.2l1.9,4.1h-1.7l-1.9-4h-2.1V55.9z
		 M620.3,48.6c0-0.7-0.4-2-2.1-2h-2.5v4h2.5C620,50.6,620.3,49.2,620.3,48.6z"/>
	<path class="st2" d="M634.3,50.6c0,2.3-1.2,5.5-5.3,5.5c-4.1,0-5.3-3.2-5.3-5.5c0-2.2,1.2-5.5,5.3-5.5
		C633,45.1,634.3,48.4,634.3,50.6z M632.7,50.6c0-1-0.5-4.1-3.7-4.1c-3.2,0-3.7,3.1-3.7,4.1c0,1,0.5,4.1,3.7,4.1
		C632.2,54.7,632.7,51.6,632.7,50.6z"/>
	<path class="st2" d="M643.8,45.3h1.6V56l-0.1,0.1l-6.9-7.2h0v7.1h-1.6V45.2l0.1-0.1l6.9,7.2V45.3z"/>
	<path class="st2" d="M649.9,55.9h-1.6V45.3h1.6V55.9z"/>
	<path class="st2" d="M660.6,47.8c-0.6-0.7-1.7-1.3-2.9-1.3c-3.2,0-3.7,3.1-3.7,4.1c0,1,0.5,4.1,3.7,4.1c1.2,0,2.3-0.7,3-1.3
		l0.9,1.1c-1,1-2.2,1.6-3.9,1.6c-4.1,0-5.3-3.2-5.3-5.5c0-2.2,1.2-5.5,5.3-5.5c1.8,0,3,0.7,3.9,1.7L660.6,47.8z"/>
</g>
<text transform="matrix(1 0 0 1 575.6122 74.2248)" class="st2 st3 st21">WARFARE</text>
<text transform="matrix(1 0 0 1 689.3447 56.4372)" class="st2 st3 st21">AIR </text>
<g class="st6">
	<path class="st2" d="M681,74.7h-1.5V64.1h3.9c2.8,0,3.7,2,3.7,3.3c0,1.6-1.1,2.7-2.4,3.2l1.9,4.1H685l-1.9-4H681V74.7z M685.6,67.4
		c0-0.7-0.4-2-2.1-2H681v4h2.5C685.2,69.3,685.6,68,685.6,67.4z"/>
	<path class="st2" d="M695.2,71.9h-3.8l-1.2,2.8h-1.7l4.7-10.8h0.1l4.8,10.8h-1.7L695.2,71.9z M692,70.5h2.7l-1.3-3.2L692,70.5z"/>
	<path class="st2" d="M700.1,74.7V64.1h3.7c4.1,0,5.3,3.1,5.3,5.3c0,2.3-1.2,5.3-5.3,5.3H700.1z M703.8,73.3c3.2,0,3.7-3,3.7-4
		c0-1-0.5-4-3.7-4h-2.1v7.9H703.8z"/>
	<path class="st2" d="M716.5,71.9h-3.8l-1.2,2.8h-1.7l4.7-10.8h0.1l4.8,10.8h-1.7L716.5,71.9z M713.2,70.5h2.7l-1.3-3.2L713.2,70.5z
		"/>
	<path class="st2" d="M722.9,74.7h-1.5V64.1h3.9c2.8,0,3.7,2,3.7,3.3c0,1.6-1.1,2.7-2.4,3.2l1.9,4.1h-1.7l-1.9-4h-2.1V74.7z
		 M727.5,67.4c0-0.7-0.4-2-2.1-2h-2.5v4h2.5C727.1,69.3,727.5,68,727.5,67.4z"/>
</g>
<text transform="matrix(1 0 0 1 754.329 56.4372)" class="st2 st3 st21">UNDER-</text>
<g class="st6">
	<path class="st2" d="M769,64.1h1.7L766,74.8h-0.2l-3.1-7.1l-3.1,7.1h-0.2l-4.7-10.8h1.7l3.1,7.3l3.1-7.4h0.1l3.1,7.4L769,64.1z"/>
	<path class="st2" d="M776,71.9h-3.8l-1.2,2.8h-1.7l4.7-10.8h0.1l4.8,10.8h-1.7L776,71.9z M772.8,70.5h2.7l-1.3-3.2L772.8,70.5z"/>
	<path class="st2" d="M781.6,65.4h-3.1v-1.4h7.8v1.4h-3.1v9.3h-1.6V65.4z"/>
	<path class="st2" d="M790.1,70.1v3.2h5.5v1.4h-7V64.1h7v1.4h-5.5v3.3h4.3v1.4H790.1z"/>
	<path class="st2" d="M799.5,74.7H798V64.1h3.9c2.8,0,3.7,2,3.7,3.3c0,1.6-1.1,2.7-2.4,3.2l1.9,4.1h-1.7l-1.9-4h-2.1V74.7z
		 M804.1,67.4c0-0.7-0.4-2-2.1-2h-2.5v4h2.5C803.7,69.3,804.1,68,804.1,67.4z"/>
</g>
<line class="st20" x1="459.7" y1="116.2" x2="459.7" y2="82"/>
<line class="st20" x1="532.7" y1="116.2" x2="532.7" y2="82"/>
<line class="st20" x1="572.7" y1="137.5" x2="572.7" y2="113.7"/>
<line class="st20" x1="783.9" y1="115.2" x2="783.9" y2="81"/>
<line class="st20" x1="862.2" y1="116.1" x2="862.2" y2="81.9"/>
<line class="st20" x1="965.7" y1="116" x2="965.7" y2="81.9"/>
<line class="st20" x1="968" y1="113.9" x2="154.9" y2="113.5"/>
<line class="st20" x1="705.8" y1="115.2" x2="705.8" y2="81"/>
<g>
	<g>
		<path class="st22" d="M637.3,15.8l-4.3-0.6l-2.3-1.4l-1.1-1.4l-2.5-1.1l-0.1-0.8l-0.8-0.4l0,0l-1.7-0.5L624,8.7l0.5,0.9l-0.5,0.5
			c0,0,0.4,0,0-0.4s-0.5-1.3-0.5-1.3H623v0.8l-0.8-0.3V8.4h-0.7V9c0,0,0.7,0.4,0,0.4s-0.7,0-0.7,0L619.4,9l-0.8-0.5v0.8l-0.7,0.5
			l-0.1-1.2l-0.4-1c0,0,0.2-0.6,0.5-0.7s0.7,0.6,0.7,0s0-1.2,0-1.2l-0.7-0.4h-0.5c0,0-0.1,0.2,0,0.4c0.1,0.3,0.1-0.2,0.1,0.3
			c0,0.4-1,1.1-1,1.1s-0.5,0.3,0,0.7c0.5,0.3-0.2,0.9-0.2,0.9l-2.3,1.6l-1.8-0.6c0,0,1.6-1.2,2.2-1.4c0.5-0.3-0.9-0.1-0.9-0.1
			l-0.1-0.8l0,0l-0.9,0.4l-0.6,0.5h-1.1l0.5-0.5h-1.8l-1.1-0.9V6.5l-1.2-1.2l-2.5-0.8c0,0-0.3,0.3,0,0.5c0.3,0.3,0.3,0.3,0.3,0.3
			l-1.8,0.3V4.5l-2.8-1l-4.7-0.2L592,3.1v-6h45.9V16h-0.6L637.3,15.8L637.3,15.8z"/>
	</g>
	
		<rect x="591.8" y="20.9" transform="matrix(0.9698 -0.2438 0.2438 0.9698 13.1132 149.218)" class="st23" width="35.2" height="1.4"/>
	<polygon class="st23" points="605.3,34.8 627.6,17 626.6,15.8 604.4,33.7 	"/>
	<rect x="592.7" y="25" transform="matrix(0.8992 -0.4375 0.4375 0.8992 50.2204 269.3571)" class="st23" width="34" height="1.4"/>
	
		<rect x="609.5" y="25.2" transform="matrix(0.6029 -0.7978 0.7978 0.6029 225.4648 504.8428)" class="st23" width="20.8" height="1.4"/>
	
		<rect x="615.3" y="25.2" transform="matrix(0.244 -0.9698 0.9698 0.244 446.6004 624.6059)" class="st23" width="17.3" height="1.4"/>
	<path class="st16" d="M622,14.6l1-1.1l7.3,7l-1,1.1L622,14.6z M630.2,14.3l-1.1-1l-3,3.2l1.1,1L630.2,14.3z M626.1,18.5l-1.1-1
		l-3.1,3.2l1.1,1L626.1,18.5z"/>
	<rect x="592.5" y="-2.8" class="st24" width="44.4" height="37.3"/>
</g>
<g>
	<g>
		<polygon class="st25" points="546.2,17.6 555.3,2.4 530,-2.5 		"/>
		<line class="st26" x1="539.7" y1="3.4" x2="517.2" y2="-10.1"/>
	</g>
</g>
<g>
	<path class="st14" d="M672.5,21.6l-2-19.5c0,0,40.1-2.8,64.6-23.8l2.2,27.1c0,0-12.4,5.8-16.9,8l-24.8,6.2
		C695.6,19.7,678.4,23.5,672.5,21.6z M695.6,15.4l23.7-7.1c4.4-2.1,15.7-7,15.7-7l-1.5-20.2C709.1,0.9,671,2.9,671,2.9l2,16.1
		C677.4,20.7,695.6,15.4,695.6,15.4z"/>
	<g>
		<polygon class="st27" points="718.7,12.6 691.6,3.3 687.3,-0.4 688.4,6.9 696.3,18.2 		"/>
		<polyline class="st15" points="687.3,0.6 687,-2 687,-7.3 		"/>
		<path class="st15" d="M707.5,12.7"/>
	</g>
	<path class="st16" d="M698.1,20.9c0,0,13.7-4,21.5-4.8l4.6,21.1h-27L698.1,20.9z M716.4,20.9c0,0,1,7.2,2.4,9.8
		c0.4,0.8,3.2,4.4,3.2,4.4l-3.7-15.7l-2,0.7"/>
	<path class="st26" d="M671.4,6.9l14.5-2.1c0,0,31.8-8.9,32-10.1l17-9.7"/>
	<path class="st26" d="M671.4,11.9l14.5-2.1c0,0,31.8-8.9,32-10.1l17-8.7"/>
	<path class="st26" d="M672.4,17l13.5-2.1c0,0,31.8-8.9,32-10.1l17-7.7"/>
	<line class="st26" x1="717.1" y1="-9.2" x2="719.4" y2="11.8"/>
	<line class="st26" x1="722.2" y1="-12.2" x2="724.4" y2="8.8"/>
	<line class="st26" x1="730.3" y1="-17.3" x2="732.6" y2="3.7"/>
	<line class="st26" x1="726.3" y1="-14.2" x2="728.5" y2="6.8"/>
	<line class="st26" x1="711" y1="-7.1" x2="713.3" y2="13.9"/>
	<line class="st26" x1="704.9" y1="-5.1" x2="707.2" y2="15.9"/>
	<line class="st26" x1="698.8" y1="-3.1" x2="701.1" y2="17.9"/>
	<line class="st26" x1="692.8" y1="-1" x2="695" y2="19"/>
	<line class="st26" x1="685.6" y1="0" x2="687.9" y2="21"/>
	<line class="st26" x1="681.6" y1="1" x2="683.8" y2="21"/>
	<line class="st26" x1="677.5" y1="2" x2="679.8" y2="22"/>
	<line class="st26" x1="673.5" y1="2" x2="675.7" y2="22"/>
</g>
<g>
	<path class="st28" d="M515.4,4.3L522-2l7.5,7.8c0,0,1.3,4,1.5,5.1l-2.9,2.8c0,0-2.3-0.4-5.2-1.6L515.4,4.3z"/>
	<path class="st28" d="M551.9,29.4l-6.6,6.3l-7.5-7.8c0,0-1.3-4-1.5-5.1l2.9-2.8c0,0,2.3,0.4,5.2,1.6L551.9,29.4z"/>
	<path d="M528.9,21.3c-1.7-1.8-4.6-1.9-6.5-0.3l6.4,6.7C530.6,26,530.6,23.1,528.9,21.3z"/>
	<path class="st29" d="M516.8,19c-2.9,8,4.3,16.2,13.5,14.6"/>
	<path class="st29" d="M513,28.2c0.7,5.5,4.8,8.5,9,8.9"/>
	<circle cx="533.4" cy="17.2" r="4.1"/>
</g>
<g>
	<path class="st30" d="M756.5,3.5c0,0,3.6,2.9,7.5-2.3c0,0,4.7,6.7,9.3,0c0,0,4.4,6.2,9,0c0,0,3.4,5.7,7.1,1.1l0.7,1.8
		c0,0-4,4-7.8-0.3c0,0-4.2,4.6-8.7,0c0,0-4.2,4.8-9.4,0c0,0-4,3.4-7.6,1.8L756.5,3.5z"/>
	<path class="st30" d="M808.5,1.2c0,0-4.7,6.7-9.3,0c0,0-4.4,6.2-9,0c0,0-3.5,6-7.2,1.5l-0.4,1.1c0,0,3.4,4.2,7.7,0.5
		c0,0,4.5,4.1,8.7-0.4c0,0,4.2,4.8,9.4,0C808.5,3.9,812.5,6.5,808.5,1.2z"/>
</g>
<path class="st31" d="M793.2,28.5c0,2.3-4.4,4.2-9.7,4.2s-9.7-1.8-9.7-4.2c0-0.4,0.1-2.3,0.4-2.7c1.2-1.7,4.9-2.9,9.3-2.9
	c3.6,0,6.6,0.8,8.3,2C792.7,25.5,793.2,27.7,793.2,28.5z M775.2,26.8v3.6c0,0,7.4,3,10,0.8v-3C785.2,28.1,777.1,28.7,775.2,26.8z"/>
<path class="st14" d="M780.2,24.2c0,0,1.8-4.2,1.8-5.5s0-10.4,0-10.4h6v1.4h-4l0.1,3.8h2.8v1.6h-2.8v3.7c0,0,0.3,1.9,2.3,4
	C788.5,24.7,784.6,28.9,780.2,24.2z"/>
<g>
	<g>
		<path class="st16" d="M892.5,24.2c0,3.4-2.7,6.1-6.1,6.1h-28.8c-3.4,0-6.1-2.7-6.1-6.1V-4.6c0-3.4,2.7-6.1,6.1-6.1h28.8
			c3.4,0,6.1,2.7,6.1,6.1V24.2z M887.6-1.4c0-2.5-2.1-4.7-4.7-4.7h-22.1c-2.5,0-4.7,2.1-4.7,4.7v22.1c0,2.5,2.1,4.7,4.7,4.7h22.1
			c2.5,0,4.7-2.1,4.7-4.7V-1.4z"/>
		<polygon class="st16" points="857.6,-9.1 861.4,-15.5 867.3,-15.5 864.3,-9.1 		"/>
		<polygon class="st16" points="867.8,-9.1 871.6,-15.5 877.5,-15.5 874.5,-9.1 		"/>
		<polygon class="st16" points="878.1,-9.1 881.8,-15.5 887.7,-15.5 884.7,-9.1 		"/>
		<polygon class="st16" points="897,26.6 890.6,22.8 890.6,16.9 897,19.9 		"/>
		<polygon class="st16" points="897,16.3 890.6,12.6 890.6,6.7 897,9.6 		"/>
		<polygon class="st16" points="897,6.2 890.6,2.3 890.6,-3.6 897,-0.5 		"/>
		<polygon class="st16" points="853.3,24.5 846.9,20.7 846.9,14.8 853.3,17.8 		"/>
		<polygon class="st16" points="853.3,14.3 846.9,10.5 846.9,4.6 853.3,7.6 		"/>
		<polygon class="st16" points="853.3,4 846.9,0.3 846.9,-5.6 853.3,-2.6 		"/>
		<polygon class="st16" points="887,28.8 883.1,35.2 877.4,35.2 880.3,28.8 		"/>
		<polygon class="st16" points="876.8,28.8 873,35.2 867.1,35.2 870,28.8 		"/>
		<polygon class="st16" points="866.5,28.8 862.7,35.2 856.8,35.2 859.9,28.8 		"/>
	</g>
	<g>
		<path d="M883.9-2.8c-2.8-2.6-6.6-3.2-8.3-1.3l-3.4,3.6c1,0.2,2,0.5,3,0.9l1.4-1.5c1-1.1,3.2-0.7,4.9,0.8s2.2,3.7,1.2,4.8l-7.5,8.2
			c-1,1.1-3.2,0.7-4.9-0.8c-0.3-0.3-0.9-0.9-1.3-1.4l-2,2.2c0.4,0.4,1,1,1.4,1.3c2.8,2.6,6.6,3.2,8.3,1.3l9.1-10
			C887.6,3.5,886.7-0.2,883.9-2.8z"/>
		<path d="M868.3,20.1c-1,1.1-3.2,0.8-4.9-0.8c-1.7-1.5-2.2-3.7-1.2-4.8l7.5-8.1c1-1.1,3.2-0.7,4.9,0.8c0.5,0.4,0.8,0.9,1.1,1.4
			l2.3-2.5c-0.4-0.5-0.8-0.9-1.2-1.3c-2.8-2.6-6.6-3.2-8.3-1.3l-9.1,10c-1.7,1.9-0.8,5.6,2,8.2s6.6,3.2,8.3,1.3l3.6-3.9
			c-1-0.2-2-0.6-3-1L868.3,20.1z"/>
	</g>
</g>
<g>
	<circle class="st2" cx="967.9" cy="10" r="25.1"/>
	<path class="st32" d="M960.3-13.8v0.8v0.9h0.8l-0.8,0.6v0.5v0.8h0.8v-0.4l0.5,0.4L961-9.8c0,0,0.4,0.3,0,0.8
		c-0.4,0.4-0.4,0.4-0.4,0.4l0.4,1.1v0.8v0.4V-5l1.2,1.3c0,0,0,0.5,0.7,0.1c0,0,0.1,0,0.1-0.1l0.6,1c0,0,0.1,0,0.5-1.2V-5
		c0,0,0.5-0.1,0.8-1v-0.6l0.5-0.9c0,0,0.3,1.2,1.9-1.6c0,0,2.3,0.1,3.1-1.8c0,0-0.1-0.4-1.1-0.5c0,0-0.1,0,0.3-0.9l0.8,0.4l0.5,0.3
		v-1l-1.1-1l1.1-0.1l-0.6-0.4l-0.2-0.8C970.3-15.1,965.3-15.5,960.3-13.8z"/>
	<path class="st32" d="M981.4,31c-0.2,0.1-0.1-1.4-0.1-1.4V29c0,0,0.4-0.4-0.8-1.2c0,0,0.8-1.6,0.8-2.2c0-0.5,0-1.5,0-1.5h-0.4
		l-0.4-1c0,0,0.8-1.9-1-1.4c0,0-0.1-0.8-0.5-0.6l-1.6,0.5l-0.9,0.1H976l-0.9,0.3l-0.6-0.3l-0.6-0.7v-0.4c0,0-0.3-0.9-1-0.6v-1v-0.5
		c0,0,0.5-0.8,0-1.8c0,0-0.1-1.3,1.3-2.8c0,0,0.5,0.1,0.9-1.5l0.9-1.1l0.4-0.5l-0.5-0.5h-0.5V9.7v-1V8.1V7.3h1.1h0.7h0.8
		c0,0,0.3-1.1-0.8-2.5h0.6l-0.1-0.9h0.6h0.5l0.2-0.6l0.6-0.6l0.1-0.9h1l-0.1-0.9l0.1-1h0.6v0.4l0.6,0.3v-0.8V-2h-0.5L981-1.5
		c0,0-1,1.3-1.4-2.5l1.1-1.2h0.4l0.9-1v-0.9v-1.1l0.6-0.6H982c0,0,0.6-1.4,0.8-1.2C1000.6,2.9,992.3,25.8,981.4,31z M976.3,10.5
		c0,0,0.5,0.8,2.5-0.2c0,0,1.1-0.6,2.1-0.5h0.6v1v0.8h1.6v0.5h1.1v-0.5c0,0,0.2-1.1,0.6-0.6c0.4,0.5,1.9,1.1,1.9,1.1h0.9h0.8V11
		l0.4-0.6V9.8h-0.5l-0.4,0.5l-0.1-0.5h-0.6l-0.8-0.6l-0.2-0.5L986,8.1h-0.6V9l-0.1,0.6l0.6,0.5h-1l-0.4-1L984.3,8
		c0,0-0.6-0.9-1.7-2.2c0,0-1,0.8,1.5,2.9c0.2,0.1-0.6-0.3-0.6-0.3l0.2,0.5c0,0-0.3,1.1-1.1,1c-0.2,0-0.4-0.6-0.4-0.6l0.7-0.2
		l0.2-0.6l-0.5-0.6c0,0-1.5-1.1-1.4-1.5l-0.1,0.4L980.2,7l-0.6-0.3l-0.4,1l-0.4,0.6l-0.5,0.5v0.5l-0.4,0.3L976.3,10.5z M982.7,1.1
		h0.5h0.9h0.4l0.5-0.8l0.2-0.8l0.8-0.4l-1-0.3l0.4-0.3l0.4-0.3h0.5l0.9-0.2v-0.5h-0.4h-0.5h-0.8H985l-0.4-0.1v-1.1l0.8-1.4
		c0.6-2.3-1-0.6-1-0.6L984-4.2v0.8v0.5v1l-0.6,1.2v1.1h-0.5L982,1.3h0.7L982.7,1.1L982.7,1.1z M988,7.4h0.6h0.3h0.6h0.5v-1l-1.2-0.5
		h-0.9c0-1-0.4,0-0.4,0H987v0.8v0.8C987.1,8.9,988,7.4,988,7.4z M988.1,13l0.5,1.4c0,0,0,0.6,0,1.1c0,0.4,0.3,1,0.3,1
		s0.6,0.6,1.2,0.6l-0.5-1.4v-0.6l-0.5-0.6V14l0,0L988.1,13L988.1,13z"/>
	<path class="st32" d="M971.2-7.9"/>
	<path class="st32" d="M970.8-7.9l0.3,0.7c0,0,1.4-0.3,1.6-0.7c0.1-0.1,0.5,0,0.5,0v0.6c0,0,0.8,0.1,0,0.6l-0.5,0.5h-0.4
		c0,0-0.4,1.2-1.2,0.4l-0.3-1.3l-0.6-0.3L970.8-7.9z"/>
	<path class="st32" d="M975,2.9l-0.2-0.4l-0.2-0.2c0,0,0.1-0.2,0.2-0.3c0.1-0.1,0.2-0.3,0.2-0.3s-0.5-0.5-0.2-0.6l0.4-0.3l0.3-0.2
		c0,0,0.7-0.3,0.8,0.4l0.1,0.5l-0.1,0.1L976,1.7l0.3,0.1v0.4c0,0,0,0-0.2,0.2s-0.3,0.3-0.4,0.4c-0.1,0.1-0.2,0.3-0.2,0.3
		S975.1,3.1,975,2.9z"/>
	<path class="st32" d="M975.6-1.2L975.6-1.2l0.1-0.2h0.2h0.1v0.1l0.4-0.3h0.3L977-2h0.4c0,0,0.1,0.4,0,0.4s-0.2-0.1-0.3,0
		S977-1.5,977-1.5l0.2,0.3h0.2c0,0,0.4,0.4-0.2,0.9c0,0-0.5,0.3,0.4,0.4l0.1,0.2v0.4V1h0.2c0,0,0.4,0.2,0.3,0.6v0.2h0.4
		c0,0,0.1,0.3,0,0.5l-0.1,0.3l-0.1,0.3h-0.5l-0.6,0.3h-0.2l-0.2,0.2h-0.2l-0.4,0.1l0.1-0.3l0.1-0.3l0.3-0.2l0.2-0.3l-0.5-0.1V2.1
		c0,0,0,0,0.1-0.2c0.1-0.1,0.2-0.4,0.2-0.4l0.2-0.4c0,0,0-0.5-0.2-0.7s-0.2-0.2-0.2-0.2h-0.2h-0.1c0,0,0.1-0.3,0-0.4
		s-0.1-0.3-0.1-0.3v-0.2V-1l-0.3-0.3L975.6-1.2z"/>
	<path class="st32" d="M955.1-11.5l0.1,0.3l1.2,0.6c0,0.6,0,0.6,0,0.6v1.2h0.4l1.1,0.5v1.4l-1.4-0.6c0,0-0.7-0.9-0.4,0.6
		c0,0,2.1,2.6,0.4,2.1V-4l-1.4-0.4l-0.6-0.4l-0.5-1l-0.5,0.4c0,0-1.1-0.5,0-1h1.1c0,0-0.4-0.5,0.3-1.5l-0.1-0.9l-0.4,0.9h-0.6
		l0.1-0.9l0.2-0.5l-0.4-0.9L953-9.5v0.8v0.9l-0.7,0.6l-0.5,0.3v0.4v0.6l0.6,0.8l-0.6,0.2l-0.9,0.1v-0.5V-6c0,0-0.1,0.5-0.6,1.1
		c-0.5,0.5-2.3,2.2-1.6,3.8c0,0,0.4-0.3,0.3,0.9c0,0,1.5,0.1,1.5,0.8c0,0.6,1.1,0.5,1.1,0.5s1,4.2,1,0c0,0,1.7-1.4,0.1-2.4
		c0,0,0.7-0.3,0.6-1.3v-0.9v-0.8l1.3,0.4c0,0,0.8,1.2,0.9,1.3c0.1,0.1,0.2,0.9,0.2,0.9l0.1,0.5c0,0,1.2-0.2,1.1-1.4
		c0,0,1.2,1.5,1.2,2.4l1,1.2l0.6,0.9v0.6c0,0,0,0.1-0.1,0.3c-0.1,0.5-0.1,1.2,0.7,1c0,0,0.8,0.9,0,1.5c0,0,0-0.3-0.4,0
		c0,0,0.6-0.4-1.4-0.8l0.4-1.6c0,0-1.1,1.1-1.8,0.3c-0.8-0.8-1,0.5-1,0.5l0.8,0.2l0.3,1.3h0.5h0.5h0.3l-1.6,1.2h-0.5l0.1-0.5
		L956,6.4h-0.6c0,0,0.2,1.6-0.7,1.6c0,0-1.2,1-0.9,2.5s-0.9,0-0.9,0s-1.2,1.4-0.3,2.3c0,0,0.1,1-0.1,1.4c0,0-0.9-0.7-1.1-2.1
		c0,0-1-0.2-1.3,0s-0.3,0.2-0.3,0.2l-0.4-0.2h-0.7l-0.5,0.8c0,0-0.5,2.2,0.6,2.9c1.2,0.8,0.3,0,0.3,0s0.6,0.8,1-0.9
		c0,0,0.4-0.6,0.5,0.2c0,0,0.2,1,0.2,1.7h0.8c0,0,0.9,2,1.5,2.1c0.5,0.1,1,0.3,0.7,0.4l1.2-0.6l1.2,0.6h0.5h0.6h0.9
		c0,0,1.2,1.3,2.2,1.6c0,0,1.3,0.5,1.7,1.7c0,0,1.7,0.9,2.6,1.2c0,0,0.6-0.1,1,0.6c0,0,2.6,0.5,0,2.1c0,0,0.4,3.7-2.2,3.1
		c0,0-0.2,1.4-0.8,1.8c-0.5,0.4-1.6,1-1.6,0.6c0,0-0.2,0.3-0.8,0.9c0,0-2.7-0.9-3.7-1.5c0,0-0.1-1.8,0-2.6c0,0,0.5-0.8-1.5-2.8
		c0,0-1.2-1.5-2.2-3.1l0.1-1.1l0.6-0.9l-0.1-0.6l-0.4-0.5c0,0-1.1,0-1.8-0.6l-0.1-0.8l-0.5-0.8H950l-1.4-1.2c0,0-2.7-1-2.7-1.4v-0.8
		v-0.8l-1-1.1l-0.8-1.9c0,0-0.5,0.7,0.9,3.4l-1-0.1V13v-0.4l-0.8-0.9l0.1-0.5l-0.4-1.5C943,10,942.1-3.3,955.1-11.5z M949.4,5.5
		l0.2-0.2h0.1l0.2,0.1h0.4l0.6,0.3l-0.5,0.2C949.8,6,950,7.6,950,7.6c0.3,0.6,0.6,0,0.6,0c-0.1-0.4,0-1.4,0-1.4l0.3-0.1
		c0,0,0.5,0,0.4,0.2c-0.1,0.1,0,0.9,0,0.9h0.3l0.1-0.3c0,0,0-0.2,0-0.4c0-0.1,0.4-0.3,0.4-0.3s0,0-0.1-0.1s0-0.2,0-0.2h-0.2
		l-0.4-0.1L951,5.3l-0.2-0.2c0,0,0,0-0.4-0.2s0-0.3,0-0.5s-0.3,0-0.3,0v0.1l-0.4,0.3h-0.2L949,5v0.4C949.2,5.7,949.4,5.5,949.4,5.5z
		"/>
	<path class="st32" d="M951.3,15.2l0.3-0.3h0.3h0.4l0.2,0.3l0.5,0.2l0.5,0.2c0,0,0.1,0.2,0.2,0.3c0.1,0.1,0.1,0.1,0.1,0.1l0.4,0.2
		l0.6,0.3h0.4h0.5v0.3l0.2,0.1l0.5,0.2h0.3l-0.3,0.4l-0.4-0.3l-0.1-0.1c0,0-0.1,0.2-0.3,0.2c-0.1,0-0.1,0-0.3,0s-0.4,0-0.4,0h-0.2
		c0,0-0.3,0.1-0.4,0c-0.1-0.1,0,0.1-0.1-0.1s0.1-0.4,0.1-0.4l0.4-0.2l-1-0.4l-0.2,0.3c0,0-0.1-0.2-0.3-0.3c-0.2-0.1-0.5-0.2-0.5-0.2
		c-0.3-0.2-0.3-0.2-0.3-0.2s-0.4-0.4-0.6-0.4C951.8,15.4,951.1,15.8,951.3,15.2"/>
	
		<radialGradient id="SVGID_1_" cx="953.2883" cy="646.6079" r="12.2543" fx="953.3432" fy="646.5681" gradientTransform="matrix(1.0155 0 0 -1.0155 -6.014 656.8915)" gradientUnits="userSpaceOnUse">
		<stop  offset="0" style="stop-color:#FFFFFF"/>
		<stop  offset="0.9448" style="stop-color:#FFFFFF;stop-opacity:0"/>
	</radialGradient>
	<circle class="st33" cx="962.2" cy="0.3" r="12.5"/>
	
		<radialGradient id="SVGID_2_" cx="958.9417" cy="636.9641" r="24.8127" fx="959.0531" fy="636.8834" gradientTransform="matrix(1.0155 0 0 -1.0155 -6.014 656.8915)" gradientUnits="userSpaceOnUse">
		<stop  offset="0" style="stop-color:#FFFFFF;stop-opacity:0"/>
		<stop  offset="0.1834" style="stop-color:#FCFCFC;stop-opacity:0.1834"/>
		<stop  offset="0.3223" style="stop-color:#F3F2F2;stop-opacity:0.3223"/>
		<stop  offset="0.4467" style="stop-color:#E2E2E2;stop-opacity:0.4467"/>
		<stop  offset="0.5626" style="stop-color:#CCCBCB;stop-opacity:0.5626"/>
		<stop  offset="0.6725" style="stop-color:#AFADAE;stop-opacity:0.6725"/>
		<stop  offset="0.7781" style="stop-color:#8B8989;stop-opacity:0.7781"/>
		<stop  offset="0.8801" style="stop-color:#605E5E;stop-opacity:0.8801"/>
		<stop  offset="0.9768" style="stop-color:#302D2E;stop-opacity:0.9768"/>
		<stop  offset="1" style="stop-color:#232021"/>
	</radialGradient>
	<circle class="st34" cx="968" cy="9.9" r="25.2"/>
</g>
<g>
	<g>
		<path class="st35" d="M988.5,3.2c0,5.1-4.2,9.2-9.2,9.2s-9.2-4.2-9.2-9.2s4.2-9.2,9.2-9.2S988.5-2,988.5,3.2z M979.2-4.7
			c-4.4,0-7.9,3.6-7.9,7.9c0,4.4,3.6,7.9,7.9,7.9c4.4,0,7.9-3.6,7.9-7.9C987.1-1.3,983.6-4.7,979.2-4.7z"/>
		<path class="st36" d="M988.5,3.2c0,5.1-4.2,9.2-9.2,9.2s-9.2-4.2-9.2-9.2s4.2-9.2,9.2-9.2S988.5-2,988.5,3.2z M979.2-4.7
			c-4.4,0-7.9,3.6-7.9,7.9c0,4.4,3.6,7.9,7.9,7.9c4.4,0,7.9-3.6,7.9-7.9C987.1-1.3,983.6-4.7,979.2-4.7z"/>
	</g>
	<g>
		<polygon class="st35" points="978.7,2.6 978.7,-11.5 979.8,-11.5 979.8,2.6 993.9,2.6 993.9,3.7 979.8,3.7 979.8,17.9 978.7,17.9 
			978.7,3.7 964.5,3.7 964.5,2.6 		"/>
		<polygon class="st36" points="978.7,2.6 978.7,-11.5 979.8,-11.5 979.8,2.6 993.9,2.6 993.9,3.7 979.8,3.7 979.8,17.9 978.7,17.9 
			978.7,3.7 964.5,3.7 964.5,2.6 		"/>
	</g>
	<g class="st37">
		<path class="st30" d="M986.5,3.2c0,4.1-3.2,7.4-7.3,7.4s-7.4-3.2-7.4-7.4s3.2-7.4,7.4-7.4C983.2-4.1,986.5-0.8,986.5,3.2z"/>
	</g>
</g>
<text transform="matrix(1 0 0 1 835.249 56.4372)" class="st2 st3 st21">MILITARY</text>
<g class="st6">
	<path class="st2" d="M827.7,74.7V64.1h3.7c4.1,0,5.3,3.1,5.3,5.3c0,2.3-1.2,5.3-5.3,5.3H827.7z M831.4,73.3c3.2,0,3.7-3,3.7-4
		c0-1-0.5-4-3.7-4h-2.1v7.9H831.4z"/>
	<path class="st2" d="M844.2,71.9h-3.8l-1.2,2.8h-1.7l4.7-10.8h0.1l4.8,10.8h-1.7L844.2,71.9z M840.9,70.5h2.7l-1.3-3.2L840.9,70.5z
		"/>
	<path class="st2" d="M849.8,65.4h-3.1v-1.4h7.8v1.4h-3.1v9.3h-1.6V65.4z"/>
	<path class="st2" d="M860.8,71.9h-3.8l-1.2,2.8h-1.7l4.7-10.8h0.1l4.8,10.8H862L860.8,71.9z M857.5,70.5h2.7l-1.3-3.2L857.5,70.5z"
		/>
	<path class="st2" d="M871.8,73.3h4.1v1.4h-5.6V64.1h1.6V73.3z"/>
	<path class="st2" d="M879.9,74.7h-1.6V64.1h1.6V74.7z"/>
	<path class="st2" d="M890,64.1h1.6v10.7l-0.1,0.1l-6.9-7.2h0v7.1h-1.6V64l0.1-0.1l6.9,7.2V64.1z"/>
	<path class="st2" d="M894.6,74.7V64.1h1.6v4.6l4.4-4.6h1.9l0,0.1l-4.9,5.1l5.2,5.4l0,0.1h-1.9l-4.7-5v5H894.6z"/>
	<path class="st2" d="M911.8,71.9c0,1.6-1.6,2.9-3.8,2.9c-1.6,0-2.7-0.3-3.9-0.9l0.6-1.2c0.9,0.5,2,0.8,3.2,0.8
		c1.2,0,2.3-0.6,2.3-1.5c0-2.9-5.9-1.3-5.9-5.1c0-1.8,1.4-2.9,3.3-2.9c0.6,0,2.1,0.1,3.7,0.9l-0.6,1.3c-0.7-0.3-2-0.7-2.7-0.7
		c-1.1,0-2,0.2-2.1,1.4C905.8,69.2,911.8,67.8,911.8,71.9z"/>
</g>
<text transform="matrix(1 0 0 1 950.085 55.9466)" class="st2 st3 st21">NFFI/</text>
<g class="st6">
	<path class="st2" d="M934.2,71.2c0,1.3-0.9,3-3.7,3h-3.9V63.6h3.9c2.8,0,3.7,1.8,3.7,3c0,0.8-0.4,1.8-1.3,2.3
		C933.8,69.4,934.2,70.5,934.2,71.2z M932.6,66.6c0-0.4-0.3-1.7-1.9-1.7h-2.6v3.4h2.6C932.3,68.2,932.6,67.1,932.6,66.6z
		 M932.6,71.2c0-0.6-0.3-1.5-1.9-1.6h-2.6v3.2h2.6C932.3,72.9,932.6,71.6,932.6,71.2z"/>
	<path class="st2" d="M938.2,72.9h4.1v1.4h-5.6V63.6h1.6V72.9z"/>
	<path class="st2" d="M950.6,70.2v-6.6h1.6v6.6c0,1.8-1.1,4.2-4.2,4.2s-4.1-2.4-4.1-4.2v-6.6h1.6v6.6c0,0.7,0.5,2.8,2.6,2.8
		C950.1,73,950.6,70.9,950.6,70.2z"/>
	<path class="st2" d="M956.7,69.7v3.2h5.5v1.4h-7V63.6h7v1.4h-5.5v3.3h4.3v1.4H956.7z"/>
	<path class="st2" d="M966.1,69.7v4.6h-1.6V63.6h7v1.4h-5.5v3.3h4.3v1.4H966.1z"/>
	<path class="st2" d="M983.5,68.9c0,2.3-1.2,5.5-5.3,5.5c-4.1,0-5.3-3.2-5.3-5.5c0-2.2,1.2-5.5,5.3-5.5
		C982.3,63.4,983.5,66.7,983.5,68.9z M981.9,68.9c0-1-0.5-4.1-3.7-4.1c-3.2,0-3.7,3.1-3.7,4.1c0,1,0.5,4.1,3.7,4.1
		C981.4,73,981.9,69.9,981.9,68.9z"/>
	<path class="st2" d="M987.5,74.2h-1.5V63.6h3.9c2.8,0,3.7,2,3.7,3.3c0,1.6-1.1,2.7-2.4,3.2l1.9,4.1h-1.7l-1.9-4h-2.1V74.2z
		 M992,66.9c0-0.7-0.4-2-2.1-2h-2.5v4h2.5C991.6,68.8,992,67.5,992,66.9z"/>
	<path class="st2" d="M1003.6,66.1c-0.6-0.7-1.7-1.3-2.9-1.3c-3.2,0-3.7,3.1-3.7,4.1c0,1,0.5,4.1,3.7,4.1c1.2,0,2.3-0.7,3-1.3
		l0.9,1.1c-1,1-2.2,1.6-3.9,1.6c-4.1,0-5.3-3.2-5.3-5.5c0-2.2,1.2-5.5,5.3-5.5c1.8,0,3,0.7,3.9,1.7L1003.6,66.1z"/>
	<path class="st2" d="M1008.6,69.7v3.2h5.5v1.4h-7V63.6h7v1.4h-5.5v3.3h4.3v1.4H1008.6z"/>
</g>
<line class="st20" x1="388.6" y1="116" x2="388.6" y2="81.9"/>
<line class="st20" x1="316.5" y1="116.2" x2="316.5" y2="82"/>
<g class="st6">
	<path class="st2" d="M138.8,53.4h4.1v1.4h-5.6V44.1h1.6V53.4z"/>
	<path class="st2" d="M151,51.9h-3.8l-1.2,2.8h-1.7L149,44h0.1l4.8,10.8h-1.7L151,51.9z M147.7,50.6h2.7l-1.3-3.2L147.7,50.6z"/>
	<path class="st2" d="M162.9,52c0,1.6-1.6,2.9-3.8,2.9c-1.6,0-2.7-0.3-3.9-0.9l0.6-1.2c0.9,0.5,2,0.8,3.2,0.8c1.2,0,2.3-0.6,2.3-1.5
		c0-2.9-5.9-1.3-5.9-5.1c0-1.8,1.4-2.9,3.3-2.9c0.6,0,2.1,0.1,3.7,0.9l-0.6,1.3c-0.7-0.3-2-0.7-2.7-0.7c-1.1,0-2,0.2-2.1,1.4
		C156.9,49.2,162.9,47.8,162.9,52z"/>
	<path class="st2" d="M166.9,50.2v3.2h5.5v1.4h-7V44.1h7v1.4h-5.5v3.3h4.3v1.4H166.9z"/>
	<path class="st2" d="M176.3,54.7h-1.5V44.1h3.9c2.8,0,3.7,2,3.7,3.3c0,1.6-1.1,2.7-2.4,3.2l1.9,4.1h-1.7l-1.9-4h-2.1V54.7z
		 M180.8,47.4c0-0.7-0.4-2-2.1-2h-2.5v4h2.5C180.5,49.4,180.8,48,180.8,47.4z"/>
</g>
<g class="st6">
	<path class="st2" d="M103.2,73h-1.5V62.3h3.9c2.8,0,3.7,2,3.7,3.3c0,1.6-1.1,2.7-2.4,3.2l1.9,4.1h-1.7l-1.9-4h-2.1V73z M107.7,65.7
		c0-0.7-0.4-2-2.1-2h-2.5v4h2.5C107.3,67.6,107.7,66.3,107.7,65.7z"/>
	<path class="st2" d="M117.3,70.2h-3.8l-1.2,2.8h-1.7l4.7-10.8h0.1l4.8,10.8h-1.7L117.3,70.2z M114.1,68.8h2.7l-1.3-3.2L114.1,68.8z
		"/>
	<path class="st2" d="M129.3,62.3h1.6v10.7l-0.1,0.1l-6.9-7.2h0V73h-1.6V62.3l0.1-0.1l6.9,7.2V62.3z"/>
	<path class="st2" d="M138.6,69.2v-1.4h3.8v3.8c-0.9,0.9-2.1,1.5-3.8,1.5c-4.1,0-5.3-3.2-5.3-5.5c0-2.2,1.2-5.5,5.3-5.5
		c1.8,0,2.8,0.5,3.7,1.5l-1,1c-0.5-0.6-1.6-1.1-2.7-1.1c-3.2,0-3.7,3.1-3.7,4.1c0,1,0.5,4.1,3.7,4.1c0.9,0,1.7-0.2,2.3-0.7v-1.8
		H138.6z"/>
	<path class="st2" d="M146.4,68.4v3.2h5.5V73h-7V62.3h7v1.4h-5.5v3.3h4.3v1.4H146.4z"/>
	<path class="st2" d="M155.8,68.4V73h-1.6V62.3h7v1.4h-5.5v3.3h4.3v1.4H155.8z"/>
	<path class="st2" d="M165.3,73h-1.6V62.3h1.6V73z"/>
	<path class="st2" d="M175.4,62.3h1.6v10.7l-0.1,0.1l-6.9-7.2h0V73h-1.6V62.3l0.1-0.1l6.9,7.2V62.3z"/>
	<path class="st2" d="M180,73V62.3h3.7c4.1,0,5.3,3.1,5.3,5.3c0,2.3-1.2,5.3-5.3,5.3H180z M183.7,71.6c3.2,0,3.7-3,3.7-4
		c0-1-0.5-4-3.7-4h-2.1v7.9H183.7z"/>
	<path class="st2" d="M192.8,68.4v3.2h5.5V73h-7V62.3h7v1.4h-5.5v3.3h4.3v1.4H192.8z"/>
	<path class="st2" d="M202.2,73h-1.5V62.3h3.9c2.8,0,3.7,2,3.7,3.3c0,1.6-1.1,2.7-2.4,3.2l1.9,4.1h-1.7l-1.9-4h-2.1V73z M206.8,65.7
		c0-0.7-0.4-2-2.1-2h-2.5v4h2.5C206.4,67.6,206.8,66.3,206.8,65.7z"/>
	<path class="st2" d="M217.8,70.2c0,1.6-1.6,2.9-3.8,2.9c-1.6,0-2.7-0.3-3.9-0.9l0.6-1.2c0.9,0.5,2,0.8,3.2,0.8
		c1.2,0,2.3-0.6,2.3-1.5c0-2.9-5.9-1.3-5.9-5.1c0-1.8,1.4-2.9,3.3-2.9c0.6,0,2.1,0.1,3.7,0.9l-0.6,1.3c-0.7-0.3-2-0.7-2.7-0.7
		c-1.1,0-2,0.2-2.1,1.4C211.8,67.4,217.8,66,217.8,70.2z"/>
</g>
<line class="st20" x1="156.9" y1="114.2" x2="156.9" y2="80.1"/>
<g>
	<rect x="150.1" y="-3.7" class="st30" width="20.3" height="8.1"/>
	<g>
		<path class="st14" d="M142.8-17c0,0-4.9,4.1-3.2,11.4c1.1,5,4.1,6.5,4.1,6.5c-4.2,0-13.7-7.8-13.7-13v-0.8
			c-1.1-7.3,16.8-9.7,20.9-9.7l23.6,1.6c4.2,0,5.6,1.6,5.6,1.6s-6.5,0.4-12.2,0C153.2-20.2,149-20.4,142.8-17z"/>
		<path class="st38" d="M183.6-8.2c0,5.2-3,9.3-7.2,9.3c0,0-9.3-2.5-12.5-2.5c-3.4,0-14.4,2.5-14.4,2.5c-4.2,0-8.5-4.2-8.5-9.3V-9
			c0-5.2,5.5-8.9,9.6-8.9h26.1c4.2,0,6.9,3.8,6.9,8.9L183.6-8.2L183.6-8.2z"/>
		<path class="st2" d="M179.9-18.9h-4.1l-9.7,3c0,0-6.8,5.6,1.6,10.9l10.6,0.8c0,0,7.3-0.9,7.3-7.4
			C185.6-13.9,184.8-17.9,179.9-18.9z"/>
		<circle class="st35" cx="178" cy="-11.5" r="5.8"/>
		<path class="st2" d="M162.2-18.9h-4.1l-9.7,3c0,0-6.8,5.6,1.6,10.9l10.6,0.8c0,0,7.3-0.9,7.3-7.4
			C167.9-13.9,167.1-17.9,162.2-18.9z"/>
		<circle class="st35" cx="160.8" cy="-11.5" r="5.8"/>
	</g>
	<g>
		<polygon points="145.4,9.3 138.9,7.5 141.2,27.9 146.4,29.7 		"/>
		<polygon class="st30" points="138.8,5.1 171.4,3.6 176.1,5.3 148.1,8.1 		"/>
		<path d="M178.8,27.2l-31.3,3.2l-0.2-21.2l31.5-1.7V27.2z M154.2,17.9l20.3-2v-4.1l-21.3,1L154.2,17.9z"/>
	</g>
	<polygon class="st39" points="154.2,21.8 154.1,26.1 158.2,25.5 158,21.6 	"/>
	<polygon class="st39" points="161.3,21.6 161.3,24.7 164.3,24.7 164.3,20.9 	"/>
	<polygon class="st39" points="175.5,20 172.8,20.1 172.8,24 175.5,22.9 	"/>
	<polygon class="st39" points="167.4,21 167.4,24.4 170.4,24 170.4,20 	"/>
	<path class="st30" d="M138.3,37.1l1.1-3.5l5.3-22.9c0,0-1.7-7-7.5-0.9l-7.9,22.8c0,0-1.5,6.4,2.7,7.8
		C133.5,41,136.3,41.1,138.3,37.1z"/>
	
		<ellipse transform="matrix(-0.9518 -0.3068 0.3068 -0.9518 249.8604 112.493)" class="st40" cx="133.8" cy="36.6" rx="3.5" ry="2.1"/>
</g>
<line class="st41" x1="243" y1="113.6" x2="243" y2="79.5"/>
<g class="st6">
	<path class="st2" d="M234.3,49.7v-1.4h3.8v3.8c-0.9,0.9-2.1,1.5-3.8,1.5c-4.1,0-5.3-3.2-5.3-5.5c0-2.2,1.2-5.5,5.3-5.5
		c1.8,0,2.8,0.5,3.7,1.5l-1,1c-0.5-0.6-1.6-1.1-2.7-1.1c-3.2,0-3.7,3.1-3.7,4.1c0,1,0.5,4.1,3.7,4.1c0.9,0,1.7-0.2,2.3-0.7v-1.8
		H234.3z"/>
	<path class="st2" d="M247.6,50.7c0,1.6-1.6,2.9-3.8,2.9c-1.6,0-2.7-0.3-3.9-0.9l0.6-1.2c0.9,0.5,2,0.8,3.2,0.8
		c1.2,0,2.3-0.6,2.3-1.5c0-2.9-5.9-1.3-5.9-5.1c0-1.8,1.4-2.9,3.3-2.9c0.6,0,2.1,0.1,3.7,0.9l-0.6,1.3c-0.7-0.3-2-0.7-2.7-0.7
		c-1.1,0-2,0.2-2.1,1.4C241.6,47.9,247.6,46.5,247.6,50.7z"/>
	<path class="st2" d="M251.5,53.5H250V42.8h3.9c2.8,0,3.7,2,3.7,3.3c0,1.6-1.1,2.7-2.4,3.2l1.9,4.1h-1.7l-1.9-4h-2.1V53.5z
		 M256.1,46.1c0-0.7-0.4-2-2.1-2h-2.5v4h2.5C255.7,48.1,256.1,46.8,256.1,46.1z"/>
</g>
<g>
	<polygon class="st42" points="234.6,-10.4 256.9,-9.1 256.9,9 234.6,10.4 	"/>
	<path class="st14" d="M234.6-10.7c0,0-4,1.9-4.5,8.1c-0.4,4.8-0.2,6.6-0.2,6.6s0.9,4,4.8,7.2"/>
	<path class="st14" d="M242.6,10.3h5v4.2l11,19.3l-2.4,1l-2.7-6.3l-6.4,2.3l0.2,7.6H244v-7.1l-9.5-2.3l-2.7,4.7l-3.6,0.2l13.7-19.1
		L242.6,10.3z M236.8,26l7.5,2.1V17.8l-1.8-0.7L236.8,26z M251.9,26.8l-4.6-9.4l-0.2,10.8L251.9,26.8z"/>
</g>
<g id="m8B3uX_1_">
	<g>
		<path class="st43" d="M648.1,269.4c2.8,0.2,5.2,1.6,5.6,4.1c0.1,0.6-0.2,1.5-0.2,2.1c0.2,2.3,2.1,4.6,1.4,6.8
			c1.2,0.3,1-0.8,1.9-0.8c0.8,1,1.1,2.4,1.7,3.5c0,0.1,0,0.3,0,0.4c-0.1,2.8-0.7,5-3.1,5.4c-0.1,0.8,0.2,1.2,0.6,1.5
			c-0.2,0.8-0.9,1.1-1,2.1c1.6,2.8,0.8,8-2.3,8.5c-0.5,0-1,0-1.5,0c-3.4-1.1-3.4-5.7-4.5-9.1c-3.6-0.8-5.4-3.3-7.9-5
			c0.9,1.9,0.1,3.8,0.2,5.6c0.1,1.4,1,2.5,0.8,4.1c-2.1,0.8-4.4,2.3-7.4,1.5c0.9-1.7,3.1-1.9,3.5-3.9c0.3-1.4-0.8-2.2-1.4-3.7
			c-1.2-2.9-1-6.8-1.2-10.3c-5.7-0.8-4.5-8.5-9.5-10.1c-1.5,0.3-2.3-0.3-2.5-0.4c-1-0.3-1.7,0.1-2.3-1c-1.8,0.1-4.8-0.1-7.2,0
			c0-0.3,0-0.6,0-1c1.2,0,3.8,0.4,5.8,0.2c0.7-0.1,0.3-1.2,0.6-1.7c1.1-0.1,1,1.1,1.7,1.4c3.5,0,7,0,10.5,0c0.7,0,0.3-1,1-1
			c1.9,0.2,3.1-1,4.6-0.6s1.1,2.3,2.7,2.1c0.9-0.1,2.3-2.2,0.6-3.3c0.8-1.8,1-4,3.3-4.3c0-0.1,0-0.1,0-0.2c0.5,0,0.9,0,1.4,0
			C647.5,262.8,648.4,265.9,648.1,269.4z M618.8,268.8c-0.5,0-0.4,0.6-0.4,1.2c0.3-0.1,1,0.2,1-0.2
			C619.5,269.1,618.9,269.2,618.8,268.8z M631.2,269.4c0.6,0.8,3.2,0.3,4.3,0.4c0-0.2,0-0.4,0-0.6
			C634.5,268.9,631.9,268.6,631.2,269.4z M627.7,272.5c1.2,2.1,5.6,7,8.1,3.7c0-0.9-0.4-1.4-0.6-2.1c-0.6,0-0.8,0.3-1.5,0.2
			c0.1,0.7-0.3,0.8-0.2,1.5c-0.8,0-1.5-0.2-2.1-0.4c0-0.6,0-1.3,0-1.9C630.1,273.3,628.9,272.1,627.7,272.5z M634.7,273
			c-0.3,0-0.5,0-0.8,0c-0.2,0.6-0.1,0.9,0.6,1C634.7,273.8,634.8,273.5,634.7,273z M639.9,279.8c-1,0.1-1.6,0.6-1.9,1.4
			c0.8,0.1,1,0.9,1.9,1C639.9,281.4,639.9,280.6,639.9,279.8z M655.8,282.7c-0.1,0-0.3,0-0.4,0c0,0.1,0,0.3,0,0.4c0.1,0,0.3,0,0.4,0
			C655.8,283,655.8,282.8,655.8,282.7z"/>
	</g>
</g>
<text transform="matrix(1 0 0 1 632.4595 288.7927)" class="st44 st3 st45">?</text>
<g>
	<path class="st46" d="M544,159.5l-0.7,0.1l-1.6-9.2l-3.2,0.5l-0.1-0.6l7.1-1.2l0.1,0.6l-3.2,0.5L544,159.5z"/>
	<path class="st46" d="M550.4,150.9c0.3,0,0.7,0,1,0v0.7c-0.3,0-0.6,0-1,0c-0.6,0.1-1.1,0.4-1.4,1c-0.3,0.6-0.5,1.3-0.4,2.1l0.5,4.1
		l-0.7,0.1l-0.9-7.4l0.6-0.1l0.2,1.3l0,0c0.2-0.6,0.5-1,0.8-1.3C549.5,151.1,549.9,151,550.4,150.9z"/>
	<path class="st46" d="M558.2,157.8l-0.3-1.2h-0.1c-0.3,0.5-0.7,0.9-1.1,1.1s-0.8,0.4-1.4,0.4c-0.7,0.1-1.3-0.1-1.7-0.4
		s-0.7-0.8-0.7-1.5c-0.1-0.7,0.2-1.3,0.8-1.8c0.6-0.4,1.4-0.7,2.6-0.8l1.4-0.2v-0.5c-0.1-0.7-0.2-1.2-0.6-1.6
		c-0.3-0.3-0.8-0.5-1.4-0.4c-0.7,0.1-1.4,0.3-2.1,0.7l-0.3-0.6c0.8-0.4,1.6-0.7,2.4-0.8c0.8-0.1,1.4,0.1,1.9,0.5
		c0.4,0.4,0.7,1,0.8,1.9l0.4,4.9L558.2,157.8z M555.5,157.5c0.8-0.1,1.4-0.3,1.8-0.8s0.6-1.1,0.5-1.9l-0.1-0.7l-1.3,0.2
		c-1,0.1-1.8,0.4-2.2,0.7c-0.4,0.3-0.6,0.8-0.6,1.3s0.2,0.8,0.5,1C554.5,157.5,554.9,157.6,555.5,157.5z"/>
	<path class="st46" d="M564,157.7c-1.1,0-1.9-0.3-2.5-0.9c-0.6-0.7-0.9-1.6-1-2.8c0-1.2,0.2-2.2,0.9-2.9c0.6-0.7,1.4-1.1,2.5-1.1
		c0.6,0,1.3,0.1,1.9,0.3l-0.2,0.6c-0.6-0.2-1.2-0.3-1.7-0.3c-0.9,0-1.6,0.3-2,0.9s-0.7,1.4-0.6,2.4c0,1,0.3,1.8,0.8,2.3
		c0.5,0.6,1.2,0.8,2,0.8c0.7,0,1.3-0.2,1.9-0.4v0.6C565.3,157.5,564.7,157.7,564,157.7z"/>
	<path class="st46" d="M568.3,154.3l3.9-4.1h0.8l-3,3.1l3.1,4.3h-0.8l-2.8-3.8l-1.2,1.1v2.6h-0.7l0.2-10.6h0.7l-0.1,5.3L568.3,154.3
		L568.3,154.3z"/>
	<path class="st46" d="M586,153.6c-0.2,1.7-0.7,2.9-1.7,3.6c-1,0.8-2.3,1.1-4,0.9l-2.4-0.2l1-9.9l2.7,0.3c1.6,0.2,2.8,0.7,3.5,1.6
		C585.9,150.8,586.2,152,586,153.6z M585.2,153.6c0.1-1.4-0.1-2.5-0.7-3.3c-0.6-0.8-1.7-1.3-3.1-1.4l-1.8-0.2l-0.9,8.7l1.6,0.2
		C583.3,157.8,584.9,156.5,585.2,153.6z"/>
	<path class="st46" d="M591.9,159.8v-1.2h-0.1c-0.4,0.4-0.9,0.7-1.3,0.8c-0.4,0.1-0.9,0.2-1.4,0.1c-0.7-0.1-1.2-0.4-1.6-0.8
		c-0.3-0.4-0.5-1-0.3-1.6c0.1-0.7,0.5-1.2,1.2-1.5s1.6-0.4,2.7-0.2l1.4,0.2l0.1-0.5c0.1-0.7,0.1-1.2-0.2-1.6s-0.7-0.7-1.3-0.8
		c-0.7-0.1-1.4,0-2.2,0.2l-0.2-0.6c0.9-0.2,1.7-0.3,2.5-0.2c0.8,0.1,1.4,0.4,1.7,0.9s0.4,1.2,0.3,2.1l-0.8,4.9L591.9,159.8z
		 M589.2,158.8c0.8,0.1,1.4,0,2-0.4c0.5-0.4,0.9-1,1-1.8l0.1-0.7l-1.3-0.2c-1-0.1-1.8-0.1-2.3,0.1s-0.8,0.6-0.9,1.2
		c-0.1,0.5,0,0.8,0.2,1.1C588.3,158.6,588.7,158.7,589.2,158.8z"/>
	<path class="st46" d="M596.6,160.3c0.4,0.1,0.8,0.1,1.1,0.1l-0.1,0.5c-0.3,0-0.7,0-1.1-0.1c-0.6-0.1-1.1-0.4-1.3-0.8
		s-0.3-1-0.1-1.7l1-4.7l-1.1-0.2l0.1-0.4l1.1-0.1l0.7-1.6l0.3,0.1l-0.4,1.8l2.1,0.5l-0.1,0.6l-2.1-0.5l-1,4.6c-0.1,0.6-0.1,1,0,1.3
		C595.9,160,596.2,160.2,596.6,160.3z"/>
	<path class="st46" d="M603.4,162.4l0.1-1.2h-0.1c-0.5,0.4-0.9,0.6-1.4,0.7c-0.4,0.1-0.9,0.1-1.4-0.1c-0.7-0.2-1.2-0.5-1.5-1
		s-0.4-1-0.2-1.7s0.6-1.2,1.3-1.4c0.7-0.2,1.6-0.2,2.7,0l1.4,0.3l0.1-0.5c0.2-0.7,0.2-1.2,0-1.7c-0.2-0.4-0.6-0.7-1.2-0.9
		c-0.7-0.2-1.4-0.2-2.2,0l-0.1-0.6c0.9-0.2,1.7-0.1,2.5,0.1s1.3,0.6,1.6,1.1s0.3,1.2,0.1,2.1l-1.2,4.8L603.4,162.4z M600.9,161.3
		c0.8,0.2,1.4,0.1,2-0.2c0.6-0.3,0.9-0.9,1.1-1.7l0.2-0.7l-1.3-0.3c-1-0.2-1.8-0.2-2.3-0.1c-0.5,0.2-0.8,0.5-1,1.1
		c-0.1,0.5-0.1,0.8,0.1,1.2C600,160.9,600.4,161.1,600.9,161.3z"/>
</g>
<g id="_x30_ndZPN_1_">
	<g>
		<path class="st43" d="M516.1,281.1c-0.9,0.4-1.9,0.8-2.8,1.2c-0.2-2.7,0.7-4.7,0.8-7.2c0.3-1.1,0.3-2.3,0.4-3.5
			c0.2-1.1,0.7-2.2,0.4-3.5c2.9-1.2,4.1-3.3,6-5.1c5.4-2.9,10.8-5.7,13.4-10.3c-1-1.1-2.5-0.4-3.7-0.7c-4.2,0.2-8.8,1.8-13.3,3
			c-1.7-0.2-3.6,0.2-5.3,0c-0.6,0.3-1.2,0.5-1.8,0.8c-4-2.6-7.9-5.4-11.7-8.4c1-0.6,2.8-0.7,2.5-2c-2.7,0.7-6.5,2.1-8.7,3.7
			c0.3,1.5,1.1,0.3,1.8,0.2c1.8,4.3,3.7,8.7,5.5,13c-0.5,1-2.3,1.1-3.3,1.7c-1.4-0.3-2.8-1.5-4.2-2.5c-1.3-0.9-2.6-2-4-2.6
			c-0.9,0.4-2.2,0.6-2.2,1.6c0.3,1.9,1.8,4.5,2.6,6.7c0.5-0.4,0.8-0.2,1,0.6c1-0.4,2-0.9,3-1.3c0.6,0.8-0.5,0.7-0.8,1
			c-0.9,0.8-1.9,1.5-3.2,2c0.6,1.4,1.2,2.8,1.8,4.2c1.6-0.5,3.3-0.9,4.8-1.1c-0.3,0.9-2.1,1-2.9,1.6c0.4,0.7,0.7,1.4-0.1,1.4
			c1,2,1.8,4.9,2.9,6.3c0.7,0.6,1.7-0.1,2.7-0.5c0.4-0.6,0.6-1.5,0.7-2.3s0-1.6,0.2-2.4c0.4-1.5,0.5-3.2,0.9-4.6
			c1.2-0.5,2.4-1,3.7-1.6c1.9,4.4,3.8,8.9,5.6,13.3c0.3,0.8-1.5,0.4-1.2,1.2c0.1,0.3,0.3,0.5,0.4,0.5c2-1.1,4.7-1.7,6.9-2.9
			C515.4,282.4,516.5,282.3,516.1,281.1z"/>
	</g>
</g>
<text transform="matrix(1 0 0 1 496.2843 271.4765)" class="st44 st3 st45">?</text>
<path class="st43" d="M582.1,310.2h-27l12.5-36.1L582.1,310.2z M560.8,306.2h15.5l-8.3-20.7L560.8,306.2z"/>
<g>
	<g>
		<line class="st20" x1="568.7" y1="563.9" x2="568.7" y2="427.5"/>
		<g>
			<polygon class="st47" points="581.2,560.3 568.7,581.9 556.2,560.3 			"/>
		</g>
	</g>
</g>
<g id="p53h7b_1_" class="st48">
	<g>
		<path d="M684.7,451.2c0-1.4,0-2.5,0-3.7c-0.6-0.1-1.7-0.2-1.7-0.2l-0.2-1.3h4.4l0.2-2.1l-1.5-0.5l-0.6-1.5h2.2
			c1.6-3.1,1.1-10.9,1.1-10.9l0.8-0.8v11.6l2,0.1l-0.2,1.1l-1.4,1.1l0.2,2.1h4.7l-0.3,1.4l-1.2,0.3c0,0,0,2.1,0,2.8
			c1.8,0.4,3.4,0.7,5.1,1.1c1,4.1,1.9,8.1,2.9,12.4c-0.2,0.5-0.4,1.3-0.7,2.1c0.3,0.3,0.3,1.2,0.3,1.2l12.8,0.4c0,0-1,3.2-1.6,4.4
			c1,1.9,2.1,3.8,3.2,5.9c2.9,0.4,6,0.7,9.1,1.1c0.1-0.6,0.2-0.9,0.4-1.4c3.1-1.2,6.4-2.1,9.3,1.3c2.6-0.3,5.3-0.6,8.2-1
			c0,0.7,0,1.2,0,2c0.1-0.1,0,0.1,0,0.1c-2.6,0-5.2,0.7-7.9,0.7c0.6,1.5,1.1,2.2,1.6,3.6c0.3,0,0.8,0,1.3,0c0.5,0.5,0.9,1,1.4,1.6
			c5.2,0.1,26.4-0.8,32.4-0.8c-6.8,8.7-14.1,16.1-19.2,25.1c-1.1-0.3-122.4-10.2-123.6-10.6c-0.5-2.3-1-4.4-1.4-6.5c3,0,6,0,9.2,0
			c0.4-2.4,0.8-4.7,1.3-7.1c-1.1-0.8-0.1-2.3-0.6-3.6c1.6,0,3.1,0,4.5,0c0.5-1.1,1-2.1,1.4-3c0.4-0.1,1.1-1.5,1.2-2.2
			c0.6,0,1.1,0,1.5,0c0.8,1.1,1.5,2,2.1,2.8c1.8-0.7,3.3-1.2,4.9-1.8c0.2-2,0.2-2-2.5-2.9c0-0.5,0-1,0-1.5c1-0.8,2.6,0.4,3.3-1.4
			c0.5-2.7,1.1-5.6,1.6-8.4c-0.8-0.6-1.5-1.1-2.3-1.5c0.4-0.4,0.8-0.8,1.2-1.2c0.4,0.2,0.8,0.5,1.5,0.8c1.5,0,20.5,1.5,22.5,1.4
			c0.7-3,1.3-6,2-9.3c-1.6,0-9.9-0.9-9.9-0.9l-0.1-1.1l10.2-0.2c0,0,0.9-2.3,1.4-3.4c0.8,0,1.6,0,2.6,0
			C683.7,449.5,684.1,450.2,684.7,451.2z M677.2,471.7c0-0.8,0-1.3,0-1.9c-0.5-0.2-0.9-0.3-1.4-0.5c0.3-1.1,0.6-2,0.9-3.1
			c-1.9,0-3.6,0-5.5,0c0.3,3.3,0.7,6.6,1,10.4c0.8-1.5,1.4-2.6,2.1-3.8C675.3,472.4,676.3,472,677.2,471.7z"/>
	</g>
</g>
<g class="st48">
	<g>
		<path class="st49" d="M425.2,411.2l-35.1,4l3.6,46.2l2.3,2.4l30.8-5.8l39.7-5.5c0-0.5,0.1-41.5,0.1-41.5L425.2,411.2z
			 M426.5,456.9l-30.1,5.6l-3.2-47.1l31.4-3.7h0.6l0.6,22.7l-30.8,4.8l30.9-4.8v7.7v-7.8l-0.7-22.5l40.9-0.5c0,0,0,11.7,0,22.6
			l-40,0.5l40-0.4c0,9.1,0,17.6,0,17.9L426.5,456.9z"/>
		<g>
			<polygon points="458.2,494.6 457.9,467.9 444.7,470.8 445,489.1 			"/>
			<polygon points="486.8,459.6 424.7,472.3 425.1,506.8 427.4,505.8 427,473.5 486.8,460.8 			"/>
			<polygon points="423.7,506.3 423.3,471.8 402.5,463.7 402.9,496 			"/>
			<path d="M487,471.2l-27,7.2l-0.1-11.1l27-5.7L487,471.2z M472.2,470.4c0.2,0.5,0.9,0.7,1.6,0.5c0.7-0.3,1.1-0.9,0.9-1.4
				s-0.9-0.7-1.6-0.5C472.3,469.2,472,469.8,472.2,470.4z"/>
			<path d="M487.1,485.7l-27,9.1l-0.2-14.8l27-7.2L487.1,485.7z M472.9,484c0.2,0.5,0.9,0.7,1.6,0.5c0.7-0.3,1.1-0.9,0.9-1.4
				s-0.9-0.7-1.6-0.5C473.1,482.8,472.7,483.5,472.9,484z"/>
			<path d="M463,452.7l0.5-11.7l-1.1-1.2l-19.2,0.1l0.2,16h-0.1l-0.5-16l-21.6,2.1l2.7,17.3h-0.1l-3.3-17.4l-13.3,4.1l-1.6,1.3
				l3,14.6l-5.2,0.9l20.8,8.2l62.7-12.3L463,452.7z M441.2,441.9l0.5,12.9l-16.5,2.7l-1.7-14.1L441.2,441.9z M444.6,454.6l-0.2-13
				h17.1l-0.4,11.2l-8.8,1.6L444.6,454.6z M409.3,447.7l10.1-3.6l2.9,14.4l-5.2,2l-5.2,0.9L409.3,447.7z"/>
		</g>
		
			<linearGradient id="SVGID_3_" gradientUnits="userSpaceOnUse" x1="1756.3695" y1="389.6258" x2="1769.3275" y2="389.6258" gradientTransform="matrix(-0.9999 1.280744e-02 -1.280744e-02 -0.9999 2183.7312 820.3854)">
			<stop  offset="0" style="stop-color:#1D1D1B"/>
			<stop  offset="2.795172e-02" style="stop-color:#3B3B39"/>
			<stop  offset="7.238352e-02" style="stop-color:#646462"/>
			<stop  offset="0.1223" style="stop-color:#898988"/>
			<stop  offset="0.1767" style="stop-color:#A9A9A8"/>
			<stop  offset="0.2367" style="stop-color:#C4C4C4"/>
			<stop  offset="0.3045" style="stop-color:#DADADA"/>
			<stop  offset="0.3837" style="stop-color:#EBEBEA"/>
			<stop  offset="0.4816" style="stop-color:#F6F6F6"/>
			<stop  offset="0.6189" style="stop-color:#FDFDFD"/>
			<stop  offset="1" style="stop-color:#FFFFFF"/>
		</linearGradient>
		<polygon class="st50" points="409.4,447.7 419.6,444.2 422.6,458.5 412.5,462.5 		"/>
		
			<linearGradient id="SVGID_4_" gradientUnits="userSpaceOnUse" x1="1738.8291" y1="402.0697" x2="1753.7472" y2="385.5015" gradientTransform="matrix(-0.9999 1.280744e-02 -1.280744e-02 -0.9999 2183.7312 820.3854)">
			<stop  offset="0" style="stop-color:#1D1D1B"/>
			<stop  offset="2.795172e-02" style="stop-color:#3B3B39"/>
			<stop  offset="7.238352e-02" style="stop-color:#646462"/>
			<stop  offset="0.1223" style="stop-color:#898988"/>
			<stop  offset="0.1767" style="stop-color:#A9A9A8"/>
			<stop  offset="0.2367" style="stop-color:#C4C4C4"/>
			<stop  offset="0.3045" style="stop-color:#DADADA"/>
			<stop  offset="0.3837" style="stop-color:#EBEBEA"/>
			<stop  offset="0.4816" style="stop-color:#F6F6F6"/>
			<stop  offset="0.6189" style="stop-color:#FDFDFD"/>
			<stop  offset="1" style="stop-color:#FFFFFF"/>
		</linearGradient>
		<polygon class="st51" points="441.2,441.8 441.7,454.7 425.1,457.4 423.4,443.2 		"/>
		
			<linearGradient id="SVGID_5_" gradientUnits="userSpaceOnUse" x1="1716.395" y1="396.2984" x2="1735.0933" y2="393.0014" gradientTransform="matrix(-0.9999 1.280744e-02 -1.280744e-02 -0.9999 2183.7312 820.3854)">
			<stop  offset="0" style="stop-color:#1D1D1B"/>
			<stop  offset="2.795172e-02" style="stop-color:#3B3B39"/>
			<stop  offset="7.238352e-02" style="stop-color:#646462"/>
			<stop  offset="0.1223" style="stop-color:#898988"/>
			<stop  offset="0.1767" style="stop-color:#A9A9A8"/>
			<stop  offset="0.2367" style="stop-color:#C4C4C4"/>
			<stop  offset="0.3045" style="stop-color:#DADADA"/>
			<stop  offset="0.3837" style="stop-color:#EBEBEA"/>
			<stop  offset="0.4816" style="stop-color:#F6F6F6"/>
			<stop  offset="0.6189" style="stop-color:#FDFDFD"/>
			<stop  offset="1" style="stop-color:#FFFFFF"/>
		</linearGradient>
		<polygon class="st52" points="461.1,454.2 444.7,454.7 444.5,441.6 461.5,441.7 		"/>
	</g>
	<path class="st35" d="M437.4,464l-1.6-2c0,0-1-1.1-1.5-1.6c0,0-1.4,1.9,0,1.7c1.4-0.1-2.4-1.7-2.4-1.7s-1.9-0.1-1.9,1.8
		c0,0,2.7,0.4,4.8,3.4"/>
	<g>
		<path class="st53" d="M464.7,461.3c0,0,5.3-11.5-7.2-13.3v-3.7c0,0,4.9-4,1.9-7.9c0,0-0.5-3.7-8.6-1.1c0,0-2.3,4.7-0.7,6.1
			c0,0-0.6,1.6,0.2,2.7v1.4l1.9,0.5c0,0-0.3,1.5-1.4,2.1h-3.1l-3.9,3.4l-3.5,6.8c0,0-4.3,6.4-2.7,7.6c0,0-4.2-3.8-3.6-2.1
			c3.2,10.1,6.9,2.9,6.9,2.9l4.8-8c0,0,0.2,0.6,0.4,3.1c0.2,3.2,0.4,8.3,0,10.1l-9,1.4c0,0-3.4,1.8-3,4.4c0,0,2.9,9.8,3.1,11.5
			l0.2,3.6l-3.9-0.3c0,0-2,0.4-2,1.5l7.3,3.5c0,0,3.2,2,3.6,0c0.5-2.1,0.3-13,0.3-13l0.1-4.4l1.4,12.2l-0.8-0.8v3.4
			c0,0,6.4,4.4,4.9-4.3s0.1-1,0.1-1l0.8-10.5l7.9,0.4L464.7,461.3z"/>
		<g>
			<path d="M465.5,503.6c0,1.4,1.2,2.5,2.7,2.5s2.7-1.2,2.7-2.6c0-1.4-1.2-2.5-2.7-2.5C466.7,501,465.5,502.1,465.5,503.6z"/>
			<path d="M444.5,504.8c0,1.4,1.2,2.5,2.7,2.4c1.4,0,2.6-1.1,2.6-2.5s-1.2-2.5-2.7-2.4S444.5,503.4,444.5,504.8z"/>
			<path d="M432.3,497.6c0,1.4,1,2.5,2.1,2.5s2.1-1.1,2.1-2.5s-1-2.5-2.1-2.5C433.2,495.1,432.3,496.3,432.3,497.6z"/>
			<path d="M440.2,494.2c0,1.4,1,2.5,2.1,2.5s2.1-1.1,2.1-2.5s-1-2.5-2.1-2.5C441.1,491.7,440.2,492.9,440.2,494.2z"/>
			<path d="M461.2,495.7c0,1.4,1,2.5,2.1,2.5c1.2,0,2.1-1.1,2.1-2.5s-1-2.5-2.1-2.5C462.1,493.2,461.2,494.3,461.2,495.7z"/>
			<path d="M457.4,493.2l14.8,6.3l-2.5,2.4h-1.5l1.3-1.8l-16.2-6.2c0,0-2,3.8-4.9,8.2H447c0,0,2.5-7.1,3.1-8.2
				c0,0-13.8,0.3-15.9,1.9l-1.4-2.5c0,0,12.9-1.6,15.2-1.1c0,0-3.6-1.6-5-0.7l-0.9-1.1c0,0-0.2-2.1,8.5-0.2c0.1,0,0.3,0.1,0.3,0.1
				l0.6-1l0.1-4.7c0,0-13.6-2.7-14.6-4c0,0-2.5-0.9-4.4,0c-1.9,1-1.1-3.4,4.3-3.5c5.5-0.1,5.8-2,5.8-2l9,3.3c0,0-4.4-15.3,5.4-25.3
				l22.2-3.2c0,0-10.4,17.2-5.5,30.8l-14.8,3.5h-4.1l-0.3,4.8c0,0,7.4,1.4,11.3,1.9s-1.2,2.5-1.2,2.5h-1.5l1-1.6L456,491
				L457.4,493.2z"/>
		</g>
	</g>
	<path d="M456.9,479.4L449,479l-0.8,10.5c0,0-1.6-7.8-0.1,1c1.5,8.7-4.9,4.3-4.9,4.3v-3.4l0.8,0.8l-1.4-12.2l-0.1,4.4
		c0,0,0.1,10.9-0.3,13c-0.5,2.1-3.6,0-3.6,0l-7.3-3.5c0-1.1,2-1.5,2-1.5l3.9,0.3l-0.2-3.6c-0.2-1.7-3.1-11.5-3.1-11.5
		c-0.4-2.7,3-4.4,3-4.4l8.6-0.7c0.4-1.6,1-5.7,0.6-8.5s-2.1-3.3-2.1-3.3l-3.8-2.6l4.2-6.4l3.2-3.4l5,0.2c1.1-0.6,1.1-2.1,1.1-2.1
		l-1.9-1.1l0.6-1.1c0.6-1.9-0.2-4.5-0.2-4.5l-2.4-2c4.3-6.7,9.5-1.1,9.5-1.1c3,3.9-1.9,7.9-1.9,7.9v3.7c12.5,1.9,7.2,13.3,7.2,13.3
		L456.9,479.4z M448.2,462c0,0,0.3,6.9-0.7,10.4l1.4,1.4c0,0-0.5-6.4,0.9-12.5c0.8-3.8-1.4-4.2-1.4-4.2L448.2,462z M464.8,451.8
		l-7.9,1c0,0-9,6.7-5.9,25.7c0.8,4.9,3.8-4.4,3.8-4.4L464.8,451.8z"/>
	<path class="st35" d="M451.8,478.4v0.9c0,0-8.2,0.5-12.5-0.4c0,0-3.8-1.3-5.8-0.7l1.1-0.8C434.6,477.3,445.1,478.6,451.8,478.4z"/>
	<path class="st35" d="M456.1,483.5l-0.1,0.6c0,0-8.2,0.1-12.3-1.1c0,0-3.4-1.4-5.4-1.3l0.9-0.4
		C439.2,481.4,449.5,483.9,456.1,483.5z"/>
</g>
<g>
	<g>
		<line class="st20" x1="532.3" y1="470.9" x2="605.2" y2="470.6"/>
		<g>
			<polygon class="st47" points="536,483.3 514.4,471 535.9,458.4 			"/>
		</g>
		<g>
			<polygon class="st47" points="601.6,483.1 623.1,470.6 601.5,458.2 			"/>
		</g>
	</g>
</g>
<path class="st54" d="M568.4,585.4c-26.9,0-48.6,21.7-48.6,48.6c0,26.9,21.7,48.6,48.6,48.6c26.9,0,48.6-21.7,48.6-48.6
	S595.4,585.4,568.4,585.4z"/>
<g>
	<g>
		<g>
			<g>
				<defs>
					<path id="SVGID_6_" d="M568.4,585.4c-26.9,0-48.6,21.7-48.6,48.6c0,26.9,21.7,48.6,48.6,48.6c26.9,0,48.6-21.7,48.6-48.6
						S595.4,585.4,568.4,585.4z"/>
				</defs>
				<clipPath id="SVGID_7_">
					<use xlink:href="#SVGID_6_"  style="overflow:visible;"/>
				</clipPath>
				
					<linearGradient id="SVGID_8_" gradientUnits="userSpaceOnUse" x1="544.301" y1="613.4944" x2="602.6472" y2="671.8405" gradientTransform="matrix(1 0 0 1 0 0.1801)">
					<stop  offset="7.208626e-02" style="stop-color:#1D1D1B"/>
					<stop  offset="1" style="stop-color:#11273D"/>
				</linearGradient>
				<path class="st55" d="M603,671.5c3.4-4.4,7.3-8.3,9.7-13.1c3.1-6.2,4.2-12.7,6.5-19c-1.2-1-2.3-2-3.4-3
					c-6.7-5.9-13.4-11.8-20-17.8c-6.7-5.9-13.4-11.8-20-17.8c-2.8-2.5-4.8-3.5-8.7-3.5c-2.8,0-9.7,0.7-5.8,4.4
					c0.7,0.6,4.8,3.6,4.4,4.4c-0.6,1.2-6.9-0.7-8,0.2c-2.2,1.7,1.1,4.2,1.8,4.7c1,0.7,1.8,1.8,2.9,2.4c-1.4,0-5.3-0.7-6.2,0.1
					c-1.3,1.1-0.4,4-2,4.8c-1.9,0.9-6,0-8.1,0s-4.3,0-6.5,0c1.8,3.1,3.3,5.5,5.6,7.4c1.2,1.1,2.5,2.1,3.6,3.2
					c-1.4,0-5.3-0.6-5.9,0.3c-0.9,1.1,0,6.5,0,8c0,2.5,0.3,2.5-2.1,3.2c-2.5,0.7-5.1,1.3-7.6,1.9c1.4,2.8,2.7,5.6,4,8.4
					c1.5,3,2.6,6.9,4.6,9.6c0.9,1.2,2.5,2.3,3.7,3.4c2.5,2.3,5.2,4.5,7.7,6.8c5.1,4.5,10,9,15.1,13.5
					C580.8,682.3,593.7,682.1,603,671.5z"/>
			</g>
		</g>
	</g>
</g>
<path class="st35" d="M593.8,640v-10.8H586v-5.3h7.9l3.2-5.4H582l-1.5-4.9h-6.9v-4.3h5.8v-2.9h-5.8h-2.7v-3.5c0,0,1.3,0.3,2.6-0.3
	c2.7-1.1,4.7-3.5-0.2-4.9c-1-0.3-6.7-0.3-7.6,0c-5.8,1.8-3.2,3.7-0.4,4.9c1.4,0.6,2.8,0.3,2.8,0.3v3.6h-2.7h-5.8v2.9h5.8v4.3h-6.8
	l-1.5,4.9H542l3.2,5.4h7.9v5.3h-7.8v10.9l-9.6,2.4l8.7,18.1h50.3l8.7-18.1L593.8,640z M569.8,656.6h-22.5l-5.9-12.2l28.4-7.1V656.6
	L569.8,656.6z M546.7,639.6l2.3-0.6v-6.1h7.8v-9.1h3.7v-5.4l0.7-1.4H578l0.7,1.4v5.4h3.7v9.2h7.8v6.1l-20.5-5.4L546.7,639.6z"/>
<path class="st54" d="M390.8,584.2c-26.9,0-48.7,21.8-48.7,48.7s21.8,48.7,48.7,48.7c26.9,0,48.7-21.8,48.7-48.7
	C439.6,606,417.9,584.2,390.8,584.2z"/>
<g>
	<g>
		<g>
			<g>
				<g>
					<defs>
						<path id="SVGID_9_" d="M390.8,584.2c-26.9,0-48.7,21.8-48.7,48.7s21.8,48.7,48.7,48.7c26.9,0,48.7-21.8,48.7-48.7
							C439.6,606,417.9,584.2,390.8,584.2z"/>
					</defs>
					<clipPath id="SVGID_10_">
						<use xlink:href="#SVGID_9_"  style="overflow:visible;"/>
					</clipPath>
					
						<linearGradient id="SVGID_11_" gradientUnits="userSpaceOnUse" x1="327.6895" y1="393.2657" x2="348.1826" y2="372.7726" gradientTransform="matrix(3 0 0 -3 -616 1791.38)">
						<stop  offset="7.208626e-02" style="stop-color:#1D1D1B"/>
						<stop  offset="1" style="stop-color:#11273D"/>
					</linearGradient>
					<path class="st56" d="M436.7,660.3c1.9-5.1,2-11,4-16.1c-2.3-2.5-4.5-5.1-6.8-7.7c-9.8-11-19.6-22-29.4-33
						c-2.4-2.7-4.8-5.5-7.2-8.1c-2.4-2.8-5.2-5.3-9.1-4c-5.7,2-4.8,8.1-1.6,11.8c0.5,0.6,1.3,1.2,1.4,2c0.2,1.7-0.9,1.4-2.1,1.4
						c-2.2,0-3.8-0.3-3.3,2.5c0.3,2,2.5,3.7,3.9,5.1c0.9,0.9,1.1,0.7,0.3,1.5c-0.9,0.9-2.8,1.4-3.9,1.8c-3.7,1.3-7.5,1.8-11.3,1.8
						c-2.4,0-2.1-0.3-2.2,1.9c-0.5,11.8,2.2,24.4,10,33.5c1.1,1.3,2.2,2.5,3.4,3.8c-2.3,0.5-3.2,0-4.2-1.1c-0.3-0.3-0.8-0.9-1.1-1.4
						c-0.8-0.9-1.6-1.8-2.5-2.8c-0.8-0.9-1.4-1.7-2.4-2.7c-2.8-2.6-5.8-5.1-8.7-7.6c0,4,0,8.1,0,12.1c0-0.1,0.2-0.2,0.3-0.3
						c0,0.2,0,0.4,0,0.6c0-0.1,0.2-0.2,0.3-0.3c0,0.2,0,0.4,0,0.6c0-0.1,0.2-0.2,0.3-0.3c0,0.2,0,0.4,0,0.6c0-0.1,0.2-0.2,0.3-0.3
						c0,0.2,0,0.4,0,0.6c0-0.1,0.2-0.2,0.3-0.3c0,0.2,0,0.4,0,0.6c0-0.1,0.2-0.2,0.3-0.3c0,0.2,0,0.4,0,0.6c0-0.1,0.2-0.2,0.3-0.3
						c0,0.2,0,0.4,0,0.6c0-0.1,0.2-0.2,0.3-0.3c0,0.2,0,0.4,0,0.6c0-0.1,0.2-0.2,0.3-0.3c0,0.2,0,0.4,0,0.6c0-0.1,0.2-0.2,0.3-0.3
						c0,0.2,0,0.4,0,0.6c0-0.1,0.2-0.2,0.3-0.3c0,0.2,0,0.4,0,0.6c0-0.1,0.2-0.2,0.3-0.3c0,0.2,0,0.4,0,0.6c0-0.1,0.2-0.2,0.3-0.3
						c0,0.2,0,0.4,0,0.6c0-0.1,0.2-0.2,0.3-0.3c0,0.2,0,0.4,0,0.6c0-0.1,0.2-0.2,0.3-0.3c0,0.2,0,0.4,0,0.6c0-0.1,0.2-0.2,0.3-0.3
						c0,0.2,0,0.4,0,0.6c0-0.1,0.2-0.2,0.3-0.3c0,0.2,0,0.4,0,0.6c0-0.1,0.2-0.2,0.3-0.3c0,0.2,0,0.4,0,0.6c0-0.1,0.2-0.2,0.3-0.3
						c0,0.2,0,0.4,0,0.6c0-0.1,0.2-0.2,0.3-0.3c0,0.2,0,0.4,0,0.6c0-0.1,0.2-0.2,0.3-0.3c0,0.2,0,0.4,0,0.6c0-0.1,0.2-0.2,0.3-0.3
						c0,0.2,0,0.4,0,0.6c0-0.1,0.2-0.2,0.3-0.3c0,0.2,0,0.4,0,0.6c0-0.1,0.2-0.2,0.3-0.3c0,0.2,0,0.4,0,0.6c0-0.1,0.2-0.2,0.3-0.3
						c0,0.2,0,0.4,0,0.6c0-0.1,0.2-0.2,0.3-0.3c0,0.2,0,0.4,0,0.6c0-0.1,0.2-0.2,0.3-0.3c0,0.2,0,0.4,0,0.6c0-0.1,0.2-0.2,0.3-0.3
						c0,0.2,0,0.4,0,0.6c0-0.1,0.2-0.2,0.3-0.3c0,0.2,0,0.4,0,0.6c0-0.1,0.2-0.2,0.3-0.3c0,0.2,0,0.4,0,0.6c0-0.1,0.2-0.2,0.3-0.3
						c0,0.2,0,0.4,0,0.6c0-0.1,0.2-0.2,0.3-0.3c0,0.2,0,0.4,0,0.6c0-0.1,0.2-0.2,0.3-0.3c0,0.2,0,0.4,0,0.6c0-0.1,0.2-0.2,0.3-0.3
						c0,0.2,0,0.4,0,0.6c0-0.1,0.2-0.2,0.3-0.3c0,0.2,0,0.4,0,0.6c0-0.1,0.2-0.2,0.3-0.3c0,0.2,0,0.4,0,0.6c0-0.1,0.2-0.2,0.3-0.3
						c0,0.2,0,0.4,0,0.6c0-0.1,0.2-0.2,0.3-0.3c0,0.2,0,0.4,0,0.6c0-0.1,0.2-0.2,0.3-0.3c0,0.2,0,0.4,0,0.6c0-0.1,0.2-0.2,0.3-0.3
						c0,0.2,0,0.4,0,0.6c0-0.1,0.2-0.2,0.3-0.3c0,0.2,0,0.4,0,0.6c0-0.1,0.2-0.2,0.3-0.3c0,0.2,0,0.4,0,0.6c0-0.1,0.2-0.2,0.3-0.3
						c0,0.2,0,0.4,0,0.6c0-0.1,0.2-0.2,0.3-0.3c0,0.2,0,0.4,0,0.6c0-0.1,0.2-0.2,0.3-0.3c0,0.2,0,0.4,0,0.6c0-0.1,0.2-0.2,0.3-0.3
						c0,0.2,0,0.4,0,0.6c0-0.1,0.2-0.2,0.3-0.3c0,0.2,0,0.4,0,0.6c0-0.1,0.2-0.2,0.3-0.3c0,0.2,0,0.4,0,0.6c0-0.1,0.2-0.2,0.3-0.3
						c0,0.2,0,0.4,0,0.6c0-0.1,0.2-0.2,0.3-0.3c0,0.2,0,0.4,0,0.6c0-0.1,0.2-0.2,0.3-0.3c0,0.2,0,0.4,0,0.6c0-0.1,0.2-0.2,0.3-0.3
						c0,0.2,0,0.4,0,0.6c0-0.1,0.2-0.2,0.3-0.3c0,0.2,0,0.4,0,0.6c0-0.1,0.2-0.2,0.3-0.3c0,0.2,0,0.4,0,0.6c0-0.1,0.2-0.2,0.3-0.3
						c0,0.2,0,0.4,0,0.6c0-0.1,0.2-0.2,0.3-0.3c0,0.2,0,0.4,0,0.6c0-0.1,0.2-0.2,0.3-0.3c0,0.2,0,0.4,0,0.6c0-0.1,0.2-0.2,0.3-0.3
						c0,0.2,0,0.4,0,0.6c0-0.1,0.2-0.2,0.3-0.3c0,0.2,0,0.4,0,0.6c0-0.1,0.2-0.2,0.3-0.3c0,0.2,0,0.4,0,0.6c0-0.1,0.2-0.2,0.3-0.3
						c0,0.2,0,0.4,0,0.6c0-0.1,0.2-0.2,0.3-0.3c0,0.2,0,0.4,0,0.6c0-0.1,0.2-0.2,0.3-0.3c0,0.2,0,0.4,0,0.6c0-0.1,0.2-0.2,0.3-0.3
						c0,0.2,0,0.4,0,0.6c0-0.1,0.2-0.2,0.3-0.3c0,0.2,0,0.4,0,0.6c0-0.1,0.2-0.2,0.3-0.3c0,0.2,0,0.4,0,0.6c0-0.1,0.2-0.2,0.3-0.3
						c0,0.2,0,0.4,0,0.6c0-0.1,0.2-0.2,0.3-0.3c0,0.2,0,0.4,0,0.6c0-0.1,0.2-0.2,0.3-0.3c0,0.2,0,0.4,0,0.6c0-0.1,0.2-0.2,0.3-0.3
						c0,0.2,0,0.4,0,0.6c0-0.1,0.2-0.2,0.3-0.3c0,0.2,0,0.4,0,0.6c0-0.1,0.2-0.2,0.3-0.3c0,0.2,0,0.4,0,0.6c0-0.1,0.2-0.2,0.3-0.3
						c0,0.2,0,0.4,0,0.6c0-0.1,0.2-0.2,0.3-0.3c0,0.2,0,0.4,0,0.6c0-0.1,0.2-0.2,0.3-0.3c0,0.2,0,0.4,0,0.6c0-0.1,0.2-0.2,0.3-0.3
						c0,0.2,0,0.4,0,0.6c0-0.1,0.2-0.2,0.3-0.3c0,0.2,0,0.4,0,0.6c0-0.1,0.2-0.2,0.3-0.3c0,0.2,0,0.4,0,0.6c0-0.1,0.2-0.2,0.3-0.3
						c0,0.2,0,0.4,0,0.6c0-0.1,0.2-0.2,0.3-0.3c0,0.2,0,0.4,0,0.6c0-0.1,0.2-0.2,0.3-0.3c0,0.2,0,0.4,0,0.6c0-0.1,0.2-0.2,0.3-0.3
						c0,0.2,0,0.4,0,0.6c0-0.1,0.2-0.2,0.3-0.3c0,0.2,0,0.4,0,0.6c0-0.1,0.2-0.2,0.3-0.3c0,0.2,0,0.4,0,0.6c0-0.1,0.2-0.2,0.3-0.3
						c0,0.2,0,0.4,0,0.6c0-0.1,0.2-0.2,0.3-0.3c0,0.2,0,0.4,0,0.6c0-0.1,0.2-0.2,0.3-0.3c0,0.2,0,0.4,0,0.6c0-0.1,0.2-0.2,0.3-0.3
						c0,0.2,0,0.4,0,0.6c0-0.1,0.2-0.2,0.3-0.3c0,0.2,0,0.4,0,0.6c0-0.1,0.2-0.2,0.3-0.3c0,0.2,0,0.4,0,0.6c0-0.1,0.2-0.2,0.3-0.3
						c0,0.2,0,0.4,0,0.6c0-0.1,0.2-0.2,0.3-0.3c0,0.2,0,0.4,0,0.6c0-0.1,0.2-0.2,0.3-0.3c0,0.2,0,0.4,0,0.6c0-0.1,0.2-0.2,0.3-0.3
						c0,0.2,0,0.4,0,0.6c0-0.1,0.2-0.2,0.3-0.3c0,0.2,0,0.4,0,0.6c0-0.1,0.2-0.2,0.3-0.3c0,0.2,0,0.4,0,0.6c0-0.1,0.2-0.2,0.3-0.3
						c0,0.2,0,0.4,0,0.6c0-0.1,0.2-0.2,0.3-0.3c0,0.2,0,0.4,0,0.6c0-0.1,0.2-0.2,0.3-0.3c0,0.2,0,0.4,0,0.6c0-0.1,0.2-0.2,0.3-0.3
						c0,0.2,0,0.4,0,0.6c0-0.1,0.2-0.2,0.3-0.3c0,0.2,0,0.4,0,0.6c0-0.1,0.2-0.2,0.3-0.3c0,0.2,0,0.4,0,0.6c0-0.1,0.2-0.2,0.3-0.3
						c0,0.2,0,0.4,0,0.6c0-0.1,0.2-0.2,0.3-0.3c0,0.2,0,0.4,0,0.6c0-0.1,0.2-0.2,0.3-0.3c0,0.2,0,0.4,0,0.6c0-0.1,0.2-0.2,0.3-0.3
						c0,0.2,0,0.4,0,0.6c0-0.1,0.2-0.2,0.3-0.3c0,0.2,0,0.4,0,0.6c0-0.1,0.2-0.2,0.3-0.3c0,0.2,0,0.4,0,0.6c0-0.1,0.2-0.2,0.3-0.3
						c0,0.2,0,0.4,0,0.6c0-0.1,0.2-0.2,0.3-0.3c0,0.2,0,0.4,0,0.6c0-0.1,0.2-0.2,0.3-0.3c0,0.2,0,0.4,0,0.6c0-0.1,0.2-0.2,0.3-0.3
						c0,0.1,0,0.3,0,0.4h0.1c0,0,0.1-0.1,0.1-0.2c0,0,0,0.1,0,0.2C412,684,430,678.9,436.7,660.3z"/>
				</g>
			</g>
		</g>
	</g>
</g>
<g>
	<path class="st35" d="M418.1,643.5l-9.2,8.1l3.9-0.1c0,0-6.8,9.2-14,7.5c16.6-13.5,13.8-39.1,13.8-39.1c-9.6,0.6-15.8-2.3-19-4.4
		v-3.6h3.6c2.1-1.5,0.9-4.5,0.9-4.5l-4.8-0.1c-0.7-2,0.1-3.4,0.1-3.4c3.8-0.9,3.8-5.7,3.8-5.7c-0.3-6.5-6.5-6.5-6.5-6.5
		s-6.2,0-6.5,6.5c0,0,0,4.7,3.8,5.7c0,0,0.9,1.4,0.1,3.4l-4.8,0.1c0,0-1.2,3,0.9,4.5h3.6v4.2c-3.4,2-9.3,4.4-18,3.8
		c0,0-2.9,25.6,13.8,39.2c-7.3,2-14.2-7.5-14.2-7.5l3.9,0.1l-9.3-8.1v12.1l2.4-2.8c0,0,4.6,9.2,15.1,11.8c10.4,2.6,9.9,5.1,9.9,5.1
		l0,0c0,0-0.6-2.4,9.9-5.1c10.4-2.6,15.1-11.8,15.1-11.8l2.4,2.8L418.1,643.5z M387.6,598.2c0-1.6,1.3-2.9,2.9-2.9s2.9,1.3,2.9,2.9
		c0,1.6-1.3,2.9-2.9,2.9C388.8,601,387.6,599.7,387.6,598.2z M372.2,622.3c12.9,0.8,18.8-5.7,18.8-5.7s5.9,6.5,18.8,5.7
		c0,0,2.8,24.5-14.1,35.7l0,0c-1.4,0.9-3,1.7-4.6,2.4c-1.7-0.7-3.2-1.6-4.7-2.4l0,0C369.4,646.6,372.2,622.3,372.2,622.3z"/>
	<path class="st35" d="M390.9,622.6c-7.9,0-14.2,6.4-14.2,14.2s6.4,14.2,14.2,14.2s14.2-6.4,14.2-14.2S398.8,622.6,390.9,622.6z
		 M390.9,625.3c3.7,0,6.8,1.7,9,4.2l-2.6,2.2c-1.5-1.8-3.8-3-6.2-3c-2.6,0-4.9,1.3-6.4,3.2l-2.7-2.2
		C384,627,387.2,625.3,390.9,625.3z M385.6,636.8c0-3,2.4-5.4,5.4-5.4s5.4,2.4,5.4,5.4s-2.4,5.4-5.4,5.4S385.6,639.8,385.6,636.8z
		 M390.9,648.3c-3.4,0-6.5-1.6-8.6-3.9l2.7-2.3c1.5,1.7,3.7,2.7,6,2.7s4.6-1.1,6-2.7l2.6,2.1C397.5,646.8,394.4,648.3,390.9,648.3z"
		/>
</g>
<path class="st54" d="M746,583.8c-27.1,0-49.1,22-49.1,49.1s22,49.1,49.1,49.1s49.1-22,49.1-49.1S773.2,583.8,746,583.8z"/>
<g>
	<g>
		<g>
			<g>
				<g>
					<defs>
						<path id="SVGID_12_" d="M746,583.8c-27.1,0-49.1,22-49.1,49.1s22,49.1,49.1,49.1s49.1-22,49.1-49.1S773.2,583.8,746,583.8z"/>
					</defs>
					<clipPath id="SVGID_13_">
						<use xlink:href="#SVGID_12_"  style="overflow:visible;"/>
					</clipPath>
					
						<linearGradient id="SVGID_14_" gradientUnits="userSpaceOnUse" x1="447.1319" y1="391.4099" x2="464.8019" y2="373.7399" gradientTransform="matrix(3 0 0 -3 -616 1791.38)">
						<stop  offset="7.208626e-02" style="stop-color:#1D1D1B"/>
						<stop  offset="1" style="stop-color:#11273D"/>
					</linearGradient>
					<path class="st57" d="M784.5,663.6c4.9-5.5,8-12.6,9.4-19.5c-1.6-1.5,0,0-1.5-1.5c-3.6-3.6-7.1-7.4-10.7-11.1
						c-1.8-1.8-3.6-3.7-5.5-5.4c-0.9-0.8-1.8-1.8-2.7-2.8c-0.7-0.8-1.8-2-2.9-2.6c-0.1,0,0-0.2-0.3-0.3c-0.2,0-0.6,0-0.7,0
						c-0.5-0.2-0.4-0.4-0.7-0.7c-0.4-0.4-1-0.8-1.5-1.2c-0.9-0.8-1.7-2-2.6-2.9c-0.9-0.9-2.4-1.4-3.2-2.4c-0.8-0.9-1.7-2-2.7-2.8
						c-0.9-0.8-1.8-1.8-2.7-2.8c-0.3-0.3-1.1-1.2-1.4-1.4c-0.7-0.3-2.2,0-3,0c-4.3,0-8.6,0-12.8,0c-1.4,0-1.3-0.3-1.5,0.9
						c-0.3,2,0.1,4.1,0,6.2c-0.1,1.6-0.5,1.1-2.3,1.1c-1.1,0-2.3,0-3.3,0c-0.7,0-2.3-0.3-2.8,0c-0.9,0.4-0.4,2.8-0.4,3.9
						c0,2,0.3,2-1.6,2c-0.8,0-4.7-0.5-5.2,0c-0.4,0.4,0,3.2,0,3.7c0,2.3,0,4.6,0,6.9c0,0.6,0.3,2.5-0.1,2.9
						c-0.8,0.8-4.1,1.1-5.3,1.4c-1.5,0.4-3,0.7-4.4,1.1c2.8,5.8,5.4,11.6,8.3,17.3c1.1,2.1,3,3.5,4.5,5.1c3.2,3.2,6.5,6.4,9.7,9.6
						c3.2,3.2,6.4,6.5,9.7,9.8c2.2,2.2,1.7,1.7,3.9,3.9c3.8-0.2,12.6-1.3,19.3-5C776.5,673.1,778.3,670,784.5,663.6z"/>
				</g>
			</g>
		</g>
	</g>
</g>
<path class="st58" d="M770.7,634.1v-13.6h-6.9v-6H755v-8.2h-17.3v8.2h-8.8v5.9H722V634l-9.8,2.5l8.8,18.4h50.8l8.8-18.3L770.7,634.1
	z M746.7,650.9H724l-5.9-12.3l28.7-7.2L746.7,650.9L746.7,650.9z M767,633l-20.3-5.3l-21,5.4v-9.3h6.8v-5.4h9.2v-8.7h9.1v8.7h9.2
	v5.4h6.8L767,633L767,633L767,633z"/>
<g>
	<g>
		<line class="st20" x1="637.5" y1="634.6" x2="675.8" y2="634.4"/>
		<g>
			<polygon class="st47" points="641.2,647.1 619.5,634.7 641.1,622.1 			"/>
		</g>
		<g>
			<polygon class="st47" points="672.2,646.9 693.7,634.3 672,622 			"/>
		</g>
	</g>
</g>
<g class="st6">
	<path class="st2" d="M363.9,699.6c0,1.6-1.6,2.9-3.8,2.9c-1.6,0-2.7-0.3-3.9-0.9l0.6-1.2c0.9,0.5,2,0.8,3.2,0.8
		c1.2,0,2.3-0.6,2.3-1.5c0-2.9-5.9-1.3-5.9-5.1c0-1.8,1.4-2.9,3.3-2.9c0.6,0,2.1,0.1,3.7,0.9l-0.6,1.3c-0.7-0.3-2-0.7-2.7-0.7
		c-1.1,0-2,0.2-2.1,1.4C357.9,696.8,363.9,695.4,363.9,699.6z"/>
	<path class="st2" d="M367.9,697.8v3.2h5.5v1.4h-7v-10.7h7v1.4h-5.5v3.3h4.3v1.4H367.9z"/>
	<path class="st2" d="M383.3,694.3c-0.6-0.7-1.7-1.3-2.9-1.3c-3.2,0-3.7,3.1-3.7,4.1c0,1,0.5,4.1,3.7,4.1c1.2,0,2.3-0.7,3-1.3
		l0.9,1.1c-1,1-2.2,1.6-3.9,1.6c-4.1,0-5.3-3.2-5.3-5.5c0-2.2,1.2-5.5,5.3-5.5c1.8,0,3,0.7,3.9,1.7L383.3,694.3z"/>
	<path class="st2" d="M393.4,698.3v-6.6h1.6v6.6c0,1.8-1.1,4.2-4.2,4.2s-4.1-2.4-4.1-4.2v-6.6h1.6v6.6c0,0.7,0.5,2.8,2.6,2.8
		C392.9,701.1,393.4,699.1,393.4,698.3z"/>
	<path class="st2" d="M399.4,702.4h-1.5v-10.7h3.9c2.8,0,3.7,2,3.7,3.3c0,1.6-1.1,2.7-2.4,3.2l1.9,4.1h-1.7l-1.9-4h-2.1V702.4z
		 M403.9,695.1c0-0.7-0.4-2-2.1-2h-2.5v4h2.5C403.6,697,403.9,695.7,403.9,695.1z"/>
	<path class="st2" d="M409.5,702.4h-1.6v-10.7h1.6V702.4z"/>
	<path class="st2" d="M414.8,693.1h-3.1v-1.4h7.8v1.4h-3.1v9.3h-1.6V693.1z"/>
	<path class="st2" d="M425.8,702.4h-1.6v-4.8l-3.6-5.9h1.8l2.6,4.3l2.6-4.3h1.8l-3.6,5.8V702.4z"/>
</g>
<g class="st6">
	<path class="st2" d="M544,702.5l-3.2-6.8l-2.3,6.7h-1.7l3.7-10.8h0.1l3.4,7.7l3.4-7.7h0.1l3.7,10.8h-1.7l-2.3-6.7L544,702.5
		L544,702.5z"/>
	<path class="st2" d="M554.8,702.4h-1.6v-10.7h1.6V702.4z"/>
	<path class="st2" d="M559.4,701h4.1v1.4h-5.6v-10.7h1.6V701z"/>
	<path class="st2" d="M567.5,702.4h-1.6v-10.7h1.6V702.4z"/>
	<path class="st2" d="M572.8,693.1h-3.1v-1.4h7.8v1.4h-3.1v9.3h-1.6V693.1z"/>
	<path class="st2" d="M583.8,699.6H580l-1.2,2.8h-1.7l4.7-10.8h0.1l4.8,10.8H585L583.8,699.6z M580.6,698.2h2.7l-1.3-3.2
		L580.6,698.2z"/>
	<path class="st2" d="M590.2,702.4h-1.5v-10.7h3.9c2.8,0,3.7,2,3.7,3.3c0,1.6-1.1,2.7-2.4,3.2l1.9,4.1h-1.7l-1.9-4h-2.1V702.4z
		 M594.8,695.1c0-0.7-0.4-2-2.1-2h-2.5v4h2.5C594.4,697,594.8,695.7,594.8,695.1z"/>
	<path class="st2" d="M602.9,702.4h-1.6v-4.8l-3.6-5.9h1.8l2.6,4.3l2.6-4.3h1.8l-3.6,5.8V702.4z"/>
</g>
<g class="st6">
	<path class="st2" d="M728.1,699.6c0,1.6-1.6,2.9-3.8,2.9c-1.6,0-2.7-0.3-3.9-0.9l0.6-1.2c0.9,0.5,2,0.8,3.2,0.8
		c1.2,0,2.3-0.6,2.3-1.5c0-2.9-5.9-1.3-5.9-5.1c0-1.8,1.4-2.9,3.3-2.9c0.6,0,2.1,0.1,3.7,0.9l-0.6,1.3c-0.7-0.3-2-0.7-2.7-0.7
		c-1.1,0-2,0.2-2.1,1.4C722.1,696.8,728.1,695.4,728.1,699.6z"/>
	<path class="st2" d="M736.1,699.6h-3.8l-1.2,2.8h-1.7l4.7-10.8h0.1l4.8,10.8h-1.7L736.1,699.6z M732.9,698.2h2.7l-1.3-3.2
		L732.9,698.2z"/>
	<path class="st2" d="M742.6,697.8v4.6H741v-10.7h7v1.4h-5.5v3.3h4.3v1.4H742.6z"/>
	<path class="st2" d="M752,697.8v3.2h5.5v1.4h-7v-10.7h7v1.4H752v3.3h4.3v1.4H752z"/>
	<path class="st2" d="M762.1,693.1h-3.1v-1.4h7.8v1.4h-3.1v9.3h-1.6V693.1z"/>
	<path class="st2" d="M773.1,702.4h-1.6v-4.8l-3.6-5.9h1.8l2.6,4.3l2.6-4.3h1.8l-3.6,5.8V702.4z"/>
</g>
<g>
	<g>
		<line class="st20" x1="568.7" y1="764.3" x2="568.7" y2="726.8"/>
		<g>
			<polygon class="st47" points="581.2,760.6 568.7,782.2 556.3,760.6 			"/>
		</g>
		<g>
			<polygon class="st47" points="581.2,730.5 568.7,708.9 556.3,730.5 			"/>
		</g>
	</g>
</g>
<g class="st6">
	<path class="st2" d="M628.5,522.7c0,1.6-1.6,2.9-3.8,2.9c-1.6,0-2.7-0.3-3.9-0.9l0.6-1.2c0.9,0.5,2,0.8,3.2,0.8
		c1.2,0,2.3-0.6,2.3-1.5c0-2.9-5.9-1.3-5.9-5.1c0-1.8,1.4-2.9,3.3-2.9c0.6,0,2.1,0.1,3.7,0.9l-0.6,1.3c-0.7-0.3-2-0.7-2.7-0.7
		c-1.1,0-2,0.2-2.1,1.4C622.5,519.9,628.5,518.5,628.5,522.7z"/>
	<path class="st2" d="M632.5,525.5H631v-10.7h1.6v4.7h5.5v-4.7h1.6v10.7H638v-4.6h-5.5V525.5z"/>
	<path class="st2" d="M644.1,525.5h-1.6v-10.7h1.6V525.5z"/>
	<path class="st2" d="M648.7,525.5h-1.6v-10.7h4c2.8,0,3.7,2,3.7,3.3c0,2-1.8,3.4-3.5,3.4h-2.6V525.5z M653.2,518.2
		c0-0.7-0.4-2-2.1-2h-2.5v4h2.5C652.9,520.1,653.2,518.8,653.2,518.2z"/>
	<path class="st2" d="M657.4,525.5h-1.2l3.5-10.7h1.2L657.4,525.5z"/>
	<path class="st2" d="M669,525.6l-3.2-6.8l-2.3,6.7h-1.7l3.7-10.8h0.1l3.4,7.7l3.4-7.7h0.1l3.7,10.8h-1.7l-2.3-6.7L669,525.6
		L669,525.6z"/>
	<path class="st2" d="M687.7,520.1c0,2.3-1.2,5.5-5.3,5.5c-4.1,0-5.3-3.2-5.3-5.5c0-2.2,1.2-5.5,5.3-5.5
		C686.5,514.7,687.7,517.9,687.7,520.1z M686.1,520.1c0-1-0.5-4.1-3.7-4.1c-3.2,0-3.7,3.1-3.7,4.1c0,1,0.5,4.1,3.7,4.1
		C685.6,524.2,686.1,521.2,686.1,520.1z"/>
	<path class="st2" d="M697.8,522.5c0,1.3-0.9,3-3.7,3h-3.9v-10.7h3.9c2.8,0,3.7,1.8,3.7,3c0,0.8-0.4,1.8-1.3,2.3
		C697.4,520.6,697.8,521.8,697.8,522.5z M696.2,517.8c0-0.4-0.3-1.7-1.9-1.7h-2.6v3.4h2.6C695.9,519.5,696.2,518.4,696.2,517.8z
		 M696.2,522.5c0-0.6-0.3-1.5-1.9-1.6h-2.6v3.2h2.6C695.9,524.1,696.2,522.9,696.2,522.5z"/>
	<path class="st2" d="M701.8,525.5h-1.6v-10.7h1.6V525.5z"/>
	<path class="st2" d="M706.4,524.1h4.1v1.4h-5.6v-10.7h1.6V524.1z"/>
	<path class="st2" d="M714.5,520.9v3.2h5.5v1.4h-7v-10.7h7v1.4h-5.5v3.3h4.3v1.4H714.5z"/>
	<path class="st2" d="M733.5,521.4v-6.6h1.6v6.6c0,1.8-1.1,4.2-4.2,4.2s-4.1-2.4-4.1-4.2v-6.6h1.6v6.6c0,0.7,0.5,2.8,2.6,2.8
		S733.5,522.2,733.5,521.4z"/>
	<path class="st2" d="M745,514.8h1.6v10.7l-0.1,0.1l-6.9-7.2h0v7.1H738v-10.7l0.1-0.1l6.9,7.2V514.8z"/>
	<path class="st2" d="M751.2,525.5h-1.6v-10.7h1.6V525.5z"/>
	<path class="st2" d="M756.5,516.2h-3.1v-1.4h7.8v1.4h-3.1v9.3h-1.6V516.2z"/>
	<path class="st2" d="M770.2,522.7c0,1.6-1.6,2.9-3.8,2.9c-1.6,0-2.7-0.3-3.9-0.9l0.6-1.2c0.9,0.5,2,0.8,3.2,0.8
		c1.2,0,2.3-0.6,2.3-1.5c0-2.9-5.9-1.3-5.9-5.1c0-1.8,1.4-2.9,3.3-2.9c0.6,0,2.1,0.1,3.7,0.9l-0.6,1.3c-0.7-0.3-2-0.7-2.7-0.7
		c-1.1,0-2,0.2-2.1,1.4C764.2,519.9,770.2,518.5,770.2,522.7z"/>
</g>
<g class="st6">
	<path class="st2" d="M372,521.1c0,2.3-1.2,5.5-5.3,5.5c-4.1,0-5.3-3.2-5.3-5.5c0-2.2,1.2-5.5,5.3-5.5
		C370.8,515.7,372,518.9,372,521.1z M370.4,521.1c0-1-0.5-4.1-3.7-4.1c-3.2,0-3.7,3.1-3.7,4.1c0,1,0.5,4.1,3.7,4.1
		C370,525.2,370.4,522.2,370.4,521.1z"/>
	<path class="st2" d="M376,526.5h-1.6v-10.7h4c2.8,0,3.7,2,3.7,3.3c0,2-1.8,3.4-3.5,3.4H376V526.5z M380.6,519.2c0-0.7-0.4-2-2.1-2
		H376v4h2.5C380.2,521.1,380.6,519.8,380.6,519.2z"/>
	<path class="st2" d="M386.1,521.9v3.2h5.5v1.4h-7v-10.7h7v1.4h-5.5v3.3h4.3v1.4H386.1z"/>
	<path class="st2" d="M395.6,526.5H394v-10.7h3.9c2.8,0,3.7,2,3.7,3.3c0,1.6-1.1,2.7-2.4,3.2l1.9,4.1h-1.7l-1.9-4h-2.1V526.5z
		 M400.1,519.2c0-0.7-0.4-2-2.1-2h-2.5v4h2.5C399.7,521.1,400.1,519.8,400.1,519.2z"/>
	<path class="st2" d="M409.8,523.7h-3.8l-1.2,2.8H403l4.7-10.8h0.1l4.8,10.8h-1.7L409.8,523.7z M406.5,522.3h2.7l-1.3-3.2
		L406.5,522.3z"/>
	<path class="st2" d="M415.4,517.2h-3.1v-1.4h7.8v1.4h-3.1v9.3h-1.6V517.2z"/>
	<path class="st2" d="M423.8,526.5h-1.6v-10.7h1.6V526.5z"/>
	<path class="st2" d="M436.8,521.1c0,2.3-1.2,5.5-5.3,5.5c-4.1,0-5.3-3.2-5.3-5.5c0-2.2,1.2-5.5,5.3-5.5
		C435.6,515.7,436.8,518.9,436.8,521.1z M435.2,521.1c0-1-0.5-4.1-3.7-4.1c-3.2,0-3.7,3.1-3.7,4.1c0,1,0.5,4.1,3.7,4.1
		C434.7,525.2,435.2,522.2,435.2,521.1z"/>
	<path class="st2" d="M446.3,515.8h1.6v10.7l-0.1,0.1l-6.9-7.2h0v7.1h-1.6v-10.7l0.1-0.1l6.9,7.2V515.8z"/>
	<path class="st2" d="M458,523.7c0,1.6-1.6,2.9-3.8,2.9c-1.6,0-2.7-0.3-3.9-0.9l0.6-1.2c0.9,0.5,2,0.8,3.2,0.8
		c1.2,0,2.3-0.6,2.3-1.5c0-2.9-5.9-1.3-5.9-5.1c0-1.8,1.4-2.9,3.3-2.9c0.6,0,2.1,0.1,3.7,0.9l-0.6,1.3c-0.7-0.3-2-0.7-2.7-0.7
		c-1.1,0-2,0.2-2.1,1.4C452,520.9,458,519.5,458,523.7z"/>
	<path class="st2" d="M472.5,518.4c-0.6-0.7-1.7-1.3-2.9-1.3c-3.2,0-3.7,3.1-3.7,4.1c0,1,0.5,4.1,3.7,4.1c1.2,0,2.3-0.7,3-1.3
		l0.9,1.1c-1,1-2.2,1.6-3.9,1.6c-4.1,0-5.3-3.2-5.3-5.5c0-2.2,1.2-5.5,5.3-5.5c1.8,0,3,0.7,3.9,1.7L472.5,518.4z"/>
	<path class="st2" d="M477.6,521.9v3.2h5.5v1.4h-7v-10.7h7v1.4h-5.5v3.3h4.3v1.4H477.6z"/>
	<path class="st2" d="M492.5,515.8h1.6v10.7l-0.1,0.1l-6.9-7.2h0v7.1h-1.6v-10.7l0.1-0.1l6.9,7.2V515.8z"/>
	<path class="st2" d="M499.2,517.2h-3.1v-1.4h7.8v1.4h-3.1v9.3h-1.6V517.2z"/>
	<path class="st2" d="M507.7,521.9v3.2h5.5v1.4h-7v-10.7h7v1.4h-5.5v3.3h4.3v1.4H507.7z"/>
	<path class="st2" d="M517.1,526.5h-1.5v-10.7h3.9c2.8,0,3.7,2,3.7,3.3c0,1.6-1.1,2.7-2.4,3.2l1.9,4.1h-1.7l-1.9-4h-2.1V526.5z
		 M521.7,519.2c0-0.7-0.4-2-2.1-2h-2.5v4h2.5C521.3,521.1,521.7,519.8,521.7,519.2z"/>
	<path class="st2" d="M532.7,523.7c0,1.6-1.6,2.9-3.8,2.9c-1.6,0-2.7-0.3-3.9-0.9l0.6-1.2c0.9,0.5,2,0.8,3.2,0.8
		c1.2,0,2.3-0.6,2.3-1.5c0-2.9-5.9-1.3-5.9-5.1c0-1.8,1.4-2.9,3.3-2.9c0.6,0,2.1,0.1,3.7,0.9l-0.6,1.3c-0.7-0.3-2-0.7-2.7-0.7
		c-1.1,0-2,0.2-2.1,1.4C526.7,520.9,532.7,519.5,532.7,523.7z"/>
</g>
<path d="M568.7,788.3c-22.6,0-41,18.4-41,41s18.4,41,41,41s41-18.4,41-41S591.4,788.3,568.7,788.3z M556.2,800.9
	c-1.1-1.3,0-5.1,0-5.1l-4.2,0.8c0,0,3.8,1.4,0,2.3s-1.9,3.4-1.9,3.4c2.3,4.9-1.2,5.6-1.2,5.6s-3.2-3.1-2.5-1s-2.8,3.3-2.8,3.3
	C540,811,539,815,539,815c-1.7,3.5-5.5,6.1-5.5,6.1c0,4.3,2.2,5.8,2.2,5.8c5.1-1,7.3,3.4,7.3,3.4c3.7,0,5.1,3.8,5.1,3.8
	c0.6,1.1,6.7,3,6.7,3c2.3,1.3-0.6,5.9-0.6,5.9c0.6,5.7-2.3,5.5-2.3,5.5c-1.7,0.2-1.1,1-1.1,1c0.4,0.4,0,1.5-0.8,5.7
	c-0.7,4.2,0,4.8,0,4.8c-4,0-9.5-6.9-9.5-6.9c-0.1-1.3-1.2-8.8-1.2-8.8c-6.9-7.1-5-14.1-5-14.1c-0.8-3.1-2.7-2.5-2.7-2.5
	c-2.1-2.7,0-9.2,0-9.2c5.9-19.3,18.3-22,18.3-22l4-2.3c0,0,2.9-1,9-1.9c6.1-1,9.1,0,9.1,0c-1.5,4-6.7,5.5-7.2,5.1
	c-0.6-0.4-4.4,0.9-4.4,0.9S557.3,802.2,556.2,800.9z M599.3,825.3c0,0-0.8,1.9,0.4,2.5c1.1,0.6,1,2.5,0,3.4s-3.9,5-3.9,5
	c1.3,0.6,0,5.5,0,5.5c-6.9,15.1-11.7,11.6-11.7,11.6c0.2-0.8-5.4-7.2-5.4-7.2c-0.6-1.5,3.4-4.2-0.6-9.9c-1-1.4-2.6-2.5-2.6-2.5
	l-3.3-0.4c0,0-6.5-1.8-8-3.1c-1.5-1.4-2.3-8.2-2.3-8.2c0.2-5,7-6.6,7-6.6c1.9-1,2.5-3.4,2.5-3.4l-0.6-0.4c-5.9-6.9,3.4-7.6,3.4-7.6
	c1.7,0.2,3.5-1.3,3.5-1.3c-2.5-2.9,1.7-4.6,1.7-4.6c1.7-0.2,3.8-2.7,3.8-2.7c13.1,3.4,21.5,26.1,21.5,26.1l-2.5,0.4
	C602.7,825.1,599.3,825.3,599.3,825.3z"/>
<g>
	<g>
		<path class="st20" d="M640.7,807.3c25.1-7,71.2-26.9,98.8-82"/>
		<g>
			<polygon class="st47" points="646.8,818.5 623.1,810.9 641.5,794.1 			"/>
		</g>
		<g>
			<polygon class="st47" points="749.2,733.7 746.7,708.9 726.5,723.4 			"/>
		</g>
	</g>
</g>
<g class="st6">
	<path class="st2" d="M505.5,876.8h1.6v10.7l-0.1,0.1l-6.9-7.2h0v7.1h-1.6v-10.7l0.1-0.1l6.9,7.2V876.8z"/>
	<path class="st2" d="M515.8,884.6H512l-1.2,2.8h-1.7l4.7-10.8h0.1l4.8,10.8H517L515.8,884.6z M512.5,883.2h2.7l-1.3-3.2
		L512.5,883.2z"/>
	<path class="st2" d="M521.4,878.1h-3.1v-1.4h7.8v1.4H523v9.3h-1.6V878.1z"/>
	<path class="st2" d="M529.9,887.4h-1.6v-10.7h1.6V887.4z"/>
	<path class="st2" d="M542.8,882.1c0,2.3-1.2,5.5-5.3,5.5s-5.3-3.2-5.3-5.5c0-2.2,1.2-5.5,5.3-5.5S542.8,879.8,542.8,882.1z
		 M541.2,882.1c0-1-0.5-4.1-3.7-4.1c-3.2,0-3.7,3.1-3.7,4.1c0,1,0.5,4.1,3.7,4.1C540.8,886.2,541.2,883.1,541.2,882.1z"/>
	<path class="st2" d="M552.3,876.8h1.6v10.7l-0.1,0.1l-6.9-7.2h0v7.1h-1.6v-10.7l0.1-0.1l6.9,7.2V876.8z"/>
	<path class="st2" d="M563.8,878.1h-3.1v-1.4h7.8v1.4h-3.1v9.3h-1.6V878.1z"/>
	<path class="st2" d="M579.9,882.1c0,2.3-1.2,5.5-5.3,5.5c-4.1,0-5.3-3.2-5.3-5.5c0-2.2,1.2-5.5,5.3-5.5
		C578.7,876.6,579.9,879.8,579.9,882.1z M578.3,882.1c0-1-0.5-4.1-3.7-4.1c-3.2,0-3.7,3.1-3.7,4.1c0,1,0.5,4.1,3.7,4.1
		C577.8,886.2,578.3,883.1,578.3,882.1z"/>
	<path class="st2" d="M593.9,876.8h1.6v10.7l-0.1,0.1l-6.9-7.2h0v7.1h-1.6v-10.7l0.1-0.1l6.9,7.2V876.8z"/>
	<path class="st2" d="M604.2,884.6h-3.8l-1.2,2.8h-1.7l4.7-10.8h0.1l4.8,10.8h-1.7L604.2,884.6z M600.9,883.2h2.7l-1.3-3.2
		L600.9,883.2z"/>
	<path class="st2" d="M609.8,878.1h-3.1v-1.4h7.8v1.4h-3.1v9.3h-1.6V878.1z"/>
	<path class="st2" d="M618.3,887.4h-1.6v-10.7h1.6V887.4z"/>
	<path class="st2" d="M631.2,882.1c0,2.3-1.2,5.5-5.3,5.5c-4.1,0-5.3-3.2-5.3-5.5c0-2.2,1.2-5.5,5.3-5.5
		C630,876.6,631.2,879.8,631.2,882.1z M629.6,882.1c0-1-0.5-4.1-3.7-4.1c-3.2,0-3.7,3.1-3.7,4.1c0,1,0.5,4.1,3.7,4.1
		C629.2,886.2,629.6,883.1,629.6,882.1z"/>
	<path class="st2" d="M640.7,876.8h1.6v10.7l-0.1,0.1l-6.9-7.2h0v7.1h-1.6v-10.7l0.1-0.1l6.9,7.2V876.8z"/>
</g>
<g>
	<g>
		<path class="st20" d="M398.2,725.3c27.6,55.1,73.7,75,98.8,82"/>
		<g>
			<polygon class="st47" points="388.5,733.7 391,708.9 411.2,723.4 			"/>
		</g>
		<g>
			<polygon class="st47" points="490.9,818.5 514.6,810.9 496.2,794.1 			"/>
		</g>
	</g>
</g>
<g>
	<g>
		<line class="st20" x1="459.7" y1="634.8" x2="498" y2="634.6"/>
		<g>
			<polygon class="st47" points="463.5,647.3 441.8,634.9 463.3,622.3 			"/>
		</g>
		<g>
			<polygon class="st47" points="494.4,647.1 516,634.5 494.3,622.2 			"/>
		</g>
	</g>
</g>
<g class="st6">
	<path class="st7" d="M299.7,227.1h-2v-29h15.9v1.9h-13.9v12.3h13.1v1.9h-13.1V227.1z"/>
	<path class="st7" d="M339.4,198.1v18.8c0,3.3-1,5.9-2.9,7.8s-4.6,2.8-8.1,2.8c-3.4,0-6-0.9-7.9-2.8c-1.9-1.9-2.8-4.5-2.8-7.9v-18.7
		h2v18.8c0,2.8,0.8,5,2.3,6.5c1.5,1.6,3.7,2.3,6.6,2.3c2.8,0,4.9-0.8,6.4-2.3c1.5-1.5,2.3-3.6,2.3-6.4v-19H339.4z"/>
	<path class="st7" d="M363.3,219.6c0,2.4-0.9,4.3-2.7,5.8c-1.8,1.4-4.1,2.1-7.1,2.1c-3.5,0-6.3-0.4-8.2-1.2v-2
		c2.1,0.9,4.8,1.3,8,1.3c2.4,0,4.3-0.5,5.7-1.6c1.4-1.1,2.1-2.5,2.1-4.3c0-1.1-0.2-2-0.7-2.7s-1.2-1.4-2.3-2s-2.6-1.2-4.6-1.9
		c-3-1-5-2.1-6.1-3.3c-1.1-1.2-1.7-2.8-1.7-4.7c0-2.2,0.8-3.9,2.5-5.3c1.7-1.4,3.9-2.1,6.6-2.1c2.7,0,5.3,0.5,7.7,1.5l-0.7,1.7
		c-2.4-1-4.7-1.5-6.9-1.5c-2.1,0-3.8,0.5-5.1,1.5s-1.9,2.3-1.9,4c0,1.1,0.2,2,0.6,2.6c0.4,0.7,1,1.3,1.9,1.9c0.9,0.5,2.4,1.2,4.6,2
		c2.3,0.8,4,1.5,5.1,2.3c1.1,0.7,2,1.6,2.5,2.5C363,217.2,363.3,218.3,363.3,219.6z"/>
	<path class="st7" d="M385.3,227.1h-15.9v-29h15.9v1.9h-13.8v11h13.1v1.9h-13.1v12.4h13.8V227.1z"/>
	<path class="st7" d="M393.6,222.4l0.2,0.4c-1,3.5-2.1,6.7-3.5,9.5h-1.3c1-3.6,1.7-7,2.2-10H393.6z"/>
	<path class="st7" d="M433.2,212.3c0,4.9-1.3,8.6-3.8,11c-2.6,2.5-6.3,3.7-11.3,3.7h-6.9v-29h7.8c4.6,0,8.2,1.2,10.6,3.6
		C432,204.1,433.2,207.7,433.2,212.3z M431,212.4c0-4.2-1.1-7.3-3.2-9.4s-5.2-3.1-9.3-3.1h-5.3v25.4h4.8
		C426.6,225.3,431,221,431,212.4z"/>
	<path class="st7" d="M439.8,227.1v-29h2v29H439.8z"/>
	<path class="st7" d="M466.1,219.6c0,2.4-0.9,4.3-2.7,5.8c-1.8,1.4-4.1,2.1-7.1,2.1c-3.5,0-6.3-0.4-8.2-1.2v-2
		c2.1,0.9,4.8,1.3,8,1.3c2.4,0,4.3-0.5,5.7-1.6c1.4-1.1,2.1-2.5,2.1-4.3c0-1.1-0.2-2-0.7-2.7c-0.5-0.7-1.2-1.4-2.3-2
		c-1-0.6-2.6-1.2-4.6-1.9c-3-1-5-2.1-6.1-3.3c-1.1-1.2-1.7-2.8-1.7-4.7c0-2.2,0.9-3.9,2.6-5.3c1.7-1.4,3.9-2.1,6.6-2.1
		c2.7,0,5.3,0.5,7.7,1.5l-0.7,1.7c-2.4-1-4.7-1.5-6.9-1.5c-2.1,0-3.8,0.5-5.1,1.5c-1.3,1-1.9,2.3-1.9,4c0,1.1,0.2,2,0.6,2.6
		c0.4,0.7,1,1.3,1.9,1.9s2.4,1.2,4.6,2c2.3,0.8,4,1.5,5.1,2.3c1.1,0.7,2,1.6,2.5,2.5S466.1,218.3,466.1,219.6z"/>
	<path class="st7" d="M479.8,227.1h-2V200h-9.4v-1.9h20.9v1.9h-9.4V227.1z"/>
	<path class="st7" d="M495.6,214.5v12.6h-2v-29h6.9c3.6,0,6.3,0.7,8,2c1.7,1.3,2.6,3.3,2.6,6c0,1.9-0.5,3.6-1.5,4.9
		c-1,1.3-2.6,2.3-4.7,2.9l7.9,13.2h-2.4l-7.5-12.6H495.6z M495.6,212.7h5.5c2.4,0,4.3-0.5,5.7-1.6c1.3-1.1,2-2.7,2-4.8
		c0-2.2-0.7-3.8-2-4.8c-1.3-1-3.5-1.5-6.5-1.5h-4.8V212.7z"/>
	<path class="st7" d="M517.7,227.1v-29h2v29H517.7z"/>
	<path class="st7" d="M527.9,198.1h8c3.6,0,6.2,0.6,7.9,1.8c1.7,1.2,2.5,3.1,2.5,5.5c0,1.7-0.5,3.1-1.5,4.2s-2.5,1.8-4.5,2.2v0.1
		c2.3,0.3,4,1.1,5.1,2.2c1.1,1.1,1.6,2.7,1.6,4.7c0,2.7-0.9,4.7-2.7,6.2c-1.8,1.4-4.3,2.2-7.5,2.2h-8.9V198.1z M529.9,211h6.4
		c2.7,0,4.7-0.5,5.9-1.4s1.9-2.3,1.9-4.3s-0.7-3.3-2.1-4.2s-3.5-1.3-6.2-1.3h-5.9V211z M529.9,212.8v12.5h6.8c5.4,0,8.1-2.2,8.1-6.5
		c0-4-2.8-6-8.5-6H529.9z"/>
	<path class="st7" d="M574.7,198.1v18.8c0,3.3-1,5.9-2.9,7.8s-4.6,2.8-8.1,2.8c-3.4,0-6-0.9-7.9-2.8c-1.9-1.9-2.8-4.5-2.8-7.9v-18.7
		h2v18.8c0,2.8,0.8,5,2.3,6.5s3.7,2.3,6.6,2.3c2.8,0,4.9-0.8,6.4-2.3c1.5-1.5,2.3-3.6,2.3-6.4v-19H574.7z"/>
	<path class="st7" d="M590.2,227.1h-2V200h-9.4v-1.9h20.9v1.9h-9.4V227.1z"/>
	<path class="st7" d="M619.8,227.1h-15.9v-29h15.9v1.9H606v11H619v1.9H606v12.4h13.8V227.1z"/>
	<path class="st7" d="M650.9,216.9h-11.8l-4,10.2h-2.2l11.7-29.1h1.3l11.4,29.1h-2.3L650.9,216.9z M639.8,215h10.4l-3.9-10.5
		c-0.3-0.8-0.7-2-1.2-3.4c-0.4,1.3-0.7,2.4-1.2,3.5L639.8,215z"/>
	<path class="st7" d="M682.4,227.1h-2l-17.2-25.8H663c0.2,3.1,0.2,5.4,0.2,6.9v18.8h-1.9v-29h2l17.2,25.7h0.1
		c-0.1-2.4-0.2-4.6-0.2-6.8v-18.9h2V227.1z"/>
	<path class="st7" d="M712.6,212.3c0,4.9-1.3,8.6-3.8,11c-2.6,2.5-6.3,3.7-11.3,3.7h-6.9v-29h7.8c4.6,0,8.2,1.2,10.6,3.6
		C711.4,204.1,712.6,207.7,712.6,212.3z M710.4,212.4c0-4.2-1.1-7.3-3.2-9.4s-5.2-3.1-9.3-3.1h-5.3v25.4h4.8
		C706.1,225.3,710.4,221,710.4,212.4z"/>
	<path class="st7" d="M745.9,219.6c0,2.4-0.9,4.3-2.7,5.8c-1.8,1.4-4.1,2.1-7.1,2.1c-3.5,0-6.3-0.4-8.2-1.2v-2
		c2.1,0.9,4.8,1.3,8,1.3c2.4,0,4.3-0.5,5.7-1.6c1.4-1.1,2.1-2.5,2.1-4.3c0-1.1-0.2-2-0.7-2.7c-0.5-0.7-1.2-1.4-2.3-2
		s-2.6-1.2-4.6-1.9c-3-1-5-2.1-6.1-3.3c-1.1-1.2-1.7-2.8-1.7-4.7c0-2.2,0.9-3.9,2.6-5.3c1.7-1.4,3.9-2.1,6.6-2.1
		c2.7,0,5.3,0.5,7.7,1.5l-0.7,1.7c-2.4-1-4.7-1.5-6.9-1.5c-2.1,0-3.9,0.5-5.1,1.5c-1.3,1-1.9,2.3-1.9,4c0,1.1,0.2,2,0.6,2.6
		c0.4,0.7,1,1.3,1.9,1.9c0.9,0.5,2.4,1.2,4.6,2c2.3,0.8,4,1.5,5.1,2.3c1.1,0.7,2,1.6,2.5,2.5S745.9,218.3,745.9,219.6z"/>
	<path class="st7" d="M773,227.1h-2v-14.3H754v14.3h-2v-29h2V211H771v-12.9h2V227.1z"/>
	<path class="st7" d="M795.2,216.9h-11.8l-4,10.2h-2.2l11.7-29.1h1.3l11.4,29.1h-2.3L795.2,216.9z M784.2,215h10.4l-3.9-10.5
		c-0.3-0.8-0.7-2-1.2-3.4c-0.4,1.3-0.7,2.4-1.2,3.5L784.2,215z"/>
	<path class="st7" d="M807.7,214.5v12.6h-2v-29h6.9c3.6,0,6.3,0.7,8,2c1.7,1.3,2.6,3.3,2.6,6c0,1.9-0.5,3.6-1.5,4.9
		c-1,1.3-2.6,2.3-4.7,2.9l7.9,13.2h-2.4l-7.5-12.6H807.7z M807.7,212.7h5.5c2.4,0,4.3-0.5,5.7-1.6c1.3-1.1,2-2.7,2-4.8
		c0-2.2-0.7-3.8-2-4.8c-1.3-1-3.5-1.5-6.5-1.5h-4.8V212.7z"/>
	<path class="st7" d="M845.6,227.1h-15.9v-29h15.9v1.9h-13.8v11h13.1v1.9h-13.1v12.4h13.8V227.1z"/>
</g>
</svg>
