<?xml version="1.0" encoding="utf-8"?>
<!-- Generator: Adobe Illustrator 19.0.1, SVG Export Plug-In . SVG Version: 6.00 Build 0)  -->
<svg version="1.1" id="Layer_1" xmlns="http://www.w3.org/2000/svg" xmlns:xlink="http://www.w3.org/1999/xlink" x="0px" y="0px"
	 viewBox="0 0 472.9 403" style="enable-background:new 0 0 472.9 403;" xml:space="preserve">
<style type="text/css">
	.st0{fill:#A6A6A6;}
	.st1{fill:none;}
	.st2{fill-rule:evenodd;clip-rule:evenodd;}
	.st3{fill:#000100;}
	.st4{fill:url(#SVGID_1_);}
	.st5{fill:url(#SVGID_2_);}
	.st6{fill:url(#SVGID_3_);}
	.st7{fill:url(#SVGID_4_);}
	.st8{fill:url(#SVGID_5_);}
	.st9{fill:#FFFFFF;}
	.st10{fill:#FFFFFF;stroke:#000000;stroke-width:0.8166;stroke-miterlimit:10;}
	.st11{fill:#8DA6B6;}
	.st12{fill:#8DACC0;}
	.st13{fill:#96B3C6;}
	.st14{fill:#020202;}
	.st15{fill:none;stroke:#000100;stroke-width:2.6732;}
	.st16{fill:none;stroke:#616160;stroke-width:1.7259;}
	.st17{fill:none;stroke:#222021;stroke-width:2.3461;}
	.st18{fill:#222021;}
	.st19{fill:none;stroke:#222021;stroke-width:1.4981;}
	.st20{fill:#777778;}
	.st21{fill:#232021;}
	.st22{fill:#808080;}
	.st23{fill:url(#SVGID_6_);}
	.st24{fill:url(#SVGID_7_);}
	.st25{fill:url(#SVGID_8_);}
	.st26{fill:url(#SVGID_9_);}
	.st27{fill:url(#SVGID_10_);}
</style>
<g>
	<path class="st0" d="M387.3,214.6c-0.4,0-0.8-0.2-1.1-0.4c-0.3-0.3-0.4-0.7-0.4-1.1c0-0.4,0.2-0.8,0.4-1.1c0.5-0.6,1.6-0.6,2.1,0
		c0.3,0.3,0.4,0.7,0.4,1.1c0,0.4-0.2,0.8-0.4,1.1C388,214.4,387.7,214.6,387.3,214.6z"/>
	<path class="st0" d="M386.8,310.6c-0.8,0-1.5-0.7-1.5-1.5l0,0c0-0.8,0.7-1.5,1.5-1.5l0,0c0.8,0,1.5,0.7,1.5,1.5l0,0
		C388.3,310,387.6,310.6,386.8,310.6L386.8,310.6L386.8,310.6z M386.8,304.6c-0.8,0-1.5-0.7-1.5-1.5l0,0c0-0.8,0.7-1.5,1.5-1.5l0,0
		c0.8,0,1.5,0.7,1.5,1.5l0,0C388.3,304,387.6,304.6,386.8,304.6L386.8,304.6C386.8,304.6,386.8,304.6,386.8,304.6z M386.8,298.6
		c-0.8,0-1.5-0.7-1.5-1.5l0,0c0-0.8,0.7-1.5,1.5-1.5l0,0c0.8,0,1.5,0.7,1.5,1.5l0,0C388.3,298,387.7,298.6,386.8,298.6L386.8,298.6
		L386.8,298.6z M386.9,292.6c-0.8,0-1.5-0.7-1.5-1.5l0,0c0-0.8,0.7-1.5,1.5-1.5l0,0c0.8,0,1.5,0.7,1.5,1.5l0,0
		C388.4,291.9,387.7,292.6,386.9,292.6L386.9,292.6C386.9,292.6,386.9,292.6,386.9,292.6z M386.9,286.6c-0.8,0-1.5-0.7-1.5-1.5l0,0
		c0-0.8,0.7-1.5,1.5-1.5l0,0c0.8,0,1.5,0.7,1.5,1.5l0,0C388.4,285.9,387.7,286.6,386.9,286.6L386.9,286.6L386.9,286.6z M386.9,280.6
		c-0.8,0-1.5-0.7-1.5-1.5l0,0c0-0.8,0.7-1.5,1.5-1.5l0,0c0.8,0,1.5,0.7,1.5,1.5l0,0C388.4,279.9,387.8,280.6,386.9,280.6
		L386.9,280.6C386.9,280.6,386.9,280.6,386.9,280.6z M387,274.6c-0.8,0-1.5-0.7-1.5-1.5l0,0c0-0.8,0.7-1.5,1.5-1.5l0,0
		c0.8,0,1.5,0.7,1.5,1.5l0,0C388.5,273.9,387.8,274.6,387,274.6L387,274.6C387,274.6,387,274.6,387,274.6z M387,268.6
		c-0.8,0-1.5-0.7-1.5-1.5l0,0c0-0.8,0.7-1.5,1.5-1.5l0,0c0.8,0,1.5,0.7,1.5,1.5l0,0C388.5,267.9,387.8,268.6,387,268.6L387,268.6
		L387,268.6z M387,262.6c-0.8,0-1.5-0.7-1.5-1.5l0,0c0-0.8,0.7-1.5,1.5-1.5l0,0c0.8,0,1.5,0.7,1.5,1.5l0,0
		C388.5,261.9,387.8,262.6,387,262.6L387,262.6C387,262.6,387,262.6,387,262.6z M387,256.6c-0.8,0-1.5-0.7-1.5-1.5l0,0
		c0-0.8,0.7-1.5,1.5-1.5l0,0c0.8,0,1.5,0.7,1.5,1.5l0,0C388.5,255.9,387.9,256.6,387,256.6L387,256.6L387,256.6z M387.1,250.6
		c-0.8,0-1.5-0.7-1.5-1.5l0,0c0-0.8,0.7-1.5,1.5-1.5l0,0c0.8,0,1.5,0.7,1.5,1.5l0,0C388.6,249.9,387.9,250.6,387.1,250.6
		L387.1,250.6C387.1,250.6,387.1,250.6,387.1,250.6z M387.1,244.6c-0.8,0-1.5-0.7-1.5-1.5l0,0c0-0.8,0.7-1.5,1.5-1.5l0,0
		c0.8,0,1.5,0.7,1.5,1.5l0,0C388.6,243.9,387.9,244.6,387.1,244.6L387.1,244.6C387.1,244.6,387.1,244.6,387.1,244.6z M387.1,238.6
		c-0.8,0-1.5-0.7-1.5-1.5l0,0c0-0.8,0.7-1.5,1.5-1.5l0,0c0.8,0,1.5,0.7,1.5,1.5l0,0C388.6,237.9,388,238.6,387.1,238.6L387.1,238.6
		L387.1,238.6z M387.2,232.6c-0.8,0-1.5-0.7-1.5-1.5l0,0c0-0.8,0.7-1.5,1.5-1.5l0,0c0.8,0,1.5,0.7,1.5,1.5l0,0
		C388.7,231.9,388,232.6,387.2,232.6L387.2,232.6L387.2,232.6z M387.2,226.6c-0.8,0-1.5-0.7-1.5-1.5l0,0c0-0.8,0.7-1.5,1.5-1.5l0,0
		c0.8,0,1.5,0.7,1.5,1.5l0,0C388.7,225.9,388,226.6,387.2,226.6L387.2,226.6L387.2,226.6z M387.2,220.6c-0.8,0-1.5-0.7-1.5-1.5l0,0
		c0-0.8,0.7-1.5,1.5-1.5l0,0c0.8,0,1.5,0.7,1.5,1.5l0,0C388.7,219.9,388.1,220.6,387.2,220.6L387.2,220.6
		C387.2,220.6,387.2,220.6,387.2,220.6z"/>
	<path class="st0" d="M386.8,316.6c-0.4,0-0.8-0.2-1.1-0.4c-0.3-0.3-0.4-0.7-0.4-1.1c0-0.4,0.2-0.8,0.4-1.1c0.6-0.6,1.6-0.6,2.1,0
		c0.3,0.3,0.4,0.7,0.4,1.1c0,0.4-0.2,0.8-0.4,1.1C387.5,316.5,387.1,316.6,386.8,316.6z"/>
</g>
<g>
	<path class="st0" d="M137.6,214.9c-0.4,0-0.8-0.2-1.1-0.4c-0.3-0.3-0.4-0.7-0.4-1.1c0-0.4,0.2-0.8,0.4-1.1c0.6-0.6,1.6-0.6,2.1,0
		c0.3,0.3,0.4,0.7,0.4,1.1s-0.2,0.8-0.4,1.1C138.4,214.7,138,214.9,137.6,214.9z"/>
	<path class="st0" d="M137.1,311c-0.8,0-1.5-0.7-1.5-1.5l0,0c0-0.8,0.7-1.5,1.5-1.5l0,0c0.8,0,1.5,0.7,1.5,1.5l0,0
		C138.6,310.3,137.9,311,137.1,311L137.1,311L137.1,311z M137.1,305c-0.8,0-1.5-0.7-1.5-1.5l0,0c0-0.8,0.7-1.5,1.5-1.5l0,0
		c0.8,0,1.5,0.7,1.5,1.5l0,0C138.6,304.3,138,305,137.1,305L137.1,305L137.1,305z M137.1,299c-0.8,0-1.5-0.7-1.5-1.5l0,0
		c0-0.8,0.7-1.5,1.5-1.5l0,0c0.8,0,1.5,0.7,1.5,1.5l0,0C138.6,298.3,138,299,137.1,299L137.1,299L137.1,299z M137.2,293
		c-0.8,0-1.5-0.7-1.5-1.5l0,0c0-0.8,0.7-1.5,1.5-1.5l0,0c0.8,0,1.5,0.7,1.5,1.5l0,0C138.7,292.3,138,293,137.2,293L137.2,293
		L137.2,293z M137.2,287c-0.8,0-1.5-0.7-1.5-1.5l0,0c0-0.8,0.7-1.5,1.5-1.5l0,0c0.8,0,1.5,0.7,1.5,1.5l0,0
		C138.7,286.3,138,287,137.2,287L137.2,287L137.2,287z M137.2,281c-0.8,0-1.5-0.7-1.5-1.5l0,0c0-0.8,0.7-1.5,1.5-1.5l0,0
		c0.8,0,1.5,0.7,1.5,1.5l0,0C138.7,280.3,138.1,281,137.2,281L137.2,281L137.2,281z M137.3,274.9c-0.8,0-1.5-0.7-1.5-1.5l0,0
		c0-0.8,0.7-1.5,1.5-1.5l0,0c0.8,0,1.5,0.7,1.5,1.5l0,0C138.8,274.3,138.1,274.9,137.3,274.9L137.3,274.9L137.3,274.9z M137.3,268.9
		c-0.8,0-1.5-0.7-1.5-1.5l0,0c0-0.8,0.7-1.5,1.5-1.5l0,0c0.8,0,1.5,0.7,1.5,1.5l0,0C138.8,268.3,138.1,268.9,137.3,268.9
		L137.3,268.9C137.3,268.9,137.3,268.9,137.3,268.9z M137.3,262.9c-0.8,0-1.5-0.7-1.5-1.5l0,0c0-0.8,0.7-1.5,1.5-1.5l0,0
		c0.8,0,1.5,0.7,1.5,1.5l0,0C138.8,262.3,138.2,262.9,137.3,262.9L137.3,262.9L137.3,262.9z M137.4,256.9c-0.8,0-1.5-0.7-1.5-1.5
		l0,0c0-0.8,0.7-1.5,1.5-1.5l0,0c0.8,0,1.5,0.7,1.5,1.5l0,0C138.9,256.3,138.2,256.9,137.4,256.9L137.4,256.9L137.4,256.9z
		 M137.4,250.9c-0.8,0-1.5-0.7-1.5-1.5l0,0c0-0.8,0.7-1.5,1.5-1.5l0,0c0.8,0,1.5,0.7,1.5,1.5l0,0
		C138.9,250.3,138.2,250.9,137.4,250.9L137.4,250.9C137.4,250.9,137.4,250.9,137.4,250.9z M137.4,244.9c-0.8,0-1.5-0.7-1.5-1.5l0,0
		c0-0.8,0.7-1.5,1.5-1.5l0,0c0.8,0,1.5,0.7,1.5,1.5l0,0C138.9,244.3,138.3,244.9,137.4,244.9L137.4,244.9
		C137.4,244.9,137.4,244.9,137.4,244.9z M137.4,238.9c-0.8,0-1.5-0.7-1.5-1.5l0,0c0-0.8,0.7-1.5,1.5-1.5l0,0c0.8,0,1.5,0.7,1.5,1.5
		l0,0C139,238.3,138.3,238.9,137.4,238.9L137.4,238.9C137.5,238.9,137.5,238.9,137.4,238.9z M137.5,232.9c-0.8,0-1.5-0.7-1.5-1.5
		l0,0c0-0.8,0.7-1.5,1.5-1.5l0,0c0.8,0,1.5,0.7,1.5,1.5l0,0C139,232.2,138.3,232.9,137.5,232.9L137.5,232.9L137.5,232.9z
		 M137.5,226.9c-0.8,0-1.5-0.7-1.5-1.5l0,0c0-0.8,0.7-1.5,1.5-1.5l0,0c0.8,0,1.5,0.7,1.5,1.5l0,0C139,226.2,138.3,226.9,137.5,226.9
		L137.5,226.9C137.5,226.9,137.5,226.9,137.5,226.9z M137.5,220.9c-0.8,0-1.5-0.7-1.5-1.5l0,0c0-0.8,0.7-1.5,1.5-1.5l0,0
		c0.8,0,1.5,0.7,1.5,1.5l0,0C139,220.2,138.4,220.9,137.5,220.9L137.5,220.9C137.5,220.9,137.5,220.9,137.5,220.9z"/>
	<path class="st0" d="M137.1,317c-0.4,0-0.8-0.2-1.1-0.4c-0.3-0.3-0.4-0.7-0.4-1.1c0-0.4,0.2-0.8,0.4-1.1c0.6-0.6,1.6-0.5,2.1,0
		c0.3,0.3,0.4,0.7,0.4,1.1c0,0.4-0.2,0.8-0.4,1.1C137.8,316.8,137.5,317,137.1,317z"/>
</g>
<g>
	<path class="st0" d="M137.8,162.6c-0.4,0-0.8-0.2-1.1-0.4c-0.3-0.3-0.4-0.7-0.4-1.1c0-0.4,0.2-0.8,0.4-1.1c0.6-0.6,1.6-0.6,2.1,0
		c0.3,0.3,0.4,0.7,0.4,1.1c0,0.4-0.2,0.8-0.4,1.1C138.6,162.4,138.2,162.6,137.8,162.6z"/>
	<path class="st0" d="M137.8,168.7c-0.8,0-1.5-0.7-1.5-1.5l0,0c0-0.8,0.7-1.5,1.5-1.5l0,0c0.8,0,1.5,0.7,1.5,1.5l0,0
		C139.3,168.1,138.6,168.7,137.8,168.7L137.8,168.7C137.8,168.7,137.8,168.7,137.8,168.7z"/>
	<path class="st0" d="M137.8,174.9c-0.4,0-0.8-0.2-1.1-0.4c-0.3-0.3-0.4-0.7-0.4-1.1c0-0.4,0.2-0.8,0.4-1.1c0.6-0.5,1.6-0.5,2.1,0
		c0.3,0.3,0.4,0.7,0.4,1.1c0,0.4-0.2,0.8-0.4,1.1C138.5,174.7,138.2,174.9,137.8,174.9z"/>
</g>
<g>
	<path class="st0" d="M138.1,106.1c-0.4,0-0.8-0.2-1.1-0.4c-0.3-0.3-0.4-0.7-0.4-1.1s0.2-0.8,0.4-1.1c0.6-0.6,1.6-0.6,2.1,0
		c0.3,0.3,0.4,0.7,0.4,1.1s-0.2,0.8-0.4,1.1C138.9,106,138.5,106.1,138.1,106.1z"/>
	<path class="st0" d="M138,119.5c-0.8,0-1.5-0.7-1.5-1.5l0,0c0-0.8,0.7-1.5,1.5-1.5l0,0c0.8,0,1.5,0.7,1.5,1.5l0,0
		C139.5,118.9,138.9,119.5,138,119.5L138,119.5C138,119.5,138,119.5,138,119.5z M138.1,112.8c-0.8,0-1.5-0.7-1.5-1.5l0,0
		c0-0.8,0.7-1.5,1.5-1.5l0,0c0.8,0,1.5,0.7,1.5,1.5l0,0C139.6,112.2,138.9,112.8,138.1,112.8L138.1,112.8L138.1,112.8z"/>
	<path class="st0" d="M138,126.2c-0.4,0-0.8-0.2-1.1-0.4c-0.3-0.3-0.4-0.7-0.4-1.1c0-0.4,0.2-0.8,0.4-1.1c0.6-0.6,1.6-0.6,2.1,0
		c0.3,0.3,0.4,0.7,0.4,1.1c0,0.4-0.2,0.8-0.4,1.1C138.8,126.1,138.4,126.2,138,126.2z"/>
</g>
<g>
	<path class="st1" d="M387.3,210.1"/>
</g>
<g>
	<path class="st0" d="M387.5,162.3c-0.4,0-0.8-0.2-1.1-0.4c-0.3-0.3-0.4-0.7-0.4-1.1c0-0.4,0.2-0.8,0.4-1.1c0.5-0.6,1.5-0.6,2.1,0
		c0.3,0.3,0.4,0.7,0.4,1.1c0,0.4-0.2,0.8-0.4,1.1C388.3,162.1,387.9,162.3,387.5,162.3z"/>
	<path class="st0" d="M387.5,168.4c-0.8,0-1.5-0.7-1.5-1.5l0,0c0-0.8,0.7-1.5,1.5-1.5l0,0c0.8,0,1.5,0.7,1.5,1.5l0,0
		C389,167.7,388.3,168.4,387.5,168.4L387.5,168.4C387.5,168.4,387.5,168.4,387.5,168.4z"/>
	<path class="st0" d="M387.4,174.5c-0.4,0-0.8-0.2-1.1-0.4c-0.3-0.3-0.4-0.7-0.4-1.1c0-0.4,0.2-0.8,0.4-1.1c0.6-0.6,1.6-0.6,2.1,0
		c0.3,0.3,0.4,0.7,0.4,1.1c0,0.4-0.2,0.8-0.4,1.1C388.2,174.4,387.8,174.5,387.4,174.5z"/>
</g>
<g>
	<path class="st0" d="M387.8,105.8c-0.4,0-0.8-0.2-1.1-0.4c-0.3-0.3-0.4-0.7-0.4-1.1c0-0.4,0.2-0.8,0.4-1.1c0.6-0.6,1.6-0.6,2.1,0
		c0.3,0.3,0.4,0.7,0.4,1.1c0,0.4-0.2,0.8-0.4,1.1C388.6,105.6,388.2,105.8,387.8,105.8z"/>
	<path class="st0" d="M387.7,119.2c-0.8,0-1.5-0.7-1.5-1.5l0,0c0-0.8,0.7-1.5,1.5-1.5l0,0c0.8,0,1.5,0.7,1.5,1.5l0,0
		C389.2,118.5,388.5,119.2,387.7,119.2L387.7,119.2C387.7,119.2,387.7,119.2,387.7,119.2z M387.7,112.5c-0.8,0-1.5-0.7-1.5-1.5l0,0
		c0-0.8,0.7-1.5,1.5-1.5l0,0c0.8,0,1.5,0.7,1.5,1.5l0,0C389.2,111.8,388.6,112.5,387.7,112.5L387.7,112.5
		C387.7,112.5,387.7,112.5,387.7,112.5z"/>
	<path class="st0" d="M387.7,125.9c-0.4,0-0.8-0.2-1.1-0.4c-0.3-0.3-0.4-0.7-0.4-1.1c0-0.4,0.2-0.8,0.4-1.1c0.5-0.5,1.5-0.6,2.1,0
		c0.3,0.3,0.4,0.7,0.4,1.1c0,0.4-0.2,0.8-0.4,1.1C388.5,125.7,388.1,125.9,387.7,125.9z"/>
</g>
<g>
	<path class="st2" d="M374.6,128.8h28.3l4.6,20.2c-0.3-0.5-1.7-0.5-1.7-0.5h-34.2c0,0-1.5,0-1.8,0.5
		C369.7,149.2,374.6,128.8,374.6,128.8z M372.8,147.1c0.4-0.9,3.8-16.9,3.8-16.9h-1l-3.8,17C371.7,147.2,372.2,147,372.8,147.1z"/>
	<path class="st2" d="M407.6,156.3c0,1.1-0.6,1.7-1.7,1.7h-34.4c-1.1,0-1.7-0.6-1.7-1.7V151c0-1.1,0.6-1.7,1.7-1.7h34.4
		c1.1,0,1.7,0.6,1.7,1.7V156.3z M371.2,157c0.8,0,1.6,0,2.4,0c0-2.2,0-4.4,0-6.6c-0.8,0-1.6,0-2.4,0
		C371.2,152.5,371.2,154.7,371.2,157z M375.1,157c0.9,0,1.9,0,2.8,0c0-2.2,0-4.4,0-6.6c-0.9,0-1.9,0-2.8,0
		C375.1,152.5,375.1,154.7,375.1,157z M378.9,157c0.9,0,1.9,0,2.8,0c0-2.2,0-4.4,0-6.6c-0.9,0-1.9,0-2.8,0
		C378.9,152.5,378.9,154.7,378.9,157z M383.1,157c0.8,0,1.6,0,2.4,0c0-2.2,0-4.4,0-6.6c-0.8,0-1.6,0-2.4,0
		C383.1,152.5,383.1,154.7,383.1,157z M386.9,157c0.8,0,1.6,0,2.4,0c0-2.2,0-4.4,0-6.6c-0.8,0-1.6,0-2.4,0
		C386.9,152.5,386.9,154.7,386.9,157z M401.9,151.6c-1.1,0-2.1,0.9-2.1,2.1c0,1.1,0.9,2.1,2.1,2.1c1.1,0,2.1-0.9,2.1-2.1
		C404,152.5,403,151.6,401.9,151.6z M392.7,150.3h-1.9v6.6h1.9V150.3z M396,150.3h-1.9v6.6h1.9V150.3z"/>
</g>
<g>
	<g>
		<path class="st3" d="M362.5,44c0-0.5-0.6-38.1-0.6-38.1L400,5.6l32.3,3.3l-2.7,42.4l-2.1,2.2l-28.4-5L362.5,44z M399.3,47.7
			l27.7,4.8l2.4-43.3l-28.9-3l-38.1,0c0,0,0.6,36.8,0.6,37.2L399.3,47.7z"/>
		<g>
			<polygon points="370.6,82.6 370.6,58.1 382.7,60.6 382.7,77.4 			"/>
			<polygon points="352.8,52.3 401.1,61.8 401.1,93.4 399,92.6 399,62.9 352.8,53.5 			"/>
			<polyline points="354.5,51.6 372.1,45.7 420.7,52.9 401.7,60.7 			"/>
			<polygon points="402.4,93 402.4,61.3 421.4,53.6 421.4,83.3 			"/>
			<path d="M352.8,54.3l16,3.3v10.2l-16-4.7V54.3z M360,59.6c-0.6-0.2-1.3,0-1.4,0.5c-0.2,0.5,0.2,1.1,0.8,1.3
				c0.6,0.2,1.3,0,1.4-0.5C361,60.4,360.7,59.9,360,59.6z"/>
			<path d="M352.8,64.5l16,4.8v13.6l-16-6.5V64.5z M360.3,72.1c-0.6-0.2-1.3,0-1.4,0.5c-0.2,0.5,0.2,1.1,0.8,1.3
				c0.6,0.2,1.3,0,1.4-0.5C361.3,72.9,360.9,72.3,360.3,72.1z"/>
			<path d="M404,33.9l-2.3,16.4l-17.9-2.9l0.3-15.2L404,33.9z M385.6,34l-0.3,11.8l15.2,2.3l1.4-13L385.6,34z"/>
			<path d="M413.5,54.5L401.9,50l2.9-16.2l12.2,3.6l1.5,1.2l-3,15.9H413.5z M414.9,39l-9.4-3.2L403,49l9.3,3.5L414.9,39z"/>
			<path d="M365.9,47.4l-0.8-13.9l0.9-1.1l17.7-0.1l0,15l-16,0.2H365.9z M367.5,45.5l15.1,0.2l0.1-12L366.9,34L367.5,45.5z"/>
		</g>
		<linearGradient id="SVGID_1_" gradientUnits="userSpaceOnUse" x1="362.4704" y1="29.0373" x2="429.3916" y2="29.0373">
			<stop  offset="0" style="stop-color:#021707;stop-opacity:9.000000e-02"/>
			<stop  offset="5.471998e-02" style="stop-color:#09180C;stop-opacity:8.507521e-02"/>
			<stop  offset="0.2045" style="stop-color:#141B15;stop-opacity:7.159775e-02"/>
			<stop  offset="0.4149" style="stop-color:#1B1D1A;stop-opacity:5.265704e-02"/>
			<stop  offset="1" style="stop-color:#1D1D1B;stop-opacity:0"/>
		</linearGradient>
		<path class="st4" d="M363.1,43.4c0-0.5-0.6-37.2-0.6-37.2l39.8-0.6l27.1,4.2L427,52.5L401,47.4L363.1,43.4z"/>
		<linearGradient id="SVGID_2_" gradientUnits="userSpaceOnUse" x1="399.5669" y1="29.4433" x2="429.1045" y2="29.4433">
			<stop  offset="0" style="stop-color:#021707;stop-opacity:9.000000e-02"/>
			<stop  offset="5.471998e-02" style="stop-color:#09180C;stop-opacity:8.507521e-02"/>
			<stop  offset="0.2045" style="stop-color:#141B15;stop-opacity:7.159775e-02"/>
			<stop  offset="0.4149" style="stop-color:#1B1D1A;stop-opacity:5.265704e-02"/>
			<stop  offset="1" style="stop-color:#1D1D1B;stop-opacity:0"/>
		</linearGradient>
		<polygon class="st5" points="400,6.3 429.1,9.3 427,52.6 399.6,47.7 		"/>
		<linearGradient id="SVGID_3_" gradientUnits="userSpaceOnUse" x1="402.8987" y1="44.2045" x2="414.8021" y2="44.2045">
			<stop  offset="0" style="stop-color:#1D1D1B"/>
			<stop  offset="2.795172e-02" style="stop-color:#3B3B39"/>
			<stop  offset="7.238352e-02" style="stop-color:#646462"/>
			<stop  offset="0.1223" style="stop-color:#898988"/>
			<stop  offset="0.1767" style="stop-color:#A9A9A8"/>
			<stop  offset="0.2367" style="stop-color:#C4C4C4"/>
			<stop  offset="0.3045" style="stop-color:#DADADA"/>
			<stop  offset="0.3837" style="stop-color:#EBEBEA"/>
			<stop  offset="0.4816" style="stop-color:#F6F6F6"/>
			<stop  offset="0.6189" style="stop-color:#FDFDFD"/>
			<stop  offset="1" style="stop-color:#FFFFFF"/>
		</linearGradient>
		<polygon class="st6" points="414.8,39 405.4,35.8 402.9,49.1 412.2,52.6 		"/>
		<linearGradient id="SVGID_4_" gradientUnits="userSpaceOnUse" x1="386.8022" y1="32.8105" x2="400.5165" y2="48.0419">
			<stop  offset="0" style="stop-color:#1D1D1B"/>
			<stop  offset="2.795172e-02" style="stop-color:#3B3B39"/>
			<stop  offset="7.238352e-02" style="stop-color:#646462"/>
			<stop  offset="0.1223" style="stop-color:#898988"/>
			<stop  offset="0.1767" style="stop-color:#A9A9A8"/>
			<stop  offset="0.2367" style="stop-color:#C4C4C4"/>
			<stop  offset="0.3045" style="stop-color:#DADADA"/>
			<stop  offset="0.3837" style="stop-color:#EBEBEA"/>
			<stop  offset="0.4816" style="stop-color:#F6F6F6"/>
			<stop  offset="0.6189" style="stop-color:#FDFDFD"/>
			<stop  offset="1" style="stop-color:#FFFFFF"/>
		</linearGradient>
		<polygon class="st7" points="385.6,33.9 385.3,45.7 400.5,48 401.9,35 		"/>
		<linearGradient id="SVGID_5_" gradientUnits="userSpaceOnUse" x1="366.1874" y1="38.1313" x2="383.3558" y2="41.1585">
			<stop  offset="0" style="stop-color:#1D1D1B"/>
			<stop  offset="2.795172e-02" style="stop-color:#3B3B39"/>
			<stop  offset="7.238352e-02" style="stop-color:#646462"/>
			<stop  offset="0.1223" style="stop-color:#898988"/>
			<stop  offset="0.1767" style="stop-color:#A9A9A8"/>
			<stop  offset="0.2367" style="stop-color:#C4C4C4"/>
			<stop  offset="0.3045" style="stop-color:#DADADA"/>
			<stop  offset="0.3837" style="stop-color:#EBEBEA"/>
			<stop  offset="0.4816" style="stop-color:#F6F6F6"/>
			<stop  offset="0.6189" style="stop-color:#FDFDFD"/>
			<stop  offset="1" style="stop-color:#FFFFFF"/>
		</linearGradient>
		<polygon class="st8" points="367.5,45.6 382.5,45.8 382.6,33.8 366.9,34.1 		"/>
		<polygon class="st3" points="362.8,26.9 399.6,26.8 400,5.7 399.7,27 428.1,31 399.7,27 399.7,34 399.6,26.8 362.5,27 		"/>
	</g>
	<path class="st9" d="M389.4,54.3l1.5-1.8c0,0,0.9-1.1,1.3-1.5c0,0,1.3,1.7,0,1.6c-1.3-0.1,2.2-1.6,2.2-1.6s1.8-0.1,1.8,1.7
		c0,0-2.5,0.4-4.4,3.2"/>
	<g>
		<path class="st10" d="M364.3,52.2c0,0-5-10.5,6.5-12.3v-3.4c0,0-4.6-3.6-1.9-7.2c0,0,0.4-3.4,7.9-1.1c0,0,2.2,4.3,0.7,5.6
			c0,0,0.6,1.4-0.1,2.4v1.3l-1.7,0.4c0,0,0.3,1.4,1.3,1.9h2.9l3.6,3.1l3.3,6.2c0,0,4,5.8,2.6,6.9c0,0,3.8-3.6,3.3-1.9
			c-2.8,9.3-6.3,2.7-6.3,2.7l-4.5-7.3c0,0-0.2,0.6-0.3,2.8c-0.2,3-0.3,7.6,0.1,9.2l8.2,1.1c0,0,3.1,1.6,2.8,4c0,0-2.6,9-2.7,10.6
			l-0.1,3.3l3.6-0.3c0,0,1.8,0.3,1.8,1.3l-6.6,3.3c0,0-2.9,1.9-3.3,0c-0.4-1.9-0.4-11.9-0.4-11.9l-0.1-4l-1.1,11.2l0.7-0.7v3.2
			c0,0-5.9,4.2-4.6-3.9c1.3-8-0.1-0.9-0.1-0.9l-0.8-9.6l-7.2,0.4L364.3,52.2z"/>
		<g>
			<ellipse cx="361.5" cy="90.9" rx="2.5" ry="2.3"/>
			<ellipse cx="380.9" cy="91.8" rx="2.4" ry="2.3"/>
			<ellipse cx="392.5" cy="85.1" rx="1.9" ry="2.3"/>
			<ellipse cx="385.2" cy="82.1" rx="1.9" ry="2.3"/>
			<ellipse cx="365.9" cy="83.7" rx="1.9" ry="2.3"/>
			<path d="M371.3,81.4l-13.5,6l2.3,2.2h1.4l-1.2-1.6l14.8-5.9c0,0,1.9,3.4,4.6,7.5h1.2c0,0-2.4-6.5-3-7.5c0,0,12.6,0.1,14.6,1.6
				l1.2-2.3c0,0-11.9-1.3-13.9-0.9c0,0,3.3-1.5,4.6-0.7l0.8-1c0,0,0.2-2-7.8-0.1c-0.1,0-0.3,0.1-0.3,0.1l-0.6-0.9l-0.1-4.3
				c0,0,12.5-2.6,13.4-3.9c0,0,2.3-0.9,4,0c1.7,0.9,1-3.2-4-3.2c-5,0-5.3-1.7-5.3-1.7l-8.2,3.2c0,0,3.9-14.1-5.3-23.1l-20.4-2.7
				c0,0,9.8,15.7,5.5,28.3l13.6,3h3.8l0.4,4.5c0,0-6.8,1.3-10.3,1.9c-3.6,0.6,1.1,2.3,1.1,2.3h1.4l-0.9-1.4l7.5-0.8L371.3,81.4z"/>
		</g>
	</g>
	<path d="M364.3,52.2c0,0-5-10.5,6.5-12.3v-3.4c0,0-4.6-3.6-1.9-7.2c0,0,4.7-5.2,8.8,0.9l-2.2,1.9c0,0-0.7,2.4-0.1,4.2l0.6,1l-1.7,1
		c0,0,0,1.4,1,1.9l4.6-0.3l3,3.1l3.9,5.9l-3.4,2.4c0,0-1.6,0.5-1.9,3.1c-0.3,2.6,0.3,6.4,0.6,7.8l7.9,0.6c0,0,3.1,1.6,2.8,4
		c0,0-2.6,9-2.7,10.6l-0.1,3.3l3.6-0.3c0,0,1.8,0.3,1.8,1.3l-6.6,3.3c0,0-2.9,1.9-3.3,0c-0.4-1.9-0.4-11.9-0.4-11.9l-0.1-4
		l-1.1,11.2l0.7-0.7v3.2c0,0-5.9,4.2-4.6-3.9c1.3-8-0.1-0.9-0.1-0.9l-0.8-9.6l-7.2,0.4L364.3,52.2z M379.2,48c0,0-2,0.4-1.3,3.8
		c1.3,5.6,0.9,11.5,0.9,11.5l1.3-1.3c-0.9-3.2-0.8-9.5-0.8-9.5L379.2,48z M373.4,63.8c0,0,2.9,8.5,3.6,4c2.6-17.5-5.8-23.6-5.8-23.6
		l-7.2-0.8L373.4,63.8z"/>
	<path class="st9" d="M376.2,67.7v0.8c0,0,7.5,0.3,11.5-0.5c0,0,3.5-1.2,5.4-0.7l-1-0.8C392.1,66.5,382.4,67.8,376.2,67.7z"/>
	<path class="st9" d="M372.4,72.4l0.1,0.6c0,0,7.5,0,11.3-1.1c0,0,3.1-1.3,4.9-1.3l-0.8-0.4C387.9,70.2,378.5,72.7,372.4,72.4z"/>
</g>
<g>
	<g>
		<path class="st11" d="M351,290.7c0,0-16.8-3.1-18.8-13.9c-2-10.8,1.4-15.8,14.4-19.7c0,0-0.6-11.8,9.6-10c0,0,1.6-12.4,17.2-14.5
			c18.8-2.6,23.5,9.2,23.5,9.2s1.6-3.5,10.9-3.3c6.1,0.1,19.3,4.3,18.9,18.9c0,0,13.2,0,14.9,13.5c2.7,21.6-22.4,19.8-22.4,19.8H351
			z"/>
	</g>
	<g>
		<path class="st11" d="M373.4,232.5c-15.7,2.1-17.2,14.5-17.2,14.5c-10.3-1.8-9.6,10-9.6,10c-13,3.9-16.4,8.9-14.4,19.7
			s18.8,13.9,18.8,13.9h38.4v-56.2C385.8,232.7,380.7,231.6,373.4,232.5z"/>
		<path class="st12" d="M441.7,270.8c-1.7-13.4-14.9-13.5-14.9-13.5c0.4-14.6-12.8-18.8-18.9-18.9c-9.3-0.2-10.9,3.3-10.9,3.3
			s-1.8-4.5-7.6-7.3v56.2h29.9C419.3,290.7,444.4,292.4,441.7,270.8z"/>
	</g>
	<path class="st12" d="M378.1,246.3c-11.1,1.5-12.2,10.3-12.2,10.3c-7.3-1.3-6.8,7.1-6.8,7.1c-9.2,2.8-11.6,6.3-10.2,13.9
		c1.4,7.6,13.3,9.8,13.3,9.8h27.1v-39.7C386.8,246.4,383.2,245.6,378.1,246.3z"/>
	<path class="st13" d="M426.3,273.4c-1.2-9.5-10.6-9.5-10.6-9.5c0.3-10.3-9-13.3-13.4-13.4c-6.6-0.2-7.7,2.4-7.7,2.4
		s-1.3-3.2-5.3-5.2v39.7h21.2C410.5,287.4,428.2,288.6,426.3,273.4z"/>
</g>
<g>
	<path d="M370.3,183v-7.6c0,0-0.2-0.7,0.4-0.9l3.8-1.4c0,0,0.6-0.3,1.4,0l6.5,1.7l-4.8,1.4c0,0-0.9,0.2-0.8,1.2v7.8L370.3,183z"/>
	<path d="M377.5,185.7v-8c0,0-0.2-0.7,0.4-0.9l5.1-1.4c0,0,0.6-0.3,1.4,0l13.8,3.4l-4.8,1.4c0,0-0.9,0.2-0.8,1.2v9.5L377.5,185.7z"
		/>
	<path d="M393.3,191.3v-9.7c0,0-0.2-0.7,0.4-0.9l5.1-1.4c0,0,0.6-0.3,1.4,0l8.5,2v9.8l-5.5,2.5c-0.8,0.4-2.2,0.2-2.2,0.2
		L393.3,191.3z"/>
	<polygon points="370.2,184 370.2,192.1 384.7,197.5 384.7,189.2 	"/>
	<path d="M385.9,189.5v8.5l16,6.1l6.8-3.4v-8.3l-5.5,2.5c-1.3,0.6-2.2,0.1-2.2,0.1L385.9,189.5z"/>
	<polygon points="377.5,196.1 377.5,203.7 392.4,210.1 392.4,201.7 	"/>
	<polyline points="370.2,193.1 376.6,195.5 376.6,203.4 370.2,200.7 370.2,193.4 	"/>
	<path d="M393.3,202.2v8.1l8.6,3.9l6.8-4.2v-8.2l-5.5,2.9c-1.1,0.6-2.2,0.1-2.2,0.1L393.3,202.2z"/>
</g>
<path class="st0" d="M325.4,339.6c0-0.8,0.7-1.5,1.5-1.5l0,0c0.8,0,1.5,0.7,1.5,1.5l0,0c0,0.8-0.7,1.5-1.5,1.5l0,0
	C326.1,341.1,325.4,340.4,325.4,339.6z M439.6,338.6c0-0.8,0.7-1.5,1.5-1.5l0,0c0.8,0,1.5,0.7,1.5,1.5l0,0c0,0.8-0.7,1.5-1.5,1.5
	l0,0C440.3,340.1,439.6,339.5,439.6,338.6z M325.4,333.6c0-0.8,0.7-1.5,1.5-1.5l0,0c0.8,0,1.5,0.7,1.5,1.5l0,0
	c0,0.8-0.7,1.5-1.5,1.5l0,0C326.1,335.1,325.4,334.4,325.4,333.6z M439.6,332.6c0-0.8,0.7-1.5,1.5-1.5l0,0c0.8,0,1.5,0.7,1.5,1.5
	l0,0c0,0.8-0.7,1.5-1.5,1.5l0,0C440.3,334.1,439.6,333.5,439.6,332.6z M325.4,327.6c0-0.8,0.7-1.5,1.5-1.5l0,0
	c0.8,0,1.5,0.7,1.5,1.5l0,0c0,0.8-0.7,1.5-1.5,1.5l0,0C326.1,329.1,325.4,328.4,325.4,327.6z M439.6,326.6c0-0.8,0.7-1.5,1.5-1.5
	l0,0c0.8,0,1.5,0.7,1.5,1.5l0,0c0,0.8-0.7,1.5-1.5,1.5l0,0C440.3,328.1,439.6,327.5,439.6,326.6z M325.4,321.6
	c0-0.8,0.7-1.5,1.5-1.5l0,0c0.8,0,1.5,0.7,1.5,1.5l0,0c0,0.8-0.7,1.5-1.5,1.5l0,0C326.1,323.1,325.4,322.4,325.4,321.6z M439,321.2
	c0-0.8,0.7-1.5,1.5-1.5l0,0c0.8,0,1.5,0.7,1.5,1.5l0,0c0,0.8-0.7,1.5-1.5,1.5l0,0C439.7,322.7,439,322,439,321.2z M433,321.2
	c0-0.8,0.7-1.5,1.5-1.5l0,0c0.8,0,1.5,0.7,1.5,1.5l0,0c0,0.8-0.7,1.5-1.5,1.5l0,0C433.7,322.7,433,322,433,321.2z M427,321.2
	c0-0.8,0.7-1.5,1.5-1.5l0,0c0.8,0,1.5,0.7,1.5,1.5l0,0c0,0.8-0.7,1.5-1.5,1.5l0,0C427.7,322.7,427,322,427,321.2z M421,321.2
	c0-0.8,0.7-1.5,1.5-1.5l0,0c0.8,0,1.5,0.7,1.5,1.5l0,0c0,0.8-0.7,1.5-1.5,1.5l0,0C421.7,322.7,421,322,421,321.2z M415,321.2
	c0-0.8,0.7-1.5,1.5-1.5l0,0c0.8,0,1.5,0.7,1.5,1.5l0,0c0,0.8-0.7,1.5-1.5,1.5l0,0C415.7,322.7,415,322,415,321.2z M409,321.2
	c0-0.8,0.7-1.5,1.5-1.5l0,0c0.8,0,1.5,0.7,1.5,1.5l0,0c0,0.8-0.7,1.5-1.5,1.5l0,0C409.7,322.7,409,322,409,321.2z M403,321.2
	c0-0.8,0.7-1.5,1.5-1.5l0,0c0.8,0,1.5,0.7,1.5,1.5l0,0c0,0.8-0.7,1.5-1.5,1.5l0,0C403.7,322.7,403,322,403,321.2z M397,321.2
	c0-0.8,0.7-1.5,1.5-1.5l0,0c0.8,0,1.5,0.7,1.5,1.5l0,0c0,0.8-0.7,1.5-1.5,1.5l0,0C397.7,322.7,397,322,397,321.2z M391,321.2
	c0-0.8,0.7-1.5,1.5-1.5l0,0c0.8,0,1.5,0.7,1.5,1.5l0,0c0,0.8-0.7,1.5-1.5,1.5l0,0C391.7,322.7,391,322,391,321.2z M385,321.2
	c0-0.8,0.7-1.5,1.5-1.5l0,0c0.8,0,1.5,0.7,1.5,1.5l0,0c0,0.8-0.7,1.5-1.5,1.5l0,0C385.7,322.7,385,322,385,321.2z M379,321.2
	c0-0.8,0.7-1.5,1.5-1.5l0,0c0.8,0,1.5,0.7,1.5,1.5l0,0c0,0.8-0.7,1.5-1.5,1.5l0,0C379.7,322.7,379,322,379,321.2z M373,321.2
	c0-0.8,0.7-1.5,1.5-1.5l0,0c0.8,0,1.5,0.7,1.5,1.5l0,0c0,0.8-0.7,1.5-1.5,1.5l0,0C373.7,322.7,373,322,373,321.2z M367,321.2
	c0-0.8,0.7-1.5,1.5-1.5l0,0c0.8,0,1.5,0.7,1.5,1.5l0,0c0,0.8-0.7,1.5-1.5,1.5l0,0C367.7,322.7,367,322,367,321.2z M361,321.2
	c0-0.8,0.7-1.5,1.5-1.5l0,0c0.8,0,1.5,0.7,1.5,1.5l0,0c0,0.8-0.7,1.5-1.5,1.5l0,0C361.7,322.7,361,322,361,321.2z M355,321.2
	c0-0.8,0.7-1.5,1.5-1.5l0,0c0.8,0,1.5,0.7,1.5,1.5l0,0c0,0.8-0.7,1.5-1.5,1.5l0,0C355.7,322.7,355,322,355,321.2z M349,321.2
	c0-0.8,0.7-1.5,1.5-1.5l0,0c0.8,0,1.5,0.7,1.5,1.5l0,0c0,0.8-0.7,1.5-1.5,1.5l0,0C349.7,322.7,349,322,349,321.2z M343,321.2
	c0-0.8,0.7-1.5,1.5-1.5l0,0c0.8,0,1.5,0.7,1.5,1.5l0,0c0,0.8-0.7,1.5-1.5,1.5l0,0C343.7,322.7,343,322,343,321.2z M337,321.2
	c0-0.8,0.7-1.5,1.5-1.5l0,0c0.8,0,1.5,0.7,1.5,1.5l0,0c0,0.8-0.7,1.5-1.5,1.5l0,0C337.7,322.7,337,322,337,321.2z M331,321.2
	c0-0.8,0.7-1.5,1.5-1.5l0,0c0.8,0,1.5,0.7,1.5,1.5l0,0c0,0.8-0.7,1.5-1.5,1.5l0,0C331.7,322.7,331,322,331,321.2z"/>
<path class="st0" d="M385.1,338.9c0-0.8,0.7-1.5,1.5-1.5l0,0c0.8,0,1.5,0.7,1.5,1.5l0,0c0,0.8-0.7,1.5-1.5,1.5l0,0
	C385.8,340.4,385.1,339.7,385.1,338.9z M385.1,332.9c0-0.8,0.7-1.5,1.5-1.5l0,0c0.8,0,1.5,0.7,1.5,1.5l0,0c0,0.8-0.7,1.5-1.5,1.5
	l0,0C385.8,334.4,385.1,333.7,385.1,332.9z M385.1,326.9c0-0.8,0.7-1.5,1.5-1.5l0,0c0.8,0,1.5,0.7,1.5,1.5l0,0
	c0,0.8-0.7,1.5-1.5,1.5l0,0C385.8,328.4,385.1,327.7,385.1,326.9z"/>
<g>
	<path class="st14" d="M301,376.2v-3.8c0,0,29.4-2,46.8-17l1.6,6.3c0,0-9.6,13.5-12.7,15.2l-17.7,4.5
		C318.9,381.4,303.7,380.2,301,376.2z M318.9,378.3l16.9-5c3.1-1.5,12-13,12-13l-0.4-2.9c-17.4,14.1-46,15.6-46,15.6v2.1
		C304,378.8,318.9,378.3,318.9,378.3z"/>
	<g>
		<polyline class="st15" points="334,374.1 318,359 320.9,378.2 		"/>
		<line class="st15" x1="320.2" y1="374" x2="330.1" y2="370.4"/>
		<line class="st15" x1="319.7" y1="370.4" x2="327.4" y2="367.8"/>
		<line class="st15" x1="319.3" y1="367.3" x2="325.1" y2="365.2"/>
		<line class="st15" x1="318.9" y1="364.7" x2="322.2" y2="363.5"/>
		<polyline class="st15" points="327.4,376.3 318,359 317.1,357.2 317.1,353.3 		"/>
	</g>
	<path class="st3" d="M320.7,382.2c0,0,9.8-2.8,15.4-3.4l3.3,15.1h-19.3L320.7,382.2z M333.8,382.2c0,0,0.7,5.1,1.7,7.1
		c0.3,0.6,2.3,3.1,2.3,3.1l-2.6-11.2l-1.4,0.5"/>
</g>
<g>
	<polygon class="st3" points="424.2,375.7 426.5,359.9 459.2,366 451.3,380 	"/>
	<path class="st3" d="M454,378.8l4.1-7.6l7.2,1.3c0,0,0,4.9-2.6,7.5L454,378.8z"/>
	<path class="st3" d="M436.5,393.5v-10.8c0,0-5-1-5.7-6.2l15.4,2.5c0,0-0.6,2.5-5.3,3.6v10.8H436.5z"/>
</g>
<g>
	<g>
		<g>
			<g>
				<polyline class="st16" points="382.3,375.3 386.8,371.7 391.1,374.9 				"/>
				<polyline class="st16" points="381.1,380.3 386.8,376.3 392.8,380.6 				"/>
				<polyline class="st16" points="379.7,386.7 386.8,382.1 393.6,386.3 				"/>
				<polyline class="st16" points="377.5,392.4 386.3,387.2 395.8,392.5 				"/>
			</g>
			<polygon class="st17" points="377.5,392.4 386.8,360.8 395.8,392.5 386.6,395.8 			"/>
			<circle class="st18" cx="386.8" cy="359.7" r="2.3"/>
			<line class="st17" x1="386.8" y1="396.5" x2="386.7" y2="360.5"/>
			<polyline class="st19" points="383.8,371.9 387,373.3 390,371.7 			"/>
			<polyline class="st19" points="381.8,376.6 387,378.4 391.9,376.1 			"/>
			<polyline class="st19" points="381.2,382.1 387,384.1 392.5,381.7 			"/>
			<polyline class="st19" points="379.2,387.2 386.6,390 394.3,387.2 			"/>
			<polyline class="st19" points="378.6,392.9 386.6,395.8 395,392.9 			"/>
		</g>
	</g>
	<polygon class="st20" points="386.4,356.8 384.1,348.8 386.8,349.4 386.6,343.8 389.2,351.8 386.2,351.2 	"/>
	<polygon class="st20" points="388.7,357.7 392.7,350.4 394.3,352.7 398.1,348.7 394.2,356.2 392.5,353.6 	"/>
	<polygon class="st20" points="384.1,357.6 376.7,353.8 379,352.2 374.8,348.4 382.4,352.1 379.9,353.9 	"/>
</g>
<g>
	<path class="st14" d="M53.4,376v-3.8c0,0,29.4-2,46.8-17l1.6,6.3c0,0-9.6,13.5-12.7,15.2l-17.7,4.5C71.3,381.1,56.1,379.9,53.4,376
		z M71.3,378.1l16.9-5c3.1-1.5,12-13,12-13l-0.4-2.9c-17.4,14.1-46,15.6-46,15.6v2.1C56.4,378.6,71.3,378.1,71.3,378.1z"/>
	<g>
		<polyline class="st15" points="86.4,373.9 70.4,358.7 73.3,377.9 		"/>
		<line class="st15" x1="72.6" y1="373.8" x2="82.5" y2="370.1"/>
		<line class="st15" x1="72.1" y1="370.1" x2="79.8" y2="367.6"/>
		<line class="st15" x1="71.7" y1="367.1" x2="77.5" y2="365"/>
		<line class="st15" x1="71.2" y1="364.4" x2="74.6" y2="363.2"/>
		<polyline class="st15" points="79.8,376.1 70.4,358.7 69.5,356.9 69.5,353.1 		"/>
	</g>
	<path class="st3" d="M73.1,381.9c0,0,9.8-2.8,15.4-3.4l3.3,15.1H72.5L73.1,381.9z M86.2,381.9c0,0,0.7,5.1,1.7,7.1
		c0.3,0.6,2.3,3.1,2.3,3.1l-2.6-11.2l-1.4,0.5"/>
</g>
<g>
	<polygon class="st3" points="217.6,374.5 219.9,358.7 252.6,364.8 244.7,378.8 	"/>
	<path class="st3" d="M247.4,377.6l4.1-7.6l7.2,1.3c0,0,0,4.9-2.6,7.5L247.4,377.6z"/>
	<path class="st3" d="M229.9,392.3v-10.8c0,0-5-1-5.7-6.2l15.4,2.5c0,0-0.6,2.5-5.3,3.6v10.8H229.9z"/>
</g>
<g>
	<g>
		<g>
			<g>
				<polyline class="st16" points="131.7,375.1 136.2,371.5 140.5,374.7 				"/>
				<polyline class="st16" points="130.5,380 136.2,376.1 142.2,380.3 				"/>
				<polyline class="st16" points="129.1,386.5 136.2,381.9 143,386.1 				"/>
				<polyline class="st16" points="126.9,392.2 135.7,386.9 145.2,392.3 				"/>
			</g>
			<polygon class="st17" points="126.9,392.2 136.2,360.6 145.2,392.3 136,395.6 			"/>
			<circle class="st18" cx="136.2" cy="359.4" r="2.3"/>
			<line class="st17" x1="136.2" y1="396.3" x2="136.1" y2="360.2"/>
			<polyline class="st19" points="133.2,371.6 136.4,373.1 139.4,371.5 			"/>
			<polyline class="st19" points="131.2,376.4 136.4,378.2 141.3,375.9 			"/>
			<polyline class="st19" points="130.6,381.9 136.4,383.8 141.9,381.5 			"/>
			<polyline class="st19" points="128.6,387 136,389.8 143.7,387 			"/>
			<polyline class="st19" points="128,392.7 136,395.6 144.4,392.6 			"/>
		</g>
	</g>
	<polygon class="st20" points="135.8,356.6 133.5,348.6 136.2,349.1 136,343.6 138.6,351.6 135.6,351 	"/>
	<polygon class="st20" points="138.1,357.5 142.1,350.2 143.7,352.5 147.5,348.5 143.6,356 141.9,353.4 	"/>
	<polygon class="st20" points="133.5,357.4 126.1,353.5 128.4,351.9 124.2,348.2 131.8,351.9 129.3,353.7 	"/>
</g>
<g>
	<path class="st21" d="M193.3,395.9l1.9-0.4l-7.9-35.2c0.6-0.4,1.1-1.1,1.1-2c0-1.3-1.1-2.4-2.4-2.4c-1.3,0-2.4,1.1-2.4,2.4
		c0,0.8,0.4,1.5,1,1.9l-7.9,35.3l1.9,0.4l1.5-6.9h11.6L193.3,395.9z M186.8,381.7l-1,0.8l-1-0.8H186.8z M184.2,379.7l1.6-1.3
		l1.6,1.3H184.2z M189.9,381.7h0.2l1.2,5.1l-3.9-3.1L189.9,381.7z M187.4,377.2l1.4-1.1l0.6,2.7L187.4,377.2z M186.1,375.8l-0.2,0.2
		l-0.2-0.2H186.1z M185,373.9l0.9-0.9l1,0.9H185z M187.2,371.6l0.6-0.6l0.3,1.4L187.2,371.6z M185.8,370.2L185.8,370.2h-0.1H185.8z
		 M185.8,363.7l0.1-0.5l0.1,0.5H185.8z M184.5,371.7l-0.6,0.6l0.2-0.9L184.5,371.7z M183,376.2l1.3,1.1l-1.9,1.5L183,376.2z
		 M181.8,381.7l2.5,2l-3.6,2.8L181.8,381.7z M185.8,384.9l2.8,2.2H183L185.8,384.9z"/>
	<path class="st22" d="M178.9,369.9c-4.3-2.6-6.7-6.9-6.7-11.7c0.1-4.3,2.4-8.1,6.1-10.2l1,1.8c-3.1,1.7-4.9,4.9-5,8.4
		c-0.1,4,2,7.6,5.6,9.8L178.9,369.9z"/>
	<path class="st22" d="M181.6,365.5c-2.4-1.7-3.8-4-3.9-6.5c-0.1-2.5,1.2-4.9,3.6-6.7l1.3,1.7c-1.8,1.4-2.8,3.1-2.8,5
		c0,1.8,1.1,3.5,3,4.8L181.6,365.5z"/>
	<path class="st22" d="M192.7,369.8l-1.1-1.8c3.6-2.2,5.7-5.9,5.6-9.8c-0.1-3.6-1.9-6.7-5-8.4l1-1.8c3.7,2.1,6,5.9,6.1,10.2
		C199.4,362.9,196.9,367.3,192.7,369.8z"/>
	<path class="st22" d="M190,365.4l-1.2-1.7c1.9-1.3,2.9-3,3-4.8c0-1.8-1-3.6-2.8-5l1.3-1.7c2.4,1.8,3.7,4.2,3.6,6.7
		C193.9,361.4,192.5,363.7,190,365.4z"/>
</g>
<g id="eFXsQX_1_">
	<g>
		<path class="st2" d="M17.7,363.5C17.6,363.4,17.8,363.6,17.7,363.5L17.7,363.5z"/>
		<path class="st2" d="M31.3,363.6C31.2,363.6,31.4,363.7,31.3,363.6L31.3,363.6z"/>
		<path class="st2" d="M17.5,377.2C17.5,377.1,17.6,377.3,17.5,377.2L17.5,377.2z"/>
		<path class="st2" d="M17.4,380.6C17.3,380.6,17.5,380.7,17.4,380.6L17.4,380.6z"/>
		<path class="st2" d="M17.8,385.8C17.8,385.7,17.9,385.9,17.8,385.8L17.8,385.8z"/>
		<path class="st2" d="M11.9,388C11.9,387.9,12,388.1,11.9,388L11.9,388z"/>
		<path class="st2" d="M12.1,396.2C12,396.2,12.2,396.3,12.1,396.2L12.1,396.2z"/>
		<path class="st2" d="M17.7,397.2C17.6,397.1,17.8,397.3,17.7,397.2L17.7,397.2z"/>
		<path class="st2" d="M25,380.6c2.9,1.4,3.2,6.4-0.5,6.7c-0.9,0.1-1.3-0.1-2-0.5c-1.6,1.1-3.3,2.2-4.7,3.6c-0.1,2,0.3,4.6-0.3,6.1
			c-1.2,0.9-3.6,0.7-4.8,0c-1-2.4-0.2-6.5-0.5-9.7c0.9-0.8,0.7-2.7,0.9-4.2c-1.2,0-2,0.4-3.3,0.3c-0.6,0.9-1.3,2.6-1.7,3.1
			c-0.8,0.5-3,1-4.2,0.2c-3.5-2.4,0.6-8.7,4.7-5.5c0.4,0.4,0.4,1.1,0.9,1.4c1.5-0.2,2.8-0.6,4.2-0.8c0.7-1.3-0.1-4.1,0.6-5.5
			c3.3-0.4,4.6,4.3,1.7,5.3c0.8,0.7,3.1,0.9,4.4,1.6c0.8-1,1.3-2.3,3.1-2.3c0.7-2.9,0.3-6.9-1.7-8.1c-0.7-0.3-1.8-0.2-2.5,0
			c-0.3,0.7-0.5,0.6-1.6,0.9c-0.1,0.6,0.1,1.5-0.2,1.9c-0.9,0.7-3.5,0.4-4.4,0.6c0-0.3-0.7-0.6-1.1-0.9c-0.1-1.4,0.2-3.2-0.2-4.4
			c0.8-1,0.9-2.8,0.9-4.5c-1.6-0.3-4,0.7-5.8,0.3c-0.4-0.4-0.4-1.5-0.2-2c2.2-0.5,4.9-0.4,7.2-0.8c0.6,0.1,0.1-0.7,0.6-0.6
			c0.5,0.9,1.9,0.1,2.7,0.9c3.5-0.3,6.9-0.7,10.4-0.9c0.8-4,1.1-8.5,1.9-12.5c0.4,0,0.6,0.2,1.1,0.2c0.3,6.2,0.2,12.1-0.2,17.6
			c-0.3,0.1-0.8,0.1-0.9,0.3c-0.9-1.3-1.2-3.2-1.7-4.8c-3.3,0.5-6.9,0.8-10.5,1.1c-0.4,0.1-0.2,0.8-0.9,0.6c0.3,2.3,0,5.6,2.2,5.6
			c-0.2-0.3,1.7-0.4,2.7-0.3c2.9,0.9,4,4.2,3.7,8.6C25.3,379.7,25.3,380.3,25,380.6z M8.3,364.6C8.4,364.7,8.3,364.5,8.3,364.6
			L8.3,364.6z M24.6,380.9C24.7,381.1,24.5,380.9,24.6,380.9L24.6,380.9z M22.8,382.7c0.5-0.1,0.6,0.3,1.1,0.2
			c-0.1-0.5,0.5-0.2,0.5-0.6C24.1,381.3,22.7,381.5,22.8,382.7z M4.7,383.4c0.2,0,0.4,0,0.6,0c0-0.3-0.1-0.5-0.3-0.6
			C5,383.1,4.6,383,4.7,383.4z M16.9,382.8c-0.2,2.1,0.5,3.2,0.9,4.7c0.8,0.3,3.1-1.3,3.3-1.9c-0.2-0.8-0.6-1.5-0.9-2.2
			C19.1,383.6,18.4,383,16.9,382.8z M25.2,384.5c0.4-0.2,0.3-0.8,0.2-1.2c-0.2,0-0.4,0-0.6,0C24.5,383.6,24.4,384.8,25.2,384.5z"/>
	</g>
</g>
<g id="PwG1Uq_2_">
	<g>
		<path class="st2" d="M255.7,245.6c0,0,0.7-0.8,1.2-0.3c5.4,5.2,18.2,18.5,18.2,18.5s0-7.8,0-11c0-2.4-0.8-7.3,1.9-7.1
			c2.8,0,1.7,5.4,1.9,8.4c0,3.5,0,7.4,0,10.9c2.9,0.3,7.1-0.6,7.8,2c-0.4,3.3-5.1,2-7.8,2.6c0,3.5,0,6.3,0,9.7
			c0,3.1,0.4,9.1-1.7,9.1c-2.6,0-2.1-4-2.2-7.1c0-3,0-7.3,0-10.4c-0.5,0.6-12.4,10.8-17.2,15.4c-1.3,1.3-2.2-0.5-2.2-0.5v-16.2h-6.5
			c0,0-1.4-0.2-1.8-0.9c-0.4-0.7-0.2-2-0.1-2.6c0.3-1,1.9-1.1,1.9-1.1h6.5V245.6z M259.6,280.6l14.2-12.9c0,0-11.3-12.9-14.2-14.9
			C259.6,262,259.6,280.6,259.6,280.6z"/>
	</g>
</g>
<g>
	<path class="st2" d="M124.6,128.8h28.3l4.6,20.2c-0.3-0.5-1.7-0.5-1.7-0.5h-34.2c0,0-1.5,0-1.8,0.5
		C119.7,149.2,124.6,128.8,124.6,128.8z M122.8,147.1c0.4-0.9,3.8-16.9,3.8-16.9h-1l-3.8,17C121.7,147.2,122.2,147,122.8,147.1z"/>
	<path class="st2" d="M157.6,156.3c0,1.1-0.6,1.7-1.7,1.7h-34.4c-1.1,0-1.7-0.6-1.7-1.7V151c0-1.1,0.6-1.7,1.7-1.7h34.4
		c1.1,0,1.7,0.6,1.7,1.7V156.3z M121.2,157c0.8,0,1.6,0,2.4,0c0-2.2,0-4.4,0-6.6c-0.8,0-1.6,0-2.4,0
		C121.2,152.5,121.2,154.7,121.2,157z M125.1,157c0.9,0,1.9,0,2.8,0c0-2.2,0-4.4,0-6.6c-0.9,0-1.9,0-2.8,0
		C125.1,152.5,125.1,154.7,125.1,157z M128.9,157c0.9,0,1.9,0,2.8,0c0-2.2,0-4.4,0-6.6c-0.9,0-1.9,0-2.8,0
		C128.9,152.5,128.9,154.7,128.9,157z M133.1,157c0.8,0,1.6,0,2.4,0c0-2.2,0-4.4,0-6.6c-0.8,0-1.6,0-2.4,0
		C133.1,152.5,133.1,154.7,133.1,157z M136.9,157c0.8,0,1.6,0,2.4,0c0-2.2,0-4.4,0-6.6c-0.8,0-1.6,0-2.4,0
		C136.9,152.5,136.9,154.7,136.9,157z M151.9,151.6c-1.1,0-2.1,0.9-2.1,2.1c0,1.1,0.9,2.1,2.1,2.1c1.1,0,2.1-0.9,2.1-2.1
		C154,152.5,153,151.6,151.9,151.6z M142.7,150.3h-1.9v6.6h1.9V150.3z M146,150.3h-1.9v6.6h1.9V150.3z"/>
</g>
<g>
	<g>
		<path class="st3" d="M112.5,44c0-0.5-0.6-38.1-0.6-38.1L150,5.6l32.3,3.3l-2.7,42.4l-2.1,2.2l-28.4-5L112.5,44z M149.3,47.7
			l27.7,4.8l2.4-43.3l-28.9-3l-38.1,0c0,0,0.6,36.8,0.6,37.2L149.3,47.7z"/>
		<g>
			<polygon points="120.6,82.6 120.6,58.1 132.7,60.6 132.7,77.4 			"/>
			<polygon points="102.8,52.3 151.1,61.8 151.1,93.4 149,92.6 149,62.9 102.8,53.5 			"/>
			<polyline points="104.5,51.6 122.1,45.7 170.7,52.9 151.7,60.7 			"/>
			<polygon points="152.4,93 152.4,61.3 171.4,53.6 171.4,83.3 			"/>
			<path d="M102.8,54.3l16,3.3v10.2l-16-4.7V54.3z M110,59.6c-0.6-0.2-1.3,0-1.4,0.5c-0.2,0.5,0.2,1.1,0.8,1.3
				c0.6,0.2,1.3,0,1.4-0.5C111,60.4,110.7,59.9,110,59.6z"/>
			<path d="M102.8,64.5l16,4.8v13.6l-16-6.5V64.5z M110.3,72.1c-0.6-0.2-1.3,0-1.4,0.5c-0.2,0.5,0.2,1.1,0.8,1.3
				c0.6,0.2,1.3,0,1.4-0.5C111.3,72.9,110.9,72.3,110.3,72.1z"/>
			<path d="M154,33.9l-2.3,16.4l-17.9-2.9l0.3-15.2L154,33.9z M135.6,34l-0.3,11.8l15.2,2.3l1.4-13L135.6,34z"/>
			<path d="M163.5,54.5L151.9,50l2.9-16.2l12.2,3.6l1.5,1.2l-3,15.9H163.5z M164.9,39l-9.4-3.2L153,49l9.3,3.5L164.9,39z"/>
			<path d="M115.9,47.4l-0.8-13.9l0.9-1.1l17.7-0.1l0,15l-16,0.2H115.9z M117.5,45.5l15.1,0.2l0.1-12L116.9,34L117.5,45.5z"/>
		</g>
		<linearGradient id="SVGID_6_" gradientUnits="userSpaceOnUse" x1="112.4704" y1="29.0373" x2="179.3916" y2="29.0373">
			<stop  offset="0" style="stop-color:#021707;stop-opacity:9.000000e-02"/>
			<stop  offset="5.471998e-02" style="stop-color:#09180C;stop-opacity:8.507521e-02"/>
			<stop  offset="0.2045" style="stop-color:#141B15;stop-opacity:7.159775e-02"/>
			<stop  offset="0.4149" style="stop-color:#1B1D1A;stop-opacity:5.265704e-02"/>
			<stop  offset="1" style="stop-color:#1D1D1B;stop-opacity:0"/>
		</linearGradient>
		<path class="st23" d="M113.1,43.4c0-0.5-0.6-37.2-0.6-37.2l39.8-0.6l27.1,4.2L177,52.5L151,47.4L113.1,43.4z"/>
		<linearGradient id="SVGID_7_" gradientUnits="userSpaceOnUse" x1="149.5669" y1="29.4433" x2="179.1045" y2="29.4433">
			<stop  offset="0" style="stop-color:#021707;stop-opacity:9.000000e-02"/>
			<stop  offset="5.471998e-02" style="stop-color:#09180C;stop-opacity:8.507521e-02"/>
			<stop  offset="0.2045" style="stop-color:#141B15;stop-opacity:7.159775e-02"/>
			<stop  offset="0.4149" style="stop-color:#1B1D1A;stop-opacity:5.265704e-02"/>
			<stop  offset="1" style="stop-color:#1D1D1B;stop-opacity:0"/>
		</linearGradient>
		<polygon class="st24" points="150,6.3 179.1,9.3 177,52.6 149.6,47.7 		"/>
		<linearGradient id="SVGID_8_" gradientUnits="userSpaceOnUse" x1="152.8987" y1="44.2045" x2="164.8021" y2="44.2045">
			<stop  offset="0" style="stop-color:#1D1D1B"/>
			<stop  offset="2.795172e-02" style="stop-color:#3B3B39"/>
			<stop  offset="7.238352e-02" style="stop-color:#646462"/>
			<stop  offset="0.1223" style="stop-color:#898988"/>
			<stop  offset="0.1767" style="stop-color:#A9A9A8"/>
			<stop  offset="0.2367" style="stop-color:#C4C4C4"/>
			<stop  offset="0.3045" style="stop-color:#DADADA"/>
			<stop  offset="0.3837" style="stop-color:#EBEBEA"/>
			<stop  offset="0.4816" style="stop-color:#F6F6F6"/>
			<stop  offset="0.6189" style="stop-color:#FDFDFD"/>
			<stop  offset="1" style="stop-color:#FFFFFF"/>
		</linearGradient>
		<polygon class="st25" points="164.8,39 155.4,35.8 152.9,49.1 162.2,52.6 		"/>
		<linearGradient id="SVGID_9_" gradientUnits="userSpaceOnUse" x1="136.8022" y1="32.8105" x2="150.5166" y2="48.0419">
			<stop  offset="0" style="stop-color:#1D1D1B"/>
			<stop  offset="2.795172e-02" style="stop-color:#3B3B39"/>
			<stop  offset="7.238352e-02" style="stop-color:#646462"/>
			<stop  offset="0.1223" style="stop-color:#898988"/>
			<stop  offset="0.1767" style="stop-color:#A9A9A8"/>
			<stop  offset="0.2367" style="stop-color:#C4C4C4"/>
			<stop  offset="0.3045" style="stop-color:#DADADA"/>
			<stop  offset="0.3837" style="stop-color:#EBEBEA"/>
			<stop  offset="0.4816" style="stop-color:#F6F6F6"/>
			<stop  offset="0.6189" style="stop-color:#FDFDFD"/>
			<stop  offset="1" style="stop-color:#FFFFFF"/>
		</linearGradient>
		<polygon class="st26" points="135.6,33.9 135.3,45.7 150.5,48 151.9,35 		"/>
		<linearGradient id="SVGID_10_" gradientUnits="userSpaceOnUse" x1="116.1874" y1="38.1313" x2="133.3558" y2="41.1585">
			<stop  offset="0" style="stop-color:#1D1D1B"/>
			<stop  offset="2.795172e-02" style="stop-color:#3B3B39"/>
			<stop  offset="7.238352e-02" style="stop-color:#646462"/>
			<stop  offset="0.1223" style="stop-color:#898988"/>
			<stop  offset="0.1767" style="stop-color:#A9A9A8"/>
			<stop  offset="0.2367" style="stop-color:#C4C4C4"/>
			<stop  offset="0.3045" style="stop-color:#DADADA"/>
			<stop  offset="0.3837" style="stop-color:#EBEBEA"/>
			<stop  offset="0.4816" style="stop-color:#F6F6F6"/>
			<stop  offset="0.6189" style="stop-color:#FDFDFD"/>
			<stop  offset="1" style="stop-color:#FFFFFF"/>
		</linearGradient>
		<polygon class="st27" points="117.5,45.6 132.5,45.8 132.6,33.8 116.9,34.1 		"/>
		<polygon class="st3" points="112.8,26.9 149.6,26.8 150,5.7 149.7,27 178.1,31 149.7,27 149.7,34 149.6,26.8 112.5,27 		"/>
	</g>
	<path class="st9" d="M139.4,54.3l1.5-1.8c0,0,0.9-1.1,1.3-1.5c0,0,1.3,1.7,0,1.6c-1.3-0.1,2.2-1.6,2.2-1.6s1.8-0.1,1.8,1.7
		c0,0-2.5,0.4-4.4,3.2"/>
	<g>
		<path class="st10" d="M114.3,52.2c0,0-5-10.5,6.5-12.3v-3.4c0,0-4.6-3.6-1.9-7.2c0,0,0.4-3.4,7.9-1.1c0,0,2.2,4.3,0.7,5.6
			c0,0,0.6,1.4-0.1,2.4v1.3l-1.7,0.4c0,0,0.3,1.4,1.3,1.9h2.9l3.6,3.1l3.3,6.2c0,0,4,5.8,2.6,6.9c0,0,3.8-3.6,3.3-1.9
			c-2.8,9.3-6.3,2.7-6.3,2.7l-4.5-7.3c0,0-0.2,0.6-0.3,2.8c-0.2,3-0.3,7.6,0.1,9.2l8.2,1.1c0,0,3.1,1.6,2.8,4c0,0-2.6,9-2.7,10.6
			l-0.1,3.3l3.6-0.3c0,0,1.8,0.3,1.8,1.3l-6.6,3.3c0,0-2.9,1.9-3.3,0c-0.4-1.9-0.4-11.9-0.4-11.9l-0.1-4l-1.1,11.2l0.7-0.7v3.2
			c0,0-5.9,4.2-4.6-3.9c1.3-8-0.1-0.9-0.1-0.9l-0.8-9.6l-7.2,0.4L114.3,52.2z"/>
		<g>
			<ellipse cx="111.5" cy="90.9" rx="2.5" ry="2.3"/>
			<ellipse cx="130.9" cy="91.8" rx="2.4" ry="2.3"/>
			<ellipse cx="142.5" cy="85.1" rx="1.9" ry="2.3"/>
			<ellipse cx="135.2" cy="82.1" rx="1.9" ry="2.3"/>
			<ellipse cx="115.9" cy="83.7" rx="1.9" ry="2.3"/>
			<path d="M121.3,81.4l-13.5,6l2.3,2.2h1.4l-1.2-1.6l14.8-5.9c0,0,1.9,3.4,4.6,7.5h1.2c0,0-2.4-6.5-3-7.5c0,0,12.6,0.1,14.6,1.6
				l1.2-2.3c0,0-11.9-1.3-13.9-0.9c0,0,3.3-1.5,4.6-0.7l0.8-1c0,0,0.2-2-7.8-0.1c-0.1,0-0.3,0.1-0.3,0.1l-0.6-0.9l-0.1-4.3
				c0,0,12.5-2.6,13.4-3.9c0,0,2.3-0.9,4,0c1.7,0.9,1-3.2-4-3.2c-5,0-5.3-1.7-5.3-1.7l-8.2,3.2c0,0,3.9-14.1-5.3-23.1l-20.4-2.7
				c0,0,9.8,15.7,5.5,28.3l13.6,3h3.8l0.4,4.5c0,0-6.8,1.3-10.3,1.9c-3.6,0.6,1.1,2.3,1.1,2.3h1.4l-0.9-1.4l7.5-0.8L121.3,81.4z"/>
		</g>
	</g>
	<path d="M114.3,52.2c0,0-5-10.5,6.5-12.3v-3.4c0,0-4.6-3.6-1.9-7.2c0,0,4.7-5.2,8.8,0.9l-2.2,1.9c0,0-0.7,2.4-0.1,4.2l0.6,1l-1.7,1
		c0,0,0,1.4,1,1.9l4.6-0.3l3,3.1l3.9,5.9l-3.4,2.4c0,0-1.6,0.5-1.9,3.1c-0.3,2.6,0.3,6.4,0.6,7.8l7.9,0.6c0,0,3.1,1.6,2.8,4
		c0,0-2.6,9-2.7,10.6l-0.1,3.3l3.6-0.3c0,0,1.8,0.3,1.8,1.3l-6.6,3.3c0,0-2.9,1.9-3.3,0c-0.4-1.9-0.4-11.9-0.4-11.9l-0.1-4
		l-1.1,11.2l0.7-0.7v3.2c0,0-5.9,4.2-4.6-3.9c1.3-8-0.1-0.9-0.1-0.9l-0.8-9.6l-7.2,0.4L114.3,52.2z M129.2,48c0,0-2,0.4-1.3,3.8
		c1.3,5.6,0.9,11.5,0.9,11.5l1.3-1.3c-0.9-3.2-0.8-9.5-0.8-9.5L129.2,48z M123.4,63.8c0,0,2.9,8.5,3.6,4c2.6-17.5-5.8-23.6-5.8-23.6
		l-7.2-0.8L123.4,63.8z"/>
	<path class="st9" d="M126.2,67.7v0.8c0,0,7.5,0.3,11.5-0.5c0,0,3.5-1.2,5.4-0.7l-1-0.8C142.1,66.5,132.4,67.8,126.2,67.7z"/>
	<path class="st9" d="M122.4,72.4l0.1,0.6c0,0,7.5,0,11.3-1.1c0,0,3.1-1.3,4.9-1.3l-0.8-0.4C137.9,70.2,128.5,72.7,122.4,72.4z"/>
</g>
<g>
	<g>
		<path class="st11" d="M101,290.7c0,0-16.8-3.1-18.8-13.9c-2-10.8,1.4-15.8,14.4-19.7c0,0-0.6-11.8,9.6-10c0,0,1.6-12.4,17.2-14.5
			c18.8-2.6,23.5,9.2,23.5,9.2s1.6-3.5,10.9-3.3c6.1,0.1,19.3,4.3,18.9,18.9c0,0,13.2,0,14.9,13.5c2.7,21.6-22.4,19.8-22.4,19.8H101
			z"/>
	</g>
	<g>
		<path class="st11" d="M123.4,232.5c-15.7,2.1-17.2,14.5-17.2,14.5c-10.3-1.8-9.6,10-9.6,10c-13,3.9-16.4,8.9-14.4,19.7
			s18.8,13.9,18.8,13.9h38.4v-56.2C135.8,232.7,130.7,231.6,123.4,232.5z"/>
		<path class="st12" d="M191.7,270.8c-1.7-13.4-14.9-13.5-14.9-13.5c0.4-14.6-12.8-18.8-18.9-18.9c-9.3-0.2-10.9,3.3-10.9,3.3
			s-1.8-4.5-7.6-7.3v56.2h29.9C169.3,290.7,194.4,292.4,191.7,270.8z"/>
	</g>
	<path class="st12" d="M128.1,246.3c-11.1,1.5-12.2,10.3-12.2,10.3c-7.3-1.3-6.8,7.1-6.8,7.1c-9.2,2.8-11.6,6.3-10.2,13.9
		c1.4,7.6,13.3,9.8,13.3,9.8h27.1v-39.7C136.8,246.4,133.2,245.6,128.1,246.3z"/>
	<path class="st13" d="M176.3,273.4c-1.2-9.5-10.6-9.5-10.6-9.5c0.3-10.3-9-13.3-13.4-13.4c-6.6-0.2-7.7,2.4-7.7,2.4
		s-1.3-3.2-5.3-5.2v39.7h21.2C160.5,287.4,178.2,288.6,176.3,273.4z"/>
</g>
<g>
	<path d="M120.3,183v-7.6c0,0-0.2-0.7,0.4-0.9l3.8-1.4c0,0,0.6-0.3,1.4,0l6.5,1.7l-4.8,1.4c0,0-0.9,0.2-0.8,1.2v7.8L120.3,183z"/>
	<path d="M127.5,185.7v-8c0,0-0.2-0.7,0.4-0.9l5.1-1.4c0,0,0.6-0.3,1.4,0l13.8,3.4l-4.8,1.4c0,0-0.9,0.2-0.8,1.2v9.5L127.5,185.7z"
		/>
	<path d="M143.3,191.3v-9.7c0,0-0.2-0.7,0.4-0.9l5.1-1.4c0,0,0.6-0.3,1.4,0l8.5,2v9.8l-5.5,2.5c-0.8,0.4-2.2,0.2-2.2,0.2
		L143.3,191.3z"/>
	<polygon points="120.2,184 120.2,192.1 134.7,197.5 134.7,189.2 	"/>
	<path d="M135.9,189.5v8.5l16,6.1l6.8-3.4v-8.3l-5.5,2.5c-1.3,0.6-2.2,0.1-2.2,0.1L135.9,189.5z"/>
	<polygon points="127.5,196.1 127.5,203.7 142.4,210.1 142.4,201.7 	"/>
	<polyline points="120.2,193.1 126.6,195.5 126.6,203.4 120.2,200.7 120.2,193.4 	"/>
	<path d="M143.3,202.2v8.1l8.6,3.9l6.8-4.2v-8.2l-5.5,2.9c-1.1,0.6-2.2,0.1-2.2,0.1L143.3,202.2z"/>
</g>
<path class="st0" d="M15.4,339.6c0-0.8,0.7-1.5,1.5-1.5l0,0c0.8,0,1.5,0.7,1.5,1.5l0,0c0,0.8-0.7,1.5-1.5,1.5l0,0
	C16.1,341.1,15.4,340.4,15.4,339.6z M231.6,338.6c0-0.8,0.7-1.5,1.5-1.5l0,0c0.8,0,1.5,0.7,1.5,1.5l0,0c0,0.8-0.7,1.5-1.5,1.5l0,0
	C232.3,340.1,231.6,339.5,231.6,338.6z M15.4,333.6c0-0.8,0.7-1.5,1.5-1.5l0,0c0.8,0,1.5,0.7,1.5,1.5l0,0c0,0.8-0.7,1.5-1.5,1.5l0,0
	C16.1,335.1,15.4,334.4,15.4,333.6z M231.6,332.6c0-0.8,0.7-1.5,1.5-1.5l0,0c0.8,0,1.5,0.7,1.5,1.5l0,0c0,0.8-0.7,1.5-1.5,1.5l0,0
	C232.3,334.1,231.6,333.5,231.6,332.6z M15.4,327.6c0-0.8,0.7-1.5,1.5-1.5l0,0c0.8,0,1.5,0.7,1.5,1.5l0,0c0,0.8-0.7,1.5-1.5,1.5l0,0
	C16.1,329.1,15.4,328.4,15.4,327.6z M231.6,326.6c0-0.8,0.7-1.5,1.5-1.5l0,0c0.8,0,1.5,0.7,1.5,1.5l0,0c0,0.8-0.7,1.5-1.5,1.5l0,0
	C232.3,328.1,231.6,327.5,231.6,326.6z M15.4,321.6c0-0.8,0.7-1.5,1.5-1.5l0,0c0.8,0,1.5,0.7,1.5,1.5l0,0c0,0.8-0.7,1.5-1.5,1.5l0,0
	C16.1,323.1,15.4,322.4,15.4,321.6z M231,321.2c0-0.8,0.7-1.5,1.5-1.5l0,0c0.8,0,1.5,0.7,1.5,1.5l0,0c0,0.8-0.7,1.5-1.5,1.5l0,0
	C231.7,322.7,231,322,231,321.2z M225,321.2c0-0.8,0.7-1.5,1.5-1.5l0,0c0.8,0,1.5,0.7,1.5,1.5l0,0c0,0.8-0.7,1.5-1.5,1.5l0,0
	C225.7,322.7,225,322,225,321.2z M219,321.2c0-0.8,0.7-1.5,1.5-1.5l0,0c0.8,0,1.5,0.7,1.5,1.5l0,0c0,0.8-0.7,1.5-1.5,1.5l0,0
	C219.7,322.7,219,322,219,321.2z M213,321.2c0-0.8,0.7-1.5,1.5-1.5l0,0c0.8,0,1.5,0.7,1.5,1.5l0,0c0,0.8-0.7,1.5-1.5,1.5l0,0
	C213.7,322.7,213,322,213,321.2z M207,321.2c0-0.8,0.7-1.5,1.5-1.5l0,0c0.8,0,1.5,0.7,1.5,1.5l0,0c0,0.8-0.7,1.5-1.5,1.5l0,0
	C207.7,322.7,207,322,207,321.2z M201,321.2c0-0.8,0.7-1.5,1.5-1.5l0,0c0.8,0,1.5,0.7,1.5,1.5l0,0c0,0.8-0.7,1.5-1.5,1.5l0,0
	C201.7,322.7,201,322,201,321.2z M195,321.2c0-0.8,0.7-1.5,1.5-1.5l0,0c0.8,0,1.5,0.7,1.5,1.5l0,0c0,0.8-0.7,1.5-1.5,1.5l0,0
	C195.7,322.7,195,322,195,321.2z M189,321.2c0-0.8,0.7-1.5,1.5-1.5l0,0c0.8,0,1.5,0.7,1.5,1.5l0,0c0,0.8-0.7,1.5-1.5,1.5l0,0
	C189.7,322.7,189,322,189,321.2z M183,321.2c0-0.8,0.7-1.5,1.5-1.5l0,0c0.8,0,1.5,0.7,1.5,1.5l0,0c0,0.8-0.7,1.5-1.5,1.5l0,0
	C183.7,322.7,183,322,183,321.2z M177,321.2c0-0.8,0.7-1.5,1.5-1.5l0,0c0.8,0,1.5,0.7,1.5,1.5l0,0c0,0.8-0.7,1.5-1.5,1.5l0,0
	C177.7,322.7,177,322,177,321.2z M171,321.2c0-0.8,0.7-1.5,1.5-1.5l0,0c0.8,0,1.5,0.7,1.5,1.5l0,0c0,0.8-0.7,1.5-1.5,1.5l0,0
	C171.7,322.7,171,322,171,321.2z M165,321.2c0-0.8,0.7-1.5,1.5-1.5l0,0c0.8,0,1.5,0.7,1.5,1.5l0,0c0,0.8-0.7,1.5-1.5,1.5l0,0
	C165.7,322.7,165,322,165,321.2z M159,321.2c0-0.8,0.7-1.5,1.5-1.5l0,0c0.8,0,1.5,0.7,1.5,1.5l0,0c0,0.8-0.7,1.5-1.5,1.5l0,0
	C159.7,322.7,159,322,159,321.2z M153,321.2c0-0.8,0.7-1.5,1.5-1.5l0,0c0.8,0,1.5,0.7,1.5,1.5l0,0c0,0.8-0.7,1.5-1.5,1.5l0,0
	C153.7,322.7,153,322,153,321.2z M147,321.2c0-0.8,0.7-1.5,1.5-1.5l0,0c0.8,0,1.5,0.7,1.5,1.5l0,0c0,0.8-0.7,1.5-1.5,1.5l0,0
	C147.7,322.7,147,322,147,321.2z M141,321.2c0-0.8,0.7-1.5,1.5-1.5l0,0c0.8,0,1.5,0.7,1.5,1.5l0,0c0,0.8-0.7,1.5-1.5,1.5l0,0
	C141.7,322.7,141,322,141,321.2z M135,321.2c0-0.8,0.7-1.5,1.5-1.5l0,0c0.8,0,1.5,0.7,1.5,1.5l0,0c0,0.8-0.7,1.5-1.5,1.5l0,0
	C135.7,322.7,135,322,135,321.2z M129,321.2c0-0.8,0.7-1.5,1.5-1.5l0,0c0.8,0,1.5,0.7,1.5,1.5l0,0c0,0.8-0.7,1.5-1.5,1.5l0,0
	C129.7,322.7,129,322,129,321.2z M123,321.2c0-0.8,0.7-1.5,1.5-1.5l0,0c0.8,0,1.5,0.7,1.5,1.5l0,0c0,0.8-0.7,1.5-1.5,1.5l0,0
	C123.7,322.7,123,322,123,321.2z M117,321.2c0-0.8,0.7-1.5,1.5-1.5l0,0c0.8,0,1.5,0.7,1.5,1.5l0,0c0,0.8-0.7,1.5-1.5,1.5l0,0
	C117.7,322.7,117,322,117,321.2z M111,321.2c0-0.8,0.7-1.5,1.5-1.5l0,0c0.8,0,1.5,0.7,1.5,1.5l0,0c0,0.8-0.7,1.5-1.5,1.5l0,0
	C111.7,322.7,111,322,111,321.2z M105,321.2c0-0.8,0.7-1.5,1.5-1.5l0,0c0.8,0,1.5,0.7,1.5,1.5l0,0c0,0.8-0.7,1.5-1.5,1.5l0,0
	C105.7,322.7,105,322,105,321.2z M99,321.2c0-0.8,0.7-1.5,1.5-1.5l0,0c0.8,0,1.5,0.7,1.5,1.5l0,0c0,0.8-0.7,1.5-1.5,1.5l0,0
	C99.7,322.7,99,322,99,321.2z M93,321.2c0-0.8,0.7-1.5,1.5-1.5l0,0c0.8,0,1.5,0.7,1.5,1.5l0,0c0,0.8-0.7,1.5-1.5,1.5l0,0
	C93.7,322.7,93,322,93,321.2z M87,321.2c0-0.8,0.7-1.5,1.5-1.5l0,0c0.8,0,1.5,0.7,1.5,1.5l0,0c0,0.8-0.7,1.5-1.5,1.5l0,0
	C87.7,322.7,87,322,87,321.2z M81,321.2c0-0.8,0.7-1.5,1.5-1.5l0,0c0.8,0,1.5,0.7,1.5,1.5l0,0c0,0.8-0.7,1.5-1.5,1.5l0,0
	C81.7,322.7,81,322,81,321.2z M75,321.2c0-0.8,0.7-1.5,1.5-1.5l0,0c0.8,0,1.5,0.7,1.5,1.5l0,0c0,0.8-0.7,1.5-1.5,1.5l0,0
	C75.7,322.7,75,322,75,321.2z M69,321.2c0-0.8,0.7-1.5,1.5-1.5l0,0c0.8,0,1.5,0.7,1.5,1.5l0,0c0,0.8-0.7,1.5-1.5,1.5l0,0
	C69.7,322.7,69,322,69,321.2z M63,321.2c0-0.8,0.7-1.5,1.5-1.5l0,0c0.8,0,1.5,0.7,1.5,1.5l0,0c0,0.8-0.7,1.5-1.5,1.5l0,0
	C63.7,322.7,63,322,63,321.2z M57,321.2c0-0.8,0.7-1.5,1.5-1.5l0,0c0.8,0,1.5,0.7,1.5,1.5l0,0c0,0.8-0.7,1.5-1.5,1.5l0,0
	C57.7,322.7,57,322,57,321.2z M51,321.2c0-0.8,0.7-1.5,1.5-1.5l0,0c0.8,0,1.5,0.7,1.5,1.5l0,0c0,0.8-0.7,1.5-1.5,1.5l0,0
	C51.7,322.7,51,322,51,321.2z M45,321.2c0-0.8,0.7-1.5,1.5-1.5l0,0c0.8,0,1.5,0.7,1.5,1.5l0,0c0,0.8-0.7,1.5-1.5,1.5l0,0
	C45.7,322.7,45,322,45,321.2z M39,321.2c0-0.8,0.7-1.5,1.5-1.5l0,0c0.8,0,1.5,0.7,1.5,1.5l0,0c0,0.8-0.7,1.5-1.5,1.5l0,0
	C39.7,322.7,39,322,39,321.2z M33,321.2c0-0.8,0.7-1.5,1.5-1.5l0,0c0.8,0,1.5,0.7,1.5,1.5l0,0c0,0.8-0.7,1.5-1.5,1.5l0,0
	C33.7,322.7,33,322,33,321.2z M27,321.2c0-0.8,0.7-1.5,1.5-1.5l0,0c0.8,0,1.5,0.7,1.5,1.5l0,0c0,0.8-0.7,1.5-1.5,1.5l0,0
	C27.7,322.7,27,322,27,321.2z M21,321.2c0-0.8,0.7-1.5,1.5-1.5l0,0c0.8,0,1.5,0.7,1.5,1.5l0,0c0,0.8-0.7,1.5-1.5,1.5l0,0
	C21.7,322.7,21,322,21,321.2z"/>
<path class="st0" d="M74.9,338.9c0-0.8,0.7-1.5,1.5-1.5l0,0c0.8,0,1.5,0.7,1.5,1.5l0,0c0,0.8-0.7,1.5-1.5,1.5l0,0
	C75.6,340.4,74.9,339.7,74.9,338.9z M74.9,332.9c0-0.8,0.7-1.5,1.5-1.5l0,0c0.8,0,1.5,0.7,1.5,1.5l0,0c0,0.8-0.7,1.5-1.5,1.5l0,0
	C75.6,334.4,74.9,333.7,74.9,332.9z M74.9,326.9c0-0.8,0.7-1.5,1.5-1.5l0,0c0.8,0,1.5,0.7,1.5,1.5l0,0c0,0.8-0.7,1.5-1.5,1.5l0,0
	C75.6,328.4,74.9,327.7,74.9,326.9z"/>
<path class="st0" d="M135.1,338.9c0-0.8,0.7-1.5,1.5-1.5l0,0c0.8,0,1.5,0.7,1.5,1.5l0,0c0,0.8-0.7,1.5-1.5,1.5l0,0
	C135.8,340.4,135.1,339.7,135.1,338.9z M135.1,332.9c0-0.8,0.7-1.5,1.5-1.5l0,0c0.8,0,1.5,0.7,1.5,1.5l0,0c0,0.8-0.7,1.5-1.5,1.5
	l0,0C135.8,334.4,135.1,333.7,135.1,332.9z M135.1,326.9c0-0.8,0.7-1.5,1.5-1.5l0,0c0.8,0,1.5,0.7,1.5,1.5l0,0
	c0,0.8-0.7,1.5-1.5,1.5l0,0C135.8,328.4,135.1,327.7,135.1,326.9z"/>
<path class="st0" d="M183,339.9c0-0.8,0.7-1.5,1.5-1.5l0,0c0.8,0,1.5,0.7,1.5,1.5l0,0c0,0.8-0.7,1.5-1.5,1.5l0,0
	C183.7,341.4,183,340.7,183,339.9z M183,333.9c0-0.8,0.7-1.5,1.5-1.5l0,0c0.8,0,1.5,0.7,1.5,1.5l0,0c0,0.8-0.7,1.5-1.5,1.5l0,0
	C183.7,335.4,183,334.7,183,333.9z M183,327.9c0-0.8,0.7-1.5,1.5-1.5l0,0c0.8,0,1.5,0.7,1.5,1.5l0,0c0,0.8-0.7,1.5-1.5,1.5l0,0
	C183.7,329.4,183,328.7,183,327.9z"/>
<path class="st0" d="M235.4,266.7c0-0.8,0.7-1.5,1.5-1.5l0,0c0.8,0,1.5,0.7,1.5,1.5l0,0c0,0.8-0.7,1.5-1.5,1.5l0,0
	C236,268.2,235.4,267.6,235.4,266.7z M229.4,266.7c0-0.8,0.7-1.5,1.5-1.5l0,0c0.8,0,1.5,0.7,1.5,1.5l0,0c0,0.8-0.7,1.5-1.5,1.5l0,0
	C230,268.2,229.4,267.6,229.4,266.7z M223.4,266.7c0-0.8,0.7-1.5,1.5-1.5l0,0c0.8,0,1.5,0.7,1.5,1.5l0,0c0,0.8-0.7,1.5-1.5,1.5l0,0
	C224,268.2,223.4,267.6,223.4,266.7z M217.4,266.7c0-0.8,0.7-1.5,1.5-1.5l0,0c0.8,0,1.5,0.7,1.5,1.5l0,0c0,0.8-0.7,1.5-1.5,1.5l0,0
	C218,268.2,217.4,267.6,217.4,266.7z M211.4,266.7c0-0.8,0.7-1.5,1.5-1.5l0,0c0.8,0,1.5,0.7,1.5,1.5l0,0c0,0.8-0.7,1.5-1.5,1.5l0,0
	C212,268.2,211.4,267.6,211.4,266.7z M205.4,266.7c0-0.8,0.7-1.5,1.5-1.5l0,0c0.8,0,1.5,0.7,1.5,1.5l0,0c0,0.8-0.7,1.5-1.5,1.5l0,0
	C206,268.2,205.4,267.6,205.4,266.7z M199.4,266.7c0-0.8,0.7-1.5,1.5-1.5l0,0c0.8,0,1.5,0.7,1.5,1.5l0,0c0,0.8-0.7,1.5-1.5,1.5l0,0
	C200,268.2,199.4,267.6,199.4,266.7z M193.4,266.7c0-0.8,0.7-1.5,1.5-1.5l0,0c0.8,0,1.5,0.7,1.5,1.5l0,0c0,0.8-0.7,1.5-1.5,1.5l0,0
	C194,268.2,193.4,267.6,193.4,266.7z M187.4,266.7c0-0.8,0.7-1.5,1.5-1.5l0,0c0.8,0,1.5,0.7,1.5,1.5l0,0c0,0.8-0.7,1.5-1.5,1.5l0,0
	C188,268.2,187.4,267.6,187.4,266.7z"/>
<path class="st0" d="M328.9,266.7c0-0.8,0.7-1.5,1.5-1.5l0,0c0.8,0,1.5,0.7,1.5,1.5l0,0c0,0.8-0.7,1.5-1.5,1.5l0,0
	C329.6,268.2,328.9,267.5,328.9,266.7z M322.9,266.7c0-0.8,0.7-1.5,1.5-1.5l0,0c0.8,0,1.5,0.7,1.5,1.5l0,0c0,0.8-0.7,1.5-1.5,1.5
	l0,0C323.6,268.2,322.9,267.5,322.9,266.7z M316.9,266.7c0-0.8,0.7-1.5,1.5-1.5l0,0c0.8,0,1.5,0.7,1.5,1.5l0,0
	c0,0.8-0.7,1.5-1.5,1.5l0,0C317.6,268.2,316.9,267.5,316.9,266.7z M310.9,266.7c0-0.8,0.7-1.5,1.5-1.5l0,0c0.8,0,1.5,0.7,1.5,1.5
	l0,0c0,0.8-0.7,1.5-1.5,1.5l0,0C311.6,268.2,310.9,267.5,310.9,266.7z M304.9,266.7c0-0.8,0.7-1.5,1.5-1.5l0,0
	c0.8,0,1.5,0.7,1.5,1.5l0,0c0,0.8-0.7,1.5-1.5,1.5l0,0C305.6,268.2,304.9,267.5,304.9,266.7z M298.9,266.7c0-0.8,0.7-1.5,1.5-1.5
	l0,0c0.8,0,1.5,0.7,1.5,1.5l0,0c0,0.8-0.7,1.5-1.5,1.5l0,0C299.6,268.2,298.9,267.5,298.9,266.7z M292.9,266.7
	c0-0.8,0.7-1.5,1.5-1.5l0,0c0.8,0,1.5,0.7,1.5,1.5l0,0c0,0.8-0.7,1.5-1.5,1.5l0,0C293.6,268.2,292.9,267.5,292.9,266.7z"/>
<g>
	<path d="M110.8,271.3c0,2.1,4.8,1,4.8,4.2c0,1.3-1.2,2.3-2.9,2.3c-1.2,0-2-0.3-3-0.7c0.1-0.3,0.3-0.5,0.4-0.8
		c0.8,0.3,1.6,0.6,2.5,0.6c1,0,1.9-0.5,1.9-1.3c0.2-2.4-4.7-1.2-4.8-4.1c-0.1-1.5,1.1-2.3,2.6-2.3c0.5,0,1.6,0.1,2.8,0.6
		c-0.1,0.3-0.2,0.6-0.3,0.9c-0.6-0.2-1.6-0.5-2.5-0.5C111.6,270.2,110.9,270.5,110.8,271.3L110.8,271.3z"/>
	<path d="M118.6,274.1v2.8h4.4v0.9h-5.4v-8.4h5.4v0.9h-4.4v3h3.5v0.9H118.6z"/>
	<path d="M125.9,277.8h-1v-8.4h3.1c2.2,0,2.9,1.5,2.9,2.6c0,1.2-0.9,2.1-2,2.5c0.5,1,1.1,2.3,1.5,3.3h-1l-1.5-3.2h-2V277.8z
		 M128.1,273.7c1.4,0,1.7-1.2,1.7-1.7c0-0.6-0.3-1.7-1.8-1.7h-2.1v3.5H128.1z"/>
	<path d="M135.4,277.9h-0.2l-3.6-8.5h1.1l2.6,6.3l2.6-6.3h1.1L135.4,277.9z"/>
	<path d="M141.7,277.8h-1v-8.4h1V277.8z"/>
	<path d="M150.1,271.1c-0.5-0.5-1.5-1-2.4-1c-2.7,0-3.1,2.6-3.1,3.4c0,0.9,0.4,3.4,3.1,3.4c1,0,1.8-0.5,2.4-1
		c0.2,0.3,0.4,0.5,0.6,0.7c-0.8,0.7-1.7,1.2-3,1.2c-3.2,0-4.1-2.5-4.1-4.3c0-1.8,0.9-4.3,4.1-4.3c1.4,0,2.3,0.5,3,1.3L150.1,271.1z"
		/>
	<path d="M153.7,274.1v2.8h4.4v0.9h-5.4v-8.4h5.4v0.9h-4.4v3h3.5v0.9H153.7z"/>
	<path d="M160.6,271.3c0,2.1,4.8,1,4.8,4.2c0,1.3-1.2,2.3-2.9,2.3c-1.2,0-2-0.3-3-0.7c0.1-0.3,0.3-0.5,0.4-0.8
		c0.8,0.3,1.6,0.6,2.5,0.6c1,0,1.9-0.5,1.9-1.3c0.2-2.4-4.7-1.2-4.8-4.1c-0.1-1.5,1.1-2.3,2.6-2.3c0.5,0,1.6,0.1,2.8,0.6
		c-0.1,0.3-0.2,0.6-0.3,0.9c-0.6-0.2-1.6-0.5-2.5-0.5C161.4,270.2,160.7,270.5,160.6,271.3L160.6,271.3z"/>
</g>
<g>
	<path d="M360.8,271.3c0,2.1,4.8,1,4.8,4.2c0,1.3-1.2,2.3-2.9,2.3c-1.2,0-2-0.3-3-0.7c0.1-0.3,0.3-0.5,0.4-0.8
		c0.8,0.3,1.6,0.6,2.5,0.6c1,0,1.9-0.5,1.9-1.3c0.2-2.4-4.7-1.2-4.8-4.1c-0.1-1.5,1.1-2.3,2.6-2.3c0.5,0,1.6,0.1,2.8,0.6
		c-0.1,0.3-0.2,0.6-0.3,0.9c-0.6-0.2-1.6-0.5-2.5-0.5C361.6,270.2,360.9,270.5,360.8,271.3L360.8,271.3z"/>
	<path d="M368.6,274.1v2.8h4.4v0.9h-5.4v-8.4h5.4v0.9h-4.4v3h3.5v0.9H368.6z"/>
	<path d="M375.9,277.8h-1v-8.4h3.1c2.2,0,2.9,1.5,2.9,2.6c0,1.2-0.9,2.1-2,2.5c0.5,1,1.1,2.3,1.5,3.3h-1l-1.5-3.2h-2V277.8z
		 M378.1,273.7c1.4,0,1.7-1.2,1.7-1.7c0-0.6-0.3-1.7-1.8-1.7h-2.1v3.5H378.1z"/>
	<path d="M385.4,277.9h-0.2l-3.6-8.5h1.1l2.6,6.3l2.6-6.3h1.1L385.4,277.9z"/>
	<path d="M391.7,277.8h-1v-8.4h1V277.8z"/>
	<path d="M400.1,271.1c-0.5-0.5-1.5-1-2.4-1c-2.7,0-3.1,2.6-3.1,3.4c0,0.9,0.4,3.4,3.1,3.4c1,0,1.8-0.5,2.4-1
		c0.2,0.3,0.4,0.5,0.6,0.7c-0.8,0.7-1.7,1.2-3,1.2c-3.2,0-4.1-2.5-4.1-4.3c0-1.8,0.9-4.3,4.1-4.3c1.4,0,2.3,0.5,3,1.3L400.1,271.1z"
		/>
	<path d="M403.7,274.1v2.8h4.4v0.9h-5.4v-8.4h5.4v0.9h-4.4v3h3.5v0.9H403.7z"/>
	<path d="M410.6,271.3c0,2.1,4.8,1,4.8,4.2c0,1.3-1.2,2.3-2.9,2.3c-1.2,0-2-0.3-3-0.7c0.1-0.3,0.3-0.5,0.4-0.8
		c0.8,0.3,1.6,0.6,2.5,0.6c1,0,1.9-0.5,1.9-1.3c0.2-2.4-4.7-1.2-4.8-4.1c-0.1-1.5,1.1-2.3,2.6-2.3c0.5,0,1.6,0.1,2.8,0.6
		c-0.1,0.3-0.2,0.6-0.3,0.9c-0.6-0.2-1.6-0.5-2.5-0.5C411.4,270.2,410.7,270.5,410.6,271.3L410.6,271.3z"/>
</g>
<g>
	<path d="M233.3,301.8v-8.4h2.9c3.2,0,4.1,2.4,4.1,4.2c0,1.8-0.9,4.2-4.1,4.2H233.3z M236.2,301c2.7,0,3.2-2.5,3.2-3.3
		s-0.4-3.3-3.2-3.3h-1.8v6.7H236.2z"/>
	<path d="M248.4,301.8h-1.1l-1-2.3H243l-0.9,2.3h-1.1l3.6-8.5h0.2L248.4,301.8z M243.3,298.7h2.6l-1.3-3.2L243.3,298.7z"/>
	<path d="M250.6,294.3h-2.5v-0.9h6.1v0.9h-2.5v7.5h-1V294.3z"/>
	<path d="M261.3,301.8h-1.1l-1-2.3h-3.3l-0.9,2.3h-1.1l3.6-8.5h0.2L261.3,301.8z M256.3,298.7h2.6l-1.3-3.2L256.3,298.7z"/>
	<path d="M266.5,301.8v-8.4h2.9c3.2,0,4.1,2.4,4.1,4.2c0,1.8-0.9,4.2-4.1,4.2H266.5z M269.4,301c2.7,0,3.2-2.5,3.2-3.3
		s-0.4-3.3-3.2-3.3h-1.8v6.7H269.4z"/>
	<path d="M276.5,301.8h-1v-8.4h1V301.8z"/>
	<path d="M286.7,297.6c0,1.8-0.9,4.3-4.1,4.3c-3.2,0-4.1-2.5-4.1-4.3c0-1.8,0.9-4.3,4.1-4.3C285.7,293.3,286.7,295.9,286.7,297.6z
		 M285.6,297.6c0-0.9-0.4-3.4-3.1-3.4c-2.7,0-3.1,2.5-3.1,3.4s0.4,3.4,3.1,3.4C285.3,301,285.6,298.5,285.6,297.6z"/>
	<path d="M288.6,301.8v-8.4h2.9c3.2,0,4.1,2.4,4.1,4.2c0,1.8-0.9,4.2-4.1,4.2H288.6z M291.5,301c2.7,0,3.2-2.5,3.2-3.3
		s-0.4-3.3-3.2-3.3h-1.8v6.7H291.5z"/>
	<path d="M298.5,298.1v2.8h4.4v0.9h-5.4v-8.4h5.4v0.9h-4.4v3h3.5v0.9H298.5z"/>
</g>
</svg>
