<?xml version="1.0" encoding="utf-8"?>
<!-- Generator: Adobe Illustrator 18.1.1, SVG Export Plug-In . SVG Version: 6.00 Build 0)  -->
<svg version="1.1" id="Layer_1" xmlns="http://www.w3.org/2000/svg" xmlns:xlink="http://www.w3.org/1999/xlink" x="0px" y="0px"
	 viewBox="0 0 1032.5 1007.5" enable-background="new 0 0 1032.5 1007.5" xml:space="preserve">
<g>
	
		<circle fill="none" stroke="#BFBFBF" stroke-width="4" stroke-miterlimit="10" stroke-dasharray="7.9279,7.9279" cx="105.9" cy="381.9" r="95.9"/>
</g>
<g>
	<g>
		<rect x="914.8" y="355" fill="#264B58" width="74.7" height="65.6"/>
		<g>
			<path fill="#02708E" d="M920.2,341c0-7.7,14.5-13.9,32.4-14.1v-6.5c-23,0.1-41.6,9.2-41.6,20.6c0,0.3,0,19.6,0,20
				c1,10.9,19.2,19.5,41.5,19.6V355C934.7,354.9,920.2,348.6,920.2,341z"/>
			<path fill="#00749E" d="M952.9,320.4c-0.1,0-0.1,0-0.2,0v6.5c0.2,0,0.4,0,0.6,0c18.3,0,33.1,6.3,33.1,14.1
				c0,7.8-14.8,14.1-33.1,14.1c-0.2,0-0.4,0-0.6,0v25.5c0.1,0,0.1,0,0.2,0c22.4,0,40.7-8.7,41.7-19.6c0-0.3,0-19.7,0-20
				C994.7,329.6,976,320.4,952.9,320.4z"/>
			<path fill="#02708E" d="M911.1,368.8c0,0,0,20.8,0,21.2c1,10.9,19.2,18.4,41.5,18.4V385C915.7,384.6,911.1,368.8,911.1,368.8z"/>
			<path fill="#00749E" d="M952.9,385c-0.1,0-0.1,0-0.2,0v23.3c0.1,0,0.1,0,0.2,0c22.4,0,40.7-7.5,41.7-18.4c0-0.3,0-21.2,0-21.2
				S989.1,385.3,952.9,385z"/>
			<path fill="#00749E" d="M952.9,413.6c-0.1,0-0.1,0-0.2,0V437c0.1,0,0.1,0,0.2,0c22.4,0,40.7-7.5,41.7-18.4c0-0.3,0-21.2,0-21.2
				S989.1,414,952.9,413.6z"/>
			<path fill="#02708E" d="M911.1,397.4c0,0,0,20.8,0,21.2c1,10.9,19.2,18.4,41.5,18.4v-23.3C915.7,413.2,911.1,397.4,911.1,397.4z"
				/>
		</g>
		<path fill="#264B58" d="M953.3,326.9c-18.3,0-33.1,6.3-33.1,14.1c0,7.8,14.8,14.1,33.1,14.1c18.3,0,33.1-6.3,33.1-14.1
			C986.3,333.2,971.5,326.9,953.3,326.9z"/>
	</g>
	<g>
		<g>
			<g>
				<g>
					<path fill="#58A38E" d="M994.7,380.4c-8.2,0-14.8,8.6-14.8,19.1c0,10.5,6.6,19.1,14.8,19.1c0.1,0,0.2,0,0.2,0v-38.2
						C994.9,380.4,994.8,380.4,994.7,380.4z"/>
				</g>
			</g>
		</g>
		<path fill="#51937F" d="M1009.6,399.5c0-10.4-6.5-18.9-14.6-19.1v38.2C1003.1,418.4,1009.6,409.9,1009.6,399.5z"/>
		<g>
			<path fill="#58A38E" d="M980.5,416.4c-15.3,7.5-13.2,26-13.2,26s11.8,5.6,27.7,5.8v-24.8C987.4,423.5,983.2,419.8,980.5,416.4z"
				/>
		</g>
		<path fill="#51937F" d="M1008.8,417.5c-4.5,3.7-6.5,5.4-13,6.1c-0.3,0-0.5,0-0.8,0v24.8c8.3,0.1,17.7-1.3,27.2-5.8
			C1023.3,441.9,1022.2,424.4,1008.8,417.5z"/>
	</g>
</g>
<text transform="matrix(1 0 0 1 78.486 511.982)"><tspan x="0" y="0" font-family="'HalisGR-Light'" font-size="27">User</tspan><tspan x="-53.3" y="22" font-family="'HalisGR-Light'" font-size="27">Management</tspan></text>
<g>
	<g>
		<g>
			<g>
				<path fill="#58A38E" d="M103.6,315.9c-12.9,0-23.3,13.4-23.3,30c0,16.6,10.4,30,23.3,30c0.1,0,0.2,0,0.4,0V316
					C103.8,316,103.7,315.9,103.6,315.9z"/>
			</g>
		</g>
	</g>
	<path fill="#51937F" d="M126.8,345.9c0-16.4-10.2-29.7-22.9-29.9v59.9C116.6,375.6,126.8,362.3,126.8,345.9z"/>
	<g>
		<path fill="#58A38E" d="M81.2,372.5c-24,11.7-20.7,40.9-20.7,40.9s18.5,8.8,43.4,9.1v-38.9C92.1,383.6,85.4,377.9,81.2,372.5z"/>
	</g>
	<path fill="#51937F" d="M125.6,374.1c-7.1,5.8-10.2,8.4-20.5,9.5c-0.4,0-0.8,0-1.2-0.1v38.9c13,0.1,27.8-2.1,42.6-9.1
		C148.4,412.5,146.7,385,125.6,374.1z"/>
</g>
<g>
	<path fill="#8E8E8E" d="M166.2,403.9c-1.3-0.3-3.9,0.8-4.5-0.8c-0.4-1.1-0.8-2.2-1.3-3.2c-0.4-0.9-1.3-2.1-1.3-3.1
		c-0.1-1.7,3.1-2.4,3-4c0-0.7-6.8-8-8.5-8.6c-1.7-0.6-2.4,2.6-3.9,2.9c-0.8,0.1-1.9-0.7-2.6-1c-1-0.4-2-0.8-3-1.2
		c-0.7-0.3-1.7-0.4-2-1.3c-0.3-0.8,0-2.3,0-3.2c0-0.8,0-1.1-0.9-1.3c-0.7-0.2-3.5-0.4-5.6-0.5v16.1c0.1,0,0.3,0,0.4,0
		c8.5,0.2,15.5,7.4,15.4,15.9c-0.1,8.5-7.2,15.4-15.8,15.4v0c0.1,0,0.2,0,0.2,0c0,0,0,0,0,0c0.4,0,0.7,0,1,0c0.4,0,0.6,0,0.8,0
		c0.1,0,0.2,0,0.2,0c0.1,0,0,0,0,0c0,0-0.1,0-0.2,0c-0.2,0-0.5,0-0.8,0c-0.3,0-0.6,0-1,0c0,0,0,0,0,0c-0.1,0-0.1,0-0.2,0v15.7
		c2.9,0,5.9-0.1,6.3-0.5c0.7-0.8,0-3,0.2-4c0.2-1.3,2-1.5,3-1.9c0.8-0.3,1.5-0.6,2.3-0.9c0.5-0.2,1.5-0.9,2.1-0.8
		c1.3,0.1,2.1,2.2,3.1,2.8c1.1,0.6,7.5-5.6,9.3-8c1-1.3-2.9-3-2.8-4.4c0-1,0.9-2.2,1.3-3.1c0.4-1.1,0.9-2.1,1.3-3.2
		c0.6-1.7,3.2-0.5,4.5-0.8C167.5,416.5,167.5,404.2,166.2,403.9z"/>
	<path fill="#ADADAD" d="M135.5,426c-1,0-1.7,0-2.1,0c-0.1,0-0.2,0-0.3,0c-0.2,0-0.2,0,0,0c0.1,0,0.2,0,0.3,0
		C133.9,426,134.7,426,135.5,426c-8.8-0.1-15.7-7.2-15.7-15.9c0.1-8.5,7.4-15.4,15.8-15.4v-16.1c-0.9,0-1.7-0.1-2.1-0.1
		c-1,0.2-3,0.1-3.8,0.6c-0.8,0.5-0.5,1.7-0.5,2.6c0,1.2,0.3,2-0.8,2.6c-1.2,0.7-2.7,1.1-4,1.6c-1,0.4-2.4,1.4-3.4,0.7
		c-0.9-0.6-1.6-2.2-2.6-2.6c-1.4-0.6-9.9,7.9-9,9.3c0.6,1,2.1,1.6,2.6,2.6c0.4,0.9-1.8,5.9-2.5,7c-0.6,1.1-1.3,0.8-2.5,0.8
		c-0.8,0-2.3-0.3-2.8,0.5c-0.6,0.9-0.6,11,0,11.9c0.5,0.9,1.9,0.5,2.8,0.5c0.9,0,1.7-0.2,2.3,0.5c0.7,0.8,1,2.6,1.4,3.6
		c0.4,0.9,1.3,2.1,1.3,3.1c0,1-1.3,1.9-1.9,2.6c-1,1-1.3,1.3-0.4,2.5c0.7,0.9,6.7,7,7.6,7.4c2,0.8,2.6-2.8,4.4-2.8
		c1,0,2.7,1.1,3.7,1.5c0.9,0.3,2.6,0.7,3.2,1.3c1.1,1.1-0.7,4.9,1.3,5.1c0.5,0.1,3,0.2,5.6,0.2L135.5,426
		C135.6,426,135.6,426,135.5,426z"/>
	<path fill="#8E8E8E" d="M123.9,410.4c0-6.5,5.2-11.8,11.7-12v-4.2c-8.8,0.2-15.9,7.3-15.9,16.2c0,8.8,7.1,16,15.9,16.2v-4.2
		C129.1,422.3,123.9,417,123.9,410.4z"/>
	<path fill="#ADADAD" d="M136,394.3c-0.1,0-0.2,0-0.3,0v4.2c0.1,0,0.2,0,0.3,0c6.6,0,12,5.4,12,12s-5.4,12-12,12c-0.1,0-0.2,0-0.3,0
		v4.2c0.1,0,0.2,0,0.3,0c8.9,0,16.2-7.2,16.2-16.2C152.1,401.5,144.9,394.3,136,394.3z"/>
</g>
<text transform="matrix(1 0 0 1 278.5157 964.9268)"><tspan x="0" y="0" font-family="'HalisGR-Light'" font-size="27">Card Production</tspan><tspan x="56.9" y="22" font-family="'HalisGR-Light'" font-size="27">System</tspan></text>
<text transform="matrix(1 0 0 1 901.9751 482.8895)" font-family="'HalisGR-Light'" font-size="27">Directory</text>
<text transform="matrix(1 0 0 1 772.1577 405.5838)" font-family="'HalisGR-Light'" font-size="27">LDAP</text>
<text transform="matrix(1 0 0 1 486.9576 109.438)" font-family="'HalisGR-Light'" font-size="27">HSM</text>
<text transform="matrix(1 0 0 1 621.0766 968.4965)"><tspan x="0" y="0" font-family="'HalisGR-Light'" font-size="27">SCEP</tspan><tspan x="-0.5" y="22" font-family="'HalisGR-Light'" font-size="27">Client</tspan></text>
<g>
	<g>
		
			<circle fill="none" stroke="#BFBFBF" stroke-width="4" stroke-miterlimit="10" stroke-dasharray="7.998,7.998" cx="518.6" cy="391.8" r="201.1"/>
	</g>
	<g>
		<g>
			<g>
				<g>
					<path fill="#58A38E" d="M659.8,319.1c-9.8,0-17.7,10.2-17.7,22.8c0,12.6,7.9,22.8,17.7,22.8c0.1,0,0.2,0,0.3,0v-45.5
						C660,319.1,659.9,319.1,659.8,319.1z"/>
				</g>
			</g>
		</g>
		<path fill="#51937F" d="M677.5,341.8c0-12.4-7.8-22.5-17.4-22.7v45.5C669.7,364.4,677.5,354.3,677.5,341.8z"/>
		<g>
			<path fill="#58A38E" d="M642.9,362c-18.2,8.9-15.7,31-15.7,31s14.1,6.7,33,6.9v-29.5C651.1,370.4,646,366.1,642.9,362z"/>
		</g>
		<path fill="#51937F" d="M676.6,363.3c-5.4,4.4-7.8,6.4-15.5,7.2c-0.3,0-0.6,0-0.9,0v29.5c9.9,0.1,21.1-1.6,32.4-6.9
			C693.9,392.4,692.6,371.5,676.6,363.3z"/>
		<polygon fill="#FFFFFF" points="659.3,383.1 681.9,411.3 711,365.1 699.2,355.6 681.5,390.2 668.7,370.1 		"/>
	</g>
	<g>
		<path fill="#5790A4" d="M646.7,484.3c-0.2-13.1-15-28.1-37.4-28.1c-0.2,0,0,56.1,0,56.1c0.2,0,0.4,0,0.6,0c2.8,0,5.5-0.2,8.1-0.5
			c1.6,9.7-8.1,17-8.1,17c23.3-7.3,22.2-22.2,22.2-22.2C634.6,505.1,646.9,498.8,646.7,484.3z"/>
		<path fill="#488899" d="M572.2,484.9c0,14.1,15.2,27.3,37.3,27.5v-56.1C587.3,456.5,572.2,470.8,572.2,484.9z"/>
		<g>
			<g>
				<polygon fill="#F7F6F5" points="606.1,462.1 593.2,474.2 593.2,502.6 623.7,502.6 623.7,462.1 				"/>
				<polygon fill="#E2E2E2" points="606.1,474.2 606.1,462.1 593.2,474.2 				"/>
				<line fill="none" stroke="#494949" stroke-miterlimit="10" x1="606.1" y1="469.2" x2="615.1" y2="469.2"/>
				<line fill="none" stroke="#494949" stroke-miterlimit="10" x1="606" y1="473.2" x2="620.3" y2="473.2"/>
				<line fill="none" stroke="#494949" stroke-miterlimit="10" x1="598.1" y1="476.1" x2="620.3" y2="476.1"/>
				<line fill="none" stroke="#494949" stroke-miterlimit="10" x1="598.1" y1="480.1" x2="620.3" y2="480.1"/>
				<line fill="none" stroke="#494949" stroke-miterlimit="10" x1="598.1" y1="483" x2="620.3" y2="483"/>
				<line fill="none" stroke="#494949" stroke-miterlimit="10" x1="598.1" y1="485.6" x2="609" y2="485.6"/>
			</g>
			<g>
				<g>
					<g>
						<path fill="#264B58" d="M608.6,491.1c0,0,1.3-4.2,2.4-5c1-0.9,4.7-1.3,6.9-0.1c0,0,2.4,3.9,2.5,5l-3.9,4.2
							C616.4,495.1,613.3,496.9,608.6,491.1z"/>
						<path fill="#264B58" d="M608.7,505.3l0.3,0l1.9,3.9c2.3-6,9.5-18.3,9.5-18.3c0-0.6-0.5-1.7-1.1-2.8L608.7,505.3z"/>
						<path fill="#00749E" d="M611.4,485.9c-0.4-0.4-2.7,3.9-2.8,5.3c0,0,2.9,4.6,5.7,9.6v-10.3
							C613.4,488.9,611.8,486.2,611.4,485.9z"/>
						<path fill="#264B58" d="M614.8,491.1c-0.1-0.2-0.3-0.4-0.4-0.7v10.3c1.7,3,3.4,6.1,4.4,8.4l1.8-4l4.7,0.1
							C625.1,505.1,615.5,492.2,614.8,491.1z"/>
						<path fill="#00749E" d="M617.4,485.8c-0.4,0.5-2.5,4.2-3.2,5.3c-0.7,1.1-9.9,14.4-9.9,14.4l4.4-0.2l6.7-10.8l5.1,10.6l4.7,0.1
							l-5.7-9.4l0.9-4.9C619.6,489.5,617.6,485.5,617.4,485.8z"/>
					</g>
				</g>
				<g>
					<g>
						<g>
							<polygon fill="#A0670B" points="620.8,496.3 622.5,495.2 620.6,494.5 622,492.9 620,492.8 620.8,490.9 618.8,491.3 
								619.1,489.3 617.3,490.3 617,488.3 615.6,489.8 614.7,488 614.7,488 614.7,501.9 614.7,501.9 615.9,503.6 616.5,501.6 
								618.1,502.9 618.1,500.8 620,501.6 619.5,499.6 621.5,499.7 620.4,498 622.3,497.6 							"/>
						</g>
						<g>
							<polygon fill="#B2780D" points="613.8,489.8 612.4,488.3 612.1,490.3 610.3,489.3 610.5,491.3 608.6,490.9 609.4,492.8 
								607.4,492.9 608.8,494.5 606.9,495.2 608.6,496.3 607.1,497.6 609,498 607.9,499.7 609.9,499.6 609.4,501.6 611.3,500.8 
								611.3,502.9 612.9,501.6 613.5,503.6 614.7,501.9 614.7,488 							"/>
						</g>
						<path fill="#FCC038" d="M614.6,490.9c-2.7,0-4.9,2.2-4.9,4.9c0,2.7,2.2,4.9,4.9,4.9c0,0,0,0,0.1,0L614.6,490.9
							C614.6,490.9,614.6,490.9,614.6,490.9z"/>
						<path fill="#EAAC2F" d="M619.5,495.8c0-2.7-2.1-4.8-4.8-4.9v9.7C617.3,500.6,619.5,498.5,619.5,495.8z"/>
					</g>
				</g>
			</g>
			<line fill="none" stroke="#494949" stroke-miterlimit="10" x1="598.1" y1="490.4" x2="606.2" y2="490.4"/>
		</g>
	</g>
	<g>
		<g>
			<rect x="366" y="293.2" fill="#264B58" width="49.5" height="43.5"/>
			<g>
				<path fill="#02708E" d="M369.6,283.9c0-5.1,9.6-9.2,21.5-9.3v-4.3c-15.2,0-27.6,6.1-27.6,13.6c0,0.2,0,13,0,13.2
					c0.7,7.2,12.7,13,27.5,13v-16.9C379.2,293.1,369.6,289,369.6,283.9z"/>
				<path fill="#00749E" d="M391.3,270.3c0,0-0.1,0-0.1,0v4.3c0.1,0,0.3,0,0.4,0c12.1,0,21.9,4.2,21.9,9.3c0,5.2-9.8,9.3-21.9,9.3
					c-0.1,0-0.3,0-0.4,0v16.9c0,0,0.1,0,0.1,0c14.9,0,27-5.8,27.7-13c0-0.2,0-13,0-13.3C419,276.4,406.6,270.3,391.3,270.3z"/>
				<path fill="#02708E" d="M363.6,302.3c0,0,0,13.8,0,14c0.7,7.2,12.7,12.2,27.5,12.2v-15.5C366.6,312.8,363.6,302.3,363.6,302.3z"
					/>
				<path fill="#00749E" d="M391.3,313.1c0,0-0.1,0-0.1,0v15.5c0,0,0.1,0,0.1,0c14.9,0,27-5,27.7-12.2c0-0.2,0-14,0-14
					S415.3,313.3,391.3,313.1z"/>
				<path fill="#00749E" d="M391.3,332.1c0,0-0.1,0-0.1,0v15.5c0,0,0.1,0,0.1,0c14.9,0,27-5,27.7-12.2c0-0.2,0-14,0-14
					S415.3,332.3,391.3,332.1z"/>
				<path fill="#02708E" d="M363.6,321.3c0,0,0,13.8,0,14c0.7,7.2,12.7,12.2,27.5,12.2v-15.5C366.6,331.8,363.6,321.3,363.6,321.3z"
					/>
			</g>
			<path fill="#264B58" d="M391.5,274.5c-12.1,0-21.9,4.2-21.9,9.3c0,5.2,9.8,9.3,21.9,9.3c12.1,0,21.9-4.2,21.9-9.3
				C413.5,278.7,403.6,274.5,391.5,274.5z"/>
		</g>
		<g>
			<g>
				<polygon fill="#F7F6F5" points="415.7,292.2 400.6,306.4 400.6,339.5 436.2,339.5 436.2,292.2 				"/>
				<polygon fill="#E2E2E2" points="415.7,306.4 415.7,292.2 400.6,306.4 				"/>
				<line fill="none" stroke="#494949" stroke-miterlimit="10" x1="415.7" y1="300.5" x2="426.2" y2="300.5"/>
				<line fill="none" stroke="#494949" stroke-miterlimit="10" x1="415.5" y1="305.2" x2="432.2" y2="305.2"/>
				<line fill="none" stroke="#494949" stroke-miterlimit="10" x1="406.4" y1="308.6" x2="432.2" y2="308.6"/>
				<line fill="none" stroke="#494949" stroke-miterlimit="10" x1="406.4" y1="313.3" x2="432.2" y2="313.3"/>
				<line fill="none" stroke="#494949" stroke-miterlimit="10" x1="406.4" y1="316.6" x2="432.2" y2="316.6"/>
				<line fill="none" stroke="#494949" stroke-miterlimit="10" x1="406.4" y1="319.7" x2="419" y2="319.7"/>
			</g>
			<g>
				<g>
					<g>
						<path fill="#264B58" d="M418.6,326.1c0,0,1.5-4.9,2.8-5.9c1.2-1,5.5-1.5,8-0.1c0,0,2.8,4.5,2.9,5.8l-4.6,4.9
							C427.6,330.8,424,332.8,418.6,326.1z"/>
						<path fill="#264B58" d="M418.7,342.6l0.3,0l2.2,4.6c2.7-7,11.1-21.3,11.1-21.3c-0.1-0.7-0.6-2-1.3-3.2L418.7,342.6z"/>
						<path fill="#00749E" d="M421.8,320c-0.5-0.5-3.2,4.5-3.2,6.1c0,0,3.4,5.4,6.7,11.2v-12C424.2,323.5,422.2,320.4,421.8,320z"/>
						<path fill="#264B58" d="M425.8,326.1c-0.1-0.2-0.3-0.5-0.5-0.8v12c2,3.5,4,7.2,5.1,9.8l2-4.7l5.5,0.1
							C437.9,342.4,426.6,327.4,425.8,326.1z"/>
						<path fill="#00749E" d="M428.8,319.8c-0.5,0.5-3,4.9-3.7,6.2c-0.8,1.3-11.6,16.8-11.6,16.8l5.2-0.2l7.8-12.6l6,12.4l5.5,0.1
							l-6.6-10.9l1-5.7C431.4,324.2,429.1,319.5,428.8,319.8z"/>
					</g>
				</g>
				<g>
					<g>
						<g>
							<polygon fill="#A0670B" points="432.8,332.1 434.8,330.9 432.6,330 434.2,328.2 431.8,328 432.8,325.9 430.5,326.4 
								430.8,324 428.8,325.2 428.4,322.8 426.7,324.5 425.7,322.4 425.6,322.5 425.6,338.7 425.7,338.7 427,340.6 427.8,338.4 
								429.6,339.8 429.7,337.5 431.9,338.3 431.2,336 433.6,336.1 432.3,334.2 434.6,333.6 							"/>
						</g>
						<g>
							<polygon fill="#B2780D" points="424.6,324.5 423,322.8 422.6,325.2 420.5,324 420.8,326.4 418.5,325.9 419.5,328 
								417.2,328.2 418.7,330 416.6,330.9 418.6,332.1 416.8,333.6 419.1,334.2 417.8,336.1 420.1,336 419.5,338.3 421.7,337.5 
								421.7,339.8 423.6,338.4 424.3,340.6 425.6,338.7 425.6,322.5 							"/>
						</g>
						<path fill="#FCC038" d="M425.6,325.9c-3.1,0-5.7,2.5-5.7,5.7c0,3.1,2.5,5.7,5.7,5.7c0,0,0,0,0.1,0L425.6,325.9
							C425.6,325.9,425.6,325.9,425.6,325.9z"/>
						<path fill="#EAAC2F" d="M431.3,331.6c0-3.1-2.5-5.6-5.6-5.7v11.4C428.8,337.2,431.3,334.7,431.3,331.6z"/>
					</g>
				</g>
			</g>
			<line fill="none" stroke="#494949" stroke-miterlimit="10" x1="406.4" y1="325.3" x2="415.8" y2="325.3"/>
		</g>
	</g>
	<g>
		<path fill="#D3D3D3" d="M614.9,280.7c0-2.4,4.8-2.4,4.8-2.4s4.8,0,4.8,2.4v7.8h4.8v-7.7c0-3-2-5-4.6-6c-1.1-0.4-2.4-0.6-3.7-0.6
			h-2.8c-4.3,0-8.1,2.2-8.1,6.6v7.7h4.8V280.7z"/>
		<path fill="#A5A5A5" d="M614.9,280.7c0-2.4,4.8-2.4,4.8-2.4s4.8,0,4.8,2.4v7.8h2V283c0-3,0.6-6-5.4-6h-2.8c-4.3,0-5.3,1.7-5.3,6
			v5.4h2V280.7z"/>
		<path fill="#A46726" d="M614.9,288.4h-6.2c-1.8,0-3.5,1.5-3.5,3.3v17.4c0,1.8,1.6,3.1,3.5,3.1h10.7v-23.9H614.9z"/>
		<path fill="#824C21" d="M633.7,290.1c0,0-1.7-1.8-2.9-1.8h-11.3v4.9c0,0-0.1,0-0.1,0c-3.7,0-6.6,3-6.6,6.6s3,6.6,6.6,6.6
			c0,0,0.1,0,0.1,0v5.7h10.4c1.9,0,3.9-1.5,3.9-3.1V290.1z"/>
		<path d="M621.7,299.2c0-1-0.8-1.9-1.9-1.9s-1.9,0.8-1.9,1.9c0,0.7,0.4,1.3,1,1.7v1.6c0,0.5,0.4,0.9,0.9,0.9c0.5,0,0.9-0.4,0.9-0.9
			v-1.6C621.3,300.5,621.7,299.9,621.7,299.2z"/>
	</g>
	<g>
		<g>
			<polygon fill="#29626B" points="387.7,468.9 387.7,455.5 451.3,455.5 451.4,468.9 			"/>
			<polygon fill="#378189" points="387.7,455.5 387.7,468.9 395.6,461.2 			"/>
			<polygon fill="#378189" points="451.1,455.5 451.2,468.9 443.3,461.2 			"/>
			<g>
				<polygon fill="#83BDCC" points="385.1,467.5 395.6,461.2 395.6,467.5 				"/>
				<polygon fill="#83BDCC" points="453.7,467.8 443.2,461.5 443.2,467.8 				"/>
				<path fill="#5790A4" d="M385.1,467.5h68.6l2.8,50.5c0.2,4.5-3,8.2-7,8.2l-61.6,0c-3.2,0-7-5.3-6.7-8.7L385.1,467.5z"/>
			</g>
			<circle fill="#29626B" cx="433.7" cy="479.4" r="4.1"/>
			<circle fill="#29626B" cx="405.3" cy="479.4" r="4.1"/>
			<path fill="#FFFFFF" d="M420.1,509.3C420.1,509.3,420,509.3,420.1,509.3c-5.4,0-9.7-1.8-12.7-5.4c-7.1-8.5-4.4-23.7-4.3-24.3
				c0.2-1.2,1.3-1.9,2.5-1.7c1.2,0.2,1.9,1.3,1.7,2.5c0,0.2-2.4,14,3.4,20.9c2.2,2.6,5.3,3.9,9.4,3.9c0,0,0,0,0,0
				c4.1,0,7.1-1.3,9.2-3.8c5.5-6.9,2.4-20.7,2.3-20.8c-0.3-1.1,0.4-2.3,1.6-2.6c1.1-0.3,2.3,0.4,2.6,1.6c0.2,0.6,3.6,15.9-3.1,24.4
				C429.7,507.5,425.5,509.3,420.1,509.3z"/>
		</g>
		<g id="BEUN46_4_">
			<g>
				<polygon fill-rule="evenodd" clip-rule="evenodd" points="461.2,498.5 461.2,498.5 461.2,498.5 				"/>
				<path fill-rule="evenodd" clip-rule="evenodd" d="M461.4,498.5C461.4,498.5,461.4,498.5,461.4,498.5
					C461.4,498.5,461.4,498.5,461.4,498.5z"/>
				<path fill-rule="evenodd" clip-rule="evenodd" d="M459.9,498.5C459.8,498.5,459.8,498.5,459.9,498.5L459.9,498.5z"/>
				<path fill-rule="evenodd" clip-rule="evenodd" d="M461.6,498.5C461.6,498.5,461.7,498.5,461.6,498.5L461.6,498.5z"/>
				<path fill-rule="evenodd" clip-rule="evenodd" fill="#D3D3D3" d="M471.3,497.2c-2.3-8.1-10.8-13.9-19.4-11.7
					c-8.5,2.3-11.9,11.4-9.3,19.3c-1.2,0.2-7.3,0.1-4.5,2.9c1.2,1.2,2.3,1.2,0.8,2.7c-1.3,1.3-2.6,2.7-3.9,4
					c-0.8,0.8-1.6,1.6-2.4,2.4c-2.1,2.1-4.2,4.2-6.3,6.2c-0.2,0.2-0.3,0.3-0.5,0.5c-2.1,2.1-5.3,4.2-5.9,7.2
					c-0.3,1.4,0.5,4.3,0.5,4.3s27-26.9,27.5-27.2C447.7,508.3,471.3,497.2,471.3,497.2z M459.8,498.5
					C459.7,498.5,459.7,498.5,459.8,498.5c0.1,0,0.5,0,1.3,0C460.6,498.5,460,498.5,459.8,498.5z M461.4,498.5
					C461.5,498.5,461.5,498.5,461.4,498.5L461.4,498.5z M459.5,492.1c5.2-2.4,6.9,6.4,1.6,6.4c0.1,0,0.1,0,0.1,0c0,0-0.1,0-0.1,0h0
					h0C457.8,498.5,456.3,493.6,459.5,492.1z"/>
				<path fill-rule="evenodd" clip-rule="evenodd" fill="#B2B2B2" d="M471.4,498.7c-0.1-0.7-0.3-1.5-0.5-2.2l-23.7,11.9l-26,25.7
					c0,0,3.3,0.2,4.9,0c1.2-0.2,2.4-0.6,3.3-1.4c1-1,0.9-1.7,0.9-3c0-1.8,1.4-1.1,2.8-1.1c3-0.1,4.3-1.1,4.1-4.2
					c-0.1-1.7-0.4-2.3,1.4-2.3c1.3,0,2.6,0,3.9,0c-0.1-3,0.3-4.2,2.3-6.4c1.3-1.4,2.3,0.9,3.2,1.9c1.8,2.2,2.5-0.5,2.8-2
					c0.4-2.5,0.6-2.1,2.9-1.6c9.8,2.4,17.9-4.7,17.9-14.6C471.5,499.6,471.5,499.2,471.4,498.7z"/>
			</g>
		</g>
	</g>
	<g>
		<circle fill="#CCCCCC" cx="519.8" cy="394.1" r="98.4"/>
		<g>
			<g>
				<polygon fill="#F7F6F5" points="509.6,314.2 466.3,354.9 466.3,450 568.5,450 568.5,314.2 				"/>
				<polygon fill="#E2E2E2" points="509.6,354.9 509.6,314.2 466.3,354.9 				"/>
				<line fill="none" stroke="#494949" stroke-miterlimit="10" x1="509.6" y1="338.1" x2="539.8" y2="338.1"/>
				<line fill="none" stroke="#494949" stroke-miterlimit="10" x1="509.2" y1="351.6" x2="557.2" y2="351.6"/>
				<line fill="none" stroke="#494949" stroke-miterlimit="10" x1="482.9" y1="361.2" x2="557.2" y2="361.2"/>
				<line fill="none" stroke="#494949" stroke-miterlimit="10" x1="482.9" y1="374.8" x2="557.2" y2="374.8"/>
				<line fill="none" stroke="#494949" stroke-miterlimit="10" x1="482.9" y1="384.4" x2="557.2" y2="384.4"/>
				<line fill="none" stroke="#494949" stroke-miterlimit="10" x1="482.9" y1="393.2" x2="519.3" y2="393.2"/>
			</g>
			<g>
				<g>
					<g>
						<path fill="#264B58" d="M517.9,411.5c0,0,4.4-14,7.9-16.9c3.5-2.9,15.8-4.4,23.1-0.4c0,0,8.2,13,8.3,16.7l-13.2,14
							C544,424.9,533.6,430.9,517.9,411.5z"/>
						<path fill="#264B58" d="M518.2,459l0.9,0l6.3,13.2c7.8-20.2,31.8-61.3,31.8-61.3c-0.2-2-1.8-5.8-3.6-9.3L518.2,459z"/>
						<path fill="#00749E" d="M527.2,393.9c-1.5-1.5-9.1,12.9-9.3,17.6c0,0,9.8,15.5,19.2,32v-34.4
							C534,404.2,528.5,395.2,527.2,393.9z"/>
						<path fill="#264B58" d="M538.6,411.5c-0.4-0.6-0.9-1.4-1.4-2.3v34.4c5.8,10.1,11.4,20.6,14.6,28.1l5.9-13.4l15.7,0.2
							C573.3,458.5,541,415.2,538.6,411.5z"/>
						<path fill="#00749E" d="M547.3,393.6c-1.4,1.5-8.5,14.1-10.8,17.9c-2.3,3.8-33.2,48.1-33.2,48.1l14.8-0.7l22.3-36.2l17.2,35.5
							l15.7,0.2l-19-31.4l2.9-16.3C554.7,406.2,548.1,392.7,547.3,393.6z"/>
					</g>
				</g>
				<g>
					<g>
						<g>
							<polygon fill="#A0670B" points="558.7,428.8 564.5,425.3 558.3,422.7 562.8,417.7 556,417.1 558.9,410.9 552.2,412.3 
								553.1,405.6 547.2,408.9 546.1,402.2 541.4,407.1 538.3,401 538.2,401.2 538.2,447.9 538.3,447.7 542.3,453.2 544.4,446.8 
								549.7,450.9 549.9,444.2 556.2,446.5 554.3,440 561.1,440.4 557.4,434.7 563.9,433.1 							"/>
						</g>
						<g>
							<polygon fill="#B2780D" points="535.3,407.1 530.6,402.2 529.5,408.9 523.6,405.6 524.4,412.3 517.8,410.9 520.6,417.1 
								513.9,417.7 518.4,422.7 512.2,425.3 518,428.8 512.8,433.1 519.3,434.7 515.6,440.4 522.4,440 520.5,446.5 526.8,444.2 
								527,450.9 532.3,446.8 534.4,453.2 538.2,447.9 538.2,401.2 							"/>
						</g>
						<path fill="#FCC038" d="M538,410.9c-9,0-16.3,7.3-16.3,16.3c0,9,7.3,16.3,16.3,16.3c0.1,0,0.1,0,0.2,0v-32.6
							C538.2,410.9,538.1,410.9,538,410.9z"/>
						<path fill="#EAAC2F" d="M554.4,427.3c0-8.9-7.2-16.2-16.1-16.3v32.6C547.2,443.5,554.4,436.2,554.4,427.3z"/>
					</g>
				</g>
			</g>
			<line fill="none" stroke="#494949" stroke-miterlimit="10" x1="482.8" y1="409.2" x2="509.9" y2="409.2"/>
		</g>
	</g>
</g>
<g>
	
		<circle fill="none" stroke="#BFBFBF" stroke-width="4" stroke-miterlimit="10" stroke-dasharray="7.9279,7.9279" cx="381.8" cy="835.7" r="95.9"/>
</g>
<g>
	<g id="BEUN46_5_">
		<g>
			<polygon fill-rule="evenodd" clip-rule="evenodd" points="515.2,229.6 515.2,229.6 515.2,229.6 			"/>
			<path fill-rule="evenodd" clip-rule="evenodd" d="M515.4,229.6C515.4,229.6,515.4,229.6,515.4,229.6
				C515.4,229.6,515.4,229.6,515.4,229.6z"/>
			<path fill-rule="evenodd" clip-rule="evenodd" d="M514,229.2C513.9,229.1,513.9,229.2,514,229.2L514,229.2z"/>
			<path fill-rule="evenodd" clip-rule="evenodd" d="M515.6,229.7C515.6,229.7,515.6,229.7,515.6,229.7L515.6,229.7z"/>
			<path fill-rule="evenodd" clip-rule="evenodd" fill="#D3D3D3" d="M525.3,231.3c0.1-8.4-6.2-16.5-15.1-16.8
				c-8.8-0.3-14.7,7.4-14.5,15.7c-1.3-0.2-7-2-5.2,1.5c0.8,1.5,1.8,1.8,0,2.9c-1.6,0.9-3.2,1.8-4.9,2.7c-1,0.5-2,1.1-3,1.6
				c-2.6,1.4-5.2,2.8-7.8,4.1c-0.2,0.1-0.4,0.2-0.6,0.3c-2.6,1.4-6.3,2.5-7.8,5.1c-0.7,1.3-0.8,4.3-0.8,4.3s33.7-17.8,34.3-18
				C499.4,235,525.3,231.3,525.3,231.3z M513.8,229.1C513.7,229.1,513.8,229.1,513.8,229.1c0.1,0,0.5,0.2,1.2,0.4
				C514.6,229.4,514,229.2,513.8,229.1z M515.4,229.6C515.5,229.7,515.5,229.6,515.4,229.6L515.4,229.6z M515.4,223
				c5.7-0.8,4.7,8.2-0.4,6.6c0,0,0.1,0,0.1,0c0,0-0.1,0-0.1,0l0,0c0,0,0,0,0,0C511.9,228.5,512,223.4,515.4,223z"/>
			<path fill-rule="evenodd" clip-rule="evenodd" fill="#B2B2B2" d="M524.9,232.7c0.1-0.7,0.2-1.5,0.2-2.2l-26.2,4.5l-32.4,17
				c0,0,3.1,1.1,4.7,1.4c1.2,0.2,2.5,0.2,3.5-0.4c1.2-0.7,1.3-1.4,1.7-2.6c0.6-1.7,1.7-0.6,3-0.3c2.8,0.8,4.4,0.2,5.2-2.9
				c0.4-1.6,0.3-2.3,2-1.8c1.2,0.4,2.5,0.8,3.7,1.1c0.8-2.9,1.5-3.9,4.1-5.4c1.6-0.9,2,1.5,2.5,2.8c1.1,2.6,2.5,0.3,3.2-1.1
				c1.1-2.3,1.2-1.8,3.3-0.6c8.7,5.1,18.5,0.7,21.3-8.7C524.8,233.6,524.8,233.2,524.9,232.7z"/>
		</g>
	</g>
	<g id="BEUN46_6_">
		<g>
			<polygon fill-rule="evenodd" clip-rule="evenodd" points="525.8,230.7 525.8,230.7 525.8,230.7 			"/>
			<path fill-rule="evenodd" clip-rule="evenodd" d="M525.9,230.7C526,230.6,526,230.6,525.9,230.7C526,230.6,526,230.6,525.9,230.7
				z"/>
			<path fill-rule="evenodd" clip-rule="evenodd" d="M524.6,231C524.5,231,524.5,231,524.6,231L524.6,231z"/>
			<path fill-rule="evenodd" clip-rule="evenodd" d="M526.1,230.6C526.2,230.6,526.2,230.6,526.1,230.6L526.1,230.6z"/>
			<path fill-rule="evenodd" clip-rule="evenodd" fill="#D3D3D3" d="M535.2,226.9c-4.3-7.3-13.9-10.8-21.7-6.4
				c-7.7,4.3-8.6,14-4.1,21c-1.2,0.5-7,1.9-3.6,4c1.5,0.9,2.5,0.6,1.5,2.4c-0.9,1.6-1.8,3.2-2.7,4.9c-0.6,1-1.2,2-1.7,3
				c-1.5,2.5-3,5.1-4.5,7.6c-0.1,0.2-0.2,0.4-0.3,0.6c-1.5,2.5-4.1,5.4-3.9,8.5c0.1,1.5,1.6,4,1.6,4s19.3-32.9,19.7-33.3
				C515.2,243.6,535.2,226.9,535.2,226.9z M524.4,231C524.3,231.1,524.3,231.1,524.4,231c0.1,0,0.5-0.1,1.2-0.3
				C525.2,230.8,524.6,231,524.4,231z M526,230.6C526.1,230.6,526.1,230.6,526,230.6L526,230.6z M522.5,224.9
				c4.4-3.6,8.3,4.5,3.1,5.8c0,0,0.1,0,0.1,0c0,0-0.1,0-0.1,0l0,0l0,0C522.4,231.5,519.8,227.2,522.5,224.9z"/>
			<path fill-rule="evenodd" clip-rule="evenodd" fill="#B2B2B2" d="M535.7,228.3c-0.3-0.7-0.6-1.3-1-2l-20,17.5l-18.7,31.5
				c0,0,3.2-0.6,4.7-1.3c1.1-0.5,2.2-1.2,2.8-2.2c0.7-1.2,0.4-1.9,0.1-3.2c-0.4-1.8,1.1-1.4,2.4-1.8c2.8-0.8,3.9-2.2,2.9-5.2
				c-0.5-1.6-1-2.1,0.8-2.6c1.3-0.3,2.5-0.7,3.8-1c-0.9-2.9-0.8-4.2,0.6-6.7c0.9-1.6,2.5,0.2,3.6,1c2.3,1.6,2.3-1.1,2.2-2.6
				c-0.2-2.5,0.1-2.2,2.5-2.2c10.1-0.2,16.1-9.1,13.6-18.6C536.1,229.2,535.9,228.7,535.7,228.3z"/>
		</g>
	</g>
</g>
<text transform="matrix(1 0 0 1 492.723 627.3965)" font-family="'HalisGR-Light'" font-size="27">i-CA</text>
<g>
	<path fill="#EAAC2F" d="M604.2,823.9c0,0-9,80.4,52.5,106.9V808.1C656.7,808.1,640.2,826.2,604.2,823.9z"/>
	<path fill="#CC9636" d="M709.2,823.9c0,0,9,80.4-52.5,106.9V808.1C656.7,808.1,673.2,826.2,709.2,823.9z"/>
	<path fill="#FCC038" d="M615.6,835.6c0,0-7,62.9,41.1,83.7v-96C656.7,823.2,643.8,837.4,615.6,835.6z"/>
	<path fill="#EAAC2F" d="M697.8,835.6c0,0,7,62.9-41.1,83.7v-96C656.7,823.2,669.6,837.4,697.8,835.6z"/>
</g>
<g>
	<path fill="#EFEFEF" d="M430.1,876.3h-99.7c-6.6,0-12-5.4-12-12v-56.6c0-6.6,5.4-12,12-12h99.7c6.6,0,12,5.4,12,12v56.6
		C442.1,870.9,436.7,876.3,430.1,876.3z"/>
	<line fill="none" stroke="#494949" stroke-width="3" stroke-miterlimit="10" x1="385.7" y1="829.1" x2="427.7" y2="829.1"/>
	<line fill="none" stroke="#494949" stroke-width="3" stroke-miterlimit="10" x1="395.7" y1="842.1" x2="428" y2="842.1"/>
	<line fill="none" stroke="#494949" stroke-width="3" stroke-miterlimit="10" x1="395.7" y1="854.1" x2="428" y2="854.1"/>
	<line fill="none" stroke="#A46726" stroke-width="5" stroke-miterlimit="10" x1="374.8" y1="814" x2="427.7" y2="814"/>
	<g>
		<g>
			<g>
				<g>
					<path fill="#58A38E" d="M351.9,807.5c-6.7,0-12.1,7-12.1,15.6c0,8.6,5.4,15.6,12.1,15.6c0.1,0,0.1,0,0.2,0v-31.2
						C352.1,807.5,352,807.5,351.9,807.5z"/>
				</g>
			</g>
		</g>
		<path fill="#51937F" d="M364.1,823.1c0-8.5-5.3-15.5-11.9-15.6v31.2C358.7,838.6,364.1,831.6,364.1,823.1z"/>
		<g>
			<path fill="#58A38E" d="M340.3,836.9c-12.5,6.1-10.8,21.3-10.8,21.3s9.7,4.6,22.6,4.8v-20.3C346,842.7,342.5,839.7,340.3,836.9z"
				/>
		</g>
		<path fill="#51937F" d="M363.4,837.8c-3.7,3-5.3,4.4-10.7,5c-0.2,0-0.4,0-0.6,0V863c6.8,0.1,14.5-1.1,22.2-4.8
			C375.3,857.8,374.4,843.5,363.4,837.8z"/>
	</g>
</g>
<g>
	<path fill="#D2D2D2" d="M492.7,14c-5.8,0-11.2,3.1-14.1,8.1L465.7,44l52.9-0.1V14H492.7z"/>
	<path fill="#C6C5C4" d="M557.8,21.9c-2.8-4.9-8-7.9-13.6-7.9h-25.5v29.8l51.6-0.1L557.8,21.9z"/>
	<path fill="#A0A0A0" d="M575.1,42.5h-56.4V76h56.4c2.5,0,4.6-2,4.6-4.6V47.1C579.7,44.6,577.6,42.5,575.1,42.5z"/>
	<path fill="#ACACAC" d="M461.2,42.5c-2.5,0-4.6,2-4.6,4.6v24.3c0,2.5,2,4.6,4.6,4.6h57.4V42.5H461.2z"/>
	<path fill="#494949" d="M512.1,65.3h-38.6c-1.7,0-3-1.3-3-3s1.3-3,3-3h38.6c1.7,0,3,1.3,3,3S513.8,65.3,512.1,65.3z"/>
	<circle fill="#58A38E" cx="564.1" cy="55.3" r="3.4"/>
	<circle fill="#FCC038" cx="564.1" cy="65.3" r="3.4"/>
</g>
<line fill="none" stroke="#BFBFBF" stroke-width="4" stroke-miterlimit="10" x1="519" y1="191.3" x2="519" y2="123.1"/>
<g>
	<g>
		<line fill="none" stroke="#BFBFBF" stroke-width="4" stroke-miterlimit="10" x1="385.5" y1="739.6" x2="433" y2="574"/>
		<g>
			<circle fill="#BFBFBF" cx="385.6" cy="739.3" r="6.8"/>
		</g>
		<g>
			<circle fill="#BFBFBF" cx="432.9" cy="574.3" r="6.8"/>
		</g>
	</g>
</g>
<g>
	<g>
		<line fill="none" stroke="#BFBFBF" stroke-width="4" stroke-miterlimit="10" x1="884.4" y1="377.4" x2="720.2" y2="377.4"/>
		<g>
			<circle fill="#BFBFBF" cx="884" cy="377.4" r="6.8"/>
		</g>
		<g>
			<circle fill="#BFBFBF" cx="720.5" cy="377.4" r="6.8"/>
		</g>
	</g>
</g>
<g>
	<g>
		<line fill="none" stroke="#BFBFBF" stroke-width="4" stroke-miterlimit="10" x1="654.2" y1="783" x2="603.8" y2="576.5"/>
		<g>
			<circle fill="#BFBFBF" cx="654.2" cy="782.7" r="6.8"/>
		</g>
		<g>
			<circle fill="#BFBFBF" cx="603.8" cy="576.8" r="6.8"/>
		</g>
	</g>
</g>
<g>
	<g>
		<line fill="none" stroke="#BFBFBF" stroke-width="4" stroke-miterlimit="10" x1="315.9" y1="377.4" x2="201.3" y2="377.4"/>
		<g>
			<circle fill="#BFBFBF" cx="315.6" cy="377.4" r="6.8"/>
		</g>
		<g>
			<circle fill="#BFBFBF" cx="201.6" cy="377.4" r="6.8"/>
		</g>
	</g>
</g>
</svg>
