<?xml version="1.0" encoding="utf-8"?>
<!-- Generator: Adobe Illustrator 19.0.1, SVG Export Plug-In . SVG Version: 6.00 Build 0)  -->
<svg version="1.1" id="Layer_1" xmlns="http://www.w3.org/2000/svg" xmlns:xlink="http://www.w3.org/1999/xlink" x="0px" y="0px"
	 viewBox="0 0 997.5 1000.4" style="enable-background:new 0 0 997.5 1000.4;" xml:space="preserve">
<style type="text/css">
	.st0{opacity:0.19;fill:#5FA9B9;}
	.st1{fill:#010202;}
	.st2{fill:#3A708E;}
	.st3{fill:#020304;}
	.st4{fill:none;stroke:#020203;stroke-width:2.0057;}
	.st5{fill:#020203;}
	.st6{fill:none;stroke:#010202;stroke-width:0.6594;}
	.st7{fill:url(#SVGID_1_);stroke:#028342;stroke-width:0.8761;}
	.st8{fill:none;stroke:#010202;stroke-width:0.8761;}
	.st9{fill:none;stroke:#232021;stroke-width:2.0487;}
	.st10{fill:#232021;}
	.st11{fill:none;stroke:#808080;stroke-width:2.9495;stroke-miterlimit:10;}
	.st12{fill:#020202;}
	.st13{fill:url(#SVGID_2_);}
	.st14{fill:url(#SVGID_3_);}
	.st15{fill:url(#SVGID_4_);}
	.st16{fill:url(#SVGID_5_);}
	.st17{opacity:0.38;}
	.st18{fill:#232021;stroke:#232021;stroke-width:1.7584;}
	.st19{fill:none;stroke:#232021;stroke-width:1.7584;}
	.st20{fill:url(#SVGID_6_);stroke:#020203;stroke-width:1.7584;}
	.st21{fill:url(#SVGID_7_);stroke:#020203;stroke-width:1.7584;}
	.st22{fill:none;stroke:#020203;stroke-width:1.7584;}
	.st23{fill:#8F8F8F;}
	.st24{fill-rule:evenodd;clip-rule:evenodd;fill:#B9B8B8;}
	.st25{fill-rule:evenodd;clip-rule:evenodd;fill:#020203;}
	.st26{fill-rule:evenodd;clip-rule:evenodd;fill:none;stroke:#232021;stroke-width:1.722;}
	.st27{fill:#515050;}
	.st28{fill:#B4B4B3;}
	.st29{fill-rule:evenodd;clip-rule:evenodd;}
	.st30{fill:none;stroke:#000000;stroke-width:2.5221;stroke-miterlimit:10;}
	.st31{fill:none;stroke:#808080;stroke-width:2.5221;stroke-miterlimit:10;}
	.st32{fill:#727272;}
	.st33{fill:#474747;}
	.st34{fill:none;stroke:#FEFEFE;stroke-width:0.2216;stroke-miterlimit:10;}
	.st35{fill:none;stroke:#FEFEFE;stroke-width:0.2304;stroke-miterlimit:10;}
	.st36{fill:#828282;}
	.st37{fill:#CCCCCC;}
	.st38{fill:#8C8C8C;}
	.st39{fill:#4B4B4B;}
	.st40{fill:#0084AC;}
</style>
<ellipse class="st0" cx="499.2" cy="436.3" rx="490.8" ry="429.8"/>
<g>
	<path class="st1" d="M707.1,979.4c-1.8,0-3.2,0.6-4.2,1.7c-1,1.1-1.5,2.7-1.5,4.6c0,2,0.5,3.6,1.5,4.7c1,1.1,2.4,1.7,4.2,1.7
		c1.2,0,2.3-0.2,3.3-0.5v0.9c-0.9,0.3-2.1,0.5-3.5,0.5c-2,0-3.6-0.6-4.7-1.9c-1.2-1.3-1.7-3.1-1.7-5.4c0-1.4,0.3-2.7,0.8-3.8
		c0.5-1.1,1.3-1.9,2.4-2.5c1-0.6,2.2-0.9,3.6-0.9c1.4,0,2.6,0.3,3.7,0.8l-0.4,0.9C709.4,979.7,708.3,979.4,707.1,979.4z"/>
	<path class="st1" d="M722,987.6c0,1.7-0.4,3-1.3,4s-2,1.4-3.5,1.4c-0.9,0-1.8-0.2-2.5-0.7c-0.7-0.4-1.3-1.1-1.6-1.9
		c-0.4-0.8-0.6-1.8-0.6-2.9c0-1.7,0.4-3,1.3-4c0.8-1,2-1.4,3.5-1.4c1.5,0,2.6,0.5,3.4,1.5S722,985.9,722,987.6z M713.6,987.6
		c0,1.4,0.3,2.6,1,3.4c0.6,0.8,1.5,1.2,2.7,1.2c1.2,0,2.1-0.4,2.7-1.2s1-1.9,1-3.4c0-1.4-0.3-2.6-1-3.4c-0.6-0.8-1.6-1.2-2.7-1.2
		c-1.2,0-2.1,0.4-2.7,1.2C713.9,985,713.6,986.1,713.6,987.6z"/>
	<path class="st1" d="M738.1,992.8v-6.9c0-1-0.2-1.8-0.6-2.2s-1-0.7-1.9-0.7c-1.1,0-1.9,0.3-2.4,0.9c-0.5,0.6-0.8,1.5-0.8,2.8v6.1
		h-1v-7.2c0-1.8-0.8-2.6-2.5-2.6c-1.1,0-1.9,0.3-2.4,1c-0.5,0.6-0.8,1.7-0.8,3.1v5.8h-1v-10.5h0.8l0.2,1.4h0.1
		c0.3-0.5,0.7-0.9,1.2-1.2c0.5-0.3,1.1-0.4,1.8-0.4c1.7,0,2.7,0.6,3.2,1.9h0c0.3-0.6,0.8-1.1,1.4-1.4c0.6-0.3,1.2-0.5,2-0.5
		c1.2,0,2,0.3,2.6,0.9c0.6,0.6,0.9,1.6,0.9,2.9v6.8H738.1z"/>
	<path class="st1" d="M753.2,992.8h-1l-8.4-12.5h-0.1c0.1,1.5,0.1,2.6,0.1,3.4v9.1h-1v-14.1h1l8.4,12.5h0.1
		c-0.1-1.2-0.1-2.3-0.1-3.3v-9.2h1V992.8z"/>
	<path class="st1" d="M761.2,993c-1.5,0-2.7-0.5-3.6-1.4c-0.9-0.9-1.3-2.2-1.3-3.9c0-1.7,0.4-3,1.2-4c0.8-1,2-1.5,3.4-1.5
		c1.2,0,2.2,0.4,3,1.3c0.7,0.9,1.1,2,1.1,3.5v0.8h-7.6c0,1.4,0.4,2.5,1,3.3c0.7,0.8,1.6,1.1,2.9,1.1c0.6,0,1.1,0,1.6-0.1
		c0.5-0.1,1-0.3,1.7-0.5v0.9c-0.6,0.3-1.2,0.4-1.7,0.5C762.4,993,761.8,993,761.2,993z M760.9,983c-1,0-1.8,0.3-2.5,1
		c-0.6,0.7-1,1.6-1.1,2.9h6.6c0-1.2-0.3-2.2-0.8-2.8C762.6,983.3,761.9,983,760.9,983z"/>
	<path class="st1" d="M770.7,992.2c0.6,0,1.1-0.1,1.6-0.2v0.8c-0.5,0.2-1,0.2-1.6,0.2c-0.9,0-1.6-0.2-2.1-0.7s-0.7-1.3-0.7-2.3v-6.8
		h-1.6v-0.6l1.6-0.4l0.5-2.4h0.5v2.5h3.1v0.8h-3.1v6.6c0,0.8,0.1,1.4,0.4,1.8C769.7,992,770.1,992.2,770.7,992.2z"/>
</g>
<g>
	<g>
		<path class="st1" d="M392.8,267.7h-8.3v-0.8l3.5-3.6c1-1,1.7-1.8,2.1-2.3s0.7-1,0.9-1.5c0.2-0.5,0.3-1,0.3-1.5
			c0-0.8-0.3-1.4-0.8-1.9s-1.2-0.7-2-0.7c-1.1,0-2.2,0.4-3.2,1.2l-0.5-0.6c1.1-0.9,2.3-1.4,3.7-1.4c1.1,0,2.1,0.3,2.7,0.9
			c0.7,0.6,1,1.4,1,2.5c0,0.9-0.2,1.7-0.7,2.5c-0.4,0.8-1.2,1.8-2.4,3l-3.4,3.4v0h7.1V267.7z"/>
		<path class="st1" d="M405.9,261.1c0,2.2-0.6,3.8-1.7,5c-1.2,1.1-2.9,1.7-5.1,1.7h-3.2v-13h3.6c2.1,0,3.7,0.5,4.8,1.6
			C405.4,257.4,405.9,259,405.9,261.1z M404.9,261.1c0-1.9-0.5-3.3-1.4-4.2c-1-0.9-2.4-1.4-4.2-1.4h-2.4v11.4h2.2
			C403,266.9,404.9,265,404.9,261.1z"/>
		<path class="st1" d="M414.7,262v5.7h-0.9v-13h3.1c1.6,0,2.8,0.3,3.6,0.9c0.8,0.6,1.2,1.5,1.2,2.7c0,0.9-0.2,1.6-0.7,2.2
			c-0.5,0.6-1.2,1-2.1,1.3l3.6,5.9h-1.1L418,262H414.7z M414.7,261.2h2.5c1.1,0,2-0.2,2.6-0.7c0.6-0.5,0.9-1.2,0.9-2.2
			c0-1-0.3-1.7-0.9-2.2s-1.6-0.7-2.9-0.7h-2.2V261.2z"/>
		<path class="st1" d="M430.5,267.7l-0.2-1.5h-0.1c-0.5,0.6-1,1.1-1.5,1.3c-0.5,0.3-1.1,0.4-1.8,0.4c-1,0-1.7-0.2-2.2-0.7
			s-0.8-1.2-0.8-2c0-0.9,0.4-1.7,1.2-2.2c0.8-0.5,1.9-0.8,3.5-0.8l1.9-0.1v-0.6c0-0.9-0.2-1.6-0.6-2.1s-1-0.7-1.8-0.7
			c-0.9,0-1.8,0.2-2.8,0.7l-0.3-0.8c1.1-0.5,2.1-0.7,3.2-0.7c1.1,0,1.9,0.3,2.4,0.8s0.8,1.4,0.8,2.6v6.4H430.5z M426.9,267.1
			c1,0,1.9-0.3,2.5-0.9s0.9-1.4,0.9-2.5v-1l-1.7,0.1c-1.4,0.1-2.4,0.3-2.9,0.6s-0.9,0.9-0.9,1.7c0,0.6,0.2,1.1,0.6,1.4
			C425.7,266.9,426.2,267.1,426.9,267.1z"/>
		<path class="st1" d="M437.9,257.8c0.7,0,1.3,0.1,1.8,0.4s1,0.7,1.4,1.3h0.1c0-0.7-0.1-1.5-0.1-2.2v-3.5h0.9v13.9h-0.6l-0.2-1.5
			h-0.1c-0.7,1.1-1.8,1.7-3.2,1.7c-1.4,0-2.4-0.4-3.1-1.2s-1.1-2-1.1-3.6c0-1.7,0.4-3,1.1-3.8C435.5,258.3,436.6,257.8,437.9,257.8z
			 M437.9,258.6c-1.1,0-1.9,0.4-2.4,1.1c-0.5,0.7-0.8,1.8-0.8,3.2c0,2.7,1.1,4.1,3.2,4.1c1.1,0,1.9-0.3,2.4-1
			c0.5-0.6,0.8-1.7,0.8-3.1v-0.2c0-1.5-0.3-2.6-0.8-3.2S439,258.6,437.9,258.6z"/>
		<path class="st1" d="M451.3,267.7l-0.2-1.5H451c-0.5,0.6-1,1.1-1.5,1.3c-0.5,0.3-1.1,0.4-1.8,0.4c-1,0-1.7-0.2-2.2-0.7
			s-0.8-1.2-0.8-2c0-0.9,0.4-1.7,1.2-2.2c0.8-0.5,1.9-0.8,3.5-0.8l1.9-0.1v-0.6c0-0.9-0.2-1.6-0.6-2.1s-1-0.7-1.8-0.7
			c-0.9,0-1.8,0.2-2.8,0.7l-0.3-0.8c1.1-0.5,2.1-0.7,3.2-0.7c1.1,0,1.9,0.3,2.4,0.8s0.8,1.4,0.8,2.6v6.4H451.3z M447.7,267.1
			c1,0,1.9-0.3,2.5-0.9s0.9-1.4,0.9-2.5v-1l-1.7,0.1c-1.4,0.1-2.4,0.3-2.9,0.6s-0.9,0.9-0.9,1.7c0,0.6,0.2,1.1,0.6,1.4
			C446.4,266.9,447,267.1,447.7,267.1z"/>
		<path class="st1" d="M459,257.8c0.4,0,0.9,0,1.3,0.1l-0.2,0.8c-0.4-0.1-0.8-0.2-1.3-0.2c-0.8,0-1.5,0.4-2.1,1.1s-0.8,1.6-0.8,2.7
			v5.3h-0.9V258h0.8l0.1,1.7h0.1c0.4-0.7,0.8-1.2,1.3-1.5C457.8,258,458.3,257.8,459,257.8z"/>
	</g>
	<g>
		<path class="st1" d="M286.4,242.1c0,2.2-0.6,3.8-1.7,5c-1.1,1.1-2.8,1.7-5.1,1.7h-3.1v-13h3.5c2.1,0,3.7,0.5,4.7,1.6
			C285.9,238.4,286.4,240,286.4,242.1z M285.4,242.1c0-1.9-0.5-3.3-1.4-4.2c-0.9-0.9-2.3-1.4-4.2-1.4h-2.4v11.4h2.2
			C283.5,247.9,285.4,246,285.4,242.1z"/>
		<path class="st1" d="M295.1,248.7l-0.2-1.5h-0.1c-0.5,0.6-1,1.1-1.5,1.3s-1.1,0.4-1.8,0.4c-1,0-1.7-0.2-2.2-0.7
			c-0.5-0.5-0.8-1.2-0.8-2c0-0.9,0.4-1.7,1.2-2.2c0.8-0.5,1.9-0.8,3.4-0.8l1.8-0.1v-0.6c0-0.9-0.2-1.6-0.6-2.1s-1-0.7-1.8-0.7
			c-0.9,0-1.8,0.2-2.8,0.7l-0.3-0.8c1.1-0.5,2.1-0.7,3.2-0.7c1.1,0,1.9,0.3,2.4,0.8c0.5,0.6,0.8,1.4,0.8,2.6v6.4H295.1z
			 M291.5,248.1c1,0,1.8-0.3,2.4-0.9s0.9-1.4,0.9-2.5v-1l-1.7,0.1c-1.4,0.1-2.3,0.3-2.9,0.6s-0.9,0.9-0.9,1.7c0,0.6,0.2,1.1,0.6,1.4
			C290.3,247.9,290.8,248.1,291.5,248.1z"/>
		<path class="st1" d="M301.4,248.1c0.6,0,1,0,1.5-0.1v0.7c-0.4,0.1-0.9,0.2-1.5,0.2c-0.9,0-1.5-0.2-1.9-0.7
			c-0.4-0.5-0.6-1.2-0.6-2.2v-6.3h-1.4v-0.5l1.4-0.4l0.4-2.2h0.5v2.3h2.8v0.8h-2.8v6.1c0,0.7,0.1,1.3,0.4,1.6
			S300.9,248.1,301.4,248.1z"/>
		<path class="st1" d="M310.9,248.7l-0.2-1.5h-0.1c-0.5,0.6-1,1.1-1.5,1.3s-1.1,0.4-1.8,0.4c-1,0-1.7-0.2-2.2-0.7
			c-0.5-0.5-0.8-1.2-0.8-2c0-0.9,0.4-1.7,1.2-2.2c0.8-0.5,1.9-0.8,3.4-0.8l1.8-0.1v-0.6c0-0.9-0.2-1.6-0.6-2.1s-1-0.7-1.8-0.7
			c-0.9,0-1.8,0.2-2.8,0.7l-0.3-0.8c1.1-0.5,2.1-0.7,3.2-0.7c1.1,0,1.9,0.3,2.4,0.8c0.5,0.6,0.8,1.4,0.8,2.6v6.4H310.9z
			 M307.3,248.1c1,0,1.8-0.3,2.4-0.9s0.9-1.4,0.9-2.5v-1l-1.7,0.1c-1.4,0.1-2.3,0.3-2.9,0.6s-0.9,0.9-0.9,1.7c0,0.6,0.2,1.1,0.6,1.4
			C306.1,247.9,306.6,248.1,307.3,248.1z"/>
		<path class="st1" d="M319.6,248.7v-13h0.9v12.2h6.2v0.9H319.6z"/>
		<path class="st1" d="M328.6,236.3c0-0.6,0.2-0.9,0.6-0.9c0.2,0,0.3,0.1,0.4,0.2c0.1,0.1,0.2,0.4,0.2,0.6c0,0.3-0.1,0.5-0.2,0.6
			c-0.1,0.2-0.2,0.2-0.4,0.2C328.8,237.2,328.6,236.9,328.6,236.3z M329.6,248.7h-0.9V239h0.9V248.7z"/>
		<path class="st1" d="M339.6,248.7v-6.3c0-1-0.2-1.7-0.6-2.1c-0.4-0.4-1-0.7-1.9-0.7c-1.2,0-2,0.3-2.5,0.9s-0.8,1.5-0.8,2.8v5.3
			h-0.9V239h0.7l0.2,1.3h0.1c0.6-1,1.7-1.5,3.4-1.5c2.2,0,3.3,1.2,3.3,3.5v6.3H339.6z"/>
		<path class="st1" d="M344.5,244.4l4.9-5.4h1.1l-3.8,4.1l4.1,5.5h-1.1l-3.7-4.9l-1.6,1.4v3.4h-0.9v-13.9h0.9v6.9L344.5,244.4
			L344.5,244.4z"/>
		<path class="st1" d="M281.5,261.3c0,1.3-0.4,2.2-1.3,2.9s-2.1,1-3.6,1h-2v5.4h-0.9v-13h3.2C279.9,257.6,281.5,258.8,281.5,261.3z
			 M274.6,264.4h1.8c1.5,0,2.5-0.2,3.2-0.7c0.7-0.5,1-1.3,1-2.4c0-1-0.3-1.7-0.9-2.2c-0.6-0.5-1.6-0.7-2.9-0.7h-2.2V264.4z"/>
		<path class="st1" d="M287.9,260.7c0.4,0,0.8,0,1.3,0.1l-0.2,0.8c-0.4-0.1-0.8-0.2-1.3-0.2c-0.8,0-1.5,0.4-2,1.1
			c-0.5,0.7-0.8,1.6-0.8,2.7v5.3h-0.9v-9.7h0.7l0.1,1.7h0.1c0.4-0.7,0.8-1.2,1.3-1.5S287.3,260.7,287.9,260.7z"/>
		<path class="st1" d="M299.2,265.7c0,1.6-0.4,2.8-1.1,3.7s-1.8,1.3-3.2,1.3c-0.8,0-1.6-0.2-2.2-0.6c-0.6-0.4-1.1-1-1.5-1.8
			c-0.3-0.8-0.5-1.7-0.5-2.7c0-1.6,0.4-2.8,1.1-3.7s1.8-1.3,3.2-1.3c1.3,0,2.4,0.4,3.1,1.3C298.8,262.9,299.2,264.2,299.2,265.7z
			 M291.6,265.7c0,1.3,0.3,2.4,0.9,3.1c0.6,0.7,1.4,1.1,2.5,1.1c1.1,0,1.9-0.4,2.5-1.1c0.6-0.7,0.9-1.8,0.9-3.1
			c0-1.3-0.3-2.4-0.9-3.1s-1.4-1.1-2.5-1.1s-1.9,0.4-2.5,1.1S291.6,264.4,291.6,265.7z"/>
		<path class="st1" d="M305.8,270.8c-1.4,0-2.5-0.4-3.3-1.3s-1.2-2.1-1.2-3.7c0-1.6,0.4-2.9,1.2-3.7c0.8-0.9,1.9-1.3,3.3-1.3
			c0.8,0,1.6,0.1,2.4,0.4l-0.2,0.8c-0.8-0.3-1.6-0.4-2.2-0.4c-1.2,0-2.1,0.4-2.7,1.1s-0.9,1.8-0.9,3.2c0,1.3,0.3,2.3,0.9,3.1
			s1.5,1.1,2.6,1.1c0.9,0,1.7-0.2,2.4-0.5v0.8C307.6,270.6,306.8,270.8,305.8,270.8z"/>
		<path class="st1" d="M314.5,270.8c-1.4,0-2.5-0.4-3.3-1.3c-0.8-0.9-1.2-2.1-1.2-3.6c0-1.5,0.4-2.8,1.1-3.7
			c0.8-0.9,1.8-1.4,3.1-1.4c1.1,0,2,0.4,2.7,1.2s1,1.9,1,3.2v0.7h-7c0,1.3,0.3,2.3,0.9,3c0.6,0.7,1.5,1.1,2.6,1.1c0.6,0,1,0,1.5-0.1
			c0.4-0.1,0.9-0.2,1.6-0.5v0.8c-0.5,0.2-1.1,0.4-1.5,0.5C315.5,270.7,315,270.8,314.5,270.8z M314.2,261.5c-0.9,0-1.7,0.3-2.2,0.9
			c-0.6,0.6-0.9,1.5-1,2.7h6c0-1.1-0.2-2-0.7-2.6C315.7,261.8,315.1,261.5,314.2,261.5z"/>
		<path class="st1" d="M326.6,268.1c0,0.9-0.3,1.5-1,2s-1.6,0.7-2.8,0.7c-1.3,0-2.3-0.2-3.1-0.6v-1c1,0.5,2,0.7,3.1,0.7
			c1,0,1.7-0.2,2.2-0.5c0.5-0.3,0.7-0.7,0.7-1.3c0-0.5-0.2-0.9-0.6-1.2c-0.4-0.3-1-0.7-1.9-1c-1-0.4-1.6-0.7-2-0.9
			c-0.4-0.3-0.7-0.5-0.9-0.9c-0.2-0.3-0.3-0.7-0.3-1.2c0-0.7,0.3-1.3,0.9-1.7c0.6-0.4,1.5-0.6,2.6-0.6c1,0,2,0.2,3,0.6l-0.3,0.8
			c-1-0.4-1.8-0.6-2.6-0.6c-0.8,0-1.4,0.1-1.9,0.4c-0.5,0.3-0.7,0.6-0.7,1.1c0,0.5,0.2,0.9,0.5,1.2c0.4,0.3,1.1,0.6,2.1,1
			c0.9,0.3,1.5,0.6,1.9,0.9s0.7,0.5,0.9,0.9C326.5,267.3,326.6,267.6,326.6,268.1z"/>
		<path class="st1" d="M335.1,268.1c0,0.9-0.3,1.5-1,2s-1.6,0.7-2.8,0.7c-1.3,0-2.3-0.2-3.1-0.6v-1c1,0.5,2,0.7,3.1,0.7
			c1,0,1.7-0.2,2.2-0.5c0.5-0.3,0.7-0.7,0.7-1.3c0-0.5-0.2-0.9-0.6-1.2c-0.4-0.3-1-0.7-1.9-1c-1-0.4-1.6-0.7-2-0.9
			c-0.4-0.3-0.7-0.5-0.9-0.9c-0.2-0.3-0.3-0.7-0.3-1.2c0-0.7,0.3-1.3,0.9-1.7c0.6-0.4,1.5-0.6,2.6-0.6c1,0,2,0.2,3,0.6l-0.3,0.8
			c-1-0.4-1.8-0.6-2.6-0.6c-0.8,0-1.4,0.1-1.9,0.4c-0.5,0.3-0.7,0.6-0.7,1.1c0,0.5,0.2,0.9,0.5,1.2c0.4,0.3,1.1,0.6,2.1,1
			c0.9,0.3,1.5,0.6,1.9,0.9s0.7,0.5,0.9,0.9C335,267.3,335.1,267.6,335.1,268.1z"/>
		<path class="st1" d="M345.6,265.7c0,1.6-0.4,2.8-1.1,3.7s-1.8,1.3-3.2,1.3c-0.8,0-1.6-0.2-2.2-0.6c-0.6-0.4-1.1-1-1.5-1.8
			c-0.3-0.8-0.5-1.7-0.5-2.7c0-1.6,0.4-2.8,1.1-3.7s1.8-1.3,3.2-1.3c1.3,0,2.4,0.4,3.1,1.3C345.2,262.9,345.6,264.2,345.6,265.7z
			 M337.9,265.7c0,1.3,0.3,2.4,0.9,3.1c0.6,0.7,1.4,1.1,2.5,1.1c1.1,0,1.9-0.4,2.5-1.1c0.6-0.7,0.9-1.8,0.9-3.1
			c0-1.3-0.3-2.4-0.9-3.1s-1.4-1.1-2.5-1.1s-1.9,0.4-2.5,1.1S337.9,264.4,337.9,265.7z"/>
		<path class="st1" d="M352.1,260.7c0.4,0,0.8,0,1.3,0.1l-0.2,0.8c-0.4-0.1-0.8-0.2-1.3-0.2c-0.8,0-1.5,0.4-2,1.1
			c-0.5,0.7-0.8,1.6-0.8,2.7v5.3h-0.9v-9.7h0.7l0.1,1.7h0.1c0.4-0.7,0.8-1.2,1.3-1.5S351.4,260.7,352.1,260.7z"/>
	</g>
	<rect x="178.6" y="281.2" class="st2" width="4.4" height="66.6"/>
	<rect x="309.7" y="281.2" class="st2" width="4.4" height="38.1"/>
	<g>
		<path class="st3" d="M427.8,688.4v-6.8c0,0,52.8-3.7,84.1-30.5l2.8,11.3c0,0-17.2,24.3-22.9,27.2l-31.8,8
			C460,697.7,432.7,695.5,427.8,688.4z M459.9,692.2l30.4-9.1c5.6-2.8,21.5-23.4,21.5-23.4l-0.7-5.1c-31.3,25.4-82.7,28.1-82.7,28.1
			v3.7C433.3,693.2,459.9,692.2,459.9,692.2z"/>
		<g>
			<polyline class="st4" points="487,684.6 458.3,657.5 463.5,692 			"/>
			<line class="st4" x1="462.2" y1="684.5" x2="480" y2="678"/>
			<line class="st4" x1="461.4" y1="678" x2="475.2" y2="673.4"/>
			<line class="st4" x1="460.7" y1="672.5" x2="471.1" y2="668.7"/>
			<line class="st4" x1="459.9" y1="667.7" x2="465.9" y2="665.5"/>
			<polyline class="st4" points="475.2,688.6 458.3,657.5 456.6,654.2 456.6,647.3 			"/>
		</g>
		<path class="st5" d="M463.3,699.2c0,0,17.6-5.1,27.7-6.2l5.9,27.1h-34.6L463.3,699.2z M486.7,699.2c0,0,1.3,9.2,3.1,12.7
			c0.5,1,4.2,5.6,4.2,5.6l-4.7-20.2l-2.6,0.9"/>
	</g>
	<g>
		<path class="st1" d="M455.3,736.7v5.7h-0.9v-13h3.1c1.6,0,2.8,0.3,3.6,0.9s1.2,1.5,1.2,2.7c0,0.9-0.2,1.6-0.7,2.2
			c-0.5,0.6-1.2,1-2.1,1.3l3.5,5.9h-1.1l-3.4-5.7H455.3z M455.3,735.9h2.5c1.1,0,2-0.2,2.6-0.7c0.6-0.5,0.9-1.2,0.9-2.2
			c0-1-0.3-1.7-0.9-2.2s-1.6-0.7-2.9-0.7h-2.2V735.9z"/>
		<path class="st1" d="M471.5,737.7h-5.3l-1.8,4.6h-1l5.2-13.1h0.6l5.1,13.1h-1L471.5,737.7z M466.6,736.9h4.7l-1.8-4.7
			c-0.1-0.4-0.3-0.9-0.5-1.5c-0.2,0.6-0.3,1.1-0.5,1.6L466.6,736.9z"/>
		<path class="st1" d="M486.1,735.7c0,2.2-0.6,3.8-1.7,5c-1.1,1.1-2.8,1.7-5.1,1.7h-3.1v-13h3.5c2.1,0,3.7,0.5,4.7,1.6
			C485.6,732,486.1,733.6,486.1,735.7z M485.1,735.7c0-1.9-0.5-3.3-1.4-4.2c-0.9-0.9-2.3-1.4-4.2-1.4h-2.4v11.4h2.2
			C483.2,741.5,485.1,739.6,485.1,735.7z"/>
		<path class="st1" d="M495.4,737.7h-5.3l-1.8,4.6h-1l5.2-13.1h0.6l5.1,13.1h-1L495.4,737.7z M490.4,736.9h4.7l-1.8-4.7
			c-0.1-0.4-0.3-0.9-0.5-1.5c-0.2,0.6-0.3,1.1-0.5,1.6L490.4,736.9z"/>
		<path class="st1" d="M500.9,736.7v5.7H500v-13h3.1c1.6,0,2.8,0.3,3.6,0.9s1.2,1.5,1.2,2.7c0,0.9-0.2,1.6-0.7,2.2
			c-0.5,0.6-1.2,1-2.1,1.3l3.5,5.9h-1.1l-3.4-5.7H500.9z M500.9,735.9h2.5c1.1,0,2-0.2,2.6-0.7c0.6-0.5,0.9-1.2,0.9-2.2
			c0-1-0.3-1.7-0.9-2.2s-1.6-0.7-2.9-0.7h-2.2V735.9z"/>
	</g>
	<g>
		<path class="st1" d="M353.3,737.7h-5.3l-1.8,4.6h-1l5.2-13.1h0.6l5.1,13.1h-1L353.3,737.7z M348.4,736.9h4.7l-1.8-4.7
			c-0.1-0.4-0.3-0.9-0.5-1.5c-0.2,0.6-0.3,1.1-0.5,1.6L348.4,736.9z"/>
		<path class="st1" d="M358,742.3v-13h0.9v13H358z"/>
		<path class="st1" d="M369.8,739c0,1.1-0.4,1.9-1.2,2.6c-0.8,0.6-1.9,1-3.2,1c-1.6,0-2.8-0.2-3.7-0.5v-0.9c0.9,0.4,2.1,0.6,3.6,0.6
			c1.1,0,1.9-0.2,2.5-0.7c0.6-0.5,0.9-1.1,0.9-1.9c0-0.5-0.1-0.9-0.3-1.2c-0.2-0.3-0.5-0.6-1-0.9c-0.5-0.3-1.2-0.6-2.1-0.9
			c-1.3-0.5-2.2-1-2.8-1.5c-0.5-0.5-0.8-1.2-0.8-2.1c0-1,0.4-1.8,1.1-2.4c0.8-0.6,1.7-0.9,2.9-0.9c1.2,0,2.4,0.2,3.4,0.7l-0.3,0.8
			c-1.1-0.5-2.1-0.7-3.1-0.7c-1,0-1.7,0.2-2.3,0.7c-0.6,0.4-0.9,1.1-0.9,1.8c0,0.5,0.1,0.9,0.3,1.2c0.2,0.3,0.5,0.6,0.9,0.8
			c0.4,0.2,1.1,0.5,2,0.9c1,0.4,1.8,0.7,2.3,1c0.5,0.3,0.9,0.7,1.1,1.1C369.7,737.9,369.8,738.4,369.8,739z"/>
	</g>
	<g>
		<path class="st1" d="M148.1,266.2h-0.9V254h-4.2v-0.9h9.4v0.9h-4.2V266.2z"/>
		<path class="st1" d="M159.9,266.2l-0.2-1.5h-0.1c-0.5,0.6-1,1.1-1.5,1.3s-1.1,0.4-1.8,0.4c-1,0-1.7-0.2-2.2-0.7
			c-0.5-0.5-0.8-1.2-0.8-2c0-0.9,0.4-1.7,1.2-2.2c0.8-0.5,1.9-0.8,3.4-0.8l1.8-0.1v-0.6c0-0.9-0.2-1.6-0.6-2.1s-1-0.7-1.8-0.7
			c-0.9,0-1.8,0.2-2.8,0.7l-0.3-0.8c1.1-0.5,2.1-0.7,3.2-0.7c1.1,0,1.9,0.3,2.4,0.8c0.5,0.6,0.8,1.4,0.8,2.6v6.4H159.9z
			 M156.3,265.6c1,0,1.8-0.3,2.4-0.9s0.9-1.4,0.9-2.5v-1l-1.7,0.1c-1.4,0.1-2.3,0.3-2.9,0.6s-0.9,0.9-0.9,1.7c0,0.6,0.2,1.1,0.6,1.4
			C155.1,265.4,155.7,265.6,156.3,265.6z"/>
		<path class="st1" d="M167.5,256.3c0.4,0,0.8,0,1.3,0.1l-0.2,0.8c-0.4-0.1-0.8-0.2-1.3-0.2c-0.8,0-1.5,0.4-2,1.1
			c-0.5,0.7-0.8,1.6-0.8,2.7v5.3h-0.9v-9.7h0.7l0.1,1.7h0.1c0.4-0.7,0.8-1.2,1.3-1.5S166.9,256.3,167.5,256.3z"/>
		<path class="st1" d="M178.3,256.5v0.6l-2,0.1c0.5,0.7,0.8,1.4,0.8,2.2c0,0.9-0.3,1.7-0.9,2.3s-1.5,0.9-2.5,0.9
			c-0.4,0-0.7,0-0.9-0.1c-0.4,0.2-0.6,0.4-0.8,0.7s-0.3,0.5-0.3,0.8c0,0.3,0.1,0.5,0.4,0.7c0.2,0.1,0.6,0.2,1.2,0.2h1.7
			c1.1,0,1.9,0.2,2.4,0.6c0.6,0.4,0.8,1.1,0.8,1.9c0,1-0.4,1.8-1.2,2.4c-0.8,0.6-2,0.8-3.5,0.8c-1.2,0-2.2-0.2-2.8-0.7s-1-1.1-1-2
			c0-0.7,0.2-1.2,0.6-1.7c0.4-0.4,1-0.7,1.7-0.9c-0.3-0.1-0.5-0.3-0.7-0.5c-0.2-0.2-0.3-0.5-0.3-0.8c0-0.6,0.4-1.2,1.2-1.7
			c-0.6-0.2-1-0.6-1.3-1.1c-0.3-0.5-0.5-1.1-0.5-1.7c0-1,0.3-1.7,0.9-2.3c0.6-0.6,1.4-0.9,2.5-0.9c0.6,0,1.1,0.1,1.5,0.2H178.3z
			 M170.5,267.9c0,1.3,1,2,3,2c2.5,0,3.8-0.8,3.8-2.4c0-0.6-0.2-1-0.6-1.3c-0.4-0.3-1-0.4-1.9-0.4h-1.6
			C171.4,265.8,170.5,266.5,170.5,267.9z M171.2,259.6c0,0.7,0.2,1.3,0.7,1.7s1.1,0.6,1.8,0.6c0.8,0,1.4-0.2,1.9-0.6s0.6-1,0.6-1.8
			c0-0.8-0.2-1.4-0.7-1.9s-1.1-0.6-1.9-0.6c-0.8,0-1.4,0.2-1.8,0.7C171.5,258.1,171.2,258.8,171.2,259.6z"/>
		<path class="st1" d="M184.2,266.4c-1.4,0-2.5-0.4-3.3-1.3c-0.8-0.9-1.2-2.1-1.2-3.6c0-1.5,0.4-2.8,1.1-3.7
			c0.8-0.9,1.8-1.4,3.1-1.4c1.1,0,2,0.4,2.7,1.2s1,1.9,1,3.2v0.7h-7c0,1.3,0.3,2.3,0.9,3c0.6,0.7,1.5,1.1,2.6,1.1c0.6,0,1,0,1.5-0.1
			c0.4-0.1,0.9-0.2,1.6-0.5v0.8c-0.5,0.2-1.1,0.4-1.5,0.5C185.3,266.3,184.8,266.4,184.2,266.4z M184,257.1c-0.9,0-1.7,0.3-2.2,0.9
			c-0.6,0.6-0.9,1.5-1,2.7h6c0-1.1-0.2-2-0.7-2.6C185.5,257.4,184.8,257.1,184,257.1z"/>
		<path class="st1" d="M192.9,265.6c0.6,0,1,0,1.5-0.1v0.7c-0.4,0.1-0.9,0.2-1.5,0.2c-0.9,0-1.5-0.2-1.9-0.7
			c-0.4-0.5-0.6-1.2-0.6-2.2v-6.3h-1.4v-0.5l1.4-0.4l0.4-2.2h0.5v2.3h2.8v0.8h-2.8v6.1c0,0.7,0.1,1.3,0.4,1.6
			S192.3,265.6,192.9,265.6z"/>
		<path class="st1" d="M196.3,253.8c0-0.6,0.2-0.9,0.6-0.9c0.2,0,0.3,0.1,0.4,0.2c0.1,0.1,0.2,0.4,0.2,0.6c0,0.3-0.1,0.5-0.2,0.6
			c-0.1,0.2-0.2,0.2-0.4,0.2C196.5,254.7,196.3,254.4,196.3,253.8z M197.3,266.2h-0.9v-9.7h0.9V266.2z"/>
		<path class="st1" d="M207.3,266.2v-6.3c0-1-0.2-1.7-0.6-2.1c-0.4-0.4-1-0.7-1.9-0.7c-1.2,0-2,0.3-2.5,0.9s-0.8,1.5-0.8,2.8v5.3
			h-0.9v-9.7h0.7l0.2,1.3h0.1c0.6-1,1.7-1.5,3.4-1.5c2.2,0,3.3,1.2,3.3,3.5v6.3H207.3z"/>
		<path class="st1" d="M218.9,256.5v0.6l-2,0.1c0.5,0.7,0.8,1.4,0.8,2.2c0,0.9-0.3,1.7-0.9,2.3s-1.5,0.9-2.5,0.9
			c-0.4,0-0.7,0-0.9-0.1c-0.4,0.2-0.6,0.4-0.8,0.7s-0.3,0.5-0.3,0.8c0,0.3,0.1,0.5,0.4,0.7c0.2,0.1,0.6,0.2,1.2,0.2h1.7
			c1.1,0,1.9,0.2,2.4,0.6c0.6,0.4,0.8,1.1,0.8,1.9c0,1-0.4,1.8-1.2,2.4c-0.8,0.6-2,0.8-3.5,0.8c-1.2,0-2.2-0.2-2.8-0.7s-1-1.1-1-2
			c0-0.7,0.2-1.2,0.6-1.7c0.4-0.4,1-0.7,1.7-0.9c-0.3-0.1-0.5-0.3-0.7-0.5c-0.2-0.2-0.3-0.5-0.3-0.8c0-0.6,0.4-1.2,1.2-1.7
			c-0.6-0.2-1-0.6-1.3-1.1c-0.3-0.5-0.5-1.1-0.5-1.7c0-1,0.3-1.7,0.9-2.3c0.6-0.6,1.4-0.9,2.5-0.9c0.6,0,1.1,0.1,1.5,0.2H218.9z
			 M211.1,267.9c0,1.3,1,2,3,2c2.5,0,3.8-0.8,3.8-2.4c0-0.6-0.2-1-0.6-1.3c-0.4-0.3-1-0.4-1.9-0.4h-1.6
			C211.9,265.8,211.1,266.5,211.1,267.9z M211.8,259.6c0,0.7,0.2,1.3,0.7,1.7s1.1,0.6,1.8,0.6c0.8,0,1.4-0.2,1.9-0.6s0.6-1,0.6-1.8
			c0-0.8-0.2-1.4-0.7-1.9s-1.1-0.6-1.9-0.6c-0.8,0-1.4,0.2-1.8,0.7C212,258.1,211.8,258.8,211.8,259.6z"/>
	</g>
	<g>
		<g>
			<path class="st1" d="M205.6,196.9c0,13.6-11,24.5-24.5,24.5c-13.6,0-24.5-11-24.5-24.5c0-13.6,11-24.5,24.5-24.5
				C194.6,172.3,205.6,183.3,205.6,196.9z M181,174.4c-12.4,0-22.5,10.1-22.5,22.5c0,12.4,10.1,22.5,22.5,22.5
				c12.4,0,22.5-10.1,22.5-22.5C203.5,184.5,193.5,174.4,181,174.4z"/>
			<path class="st6" d="M205.6,196.9c0,13.6-11,24.5-24.5,24.5c-13.6,0-24.5-11-24.5-24.5c0-13.6,11-24.5,24.5-24.5
				C194.6,172.3,205.6,183.3,205.6,196.9z M181,174.4c-12.4,0-22.5,10.1-22.5,22.5c0,12.4,10.1,22.5,22.5,22.5
				c12.4,0,22.5-10.1,22.5-22.5C203.5,184.5,193.5,174.4,181,174.4z"/>
		</g>
		<g>
			<path class="st1" d="M196.7,196.9c0,8.6-7,15.6-15.6,15.6c-8.6,0-15.6-7-15.6-15.6c0-8.6,7-15.6,15.6-15.6
				C189.7,181.3,196.7,188.2,196.7,196.9z M181,183.4c-7.4,0-13.4,6-13.4,13.4c0,7.4,6,13.4,13.4,13.4c7.4,0,13.4-6,13.4-13.4
				C194.5,189.5,188.5,183.4,181,183.4z"/>
			<path class="st6" d="M196.7,196.9c0,8.6-7,15.6-15.6,15.6c-8.6,0-15.6-7-15.6-15.6c0-8.6,7-15.6,15.6-15.6
				C189.7,181.3,196.7,188.2,196.7,196.9z M181,183.4c-7.4,0-13.4,6-13.4,13.4c0,7.4,6,13.4,13.4,13.4c7.4,0,13.4-6,13.4-13.4
				C194.5,189.5,188.5,183.4,181,183.4z"/>
		</g>
		
			<radialGradient id="SVGID_1_" cx="150.752" cy="195.9021" r="0" gradientTransform="matrix(1 0 0 1.049 0 -9.6051)" gradientUnits="userSpaceOnUse">
			<stop  offset="0" style="stop-color:#FBF191"/>
			<stop  offset="3.907358e-02" style="stop-color:#F2EC8A"/>
			<stop  offset="0.248" style="stop-color:#C1D166"/>
			<stop  offset="0.4268" style="stop-color:#99BE50"/>
			<stop  offset="0.5666" style="stop-color:#7CB345"/>
			<stop  offset="0.6503" style="stop-color:#71AF41"/>
			<stop  offset="0.9939" style="stop-color:#006B31"/>
		</radialGradient>
		<path class="st7" d="M150.8,195.9"/>
		<g>
			<polygon class="st1" points="180.1,195.9 181,166.1 182,196 211.8,196.8 182,197.8 181.1,227.7 180.1,197.8 150.3,196.9 			"/>
			<polygon class="st8" points="180.1,195.9 181,166.1 182,196 211.8,196.8 182,197.8 181.1,227.7 180.1,197.8 150.3,196.9 			"/>
		</g>
	</g>
	<rect x="472.2" y="554.9" class="st2" width="4.8" height="83.9"/>
	<rect x="238.3" y="554.9" class="st2" width="3.9" height="83.9"/>
	<rect x="355.2" y="567.2" class="st2" width="4.4" height="52.4"/>
	<g>
		<g>
			<polyline class="st9" points="339.2,722 358.3,637 377.3,722 			"/>
			<line class="st9" x1="373.4" y1="704.4" x2="343.2" y2="704.4"/>
			<line class="st9" x1="347" y1="687.5" x2="369.6" y2="687.5"/>
			<line class="st9" x1="366.6" y1="674.1" x2="350" y2="674.1"/>
			<line class="st9" x1="363.9" y1="661.2" x2="352.6" y2="661.2"/>
			<line class="st9" x1="366.6" y1="687.5" x2="345.3" y2="704.4"/>
			<line class="st9" x1="349.3" y1="687.5" x2="370.6" y2="704.4"/>
			<line class="st9" x1="348.3" y1="687.3" x2="364.9" y2="674.1"/>
			<line class="st9" x1="368" y1="687.3" x2="351.4" y2="674.1"/>
			<line class="st9" x1="363.2" y1="661.2" x2="351.4" y2="673.6"/>
			<line class="st9" x1="353.4" y1="662.2" x2="365.2" y2="673.6"/>
			<line class="st9" x1="361.1" y1="650.5" x2="354.8" y2="650.5"/>
			<line class="st9" x1="354.4" y1="661.2" x2="361" y2="650.5"/>
			<line class="st9" x1="363" y1="662.2" x2="355.4" y2="650.5"/>
			<path class="st10" d="M362,638c0,2-1.7,3.7-3.7,3.7c-2.1,0-3.7-1.7-3.7-3.7c0-2.1,1.7-3.7,3.7-3.7C360.3,634.3,362,635.9,362,638
				z"/>
		</g>
		<path class="st11" d="M342,614.6c-17.3,9.6-17.2,34.9,1.4,46.1"/>
		<path class="st11" d="M349.1,624.2c-9.9,7.4-9.9,19.2,0.5,26.3"/>
		<path class="st11" d="M373.9,614.3c17.3,9.6,17.2,34.9-1.4,46.1"/>
		<path class="st11" d="M366.8,623.9c9.9,7.4,9.9,19.2-0.5,26.3"/>
	</g>
	<g>
		<path class="st1" d="M527.3,224.4l-4.9-12h-0.1c0,0.7,0.1,1.5,0.1,2.3v9.8h-0.9v-13h1.4l4.7,11.5h0.1l4.7-11.5h1.4v13h-0.9v-9.9
			c0-0.7,0-1.4,0.1-2.1h-0.1l-4.9,12H527.3z"/>
		<path class="st1" d="M543.3,224.4l-4.9-12h-0.1c0,0.7,0.1,1.5,0.1,2.3v9.8h-0.9v-13h1.4l4.7,11.5h0.1l4.7-11.5h1.4v13h-0.9v-9.9
			c0-0.7,0-1.4,0.1-2.1h-0.1l-4.9,12H543.3z"/>
		<path class="st1" d="M563,224.4H562V218h-7.7v6.4h-0.9v-13h0.9v5.8h7.7v-5.8h0.9V224.4z"/>
		<path class="st1" d="M574,221.1c0,1.1-0.4,1.9-1.2,2.6c-0.8,0.6-1.9,1-3.2,1c-1.6,0-2.8-0.2-3.7-0.5v-0.9c1,0.4,2.2,0.6,3.6,0.6
			c1.1,0,1.9-0.2,2.6-0.7c0.6-0.5,1-1.1,1-1.9c0-0.5-0.1-0.9-0.3-1.2c-0.2-0.3-0.6-0.6-1-0.9c-0.5-0.3-1.2-0.6-2.1-0.9
			c-1.3-0.5-2.3-1-2.8-1.5c-0.5-0.5-0.8-1.2-0.8-2.1c0-1,0.4-1.8,1.2-2.4c0.8-0.6,1.8-0.9,3-0.9c1.2,0,2.4,0.2,3.5,0.7l-0.3,0.8
			c-1.1-0.5-2.1-0.7-3.1-0.7c-1,0-1.8,0.2-2.3,0.7s-0.9,1.1-0.9,1.8c0,0.5,0.1,0.9,0.3,1.2c0.2,0.3,0.5,0.6,0.9,0.8
			c0.4,0.2,1.1,0.5,2.1,0.9c1,0.4,1.8,0.7,2.3,1s0.9,0.7,1.1,1.1C573.9,220,574,220.5,574,221.1z"/>
		<path class="st1" d="M486,246.3l-4.9-12h-0.1c0,0.7,0.1,1.5,0.1,2.3v9.8h-0.9v-13h1.4l4.7,11.5h0.1l4.7-11.5h1.4v13h-0.9v-9.9
			c0-0.7,0-1.4,0.1-2.1h-0.1l-4.9,12H486z"/>
		<path class="st1" d="M495.8,233.9c0-0.6,0.2-0.9,0.6-0.9c0.2,0,0.3,0.1,0.4,0.2c0.1,0.1,0.2,0.4,0.2,0.6c0,0.3-0.1,0.5-0.2,0.6
			c-0.1,0.2-0.3,0.2-0.4,0.2C496,234.8,495.8,234.5,495.8,233.9z M496.9,246.3H496v-9.7h0.9V246.3z"/>
		<path class="st1" d="M501,246.3h-0.9v-13.9h0.9V246.3z"/>
		<path class="st1" d="M504.2,233.9c0-0.6,0.2-0.9,0.6-0.9c0.2,0,0.3,0.1,0.4,0.2c0.1,0.1,0.2,0.4,0.2,0.6c0,0.3-0.1,0.5-0.2,0.6
			c-0.1,0.2-0.3,0.2-0.4,0.2C504.4,234.8,504.2,234.5,504.2,233.9z M505.2,246.3h-0.9v-9.7h0.9V246.3z"/>
		<path class="st1" d="M511.1,245.7c0.6,0,1.1,0,1.5-0.1v0.7c-0.4,0.1-0.9,0.2-1.5,0.2c-0.9,0-1.5-0.2-1.9-0.7
			c-0.4-0.5-0.6-1.2-0.6-2.2v-6.3h-1.5v-0.5l1.5-0.4l0.5-2.2h0.5v2.3h2.9v0.8h-2.9v6.1c0,0.7,0.1,1.3,0.4,1.6
			S510.5,245.7,511.1,245.7z"/>
		<path class="st1" d="M520.6,246.3l-0.2-1.5h-0.1c-0.5,0.6-1,1.1-1.5,1.3c-0.5,0.3-1.1,0.4-1.8,0.4c-1,0-1.7-0.2-2.2-0.7
			s-0.8-1.2-0.8-2c0-0.9,0.4-1.7,1.2-2.2c0.8-0.5,1.9-0.8,3.5-0.8l1.9-0.1V240c0-0.9-0.2-1.6-0.6-2.1s-1-0.7-1.8-0.7
			c-0.9,0-1.8,0.2-2.8,0.7l-0.3-0.8c1.1-0.5,2.1-0.7,3.2-0.7c1.1,0,1.9,0.3,2.4,0.8s0.8,1.4,0.8,2.6v6.4H520.6z M517,245.7
			c1,0,1.9-0.3,2.5-0.9s0.9-1.4,0.9-2.5v-1l-1.7,0.1c-1.4,0.1-2.4,0.3-2.9,0.6s-0.9,0.9-0.9,1.7c0,0.6,0.2,1.1,0.6,1.4
			C515.8,245.5,516.3,245.7,517,245.7z"/>
		<path class="st1" d="M528.3,236.4c0.4,0,0.9,0,1.3,0.1l-0.2,0.8c-0.4-0.1-0.8-0.2-1.3-0.2c-0.8,0-1.5,0.4-2.1,1.1
			s-0.8,1.6-0.8,2.7v5.3h-0.9v-9.7h0.8l0.1,1.7h0.1c0.4-0.7,0.8-1.2,1.3-1.5C527.1,236.6,527.7,236.4,528.3,236.4z"/>
		<path class="st1" d="M530,236.6h0.9l2.1,5.4c0.6,1.7,1,2.8,1.2,3.4h0.1c0.3-0.8,0.7-1.9,1.2-3.4l2.1-5.4h0.9l-4.4,11.3
			c-0.4,0.9-0.7,1.5-0.9,1.9c-0.2,0.3-0.5,0.6-0.8,0.7c-0.3,0.2-0.7,0.2-1.2,0.2c-0.3,0-0.7-0.1-1.1-0.2v-0.8
			c0.3,0.1,0.7,0.1,1.1,0.1c0.3,0,0.6-0.1,0.8-0.2c0.2-0.1,0.4-0.4,0.6-0.7s0.4-0.8,0.7-1.4c0.2-0.7,0.4-1.1,0.5-1.3L530,236.6z"/>
		<path class="st1" d="M551,246.3l-4.9-12H546c0,0.7,0.1,1.5,0.1,2.3v9.8h-0.9v-13h1.4l4.7,11.5h0.1l4.7-11.5h1.4v13h-0.9v-9.9
			c0-0.7,0-1.4,0.1-2.1h-0.1l-4.9,12H551z"/>
		<path class="st1" d="M564.8,246.5c-1.4,0-2.5-0.4-3.3-1.3c-0.8-0.9-1.2-2.1-1.2-3.6c0-1.5,0.4-2.8,1.2-3.7
			c0.8-0.9,1.8-1.4,3.1-1.4c1.2,0,2.1,0.4,2.7,1.2s1,1.9,1,3.2v0.7h-7.1c0,1.3,0.3,2.3,0.9,3c0.6,0.7,1.5,1.1,2.6,1.1
			c0.6,0,1.1,0,1.5-0.1s1-0.2,1.6-0.5v0.8c-0.6,0.2-1.1,0.4-1.5,0.5C565.9,246.4,565.4,246.5,564.8,246.5z M564.6,237.2
			c-0.9,0-1.7,0.3-2.3,0.9c-0.6,0.6-0.9,1.5-1,2.7h6.1c0-1.1-0.2-2-0.7-2.6C566.1,237.5,565.5,237.2,564.6,237.2z"/>
		<path class="st1" d="M577.1,243.8c0,0.9-0.3,1.5-1,2c-0.7,0.5-1.6,0.7-2.8,0.7c-1.3,0-2.4-0.2-3.1-0.6v-1c1,0.5,2,0.7,3.1,0.7
			c1,0,1.7-0.2,2.2-0.5c0.5-0.3,0.8-0.7,0.8-1.3c0-0.5-0.2-0.9-0.6-1.2c-0.4-0.3-1.1-0.7-2-1c-1-0.4-1.7-0.7-2.1-0.9
			c-0.4-0.3-0.7-0.5-0.9-0.9c-0.2-0.3-0.3-0.7-0.3-1.2c0-0.7,0.3-1.3,0.9-1.7c0.6-0.4,1.5-0.6,2.6-0.6c1.1,0,2.1,0.2,3,0.6l-0.3,0.8
			c-1-0.4-1.9-0.6-2.7-0.6c-0.8,0-1.4,0.1-1.9,0.4c-0.5,0.3-0.7,0.6-0.7,1.1c0,0.5,0.2,0.9,0.5,1.2c0.4,0.3,1.1,0.6,2.1,1
			c0.9,0.3,1.5,0.6,1.9,0.9c0.4,0.3,0.7,0.5,0.9,0.9C577,243,577.1,243.3,577.1,243.8z"/>
		<path class="st1" d="M585.7,243.8c0,0.9-0.3,1.5-1,2c-0.7,0.5-1.6,0.7-2.8,0.7c-1.3,0-2.4-0.2-3.1-0.6v-1c1,0.5,2,0.7,3.1,0.7
			c1,0,1.7-0.2,2.2-0.5c0.5-0.3,0.8-0.7,0.8-1.3c0-0.5-0.2-0.9-0.6-1.2c-0.4-0.3-1.1-0.7-2-1c-1-0.4-1.7-0.7-2.1-0.9
			c-0.4-0.3-0.7-0.5-0.9-0.9c-0.2-0.3-0.3-0.7-0.3-1.2c0-0.7,0.3-1.3,0.9-1.7c0.6-0.4,1.5-0.6,2.6-0.6c1.1,0,2.1,0.2,3,0.6l-0.3,0.8
			c-1-0.4-1.9-0.6-2.7-0.6c-0.8,0-1.4,0.1-1.9,0.4c-0.5,0.3-0.7,0.6-0.7,1.1c0,0.5,0.2,0.9,0.5,1.2c0.4,0.3,1.1,0.6,2.1,1
			c0.9,0.3,1.5,0.6,1.9,0.9c0.4,0.3,0.7,0.5,0.9,0.9C585.6,243,585.7,243.3,585.7,243.8z"/>
		<path class="st1" d="M594.2,246.3l-0.2-1.5h-0.1c-0.5,0.6-1,1.1-1.5,1.3c-0.5,0.3-1.1,0.4-1.8,0.4c-1,0-1.7-0.2-2.2-0.7
			c-0.5-0.5-0.8-1.2-0.8-2c0-0.9,0.4-1.7,1.2-2.2s2-0.8,3.5-0.8l1.9-0.1V240c0-0.9-0.2-1.6-0.6-2.1s-1-0.7-1.8-0.7
			c-0.9,0-1.8,0.2-2.8,0.7l-0.3-0.8c1.1-0.5,2.1-0.7,3.2-0.7c1.1,0,1.9,0.3,2.4,0.8s0.8,1.4,0.8,2.6v6.4H594.2z M590.6,245.7
			c1,0,1.9-0.3,2.5-0.9s0.9-1.4,0.9-2.5v-1l-1.7,0.1c-1.4,0.1-2.4,0.3-2.9,0.6s-0.9,0.9-0.9,1.7c0,0.6,0.2,1.1,0.6,1.4
			C589.4,245.5,589.9,245.7,590.6,245.7z"/>
		<path class="st1" d="M605.7,236.6v0.6l-2,0.1c0.5,0.7,0.8,1.4,0.8,2.2c0,0.9-0.3,1.7-0.9,2.3c-0.6,0.6-1.5,0.9-2.5,0.9
			c-0.4,0-0.8,0-0.9-0.1c-0.4,0.2-0.6,0.4-0.8,0.7s-0.3,0.5-0.3,0.8c0,0.3,0.1,0.5,0.4,0.7c0.2,0.1,0.6,0.2,1.2,0.2h1.7
			c1.1,0,1.9,0.2,2.4,0.6c0.6,0.4,0.8,1.1,0.8,1.9c0,1-0.4,1.8-1.3,2.4c-0.8,0.6-2,0.8-3.6,0.8c-1.2,0-2.2-0.2-2.9-0.7s-1-1.1-1-2
			c0-0.7,0.2-1.2,0.6-1.7s1-0.7,1.7-0.9c-0.3-0.1-0.5-0.3-0.7-0.5c-0.2-0.2-0.3-0.5-0.3-0.8c0-0.6,0.4-1.2,1.3-1.7
			c-0.6-0.2-1-0.6-1.3-1.1c-0.3-0.5-0.5-1.1-0.5-1.7c0-1,0.3-1.7,0.9-2.3c0.6-0.6,1.5-0.9,2.5-0.9c0.6,0,1.1,0.1,1.5,0.2H605.7z
			 M597.7,247.9c0,1.3,1,2,3,2c2.6,0,3.9-0.8,3.9-2.4c0-0.6-0.2-1-0.6-1.3c-0.4-0.3-1.1-0.4-2-0.4h-1.6
			C598.6,245.8,597.7,246.5,597.7,247.9z M598.5,239.6c0,0.7,0.2,1.3,0.7,1.7s1.1,0.6,1.8,0.6c0.8,0,1.4-0.2,1.9-0.6
			c0.4-0.4,0.7-1,0.7-1.8c0-0.8-0.2-1.4-0.7-1.9s-1.1-0.6-1.9-0.6c-0.8,0-1.4,0.2-1.8,0.7C598.7,238.2,598.5,238.9,598.5,239.6z"/>
		<path class="st1" d="M611.6,246.5c-1.4,0-2.5-0.4-3.3-1.3c-0.8-0.9-1.2-2.1-1.2-3.6c0-1.5,0.4-2.8,1.2-3.7
			c0.8-0.9,1.8-1.4,3.1-1.4c1.2,0,2.1,0.4,2.7,1.2s1,1.9,1,3.2v0.7h-7.1c0,1.3,0.3,2.3,0.9,3c0.6,0.7,1.5,1.1,2.6,1.1
			c0.6,0,1.1,0,1.5-0.1s1-0.2,1.6-0.5v0.8c-0.6,0.2-1.1,0.4-1.5,0.5C612.7,246.4,612.2,246.5,611.6,246.5z M611.4,237.2
			c-0.9,0-1.7,0.3-2.3,0.9c-0.6,0.6-0.9,1.5-1,2.7h6.1c0-1.1-0.2-2-0.7-2.6C612.9,237.5,612.3,237.2,611.4,237.2z"/>
		<path class="st1" d="M489.5,268.2h-0.9v-6.4h-7.7v6.4h-0.9v-13h0.9v5.8h7.7v-5.8h0.9V268.2z"/>
		<path class="st1" d="M498.9,268.2l-0.2-1.5h-0.1c-0.5,0.6-1,1.1-1.5,1.3c-0.5,0.3-1.1,0.4-1.8,0.4c-1,0-1.7-0.2-2.2-0.7
			s-0.8-1.2-0.8-2c0-0.9,0.4-1.7,1.2-2.2c0.8-0.5,1.9-0.8,3.5-0.8l1.9-0.1v-0.6c0-0.9-0.2-1.6-0.6-2.1s-1-0.7-1.8-0.7
			c-0.9,0-1.8,0.2-2.8,0.7l-0.3-0.8c1.1-0.5,2.1-0.7,3.2-0.7c1.1,0,1.9,0.3,2.4,0.8s0.8,1.4,0.8,2.6v6.4H498.9z M495.3,267.6
			c1,0,1.9-0.3,2.5-0.9s0.9-1.4,0.9-2.5v-1l-1.7,0.1c-1.4,0.1-2.4,0.3-2.9,0.6s-0.9,0.9-0.9,1.7c0,0.6,0.2,1.1,0.6,1.4
			C494.1,267.4,494.6,267.6,495.3,267.6z"/>
		<path class="st1" d="M509.6,268.2v-6.3c0-1-0.2-1.7-0.6-2.1c-0.4-0.4-1.1-0.7-1.9-0.7c-1.2,0-2,0.3-2.6,0.9
			c-0.5,0.6-0.8,1.5-0.8,2.8v5.3h-0.9v-9.7h0.8l0.2,1.3h0.1c0.6-1,1.8-1.5,3.4-1.5c2.2,0,3.3,1.2,3.3,3.5v6.3H509.6z"/>
		<path class="st1" d="M517.2,258.3c0.7,0,1.3,0.1,1.8,0.4s1,0.7,1.4,1.3h0.1c0-0.7-0.1-1.5-0.1-2.2v-3.5h0.9v13.9h-0.6l-0.2-1.5
			h-0.1c-0.7,1.1-1.8,1.7-3.2,1.7c-1.4,0-2.4-0.4-3.1-1.2s-1.1-2-1.1-3.6c0-1.7,0.4-3,1.1-3.8C514.9,258.8,515.9,258.3,517.2,258.3z
			 M517.2,259.1c-1.1,0-1.9,0.4-2.4,1.1c-0.5,0.7-0.8,1.8-0.8,3.2c0,2.7,1.1,4.1,3.2,4.1c1.1,0,1.9-0.3,2.4-1
			c0.5-0.6,0.8-1.7,0.8-3.1v-0.2c0-1.5-0.3-2.6-0.8-3.2S518.4,259.1,517.2,259.1z"/>
		<path class="st1" d="M525.5,268.2h-0.9v-13.9h0.9V268.2z"/>
		<path class="st1" d="M528.7,255.8c0-0.6,0.2-0.9,0.6-0.9c0.2,0,0.3,0.1,0.4,0.2c0.1,0.1,0.2,0.4,0.2,0.6c0,0.3-0.1,0.5-0.2,0.6
			c-0.1,0.2-0.3,0.2-0.4,0.2C528.9,256.7,528.7,256.4,528.7,255.8z M529.7,268.2h-0.9v-9.7h0.9V268.2z"/>
		<path class="st1" d="M539.8,268.2v-6.3c0-1-0.2-1.7-0.6-2.1c-0.4-0.4-1.1-0.7-1.9-0.7c-1.2,0-2,0.3-2.6,0.9
			c-0.5,0.6-0.8,1.5-0.8,2.8v5.3H533v-9.7h0.8l0.2,1.3h0.1c0.6-1,1.8-1.5,3.4-1.5c2.2,0,3.3,1.2,3.3,3.5v6.3H539.8z"/>
		<path class="st1" d="M551.6,258.5v0.6l-2,0.1c0.5,0.7,0.8,1.4,0.8,2.2c0,0.9-0.3,1.7-0.9,2.3s-1.5,0.9-2.5,0.9
			c-0.4,0-0.8,0-0.9-0.1c-0.4,0.2-0.6,0.4-0.8,0.7s-0.3,0.5-0.3,0.8c0,0.3,0.1,0.5,0.4,0.7c0.2,0.1,0.6,0.2,1.2,0.2h1.7
			c1.1,0,1.9,0.2,2.4,0.6c0.6,0.4,0.8,1.1,0.8,1.9c0,1-0.4,1.8-1.3,2.4c-0.8,0.6-2,0.8-3.6,0.8c-1.2,0-2.2-0.2-2.9-0.7s-1-1.1-1-2
			c0-0.7,0.2-1.2,0.6-1.7s1-0.7,1.7-0.9c-0.3-0.1-0.5-0.3-0.7-0.5c-0.2-0.2-0.3-0.5-0.3-0.8c0-0.6,0.4-1.2,1.3-1.7
			c-0.6-0.2-1-0.6-1.3-1.1c-0.3-0.5-0.5-1.1-0.5-1.7c0-1,0.3-1.7,0.9-2.3c0.6-0.6,1.5-0.9,2.5-0.9c0.6,0,1.1,0.1,1.5,0.2H551.6z
			 M543.6,269.8c0,1.3,1,2,3,2c2.6,0,3.9-0.8,3.9-2.4c0-0.6-0.2-1-0.6-1.3c-0.4-0.3-1.1-0.4-2-0.4h-1.6
			C544.5,267.7,543.6,268.4,543.6,269.8z M544.4,261.5c0,0.7,0.2,1.3,0.7,1.7c0.5,0.4,1.1,0.6,1.8,0.6c0.8,0,1.4-0.2,1.9-0.6
			s0.7-1,0.7-1.8c0-0.8-0.2-1.4-0.7-1.9c-0.4-0.4-1.1-0.6-1.9-0.6c-0.8,0-1.4,0.2-1.8,0.7C544.6,260.1,544.4,260.7,544.4,261.5z"/>
		<path class="st1" d="M565.9,264.8c0,1.1-0.4,1.9-1.2,2.6c-0.8,0.6-1.9,1-3.2,1c-1.6,0-2.8-0.2-3.7-0.5v-0.9
			c0.9,0.4,2.2,0.6,3.6,0.6c1.1,0,1.9-0.2,2.6-0.7c0.6-0.5,1-1.1,1-1.9c0-0.5-0.1-0.9-0.3-1.2c-0.2-0.3-0.6-0.6-1-0.9
			c-0.5-0.3-1.2-0.6-2.1-0.9c-1.3-0.5-2.3-1-2.8-1.5c-0.5-0.5-0.8-1.2-0.8-2.1c0-1,0.4-1.8,1.2-2.4c0.8-0.6,1.8-0.9,3-0.9
			c1.2,0,2.4,0.2,3.5,0.7l-0.3,0.8c-1.1-0.5-2.1-0.7-3.1-0.7c-1,0-1.8,0.2-2.3,0.7s-0.9,1.1-0.9,1.8c0,0.5,0.1,0.9,0.3,1.2
			c0.2,0.3,0.5,0.6,0.9,0.8c0.4,0.2,1.1,0.5,2.1,0.9c1,0.4,1.8,0.7,2.3,1s0.9,0.7,1.1,1.1C565.8,263.7,565.9,264.2,565.9,264.8z"/>
		<path class="st1" d="M566.8,258.5h0.9l2.1,5.4c0.6,1.7,1,2.8,1.2,3.4h0.1c0.3-0.8,0.7-1.9,1.2-3.4l2.1-5.4h0.9l-4.4,11.3
			c-0.4,0.9-0.7,1.5-0.9,1.9s-0.5,0.6-0.8,0.7c-0.3,0.2-0.7,0.2-1.2,0.2c-0.3,0-0.7-0.1-1.1-0.2v-0.8c0.3,0.1,0.7,0.1,1.1,0.1
			c0.3,0,0.6-0.1,0.8-0.2c0.2-0.1,0.4-0.4,0.6-0.7s0.4-0.8,0.7-1.4c0.2-0.7,0.4-1.1,0.5-1.3L566.8,258.5z"/>
		<path class="st1" d="M583,265.7c0,0.9-0.3,1.5-1,2c-0.7,0.5-1.6,0.7-2.8,0.7c-1.3,0-2.4-0.2-3.1-0.6v-1c1,0.5,2,0.7,3.1,0.7
			c1,0,1.7-0.2,2.2-0.5c0.5-0.3,0.8-0.7,0.8-1.3c0-0.5-0.2-0.9-0.6-1.2c-0.4-0.3-1.1-0.7-2-1c-1-0.4-1.7-0.7-2.1-0.9
			c-0.4-0.3-0.7-0.5-0.9-0.9c-0.2-0.3-0.3-0.7-0.3-1.2c0-0.7,0.3-1.3,0.9-1.7c0.6-0.4,1.5-0.6,2.6-0.6c1.1,0,2.1,0.2,3,0.6l-0.3,0.8
			c-1-0.4-1.9-0.6-2.7-0.6c-0.8,0-1.4,0.1-1.9,0.4c-0.5,0.3-0.7,0.6-0.7,1.1c0,0.5,0.2,0.9,0.5,1.2c0.4,0.3,1.1,0.6,2.1,1
			c0.9,0.3,1.5,0.6,1.9,0.9c0.4,0.3,0.7,0.5,0.9,0.9C582.9,264.9,583,265.2,583,265.7z"/>
		<path class="st1" d="M588.1,267.6c0.6,0,1.1,0,1.5-0.1v0.7c-0.4,0.1-0.9,0.2-1.5,0.2c-0.9,0-1.5-0.2-1.9-0.7
			c-0.4-0.5-0.6-1.2-0.6-2.2v-6.3h-1.5v-0.5l1.5-0.4l0.5-2.2h0.5v2.3h2.9v0.8h-2.9v6.1c0,0.7,0.1,1.3,0.4,1.6
			S587.5,267.6,588.1,267.6z"/>
		<path class="st1" d="M595.7,268.4c-1.4,0-2.5-0.4-3.3-1.3c-0.8-0.9-1.2-2.1-1.2-3.6c0-1.5,0.4-2.8,1.2-3.7
			c0.8-0.9,1.8-1.4,3.1-1.4c1.2,0,2.1,0.4,2.7,1.2s1,1.9,1,3.2v0.7h-7.1c0,1.3,0.3,2.3,0.9,3c0.6,0.7,1.5,1.1,2.6,1.1
			c0.6,0,1.1,0,1.5-0.1s1-0.2,1.6-0.5v0.8c-0.6,0.2-1.1,0.4-1.5,0.5C596.8,268.3,596.2,268.4,595.7,268.4z M595.4,259.1
			c-0.9,0-1.7,0.3-2.3,0.9c-0.6,0.6-0.9,1.5-1,2.7h6.1c0-1.1-0.2-2-0.7-2.6C597,259.4,596.3,259.1,595.4,259.1z"/>
		<path class="st1" d="M614.1,268.2v-6.4c0-0.9-0.2-1.6-0.6-2.1c-0.4-0.4-0.9-0.7-1.7-0.7c-1,0-1.7,0.3-2.2,0.8
			c-0.5,0.5-0.7,1.4-0.7,2.6v5.7H608v-6.6c0-1.6-0.8-2.4-2.3-2.4c-1,0-1.8,0.3-2.2,0.9c-0.5,0.6-0.7,1.5-0.7,2.8v5.3h-0.9v-9.7h0.7
			l0.2,1.3h0.1c0.3-0.5,0.7-0.9,1.2-1.1c0.5-0.3,1-0.4,1.7-0.4c1.5,0,2.5,0.6,3,1.7h0c0.3-0.6,0.7-1,1.3-1.3
			c0.5-0.3,1.2-0.4,1.8-0.4c1.1,0,1.9,0.3,2.4,0.8c0.5,0.6,0.8,1.5,0.8,2.7v6.3H614.1z"/>
	</g>
	<g>
		<g>
			<polygon class="st10" points="569.5,170.4 554.4,183.2 569.5,195 			"/>
			<polygon class="st10" points="525,170.5 525,194.7 540.3,183.3 			"/>
			<path class="st10" d="M526.5,168.7l18.5,15.7c2.6,1.9,4.5,0,4.5,0l18.3-15.8H526.5z"/>
			<path class="st10" d="M552.7,184.6l-2.7,2.3c-2.8,2.3-5.7,0-5.7,0l-2.6-2.2l-15.2,11.6h41.3L552.7,184.6z"/>
		</g>
	</g>
	<g>
		<path class="st12" d="M426.1,193.7c0,2.3-1.8,4.1-4.1,4.1c-2.3,0-4.1-1.8-4.1-4.1c0-2.3,1.8-4.1,4.1-4.1
			C424.3,189.6,426.1,191.4,426.1,193.7z M418,193c0,0-0.1,0.5-0.1,0.7c0,0.2,0.1,0.7,0.1,0.7h8.1c0,0,0-0.5,0-0.7
			c0-0.2,0-0.7,0-0.7H418z M422.7,189.7c0,0-0.5-0.1-0.7-0.1c-0.2,0-0.7,0.1-0.7,0.1v8.1c0,0,0.5,0.1,0.7,0.1c0.2,0,0.7-0.1,0.7-0.1
			V189.7z M421.3,193v1.4h1.4l1.8-4c0,0-0.2-0.2-0.8-0.5c-0.5-0.2-1-0.3-1-0.3L421.3,193z"/>
		<path d="M434.6,193.7c0,6.9-5.6,12.5-12.5,12.5c-6.9,0-12.5-5.6-12.5-12.5c0-6.9,5.6-12.5,12.5-12.5
			C429,181.2,434.6,186.8,434.6,193.7z M422,187.9c-3.2,0-5.8,2.6-5.8,5.8c0,3.2,2.6,5.8,5.8,5.8c3.2,0,5.8-2.6,5.8-5.8
			C427.8,190.5,425.2,187.9,422,187.9z M409.6,193l0,1.4h6.6l0-1.4H409.6z M427.8,193c0,0,0,0.5,0,0.7c0,0.2,0,0.7,0,0.7h6.8V193
			H427.8z M422.7,181.2l-1.4,0v6.7c0,0,0.5,0,0.7,0c0.2,0,0.7,0,0.7,0V181.2z M422.7,199.5c0,0-0.5,0.1-0.7,0.1c-0.2,0-0.7,0-0.7,0
			v6.7l1.4,0V199.5z M450.8,193.7c0,15.8-12.8,28.7-28.7,28.7c-15.8,0-28.7-12.8-28.7-28.7c0-15.8,12.8-28.7,28.7-28.7
			C437.9,165,450.8,177.9,450.8,193.7z M422.1,171.1c-12.5,0-22.6,10.1-22.6,22.6c0,12.5,10.1,22.6,22.6,22.6
			c12.5,0,22.6-10.1,22.6-22.6C444.7,181.2,434.6,171.1,422.1,171.1z M393.4,193v1.4h6.1c0-0.5,0-0.9,0-1.4H393.4z M450.8,193h-6.1
			v1.4h6.1V193z M422.7,165h-1.4v6l1.4,0V165z M421.3,216.3v6.1h1.4l0-6.1H421.3z M443,193.7c0,11.5-9.3,20.9-20.9,20.9
			c-11.5,0-20.9-9.3-20.9-20.9c0-11.5,9.3-20.9,20.9-20.9C433.6,172.8,443,182.2,443,193.7z M422.1,179.7c-7.8,0-14,6.3-14,14
			c0,7.8,6.3,14,14,14c7.8,0,14-6.3,14-14C436.1,186,429.8,179.7,422.1,179.7z M401.2,193c0,0.5,0,0.9,0,1.4h6.9l0-1.4H401.2z
			 M436.1,193v1.4h6.8V193H436.1z M422.7,207.7l-1.4,0v6.9h1.4V207.7z M422.7,172.8h-1.4v6.9l1.4,0V172.8z M423.5,188.1
			c0,0,0.7,0.2,0.9,0.3c0.2,0.1,0.8,0.4,0.8,0.4l2.8-6.2c0,0-0.6-0.3-0.8-0.4c-0.2-0.1-0.9-0.4-0.9-0.4L423.5,188.1z M426.8,180.5
			c0,0,0.7,0.3,0.9,0.4c0.2,0.1,0.9,0.4,0.9,0.4l2.8-6.2c0,0-0.7-0.4-0.9-0.4c-0.2-0.1-0.9-0.4-0.9-0.4L426.8,180.5z M432.8,167.1
			l-2.4,5.5c0,0,0.7,0.3,0.9,0.4c0.2,0.1,0.9,0.4,0.9,0.4l2.5-5.5c0,0-0.6-0.3-0.9-0.4C433.5,167.4,432.8,167.1,432.8,167.1z"/>
		<linearGradient id="SVGID_2_" gradientUnits="userSpaceOnUse" x1="430.0872" y1="181.7155" x2="399.8737" y2="171.8986">
			<stop  offset="0" style="stop-color:#FFFFFF"/>
			<stop  offset="0.1043" style="stop-color:#FFFFFF"/>
			<stop  offset="0.1768" style="stop-color:#FFFFFF;stop-opacity:0.9191"/>
			<stop  offset="1" style="stop-color:#FFFFFF;stop-opacity:0"/>
		</linearGradient>
		<path class="st13" d="M422.7,194.4l11.9-26.5c0,0-7-3.8-16.6-2.6c-2.8,0.4-12.9,2-20.3,13.4l23.6,15.7H422.7z"/>
		<radialGradient id="SVGID_3_" cx="416.126" cy="206.7991" r="4.6032" gradientUnits="userSpaceOnUse">
			<stop  offset="0" style="stop-color:#FFFFFF"/>
			<stop  offset="0.147" style="stop-color:#FFFFFF;stop-opacity:0.853"/>
			<stop  offset="1" style="stop-color:#FFFFFF;stop-opacity:0"/>
		</radialGradient>
		<path class="st14" d="M420.7,206.8c0,2.5-2.1,4.6-4.6,4.6c-2.5,0-4.6-2.1-4.6-4.6c0-2.5,2.1-4.6,4.6-4.6
			C418.7,202.2,420.7,204.3,420.7,206.8z"/>
		<radialGradient id="SVGID_4_" cx="439.1806" cy="197.8184" r="4.6034" gradientUnits="userSpaceOnUse">
			<stop  offset="9.202450e-02" style="stop-color:#FFFFFF"/>
			<stop  offset="0.2255" style="stop-color:#FFFFFF;stop-opacity:0.853"/>
			<stop  offset="1" style="stop-color:#FFFFFF;stop-opacity:0"/>
		</radialGradient>
		<path class="st15" d="M443.8,197.8c0,2.5-2.1,4.6-4.6,4.6c-2.5,0-4.6-2.1-4.6-4.6c0-2.5,2.1-4.6,4.6-4.6
			C441.7,193.2,443.8,195.3,443.8,197.8z"/>
		<radialGradient id="SVGID_5_" cx="434.5779" cy="202.8919" r="4.6915" gradientUnits="userSpaceOnUse">
			<stop  offset="0.1963" style="stop-color:#FFFFFF"/>
			<stop  offset="0.3145" style="stop-color:#FFFFFF;stop-opacity:0.853"/>
			<stop  offset="1" style="stop-color:#FFFFFF;stop-opacity:0"/>
		</radialGradient>
		<path class="st16" d="M439.3,202.9c0,2.6-2.1,4.7-4.7,4.7c-2.6,0-4.7-2.1-4.7-4.7c0-2.6,2.1-4.7,4.7-4.7
			C437.2,198.2,439.3,200.3,439.3,202.9z"/>
	</g>
	<rect x="418.7" y="285.5" class="st2" width="4.4" height="36.4"/>
	<rect x="545.4" y="285.5" class="st2" width="4.4" height="65.5"/>
	<g>
		<g class="st17">
			<path class="st18" d="M538.3,593.4"/>
			<path class="st18" d="M519.1,556.8"/>
			<path class="st19" d="M501.6,540.6"/>
		</g>
		<g>
			<g>
				<linearGradient id="SVGID_6_" gradientUnits="userSpaceOnUse" x1="537.3849" y1="592.4845" x2="537.3849" y2="592.4845">
					<stop  offset="0" style="stop-color:#C7E8F9"/>
					<stop  offset="0.1422" style="stop-color:#BFE2F5"/>
					<stop  offset="0.361" style="stop-color:#AAD2E8"/>
					<stop  offset="0.6291" style="stop-color:#85B9D3"/>
					<stop  offset="0.9336" style="stop-color:#4899B8"/>
					<stop  offset="1" style="stop-color:#3691B2"/>
				</linearGradient>
				<path class="st20" d="M537.4,592.5"/>
				<linearGradient id="SVGID_7_" gradientUnits="userSpaceOnUse" x1="518.2534" y1="555.91" x2="518.2534" y2="555.91">
					<stop  offset="0" style="stop-color:#C7E8F9"/>
					<stop  offset="0.1422" style="stop-color:#BFE2F5"/>
					<stop  offset="0.361" style="stop-color:#AAD2E8"/>
					<stop  offset="0.6291" style="stop-color:#85B9D3"/>
					<stop  offset="0.9336" style="stop-color:#4899B8"/>
					<stop  offset="1" style="stop-color:#3691B2"/>
				</linearGradient>
				<path class="st21" d="M518.3,555.9"/>
				<path class="st22" d="M500.8,539.7"/>
			</g>
		</g>
	</g>
	<g>
		<path class="st1" d="M204.8,738.5c0,2.2-0.6,3.8-1.7,5c-1.1,1.1-2.8,1.7-5.1,1.7h-3.1v-13h3.5c2.1,0,3.7,0.5,4.7,1.6
			C204.3,734.8,204.8,736.4,204.8,738.5z M203.8,738.6c0-1.9-0.5-3.3-1.4-4.2c-0.9-0.9-2.3-1.4-4.2-1.4h-2.4v11.4h2.2
			C201.9,744.4,203.8,742.4,203.8,738.6z"/>
		<path class="st1" d="M207.8,745.2v-13h0.9v13H207.8z"/>
		<path class="st1" d="M213.3,739.5v5.7h-0.9v-13h3.1c1.6,0,2.8,0.3,3.6,0.9s1.2,1.5,1.2,2.7c0,0.9-0.2,1.6-0.7,2.2
			c-0.5,0.6-1.2,1-2.1,1.3l3.5,5.9h-1.1l-3.4-5.7H213.3z M213.3,738.7h2.5c1.1,0,2-0.2,2.6-0.7c0.6-0.5,0.9-1.2,0.9-2.2
			c0-1-0.3-1.7-0.9-2.2s-1.6-0.7-2.9-0.7h-2.2V738.7z"/>
		<path class="st1" d="M230.3,745.2h-7.1v-13h7.1v0.8h-6.2v4.9h5.9v0.8h-5.9v5.6h6.2V745.2z"/>
		<path class="st1" d="M238.8,732.8c-1.6,0-2.9,0.5-3.9,1.6c-0.9,1-1.4,2.5-1.4,4.3c0,1.9,0.4,3.3,1.3,4.3s2.1,1.5,3.8,1.5
			c1.1,0,2.1-0.1,3-0.4v0.8c-0.9,0.3-1.9,0.5-3.2,0.5c-1.8,0-3.3-0.6-4.3-1.8c-1.1-1.2-1.6-2.8-1.6-5c0-1.3,0.3-2.5,0.8-3.5
			c0.5-1,1.2-1.8,2.2-2.3c0.9-0.5,2-0.8,3.3-0.8c1.3,0,2.4,0.2,3.4,0.7l-0.4,0.8C240.9,733,239.9,732.8,238.8,732.8z"/>
		<path class="st1" d="M248,745.2h-0.9V733h-4.2v-0.9h9.4v0.9H248V745.2z"/>
		<path class="st1" d="M254.2,745.2v-13h0.9v13H254.2z"/>
		<path class="st1" d="M269.7,738.6c0,2.1-0.5,3.7-1.5,4.9c-1,1.2-2.5,1.8-4.3,1.8c-1.8,0-3.2-0.6-4.3-1.8c-1-1.2-1.6-2.8-1.6-4.9
			c0-2.1,0.5-3.7,1.6-4.9c1-1.2,2.5-1.8,4.3-1.8c1.8,0,3.2,0.6,4.3,1.8S269.7,736.6,269.7,738.6z M259.1,738.6
			c0,1.9,0.4,3.3,1.2,4.3c0.8,1,2,1.5,3.6,1.5c1.6,0,2.8-0.5,3.6-1.5c0.8-1,1.2-2.5,1.2-4.3c0-1.9-0.4-3.3-1.2-4.3
			c-0.8-1-2-1.5-3.6-1.5c-1.5,0-2.7,0.5-3.6,1.5C259.5,735.3,259.1,736.8,259.1,738.6z"/>
		<path class="st1" d="M282.2,745.2h-0.9l-7.7-11.6h-0.1c0.1,1.4,0.1,2.4,0.1,3.1v8.4h-0.9v-13h0.9l7.7,11.5h0.1
			c-0.1-1.1-0.1-2.1-0.1-3v-8.5h0.9V745.2z"/>
		<path class="st1" d="M205.9,767H205v-13h7.1v0.8h-6.2v5.5h5.9v0.8h-5.9V767z"/>
		<path class="st1" d="M214.2,767v-13h0.9v13H214.2z"/>
		<path class="st1" d="M228.2,767h-0.9l-7.7-11.6h-0.1c0.1,1.4,0.1,2.4,0.1,3.1v8.4h-0.9v-13h0.9l7.7,11.5h0.1
			c-0.1-1.1-0.1-2.1-0.1-3V754h0.9V767z"/>
		<path class="st1" d="M241.8,760.4c0,2.2-0.6,3.8-1.7,5c-1.1,1.1-2.8,1.7-5.1,1.7h-3.1v-13h3.5c2.1,0,3.7,0.5,4.7,1.6
			C241.3,756.7,241.8,758.3,241.8,760.4z M240.8,760.4c0-1.9-0.5-3.3-1.4-4.2c-0.9-0.9-2.3-1.4-4.2-1.4h-2.4v11.4h2.2
			C238.9,766.2,240.8,764.3,240.8,760.4z"/>
		<path class="st1" d="M244.8,767v-13h0.9v13H244.8z"/>
		<path class="st1" d="M258.9,767H258l-7.7-11.6h-0.1c0.1,1.4,0.1,2.4,0.1,3.1v8.4h-0.9v-13h0.9l7.7,11.5h0.1
			c-0.1-1.1-0.1-2.1-0.1-3V754h0.9V767z"/>
		<path class="st1" d="M267.7,760.5h4.8v5.9c-1.3,0.5-2.7,0.8-4.2,0.8c-2.1,0-3.6-0.6-4.7-1.7s-1.6-2.8-1.6-4.9
			c0-1.3,0.3-2.5,0.8-3.5c0.5-1,1.3-1.8,2.3-2.4c1-0.6,2.2-0.8,3.5-0.8c1.4,0,2.7,0.3,3.8,0.8l-0.4,0.8c-1.1-0.5-2.3-0.8-3.5-0.8
			c-1.7,0-3.1,0.5-4.1,1.6c-1,1.1-1.5,2.5-1.5,4.3c0,2,0.5,3.4,1.4,4.4c1,1,2.4,1.5,4.2,1.5c1.2,0,2.2-0.2,3.1-0.5v-4.6h-3.9V760.5z
			"/>
	</g>
	<g>
		<g>
			<path class="st23" d="M268.5,697.4l-5.5-0.7l-3-1.9l-1.4-1.8l-3.2-1.4l-0.2-1.1l-1.1-0.5l0,0l-2.2-0.6l-0.7-1.2l0.7,1.2l-0.7,0.7
				c0,0,0.5,0,0-0.5c-0.5-0.5-0.7-1.7-0.7-1.7h-0.5v1l-1.1-0.3v-0.6h-1v0.8c0,0,1,0.5,0,0.5c-0.9,0-0.9,0-0.9,0l-1.8-0.6l-1.1-0.6v1
				l-0.9,0.6l-0.2-1.6l-0.5-1.3c0,0,0.3-0.8,0.7-0.9c0.4-0.1,0.9,0.8,0.9,0c0-0.8,0-1.5,0-1.5l-0.9-0.6h-0.7c0,0-0.1,0.2,0,0.6
				c0.1,0.3,0.1-0.2,0.1,0.3c0,0.6-1.4,1.4-1.4,1.4s-0.6,0.4,0,0.9c0.6,0.4-0.3,1.2-0.3,1.2l-3.1,2.1l-2.3-0.8c0,0,2.1-1.5,2.8-1.9
				c0.7-0.3-1.2-0.2-1.2-0.2l-0.2-1l0,0l-1.2,0.5l-0.8,0.6h-1.5l0.7-0.6h-2.3l-1.5-1.2v-0.5l-1.6-1.5l-3.3-1.1c0,0-0.4,0.4,0,0.7
				c0.4,0.4,0.4,0.4,0.4,0.4l-2.3,0.3v-1.4l-3.6-1.3l-6-0.2l-4.7-0.3v-7.6h58.9V697.4z"/>
		</g>
		
			<rect x="210" y="703.9" transform="matrix(-0.9698 0.2438 -0.2438 -0.9698 630.0868 1331.6481)" class="st24" width="45.2" height="1.9"/>
		<polygon class="st24" points="227.5,721.8 256,698.9 254.8,697.5 226.3,720.4 		"/>
		
			<rect x="211.1" y="709" transform="matrix(-0.8992 0.4375 -0.4375 -0.8992 752.9836 1246.5361)" class="st24" width="43.6" height="1.9"/>
		
			<rect x="232.6" y="709.4" transform="matrix(-0.6029 0.7978 -0.7978 -0.6029 961.0032 942.417)" class="st24" width="26.7" height="1.9"/>
		
			<rect x="240.1" y="709.3" transform="matrix(-0.244 0.9698 -0.9698 -0.244 1001.2409 639.9914)" class="st24" width="22.2" height="1.9"/>
		<path class="st25" d="M248.8,695.8l1.3-1.4l9.3,8.9l-1.3,1.4L248.8,695.8z M259.4,695.4l-1.4-1.3l-3.9,4.1l1.4,1.3L259.4,695.4z
			 M254.1,700.9l-1.4-1.3l-4,4.2l1.4,1.3L254.1,700.9z"/>
		<rect x="211" y="673.5" class="st26" width="56.9" height="47.9"/>
	</g>
	<g>
		<path class="st5" d="M333,207c0,3.4-2.7,6.1-6.1,6.1h-28.8c-3.4,0-6.1-2.7-6.1-6.1v-28.8c0-3.4,2.7-6.1,6.1-6.1h28.8
			c3.4,0,6.1,2.7,6.1,6.1V207z M328.2,181.4c0-2.6-2.1-4.7-4.7-4.7h-22.1c-2.6,0-4.7,2.1-4.7,4.7v22.1c0,2.6,2.1,4.7,4.7,4.7h22.1
			c2.6,0,4.7-2.1,4.7-4.7V181.4z"/>
		<polygon class="st5" points="298.2,173.7 302,167.3 307.9,167.3 304.9,173.7 		"/>
		<polygon class="st5" points="308.4,173.7 312.2,167.3 318.1,167.3 315.1,173.7 		"/>
		<polygon class="st5" points="318.6,173.7 322.4,167.3 328.3,167.3 325.3,173.7 		"/>
		<polygon class="st5" points="337.5,209.3 331.1,205.5 331.1,199.7 337.5,202.7 		"/>
		<polygon class="st5" points="337.5,199.1 331.1,195.3 331.1,189.4 337.5,192.4 		"/>
		<polygon class="st5" points="337.5,188.9 331.1,185.1 331.1,179.2 337.5,182.2 		"/>
		<polygon class="st5" points="293.9,207.3 287.5,203.5 287.5,197.6 293.9,200.6 		"/>
		<polygon class="st5" points="293.9,197.1 287.5,193.3 287.5,187.4 293.9,190.4 		"/>
		<polygon class="st5" points="293.9,186.8 287.5,183.1 287.5,177.2 293.9,180.2 		"/>
		<polygon class="st5" points="327.6,211.6 323.8,218 317.9,218 320.9,211.6 		"/>
		<polygon class="st5" points="317.4,211.6 313.6,218 307.7,218 310.7,211.6 		"/>
		<polygon class="st5" points="307.1,211.6 303.3,218 297.5,218 300.5,211.6 		"/>
	</g>
	<g>
		<path d="M324.4,177.4c-2.9-2.6-6.6-3.2-8.3-1.3l-3.3,3.6c1,0.2,2.1,0.5,3.1,0.9l1.4-1.5c1-1.1,3.2-0.8,4.9,0.8
			c1.7,1.5,2.2,3.7,1.2,4.8l-7.5,8.2c-1,1.1-3.2,0.8-4.9-0.8c-0.4-0.3-1-1-1.3-1.4l-2,2.2c0.4,0.4,1,1,1.4,1.4
			c2.8,2.6,6.6,3.2,8.3,1.3l9.2-9.9C328.2,183.7,327.3,180,324.4,177.4z"/>
		<path d="M308.9,200.2c-1,1.1-3.2,0.8-4.9-0.8c-1.7-1.5-2.2-3.7-1.2-4.8l7.5-8.2c1-1.1,3.2-0.8,4.9,0.8c0.5,0.4,0.9,0.9,1.1,1.5
			l2.3-2.5c-0.4-0.5-0.8-0.9-1.2-1.4c-2.8-2.6-6.6-3.2-8.3-1.3l-9.2,9.9c-1.7,1.9-0.8,5.5,2,8.2c2.8,2.6,6.6,3.2,8.3,1.3l3.6-3.9
			c-1-0.2-2-0.6-3-1L308.9,200.2z"/>
	</g>
	<g>
		<path class="st1" d="M507.4,413.1h-0.9v-12.5h-4.4v-0.9h9.6v0.9h-4.4V413.1z"/>
		<path class="st1" d="M523.9,406.3c0,2.2-0.6,3.9-1.8,5.1c-1.2,1.2-2.9,1.7-5.2,1.7h-3.2v-13.4h3.6c2.1,0,3.8,0.6,4.9,1.7
			C523.4,402.5,523.9,404.1,523.9,406.3z M522.9,406.3c0-1.9-0.5-3.4-1.5-4.3c-1-1-2.4-1.5-4.3-1.5h-2.5v11.7h2.2
			C520.9,412.3,522.9,410.3,522.9,406.3z"/>
		<path class="st1" d="M527.9,413.1H527v-13.4h7.3v0.9h-6.4v5.7h6v0.9h-6V413.1z"/>
		<path class="st1" d="M552.5,406.4c0,2.1-0.5,3.8-1.6,5c-1.1,1.2-2.5,1.9-4.4,1.9c-1.9,0-3.3-0.6-4.4-1.9c-1.1-1.2-1.6-2.9-1.6-5.1
			c0-2.1,0.5-3.8,1.6-5c1.1-1.2,2.5-1.8,4.4-1.8c1.9,0,3.3,0.6,4.4,1.8C552,402.6,552.5,404.3,552.5,406.4z M541.6,406.4
			c0,1.9,0.4,3.4,1.3,4.4c0.9,1,2.1,1.6,3.7,1.6c1.6,0,2.8-0.5,3.7-1.6c0.9-1,1.3-2.5,1.3-4.5c0-1.9-0.4-3.4-1.3-4.4
			c-0.9-1-2.1-1.5-3.7-1.5c-1.6,0-2.8,0.5-3.7,1.6C542,403,541.6,404.5,541.6,406.4z"/>
		<path class="st1" d="M566.3,413.1h-0.8l-2.9-10.3c-0.2-0.8-0.4-1.5-0.5-2.1c-0.1,0.5-0.2,1.1-0.4,1.8c-0.2,0.7-1.2,4.2-3,10.6
			h-0.8l-3.7-13.4h1l2.3,8.6c0.1,0.3,0.2,0.7,0.3,1c0.1,0.3,0.2,0.6,0.2,0.8c0.1,0.3,0.1,0.5,0.2,0.8s0.1,0.5,0.1,0.7
			c0.1-0.8,0.5-2.1,0.9-3.8l2.3-8.1h1l2.7,9.3c0.3,1.1,0.5,1.9,0.7,2.6c0.1-0.4,0.2-0.9,0.3-1.4c0.1-0.5,1.1-4,2.8-10.5h0.9
			L566.3,413.1z"/>
		<path class="st1" d="M579.8,409.6c0,1.1-0.4,2-1.2,2.7c-0.8,0.7-1.9,1-3.3,1c-1.6,0-2.9-0.2-3.8-0.5v-0.9c1,0.4,2.2,0.6,3.7,0.6
			c1.1,0,2-0.3,2.6-0.8c0.6-0.5,1-1.2,1-2c0-0.5-0.1-0.9-0.3-1.3c-0.2-0.3-0.6-0.6-1-0.9s-1.2-0.6-2.1-0.9c-1.4-0.5-2.3-1-2.8-1.5
			c-0.5-0.5-0.8-1.3-0.8-2.2c0-1,0.4-1.8,1.2-2.5c0.8-0.6,1.8-0.9,3-0.9c1.3,0,2.4,0.2,3.5,0.7l-0.3,0.8c-1.1-0.5-2.2-0.7-3.2-0.7
			c-1,0-1.8,0.2-2.4,0.7s-0.9,1.1-0.9,1.9c0,0.5,0.1,0.9,0.3,1.2c0.2,0.3,0.5,0.6,0.9,0.9s1.1,0.6,2.1,0.9c1,0.4,1.8,0.7,2.4,1
			c0.5,0.3,0.9,0.7,1.1,1.2C579.6,408.5,579.8,409,579.8,409.6z"/>
	</g>
	<g>
		<path class="st1" d="M410.5,413.1h-0.9v-12.5h-4.4v-0.9h9.6v0.9h-4.4V413.1z"/>
		<path class="st1" d="M427,406.3c0,2.2-0.6,3.9-1.8,5.1c-1.2,1.2-2.9,1.7-5.2,1.7h-3.2v-13.4h3.6c2.1,0,3.8,0.6,4.9,1.7
			C426.4,402.5,427,404.1,427,406.3z M426,406.3c0-1.9-0.5-3.4-1.5-4.3c-1-1-2.4-1.5-4.3-1.5h-2.5v11.7h2.2
			C424,412.3,426,410.3,426,406.3z"/>
		<path class="st1" d="M431,413.1h-0.9v-13.4h7.3v0.9H431v5.7h6v0.9h-6V413.1z"/>
		<path class="st1" d="M455.6,406.4c0,2.1-0.5,3.8-1.6,5c-1.1,1.2-2.5,1.9-4.4,1.9c-1.9,0-3.3-0.6-4.4-1.9c-1.1-1.2-1.6-2.9-1.6-5.1
			c0-2.1,0.5-3.8,1.6-5c1.1-1.2,2.5-1.8,4.4-1.8c1.9,0,3.3,0.6,4.4,1.8C455.1,402.6,455.6,404.3,455.6,406.4z M444.7,406.4
			c0,1.9,0.4,3.4,1.3,4.4c0.9,1,2.1,1.6,3.7,1.6c1.6,0,2.8-0.5,3.7-1.6c0.9-1,1.3-2.5,1.3-4.5c0-1.9-0.4-3.4-1.3-4.4
			c-0.9-1-2.1-1.5-3.7-1.5c-1.6,0-2.8,0.5-3.7,1.6C445.1,403,444.7,404.5,444.7,406.4z"/>
		<path class="st1" d="M469.4,413.1h-0.8l-2.9-10.3c-0.2-0.8-0.4-1.5-0.5-2.1c-0.1,0.5-0.2,1.1-0.4,1.8c-0.2,0.7-1.2,4.2-3,10.6H461
			l-3.7-13.4h1l2.3,8.6c0.1,0.3,0.2,0.7,0.3,1c0.1,0.3,0.2,0.6,0.2,0.8c0.1,0.3,0.1,0.5,0.2,0.8s0.1,0.5,0.1,0.7
			c0.1-0.8,0.5-2.1,0.9-3.8l2.3-8.1h1l2.7,9.3c0.3,1.1,0.5,1.9,0.7,2.6c0.1-0.4,0.2-0.9,0.3-1.4c0.1-0.5,1.1-4,2.8-10.5h0.9
			L469.4,413.1z"/>
		<path class="st1" d="M482.9,409.6c0,1.1-0.4,2-1.2,2.7c-0.8,0.7-1.9,1-3.3,1c-1.6,0-2.9-0.2-3.8-0.5v-0.9c1,0.4,2.2,0.6,3.7,0.6
			c1.1,0,2-0.3,2.6-0.8c0.6-0.5,1-1.2,1-2c0-0.5-0.1-0.9-0.3-1.3c-0.2-0.3-0.6-0.6-1-0.9s-1.2-0.6-2.1-0.9c-1.4-0.5-2.3-1-2.8-1.5
			c-0.5-0.5-0.8-1.3-0.8-2.2c0-1,0.4-1.8,1.2-2.5c0.8-0.6,1.8-0.9,3-0.9c1.3,0,2.4,0.2,3.5,0.7l-0.3,0.8c-1.1-0.5-2.2-0.7-3.2-0.7
			c-1,0-1.8,0.2-2.4,0.7s-0.9,1.1-0.9,1.9c0,0.5,0.1,0.9,0.3,1.2c0.2,0.3,0.5,0.6,0.9,0.9s1.1,0.6,2.1,0.9c1,0.4,1.8,0.7,2.4,1
			c0.5,0.3,0.9,0.7,1.1,1.2C482.7,408.5,482.9,409,482.9,409.6z"/>
	</g>
	<g>
		<path class="st1" d="M314,413.4H313v-12.5h-4.4V400h9.6v0.9H314V413.4z"/>
		<path class="st1" d="M330.5,406.5c0,2.2-0.6,3.9-1.8,5.1c-1.2,1.2-2.9,1.7-5.2,1.7h-3.2V400h3.6c2.1,0,3.8,0.6,4.9,1.7
			C329.9,402.8,330.5,404.4,330.5,406.5z M329.5,406.6c0-1.9-0.5-3.4-1.5-4.3c-1-1-2.4-1.5-4.3-1.5h-2.5v11.7h2.2
			C327.5,412.5,329.5,410.6,329.5,406.6z"/>
		<path class="st1" d="M334.5,413.4h-0.9V400h7.3v0.9h-6.4v5.7h6v0.9h-6V413.4z"/>
		<path class="st1" d="M359.1,406.7c0,2.1-0.5,3.8-1.6,5c-1.1,1.2-2.5,1.9-4.4,1.9c-1.9,0-3.3-0.6-4.4-1.9c-1.1-1.2-1.6-2.9-1.6-5.1
			c0-2.1,0.5-3.8,1.6-5c1.1-1.2,2.5-1.8,4.4-1.8c1.9,0,3.3,0.6,4.4,1.8C358.6,402.8,359.1,404.5,359.1,406.7z M348.2,406.7
			c0,1.9,0.4,3.4,1.3,4.4c0.9,1,2.1,1.6,3.7,1.6c1.6,0,2.8-0.5,3.7-1.6c0.9-1,1.3-2.5,1.3-4.5c0-1.9-0.4-3.4-1.3-4.4
			c-0.9-1-2.1-1.5-3.7-1.5c-1.6,0-2.8,0.5-3.7,1.6C348.6,403.3,348.2,404.7,348.2,406.7z"/>
		<path class="st1" d="M372.9,413.4h-0.8l-2.9-10.3c-0.2-0.8-0.4-1.5-0.5-2.1c-0.1,0.5-0.2,1.1-0.4,1.8c-0.2,0.7-1.2,4.2-3,10.6
			h-0.8l-3.7-13.4h1l2.3,8.6c0.1,0.3,0.2,0.7,0.3,1c0.1,0.3,0.2,0.6,0.2,0.8c0.1,0.3,0.1,0.5,0.2,0.8s0.1,0.5,0.1,0.7
			c0.1-0.8,0.5-2.1,0.9-3.8l2.3-8.1h1l2.7,9.3c0.3,1.1,0.5,1.9,0.7,2.6c0.1-0.4,0.2-0.9,0.3-1.4c0.1-0.5,1.1-4,2.8-10.5h0.9
			L372.9,413.4z"/>
		<path class="st1" d="M386.3,409.9c0,1.1-0.4,2-1.2,2.7c-0.8,0.7-1.9,1-3.3,1c-1.6,0-2.9-0.2-3.8-0.5v-0.9c1,0.4,2.2,0.6,3.7,0.6
			c1.1,0,2-0.3,2.6-0.8c0.6-0.5,1-1.2,1-2c0-0.5-0.1-0.9-0.3-1.3c-0.2-0.3-0.6-0.6-1-0.9s-1.2-0.6-2.1-0.9c-1.4-0.5-2.3-1-2.8-1.5
			c-0.5-0.5-0.8-1.3-0.8-2.2c0-1,0.4-1.8,1.2-2.5c0.8-0.6,1.8-0.9,3-0.9c1.3,0,2.4,0.2,3.5,0.7l-0.3,0.8c-1.1-0.5-2.2-0.7-3.2-0.7
			c-1,0-1.8,0.2-2.4,0.7s-0.9,1.1-0.9,1.9c0,0.5,0.1,0.9,0.3,1.2c0.2,0.3,0.5,0.6,0.9,0.9s1.1,0.6,2.1,0.9c1,0.4,1.8,0.7,2.4,1
			c0.5,0.3,0.9,0.7,1.1,1.2C386.2,408.8,386.3,409.3,386.3,409.9z"/>
	</g>
	<g>
		<path class="st1" d="M422.4,446.7l7.2-21.4h37.8l-8.6,27h1l8.3-25.5c0,0,1,4.8,1.6,4.8l-7,23.1c0,0-7.4,24.3-4.6,32.7l-8.2,9.3
			c0,0-1.1,0.9-3.8,0c-2.6-0.9-28.9-10.2-28.9-10.2s-1-2.7-1-3.2l-1.8-19.2l-14.7-5l-1.3-3.4l38.3,9l20.3-12.5L422.4,446.7z
			 M455.8,450.5l7.2-22.9l-31.5-0.3l-6.3,18.6L455.8,450.5z"/>
		<path class="st1" d="M423.9,454.8c-1,0.1-2,0.6-2.3,1.2c-0.3,0.5,0,0.9,0.7,1.1C422.9,456.5,423.4,455.7,423.9,454.8z"/>
		<path class="st1" d="M400.4,455l14.9-6.7l35.9,6.4l-14.6,9L400.4,455z M413.3,451.3c-2.4,0-4.9,1-5.7,2.3c-0.7,1.3,0.6,2.3,3,2.3
			c2.4,0,4.9-1,5.7-2.3C417,452.3,415.7,451.3,413.3,451.3z M414.3,453c-0.4,0.7-1.9,1.3-3.2,1.3c-1.4,0-2.1-0.6-1.7-1.3
			c0.4-0.7,1.9-1.3,3.2-1.3C414,451.7,414.8,452.3,414.3,453z M411.6,452.1c-0.6,0.1-1.1,0.3-1.3,0.7c-0.2,0.3,0,0.5,0.4,0.6
			C411.1,453,411.4,452.6,411.6,452.1z M425.4,454.1c-2.3,0-4.7,1-5.4,2.2c-0.7,1.2,0.6,2.2,2.8,2.2c2.3,0,4.7-1,5.4-2.2
			C428.9,455.1,427.7,454.1,425.4,454.1z"/>
		<path class="st1" d="M423.9,457.1c1-0.1,2-0.6,2.3-1.2c0.3-0.5,0-0.9-0.7-1.1C424.9,455.5,424.3,456.2,423.9,457.1z"/>
	</g>
	<g>
		<path class="st1" d="M520,446.7l7.2-21.4H565l-8.6,27h1l8.3-25.5c0,0,1,4.8,1.6,4.8l-7,23.1c0,0-7.4,24.3-4.6,32.7l-8.2,9.3
			c0,0-1.1,0.9-3.8,0c-2.6-0.9-28.9-10.2-28.9-10.2s-1-2.7-1-3.2L512,464l-14.7-5l-1.3-3.4l38.3,9l20.3-12.5L520,446.7z
			 M553.4,450.5l7.2-22.9l-31.5-0.3l-6.3,18.6L553.4,450.5z"/>
		<path class="st1" d="M521.5,454.8c-1,0.1-2,0.6-2.3,1.2c-0.3,0.5,0,0.9,0.7,1.1C520.5,456.5,521,455.7,521.5,454.8z"/>
		<path class="st1" d="M498,455l14.9-6.7l35.9,6.4l-14.6,9L498,455z M510.9,451.3c-2.4,0-4.9,1-5.7,2.3c-0.7,1.3,0.6,2.3,3,2.3
			c2.4,0,4.9-1,5.7-2.3C514.6,452.3,513.3,451.3,510.9,451.3z M512,453c-0.4,0.7-1.9,1.3-3.2,1.3c-1.4,0-2.1-0.6-1.7-1.3
			c0.4-0.7,1.9-1.3,3.2-1.3C511.6,451.7,512.4,452.3,512,453z M509.2,452.1c-0.6,0.1-1.1,0.3-1.3,0.7c-0.2,0.3,0,0.5,0.4,0.6
			C508.7,453,509,452.6,509.2,452.1z M523,454.1c-2.3,0-4.7,1-5.4,2.2c-0.7,1.2,0.6,2.2,2.8,2.2c2.3,0,4.7-1,5.4-2.2
			C526.5,455.1,525.3,454.1,523,454.1z"/>
		<path class="st1" d="M521.5,457.1c1-0.1,2-0.6,2.3-1.2c0.3-0.5,0-0.9-0.7-1.1C522.5,455.5,521.9,456.2,521.5,457.1z"/>
	</g>
	<g>
		<path class="st1" d="M323.3,446.7l7.2-21.4h37.8l-8.6,27h1l8.3-25.5c0,0,1,4.8,1.6,4.8l-7,23.1c0,0-7.4,24.3-4.6,32.7l-8.2,9.3
			c0,0-1.1,0.9-3.8,0c-2.6-0.9-28.9-10.2-28.9-10.2s-1-2.7-1-3.2l-1.8-19.2l-14.7-5l-1.3-3.4l38.3,9l20.3-12.5L323.3,446.7z
			 M356.7,450.5l7.2-22.9l-31.5-0.3l-6.3,18.6L356.7,450.5z"/>
		<path class="st1" d="M324.8,454.8c-1,0.1-2,0.6-2.3,1.2c-0.3,0.5,0,0.9,0.7,1.1C323.8,456.5,324.3,455.7,324.8,454.8z"/>
		<path class="st1" d="M301.3,455l14.9-6.7l35.9,6.4l-14.6,9L301.3,455z M314.2,451.3c-2.4,0-4.9,1-5.7,2.3c-0.7,1.3,0.6,2.3,3,2.3
			c2.4,0,4.9-1,5.7-2.3C317.9,452.3,316.6,451.3,314.2,451.3z M315.3,453c-0.4,0.7-1.8,1.3-3.2,1.3s-2.1-0.6-1.7-1.3
			c0.4-0.7,1.8-1.3,3.2-1.3C314.9,451.7,315.7,452.3,315.3,453z M312.6,452.1c-0.6,0.1-1.1,0.3-1.3,0.7c-0.2,0.3,0,0.5,0.4,0.6
			C312,453,312.3,452.6,312.6,452.1z M326.3,454.1c-2.3,0-4.7,1-5.4,2.2c-0.7,1.2,0.6,2.2,2.8,2.2c2.3,0,4.7-1,5.4-2.2
			C329.9,455.1,328.6,454.1,326.3,454.1z"/>
		<path class="st1" d="M324.8,457.1c1-0.1,2-0.6,2.3-1.2c0.3-0.5,0-0.9-0.7-1.1C325.8,455.5,325.2,456.2,324.8,457.1z"/>
	</g>
	<path class="st2" d="M357.3,567.6c-73.7,0-142.9-12.9-195.1-36.4c-52.6-23.7-81.6-55.4-81.6-89.3c0-33.9,29-65.6,81.6-89.3
		c52.1-23.5,121.4-36.4,195.1-36.4c73.7,0,142.9,12.9,195.1,36.4c52.6,23.7,81.6,55.4,81.6,89.3c0,33.9-29,65.6-81.6,89.3
		C500.2,554.7,430.9,567.6,357.3,567.6z M357.3,319.9c-150.5,0-272.9,54.7-272.9,122c0,67.3,122.4,122,272.9,122
		c150.5,0,272.9-54.7,272.9-122C630.2,374.6,507.7,319.9,357.3,319.9z"/>
	<g>
		<path class="st1" d="M139.2,462.5l-5-12.4h-0.1c0,0.8,0.1,1.5,0.1,2.3v10h-0.9v-13.4h1.4l4.7,11.8h0.1l4.7-11.8h1.4v13.4h-0.9
			v-10.2c0-0.7,0-1.4,0.1-2.2h-0.1l-5,12.4H139.2z"/>
		<path class="st1" d="M157.5,457.5c0,1.6-0.4,2.9-1.2,3.8c-0.8,0.9-1.9,1.4-3.3,1.4c-0.9,0-1.6-0.2-2.3-0.6c-0.7-0.4-1.2-1-1.5-1.8
			c-0.4-0.8-0.5-1.7-0.5-2.7c0-1.6,0.4-2.9,1.2-3.8s1.9-1.4,3.2-1.4c1.4,0,2.4,0.5,3.2,1.4C157.2,454.7,157.5,455.9,157.5,457.5z
			 M149.7,457.5c0,1.4,0.3,2.4,0.9,3.2s1.5,1.1,2.6,1.1s2-0.4,2.6-1.1s0.9-1.8,0.9-3.2c0-1.4-0.3-2.4-0.9-3.2s-1.5-1.1-2.6-1.1
			s-1.9,0.4-2.5,1.1C150,455.1,149.7,456.1,149.7,457.5z"/>
		<path class="st1" d="M164.5,452.4c1.4,0,2.4,0.4,3.1,1.3s1.1,2.2,1.1,3.8c0,1.7-0.4,2.9-1.1,3.8s-1.8,1.3-3.1,1.3
			c-0.7,0-1.3-0.1-1.9-0.4c-0.6-0.3-1-0.7-1.3-1.2h-0.1l-0.3,1.5h-0.6v-14.3h0.9v3.6c0,0.5,0,1,0,1.5l0,0.8h0.1
			c0.4-0.6,0.8-1,1.4-1.3C163.1,452.5,163.8,452.4,164.5,452.4z M164.5,453.2c-1.2,0-2,0.3-2.5,1c-0.5,0.7-0.8,1.8-0.8,3.3v0.2
			c0,1.5,0.3,2.6,0.8,3.2c0.5,0.7,1.4,1,2.5,1c1.1,0,1.9-0.4,2.5-1.1c0.5-0.8,0.8-1.8,0.8-3.2C167.8,454.6,166.7,453.2,164.5,453.2z
			"/>
		<path class="st1" d="M171.3,449.8c0-0.6,0.2-0.9,0.6-0.9c0.2,0,0.3,0.1,0.4,0.2c0.1,0.2,0.2,0.4,0.2,0.7c0,0.3-0.1,0.5-0.2,0.7
			c-0.1,0.2-0.3,0.2-0.4,0.2C171.5,450.7,171.3,450.4,171.3,449.8z M172.4,462.5h-0.9v-10h0.9V462.5z"/>
		<path class="st1" d="M176.6,462.5h-0.9v-14.3h0.9V462.5z"/>
		<path class="st1" d="M184,462.7c-1.4,0-2.6-0.4-3.4-1.3c-0.8-0.9-1.2-2.1-1.2-3.7c0-1.6,0.4-2.9,1.2-3.8c0.8-1,1.8-1.4,3.2-1.4
			c1.2,0,2.1,0.4,2.8,1.2c0.7,0.8,1,1.9,1,3.3v0.7h-7.2c0,1.4,0.3,2.4,1,3.1c0.6,0.7,1.5,1.1,2.7,1.1c0.6,0,1.1,0,1.5-0.1
			c0.4-0.1,1-0.2,1.6-0.5v0.8c-0.6,0.2-1.1,0.4-1.6,0.5C185.1,462.6,184.6,462.7,184,462.7z M183.7,453.2c-1,0-1.7,0.3-2.3,0.9
			c-0.6,0.6-0.9,1.5-1,2.7h6.2c0-1.2-0.3-2.1-0.8-2.7C185.3,453.5,184.6,453.2,183.7,453.2z"/>
		<path class="st1" d="M127.4,472.3c-1.7,0-3,0.5-4,1.6s-1.4,2.5-1.4,4.4c0,1.9,0.5,3.4,1.4,4.5c0.9,1.1,2.2,1.6,3.9,1.6
			c1.1,0,2.2-0.1,3.1-0.4v0.8c-0.9,0.3-2,0.5-3.3,0.5c-1.9,0-3.4-0.6-4.4-1.8c-1.1-1.2-1.6-2.9-1.6-5.1c0-1.4,0.3-2.6,0.8-3.6
			c0.5-1,1.3-1.8,2.2-2.4s2.1-0.8,3.4-0.8c1.3,0,2.5,0.2,3.5,0.7l-0.4,0.8C129.5,472.5,128.5,472.3,127.4,472.3z"/>
		<path class="st1" d="M141.3,480c0,1.6-0.4,2.9-1.2,3.8c-0.8,0.9-1.9,1.4-3.3,1.4c-0.9,0-1.6-0.2-2.3-0.6c-0.7-0.4-1.2-1-1.5-1.8
			c-0.4-0.8-0.5-1.7-0.5-2.7c0-1.6,0.4-2.9,1.2-3.8s1.9-1.4,3.2-1.4c1.4,0,2.4,0.5,3.2,1.4C141,477.2,141.3,478.4,141.3,480z
			 M133.5,480c0,1.4,0.3,2.4,0.9,3.2s1.5,1.1,2.6,1.1s2-0.4,2.6-1.1s0.9-1.8,0.9-3.2c0-1.4-0.3-2.4-0.9-3.2s-1.5-1.1-2.6-1.1
			s-1.9,0.4-2.5,1.1C133.8,477.6,133.5,478.7,133.5,480z"/>
		<path class="st1" d="M156.6,485v-6.5c0-1-0.2-1.7-0.6-2.1c-0.4-0.4-1-0.7-1.7-0.7c-1,0-1.8,0.3-2.3,0.8c-0.5,0.6-0.7,1.4-0.7,2.6
			v5.8h-0.9v-6.8c0-1.7-0.8-2.5-2.3-2.5c-1,0-1.8,0.3-2.3,0.9c-0.5,0.6-0.7,1.6-0.7,2.9v5.5h-0.9v-10h0.8l0.2,1.4h0.1
			c0.3-0.5,0.7-0.9,1.2-1.1c0.5-0.3,1.1-0.4,1.7-0.4c1.6,0,2.6,0.6,3,1.8h0c0.3-0.6,0.8-1,1.3-1.3c0.5-0.3,1.2-0.5,1.9-0.5
			c1.1,0,1.9,0.3,2.4,0.9c0.5,0.6,0.8,1.5,0.8,2.8v6.5H156.6z"/>
		<path class="st1" d="M164.9,485.2c-1.5,0-2.7-0.6-3.4-1.7h-0.1l0,0.8c0,0.5,0,0.9,0,1.5v3.8h-0.9v-14.5h0.8l0.2,1.4h0.1
			c0.7-1.1,1.8-1.6,3.3-1.6c1.3,0,2.4,0.4,3.1,1.3s1.1,2.2,1.1,3.9c0,1.6-0.4,2.9-1.1,3.8C167.2,484.8,166.2,485.2,164.9,485.2z
			 M164.9,484.4c1,0,1.8-0.4,2.4-1.1c0.6-0.8,0.8-1.8,0.8-3.2c0-2.9-1.1-4.4-3.2-4.4c-1.2,0-2,0.3-2.6,1c-0.5,0.6-0.8,1.7-0.8,3.1
			v0.3c0,1.6,0.3,2.7,0.8,3.3C162.9,484.1,163.7,484.4,164.9,484.4z"/>
		<path class="st1" d="M172.6,475.1v6.5c0,1,0.2,1.7,0.6,2.2s1.1,0.7,2,0.7c1.2,0,2.1-0.3,2.6-0.9c0.6-0.6,0.8-1.6,0.8-2.9v-5.5h0.9
			v10h-0.8l-0.2-1.4h-0.1c-0.6,1-1.8,1.6-3.5,1.6c-2.3,0-3.4-1.2-3.4-3.6v-6.5H172.6z"/>
		<path class="st1" d="M185.5,484.4c0.6,0,1.1,0,1.5-0.1v0.7c-0.4,0.1-0.9,0.2-1.5,0.2c-0.9,0-1.5-0.2-1.9-0.7
			c-0.4-0.5-0.6-1.2-0.6-2.2v-6.4h-1.5v-0.5l1.5-0.4l0.5-2.3h0.5v2.4h2.9v0.8h-2.9v6.3c0,0.8,0.1,1.3,0.4,1.7
			C184.5,484.2,185,484.4,185.5,484.4z"/>
		<path class="st1" d="M193.2,485.2c-1.4,0-2.6-0.4-3.4-1.3c-0.8-0.9-1.2-2.1-1.2-3.7c0-1.6,0.4-2.9,1.2-3.8c0.8-1,1.8-1.4,3.2-1.4
			c1.2,0,2.1,0.4,2.8,1.2c0.7,0.8,1,1.9,1,3.3v0.7h-7.2c0,1.4,0.3,2.4,1,3.1c0.6,0.7,1.5,1.1,2.7,1.1c0.6,0,1.1,0,1.5-0.1
			c0.4-0.1,1-0.2,1.6-0.5v0.8c-0.6,0.2-1.1,0.4-1.6,0.5C194.3,485.2,193.8,485.2,193.2,485.2z M193,475.7c-1,0-1.7,0.3-2.3,0.9
			c-0.6,0.6-0.9,1.5-1,2.7h6.2c0-1.2-0.3-2.1-0.8-2.7C194.5,476,193.8,475.7,193,475.7z"/>
		<path class="st1" d="M203.4,474.9c0.4,0,0.9,0,1.4,0.1l-0.2,0.9c-0.4-0.1-0.8-0.2-1.3-0.2c-0.8,0-1.5,0.4-2.1,1.1
			c-0.5,0.7-0.8,1.6-0.8,2.7v5.5h-0.9v-10h0.8l0.1,1.8h0.1c0.4-0.7,0.8-1.2,1.3-1.5C202.2,475,202.8,474.9,203.4,474.9z"/>
		<path class="st1" d="M145.7,501.7v5.8h-0.9v-13.4h3.2c1.7,0,2.9,0.3,3.7,0.9c0.8,0.6,1.2,1.5,1.2,2.8c0,0.9-0.2,1.7-0.7,2.3
			c-0.5,0.6-1.2,1.1-2.2,1.3l3.6,6.1h-1.1l-3.5-5.8H145.7z M145.7,500.9h2.6c1.1,0,2-0.3,2.6-0.8c0.6-0.5,0.9-1.2,0.9-2.2
			c0-1-0.3-1.8-0.9-2.2c-0.6-0.5-1.6-0.7-3-0.7h-2.2V500.9z"/>
		<path class="st1" d="M161.8,507.5l-0.2-1.6h-0.1c-0.5,0.6-1,1.1-1.5,1.4c-0.5,0.3-1.2,0.4-1.9,0.4c-1,0-1.7-0.3-2.3-0.8
			c-0.5-0.5-0.8-1.2-0.8-2.1c0-1,0.4-1.7,1.2-2.3c0.8-0.5,2-0.8,3.5-0.9l1.9-0.1v-0.7c0-0.9-0.2-1.7-0.6-2.1s-1-0.7-1.9-0.7
			c-0.9,0-1.9,0.3-2.9,0.8l-0.3-0.8c1.1-0.5,2.2-0.8,3.2-0.8c1.1,0,1.9,0.3,2.5,0.9c0.5,0.6,0.8,1.5,0.8,2.7v6.6H161.8z
			 M158.1,506.9c1.1,0,1.9-0.3,2.5-0.9s0.9-1.5,0.9-2.5v-1l-1.7,0.1c-1.4,0.1-2.4,0.3-3,0.7s-0.9,0.9-0.9,1.7c0,0.6,0.2,1.1,0.6,1.5
			S157.4,506.9,158.1,506.9z"/>
		<path class="st1" d="M169.7,507.7c-1.4,0-2.5-0.4-3.3-1.3c-0.8-0.9-1.2-2.2-1.2-3.8c0-1.6,0.4-2.9,1.3-3.9c0.8-0.9,2-1.4,3.4-1.4
			c0.9,0,1.7,0.1,2.5,0.4l-0.2,0.8c-0.9-0.3-1.6-0.4-2.2-0.4c-1.2,0-2.1,0.4-2.8,1.1c-0.6,0.8-0.9,1.8-0.9,3.3
			c0,1.3,0.3,2.4,0.9,3.2c0.6,0.8,1.5,1.1,2.6,1.1c0.9,0,1.7-0.2,2.5-0.5v0.8C171.5,507.6,170.7,507.7,169.7,507.7z"/>
		<path class="st1" d="M175.5,503.2l5.1-5.6h1.1l-3.9,4.3l4.3,5.7h-1.1l-3.8-5l-1.6,1.5v3.5h-0.9v-14.3h0.9v7.1L175.5,503.2
			L175.5,503.2z"/>
	</g>
	<g>
		<g>
			<path class="st1" d="M129.3,405.2h54v24.1h-54V405.2z M134.8,424.6h29.7l-0.2-9.8h1.7l0.2,9.8h1.8v-9.8h1.5l0,9.8h2.2l0.2-9.8
				l1.7,0v9.8h4.3V410h-43V424.6z M137.8,414h12.5v4.8h-12.5V414z"/>
		</g>
		<polygon class="st27" points="183.2,404.9 197.9,393.2 197.9,414.3 183.2,429.4 		"/>
		<polygon class="st28" points="129.3,405.2 183.3,405.2 197.9,393.2 152,393.2 		"/>
	</g>
	<g>
		<path class="st1" d="M695.5,137.6h-0.9l-7.9-11.9h-0.1c0.1,1.4,0.1,2.5,0.1,3.2v8.7h-0.9v-13.4h0.9l7.9,11.9h0.1
			c-0.1-1.1-0.1-2.1-0.1-3.1v-8.7h0.9V137.6z"/>
		<path class="st1" d="M705.8,132.9h-5.4l-1.9,4.7h-1l5.4-13.5h0.6l5.3,13.5h-1.1L705.8,132.9z M700.7,132h4.8l-1.8-4.8
			c-0.2-0.4-0.3-0.9-0.5-1.6c-0.2,0.6-0.3,1.1-0.5,1.6L700.7,132z"/>
		<path class="st1" d="M718.5,124.2h1l-5,13.4h-0.8l-5-13.4h1l3.4,9.1c0.5,1.4,0.9,2.4,1,3.1c0.1-0.5,0.4-1.2,0.7-2.1L718.5,124.2z"
			/>
		<path class="st1" d="M721.4,137.6v-13.4h0.9v13.4H721.4z"/>
		<path class="st1" d="M731.4,130.9h4.9v6.1c-1.3,0.5-2.8,0.8-4.4,0.8c-2.1,0-3.7-0.6-4.9-1.8c-1.1-1.2-1.7-2.9-1.7-5.1
			c0-1.4,0.3-2.6,0.8-3.6c0.6-1.1,1.4-1.9,2.4-2.4c1-0.6,2.2-0.9,3.6-0.9c1.5,0,2.8,0.3,3.9,0.8l-0.4,0.8c-1.2-0.5-2.4-0.8-3.6-0.8
			c-1.8,0-3.2,0.5-4.2,1.6c-1,1.1-1.6,2.6-1.6,4.4c0,2,0.5,3.5,1.5,4.5c1,1,2.4,1.5,4.3,1.5c1.2,0,2.3-0.2,3.1-0.5v-4.7h-4V130.9z"
			/>
		<path class="st1" d="M746.2,132.9h-5.4l-1.9,4.7h-1l5.4-13.5h0.6l5.3,13.5H748L746.2,132.9z M741.1,132h4.8l-1.8-4.8
			c-0.2-0.4-0.3-0.9-0.5-1.6c-0.2,0.6-0.3,1.1-0.5,1.6L741.1,132z"/>
		<path class="st1" d="M754.5,137.6h-0.9v-12.5h-4.4v-0.9h9.6v0.9h-4.4V137.6z"/>
		<path class="st1" d="M760.8,137.6v-13.4h0.9v13.4H760.8z"/>
		<path class="st1" d="M776.8,130.9c0,2.1-0.5,3.8-1.6,5c-1.1,1.2-2.5,1.9-4.4,1.9c-1.9,0-3.3-0.6-4.4-1.9c-1.1-1.2-1.6-2.9-1.6-5.1
			c0-2.1,0.5-3.8,1.6-5s2.5-1.8,4.4-1.8c1.9,0,3.3,0.6,4.4,1.8S776.8,128.8,776.8,130.9z M765.9,130.9c0,1.9,0.4,3.4,1.3,4.4
			c0.9,1,2.1,1.6,3.7,1.6c1.6,0,2.8-0.5,3.7-1.6c0.9-1,1.3-2.5,1.3-4.5c0-1.9-0.4-3.4-1.3-4.4c-0.9-1-2.1-1.5-3.7-1.5
			c-1.6,0-2.8,0.5-3.7,1.6C766.3,127.5,765.9,129,765.9,130.9z"/>
		<path class="st1" d="M789.6,137.6h-0.9l-7.9-11.9h-0.1c0.1,1.4,0.1,2.5,0.1,3.2v8.7h-0.9v-13.4h0.9l7.9,11.9h0.1
			c-0.1-1.1-0.1-2.1-0.1-3.1v-8.7h0.9V137.6z"/>
		<path class="st1" d="M713.6,156.7c0,1.1-0.4,2-1.2,2.7c-0.8,0.7-1.9,1-3.3,1c-1.6,0-2.9-0.2-3.8-0.5v-0.9c1,0.4,2.2,0.6,3.7,0.6
			c1.1,0,2-0.3,2.6-0.8s1-1.2,1-2c0-0.5-0.1-0.9-0.3-1.3s-0.6-0.6-1-0.9c-0.5-0.3-1.2-0.6-2.1-0.9c-1.4-0.5-2.3-1-2.8-1.5
			s-0.8-1.3-0.8-2.2c0-1,0.4-1.8,1.2-2.5s1.8-0.9,3-0.9c1.3,0,2.4,0.2,3.5,0.7l-0.3,0.8c-1.1-0.5-2.2-0.7-3.2-0.7
			c-1,0-1.8,0.2-2.4,0.7c-0.6,0.5-0.9,1.1-0.9,1.9c0,0.5,0.1,0.9,0.3,1.2c0.2,0.3,0.5,0.6,0.9,0.9s1.1,0.6,2.1,0.9
			c1,0.4,1.8,0.7,2.4,1s0.9,0.7,1.2,1.2C713.5,155.5,713.6,156.1,713.6,156.7z"/>
		<path class="st1" d="M719.6,154.1l3.9-7.3h1l-4.5,8.2v5.2h-1V155l-4.5-8.3h1.1L719.6,154.1z"/>
		<path class="st1" d="M733.8,156.7c0,1.1-0.4,2-1.2,2.7c-0.8,0.7-1.9,1-3.3,1c-1.6,0-2.9-0.2-3.8-0.5v-0.9c1,0.4,2.2,0.6,3.7,0.6
			c1.1,0,2-0.3,2.6-0.8s1-1.2,1-2c0-0.5-0.1-0.9-0.3-1.3s-0.6-0.6-1-0.9c-0.5-0.3-1.2-0.6-2.1-0.9c-1.4-0.5-2.3-1-2.8-1.5
			s-0.8-1.3-0.8-2.2c0-1,0.4-1.8,1.2-2.5s1.8-0.9,3-0.9c1.3,0,2.4,0.2,3.5,0.7l-0.3,0.8c-1.1-0.5-2.2-0.7-3.2-0.7
			c-1,0-1.8,0.2-2.4,0.7c-0.6,0.5-0.9,1.1-0.9,1.9c0,0.5,0.1,0.9,0.3,1.2c0.2,0.3,0.5,0.6,0.9,0.9s1.1,0.6,2.1,0.9
			c1,0.4,1.8,0.7,2.4,1s0.9,0.7,1.2,1.2C733.7,155.5,733.8,156.1,733.8,156.7z"/>
		<path class="st1" d="M740.1,160.1h-0.9v-12.5h-4.4v-0.9h9.6v0.9h-4.4V160.1z"/>
		<path class="st1" d="M753.8,160.1h-7.3v-13.4h7.3v0.9h-6.4v5.1h6v0.9h-6v5.7h6.4V160.1z"/>
		<path class="st1" d="M762.7,160.1l-5-12.4h-0.1c0,0.8,0.1,1.5,0.1,2.3v10h-0.9v-13.4h1.4l4.7,11.8h0.1l4.7-11.8h1.4v13.4h-0.9V150
			c0-0.7,0-1.4,0.1-2.2h-0.1l-5,12.4H762.7z"/>
	</g>
	<rect x="734.8" y="171.3" class="st2" width="4.2" height="528.8"/>
	<g>
		<path class="st1" d="M875.3,255.8h4.9v6.1c-1.3,0.5-2.8,0.8-4.4,0.8c-2.1,0-3.7-0.6-4.9-1.8c-1.1-1.2-1.7-2.9-1.7-5.1
			c0-1.4,0.3-2.6,0.8-3.6c0.6-1.1,1.4-1.9,2.4-2.4c1-0.6,2.2-0.9,3.6-0.9c1.5,0,2.8,0.3,3.9,0.8l-0.4,0.8c-1.2-0.5-2.4-0.8-3.6-0.8
			c-1.8,0-3.2,0.5-4.2,1.6c-1,1.1-1.6,2.6-1.6,4.4c0,2,0.5,3.5,1.5,4.5c1,1,2.4,1.5,4.3,1.5c1.2,0,2.3-0.2,3.1-0.5v-4.7h-4V255.8z"
			/>
		<path class="st1" d="M886.6,256.4l3.9-7.3h1l-4.5,8.2v5.2h-1v-5.1l-4.5-8.3h1.1L886.6,256.4z"/>
		<path class="st1" d="M894.4,256.7v5.8h-0.9v-13.4h3.2c1.7,0,2.9,0.3,3.7,0.9c0.8,0.6,1.2,1.5,1.2,2.8c0,0.9-0.2,1.7-0.7,2.3
			c-0.5,0.6-1.2,1.1-2.2,1.3l3.6,6.1h-1.1l-3.5-5.8H894.4z M894.4,255.9h2.6c1.1,0,2-0.3,2.6-0.8s0.9-1.2,0.9-2.2
			c0-1-0.3-1.8-0.9-2.2c-0.6-0.5-1.6-0.7-3-0.7h-2.2V255.9z"/>
		<path class="st1" d="M915.9,255.8c0,2.1-0.5,3.8-1.6,5c-1.1,1.2-2.5,1.9-4.4,1.9c-1.9,0-3.3-0.6-4.4-1.9c-1.1-1.2-1.6-2.9-1.6-5.1
			c0-2.1,0.5-3.8,1.6-5s2.5-1.8,4.4-1.8c1.9,0,3.3,0.6,4.4,1.8S915.9,253.7,915.9,255.8z M904.9,255.8c0,1.9,0.4,3.4,1.3,4.4
			c0.9,1,2.1,1.6,3.7,1.6c1.6,0,2.8-0.5,3.7-1.6c0.9-1,1.3-2.5,1.3-4.5c0-1.9-0.4-3.4-1.3-4.4c-0.9-1-2.1-1.5-3.7-1.5
			c-1.6,0-2.8,0.5-3.7,1.6C905.4,252.4,904.9,253.9,904.9,255.8z"/>
	</g>
	<g>
		<path class="st1" d="M870,337.9v-13.4h0.9V337h6.4v0.9H870z"/>
		<path class="st1" d="M890.9,331.2c0,2.1-0.5,3.8-1.6,5c-1.1,1.2-2.5,1.9-4.4,1.9c-1.9,0-3.3-0.6-4.4-1.9c-1.1-1.2-1.6-2.9-1.6-5.1
			c0-2.1,0.5-3.8,1.6-5s2.5-1.8,4.4-1.8c1.9,0,3.3,0.6,4.4,1.8S890.9,329.1,890.9,331.2z M879.9,331.2c0,1.9,0.4,3.4,1.3,4.4
			c0.9,1,2.1,1.6,3.7,1.6c1.6,0,2.8-0.5,3.7-1.6c0.9-1,1.3-2.5,1.3-4.5c0-1.9-0.4-3.4-1.3-4.4c-0.9-1-2.1-1.5-3.7-1.5
			c-1.6,0-2.8,0.5-3.7,1.6C880.4,327.8,879.9,329.3,879.9,331.2z"/>
		<path class="st1" d="M899.2,331.1h4.9v6.1c-1.3,0.5-2.8,0.8-4.4,0.8c-2.1,0-3.7-0.6-4.9-1.8c-1.1-1.2-1.7-2.9-1.7-5.1
			c0-1.4,0.3-2.6,0.8-3.6c0.6-1.1,1.4-1.9,2.4-2.4c1-0.6,2.2-0.9,3.6-0.9c1.5,0,2.8,0.3,3.9,0.8l-0.4,0.8c-1.2-0.5-2.4-0.8-3.6-0.8
			c-1.8,0-3.2,0.5-4.2,1.6c-1,1.1-1.6,2.6-1.6,4.4c0,2,0.5,3.5,1.5,4.5c1,1,2.4,1.5,4.3,1.5c1.2,0,2.3-0.2,3.1-0.5V332h-4V331.1z"/>
	</g>
	<g>
		<path class="st1" d="M875.3,394.7h4.9v6.1c-1.3,0.5-2.8,0.8-4.4,0.8c-2.1,0-3.7-0.6-4.9-1.8c-1.1-1.2-1.7-2.9-1.7-5.1
			c0-1.4,0.3-2.6,0.8-3.6c0.6-1.1,1.4-1.9,2.4-2.4c1-0.6,2.2-0.9,3.6-0.9c1.5,0,2.8,0.3,3.9,0.8l-0.4,0.8c-1.2-0.5-2.4-0.8-3.6-0.8
			c-1.8,0-3.2,0.5-4.2,1.6c-1,1.1-1.6,2.6-1.6,4.4c0,2,0.5,3.5,1.5,4.5c1,1,2.4,1.5,4.3,1.5c1.2,0,2.3-0.2,3.1-0.5v-4.7h-4V394.7z"
			/>
		<path class="st1" d="M891.6,391.9c0,1.3-0.4,2.3-1.3,3s-2.1,1-3.7,1h-2.1v5.5h-0.9v-13.4h3.3C890,388.1,891.6,389.3,891.6,391.9z
			 M884.5,395.1h1.8c1.5,0,2.6-0.2,3.3-0.7c0.7-0.5,1-1.3,1-2.4c0-1-0.3-1.8-1-2.3c-0.6-0.5-1.6-0.7-3-0.7h-2.2V395.1z"/>
		<path class="st1" d="M901.9,398c0,1.1-0.4,2-1.2,2.7c-0.8,0.7-1.9,1-3.3,1c-1.6,0-2.9-0.2-3.8-0.5v-0.9c1,0.4,2.2,0.6,3.7,0.6
			c1.1,0,2-0.3,2.6-0.8s1-1.2,1-2c0-0.5-0.1-0.9-0.3-1.3s-0.6-0.6-1-0.9c-0.5-0.3-1.2-0.6-2.1-0.9c-1.4-0.5-2.3-1-2.8-1.5
			s-0.8-1.3-0.8-2.2c0-1,0.4-1.8,1.2-2.5s1.8-0.9,3-0.9c1.3,0,2.4,0.2,3.5,0.7l-0.3,0.8c-1.1-0.5-2.2-0.7-3.2-0.7
			c-1,0-1.8,0.2-2.4,0.7c-0.6,0.5-0.9,1.1-0.9,1.9c0,0.5,0.1,0.9,0.3,1.2c0.2,0.3,0.5,0.6,0.9,0.9s1.1,0.6,2.1,0.9
			c1,0.4,1.8,0.7,2.4,1s0.9,0.7,1.2,1.2C901.8,396.9,901.9,397.4,901.9,398z"/>
		<path class="st1" d="M909,388.1l-5,13.4h-1l5-13.4H909z"/>
		<path class="st1" d="M873.5,424h-0.9v-12.5h-4.4v-0.9h9.6v0.9h-4.4V424z"/>
		<path class="st1" d="M879.8,424v-13.4h0.9V424H879.8z"/>
		<path class="st1" d="M890.4,424l-5-12.4h-0.1c0,0.8,0.1,1.5,0.1,2.3v10h-0.9v-13.4h1.4l4.7,11.8h0.1l4.7-11.8h1.4V424H896v-10.2
			c0-0.7,0-1.4,0.1-2.2h-0.1l-5,12.4H890.4z"/>
		<path class="st1" d="M900.7,424v-13.4h0.9V424H900.7z"/>
		<path class="st1" d="M915.2,424h-0.9l-7.9-11.9h-0.1c0.1,1.4,0.1,2.5,0.1,3.2v8.7h-0.9v-13.4h0.9l7.9,11.9h0.1
			c-0.1-1.1-0.1-2.1-0.1-3.1v-8.7h0.9V424z"/>
		<path class="st1" d="M924.3,417.2h4.9v6.1c-1.3,0.5-2.8,0.8-4.4,0.8c-2.1,0-3.7-0.6-4.9-1.8c-1.1-1.2-1.7-2.9-1.7-5.1
			c0-1.4,0.3-2.6,0.8-3.6c0.6-1.1,1.4-1.9,2.4-2.4c1-0.6,2.2-0.9,3.6-0.9c1.5,0,2.8,0.3,3.9,0.8l-0.4,0.8c-1.2-0.5-2.4-0.8-3.6-0.8
			c-1.8,0-3.2,0.5-4.2,1.6c-1,1.1-1.6,2.6-1.6,4.4c0,2,0.5,3.5,1.5,4.5c1,1,2.4,1.5,4.3,1.5c1.2,0,2.3-0.2,3.1-0.5v-4.7h-4V417.2z"
			/>
	</g>
	<g>
		<path class="st1" d="M882,478.3h-0.8l-2.9-10.3c-0.2-0.8-0.4-1.5-0.5-2.1c-0.1,0.5-0.2,1.1-0.4,1.8c-0.2,0.7-1.2,4.2-3,10.6h-0.8
			l-3.7-13.4h1l2.3,8.6c0.1,0.3,0.2,0.7,0.3,1c0.1,0.3,0.2,0.6,0.2,0.8c0.1,0.3,0.1,0.5,0.2,0.8s0.1,0.5,0.1,0.7
			c0.1-0.8,0.5-2.1,0.9-3.8l2.3-8.1h1l2.7,9.3c0.3,1.1,0.5,1.9,0.7,2.6c0.1-0.4,0.2-0.9,0.3-1.4c0.1-0.5,1.1-4,2.8-10.5h0.9
			L882,478.3z"/>
		<path class="st1" d="M888.1,478.3v-13.4h0.9v13.4H888.1z"/>
		<path class="st1" d="M902.5,478.3h-0.9l-7.9-11.9h-0.1c0.1,1.4,0.1,2.5,0.1,3.2v8.7h-0.9v-13.4h0.9l7.9,11.9h0.1
			c-0.1-1.1-0.1-2.1-0.1-3.1v-8.7h0.9V478.3z"/>
		<path class="st1" d="M916.5,471.5c0,2.2-0.6,3.9-1.8,5.1c-1.2,1.2-2.9,1.7-5.2,1.7h-3.2v-13.4h3.6c2.1,0,3.8,0.6,4.9,1.7
			C916,467.7,916.5,469.3,916.5,471.5z M915.5,471.5c0-1.9-0.5-3.4-1.5-4.3c-1-1-2.4-1.5-4.3-1.5h-2.5v11.7h2.2
			C913.5,477.5,915.5,475.5,915.5,471.5z"/>
		<path class="st1" d="M923.9,464.9l-5,13.4h-1l5-13.4H923.9z"/>
		<path class="st1" d="M877.2,500.8l-5-12.4h-0.1c0,0.8,0.1,1.5,0.1,2.3v10h-0.9v-13.4h1.4l4.7,11.8h0.1l4.7-11.8h1.4v13.4h-0.9
			v-10.2c0-0.7,0-1.4,0.1-2.2h-0.1l-5,12.4H877.2z"/>
		<path class="st1" d="M894.8,500.8h-7.3v-13.4h7.3v0.9h-6.4v5.1h6v0.9h-6v5.7h6.4V500.8z"/>
		<path class="st1" d="M901.4,500.8h-0.9v-12.5h-4.4v-0.9h9.6v0.9h-4.4V500.8z"/>
		<path class="st1" d="M915.1,497.4c0,1.1-0.4,2-1.2,2.7c-0.8,0.7-1.9,1-3.3,1c-1.6,0-2.9-0.2-3.8-0.5v-0.9c1,0.4,2.2,0.6,3.7,0.6
			c1.1,0,2-0.3,2.6-0.8s1-1.2,1-2c0-0.5-0.1-0.9-0.3-1.3s-0.6-0.6-1-0.9c-0.5-0.3-1.2-0.6-2.1-0.9c-1.4-0.5-2.3-1-2.8-1.5
			s-0.8-1.3-0.8-2.2c0-1,0.4-1.8,1.2-2.5s1.8-0.9,3-0.9c1.3,0,2.4,0.2,3.5,0.7l-0.3,0.8c-1.1-0.5-2.2-0.7-3.2-0.7
			c-1,0-1.8,0.2-2.4,0.7c-0.6,0.5-0.9,1.1-0.9,1.9c0,0.5,0.1,0.9,0.3,1.2c0.2,0.3,0.5,0.6,0.9,0.9s1.1,0.6,2.1,0.9
			c1,0.4,1.8,0.7,2.4,1s0.9,0.7,1.2,1.2C915,496.2,915.1,496.8,915.1,497.4z"/>
	</g>
	<g id="eFXsQX_3_">
		<g>
			<path class="st29" d="M821.9,465.9C821.8,465.8,822.1,466.1,821.9,465.9L821.9,465.9z"/>
			<path class="st29" d="M843.4,466.1C843.3,466,843.6,466.3,843.4,466.1L843.4,466.1z"/>
			<path class="st29" d="M821.7,487.6C821.6,487.5,821.8,487.8,821.7,487.6L821.7,487.6z"/>
			<path class="st29" d="M821.4,493C821.3,492.9,821.6,493.2,821.4,493L821.4,493z"/>
			<path class="st29" d="M822.2,501.2C822.1,501.1,822.3,501.3,822.2,501.2L822.2,501.2z"/>
			<path class="st29" d="M812.8,504.6C812.7,504.5,813,504.8,812.8,504.6L812.8,504.6z"/>
			<path class="st29" d="M813.1,517.7C812.9,517.6,813.2,517.9,813.1,517.7L813.1,517.7z"/>
			<path class="st29" d="M821.9,519.2C821.8,519.1,822.1,519.3,821.9,519.2L821.9,519.2z"/>
			<path class="st29" d="M833.5,493c4.6,2.2,5.1,10.1-0.7,10.6c-1.4,0.1-2.1-0.2-3.2-0.7c-2.5,1.8-5.2,3.5-7.4,5.7
				c-0.2,3.2,0.5,7.2-0.5,9.6c-1.8,1.5-5.7,1.1-7.6,0c-1.6-3.8-0.4-10.3-0.7-15.3c1.4-1.3,1.1-4.3,1.5-6.7c-1.9,0-3.2,0.6-5.2,0.5
				c-0.9,1.4-2,4-2.7,4.9c-1.3,0.9-4.8,1.5-6.7,0.2c-5.6-3.8,0.9-13.8,7.4-8.6c0.6,0.6,0.7,1.8,1.5,2.2c2.4-0.3,4.4-0.9,6.7-1.2
				c1.1-2.1-0.1-6.5,1-8.6c5.3-0.7,7.3,6.8,2.7,8.4c1.2,1.1,4.9,1.4,6.9,2.5c1.3-1.6,2.1-3.7,4.9-3.7c1.1-4.6,0.5-11-2.7-12.8
				c-1.1-0.4-2.9-0.3-3.9,0c-0.5,1.1-0.7,1-2.5,1.5c-0.1,1,0.2,2.4-0.2,3c-1.5,1.1-5.6,0.6-6.9,1c0-0.5-1.1-0.9-1.7-1.5
				c-0.2-2.2,0.3-5.1-0.2-6.9c1.3-1.6,1.4-4.4,1.5-7.2c-2.5-0.4-6.4,1.1-9.1,0.5c-0.6-0.6-0.6-2.3-0.2-3.2c3.5-0.7,7.8-0.6,11.3-1.2
				c0.9,0.2,0.2-1.1,1-1c0.8,1.5,3,0.2,4.2,1.5c5.5-0.5,10.9-1.1,16.5-1.5c1.3-6.3,1.7-13.4,3-19.7c0.6,0.1,0.9,0.4,1.7,0.2
				c0.5,9.8,0.3,19.1-0.2,27.9c-0.4,0.2-1.2,0.1-1.5,0.5c-1.5-2-1.9-5-2.7-7.6c-5.2,0.8-10.9,1.3-16.5,1.7c-0.7,0.1-0.4,1.3-1.5,1
				c0.5,3.7,0,8.8,3.5,8.9c-0.3-0.5,2.6-0.6,4.2-0.5c4.6,1.5,6.3,6.6,5.9,13.6C834,491.6,834,492.5,833.5,493z M807.1,467.6
				C807.3,467.8,807,467.5,807.1,467.6L807.1,467.6z M832.8,493.5C832.9,493.7,832.7,493.4,832.8,493.5L832.8,493.5z M830.1,496.2
				c0.8-0.1,0.9,0.4,1.7,0.2c-0.2-0.8,0.8-0.3,0.7-1C832.1,494,829.8,494.4,830.1,496.2z M801.5,497.5c0.3,0,0.7,0,1,0
				c0-0.5-0.2-0.8-0.5-1C801.8,496.9,801.2,496.7,801.5,497.5z M820.7,496.5c-0.3,3.3,0.9,5.1,1.5,7.4c1.2,0.4,5-2,5.2-3
				c-0.3-1.3-0.9-2.3-1.5-3.5C824.2,497.7,823,496.8,820.7,496.5z M833.8,499.2c0.7-0.3,0.5-1.3,0.2-2c-0.3,0-0.7,0-1,0
				C832.6,497.7,832.5,499.6,833.8,499.2z"/>
		</g>
	</g>
	<g>
		<path class="st30" d="M797.3,383.2l10.9-10.4l12.5,13.1c0,0,2.1,6.6,2.5,8.5l-4.9,4.7c0,0-3.8-0.7-8.5-2.7L797.3,383.2z"/>
		<path class="st30" d="M858,424.8l-10.9,10.4l-12.5-13.1c0,0-2.1-6.6-2.5-8.5l4.9-4.7c0,0,3.8,0.7,8.5,2.7L858,424.8z"/>
		<path d="M818,404.7c0,0,7.2,1.4,8.6,9l13.6-12.3c0,0,1.3-1.3-0.6-4.6c-1.1-1.9-4.5-4.7-4.5-4.7s-2.9-2-4.7-0.9L818,404.7z"/>
		<path d="M821.1,409.9c-2.9-3-7.6-3.2-10.7-0.4l10.7,11.2C824,417.7,824,413,821.1,409.9z"/>
		<path class="st31" d="M801.1,406.1c-4.9,13.4,7.1,27,22.4,24.3"/>
		<path class="st31" d="M794.9,421.4c1.1,9.1,7.9,14.2,15,14.9"/>
	</g>
	<g>
		<path class="st1" d="M877.1,543.8c-1.7,0-3,0.5-4,1.6c-1,1.1-1.4,2.5-1.4,4.4c0,1.9,0.5,3.4,1.4,4.5c0.9,1.1,2.2,1.6,3.9,1.6
			c1.1,0,2.2-0.1,3.1-0.4v0.8c-0.9,0.3-2,0.5-3.3,0.5c-1.9,0-3.4-0.6-4.4-1.8s-1.6-2.9-1.6-5.1c0-1.4,0.3-2.6,0.8-3.6
			c0.5-1,1.3-1.8,2.2-2.4c1-0.6,2.1-0.8,3.4-0.8c1.3,0,2.5,0.2,3.5,0.7l-0.4,0.8C879.2,544,878.1,543.8,877.1,543.8z"/>
		<path class="st1" d="M888.7,543.8c-1.7,0-3,0.5-4,1.6c-1,1.1-1.4,2.5-1.4,4.4c0,1.9,0.5,3.4,1.4,4.5c0.9,1.1,2.2,1.6,3.9,1.6
			c1.1,0,2.2-0.1,3.1-0.4v0.8c-0.9,0.3-2,0.5-3.3,0.5c-1.9,0-3.4-0.6-4.4-1.8s-1.6-2.9-1.6-5.1c0-1.4,0.3-2.6,0.8-3.6
			c0.5-1,1.3-1.8,2.2-2.4c1-0.6,2.1-0.8,3.4-0.8c1.3,0,2.5,0.2,3.5,0.7l-0.4,0.8C890.8,544,889.8,543.8,888.7,543.8z"/>
		<path class="st1" d="M898.1,556.5h-0.9V544h-4.4v-0.9h9.6v0.9h-4.4V556.5z"/>
		<path class="st1" d="M912.4,543.1h1l-5,13.4h-0.8l-5-13.4h1l3.4,9.1c0.5,1.4,0.9,2.4,1,3.1c0.1-0.5,0.4-1.2,0.7-2.1L912.4,543.1z"
			/>
		<path class="st1" d="M919.6,543.1l-5,13.4h-1l5-13.4H919.6z"/>
		<path class="st1" d="M874.8,579h-0.9v-12.5h-4.4v-0.9h9.6v0.9h-4.4V579z"/>
		<path class="st1" d="M890.9,579h-0.9v-6.6h-7.8v6.6h-0.9v-13.4h0.9v5.9h7.8v-5.9h0.9V579z"/>
		<path class="st1" d="M902,579h-7.3v-13.4h7.3v0.9h-6.4v5.1h6v0.9h-6v5.7h6.4V579z"/>
		<path class="st1" d="M906,573.2v5.8H905v-13.4h3.2c1.7,0,2.9,0.3,3.7,0.9c0.8,0.6,1.2,1.5,1.2,2.8c0,0.9-0.2,1.7-0.7,2.3
			c-0.5,0.6-1.2,1.1-2.2,1.3l3.6,6.1h-1.1l-3.5-5.8H906z M906,572.4h2.6c1.1,0,2-0.3,2.6-0.8s0.9-1.2,0.9-2.2c0-1-0.3-1.8-0.9-2.2
			c-0.6-0.5-1.6-0.7-3-0.7H906V572.4z"/>
		<path class="st1" d="M922.1,579l-5-12.4H917c0,0.8,0.1,1.5,0.1,2.3v10h-0.9v-13.4h1.4l4.7,11.8h0.1l4.7-11.8h1.4V579h-0.9v-10.2
			c0-0.7,0-1.4,0.1-2.2h-0.1l-5,12.4H922.1z"/>
		<path class="st1" d="M938.8,574.3h-5.4l-1.9,4.7h-1l5.4-13.5h0.6l5.3,13.5h-1.1L938.8,574.3z M933.7,573.5h4.8l-1.8-4.8
			c-0.2-0.4-0.3-0.9-0.5-1.6c-0.2,0.6-0.3,1.1-0.5,1.6L933.7,573.5z"/>
		<path class="st1" d="M943.6,579v-13.4h0.9v12.5h6.4v0.9H943.6z"/>
	</g>
	<g>
		<polygon class="st1" points="799.8,558 802.7,537.8 844.4,545.7 834.4,563.6 		"/>
		<path class="st1" d="M837.8,562l5.2-9.8l9.2,1.7c0,0,0,6.3-3.3,9.6L837.8,562z"/>
		<path class="st1" d="M815.5,580.9v-13.8c0,0-6.4-1.3-7.3-7.9l19.7,3.2c0,0-0.8,3.2-6.8,4.7v13.8H815.5z"/>
	</g>
	<rect x="735.1" y="256.7" class="st2" width="45.1" height="4.1"/>
	<rect x="737.8" y="329.2" class="st2" width="45.1" height="4.1"/>
	<rect x="736.4" y="404.2" class="st2" width="45.1" height="4.1"/>
	<rect x="737.8" y="482.1" class="st2" width="45.1" height="4.1"/>
	<rect x="736.4" y="550.2" class="st2" width="45.1" height="4.1"/>
	<rect x="634.4" y="438.6" class="st2" width="101.6" height="4.6"/>
	<g>
		<path d="M845.2,312.5c0,0.2,0,9,0,9.1c-0.5,5-8.8,8.9-19.1,8.9c-10.2,0-18.6-4-19.1-8.9c0-0.1,0-9,0-9.1c0-5.2,8.5-9.4,19.1-9.4
			C836.7,303.1,845.2,307.3,845.2,312.5z M826.3,306.1c-8.3,0-15.1,2.9-15.1,6.4c0,3.5,6.8,6.4,15.1,6.4c8.3,0,15.1-2.9,15.1-6.4
			C841.4,309,834.7,306.1,826.3,306.1z"/>
		<path d="M845.2,325.2c0,0,0,9.5,0,9.7c-0.5,5-8.8,8.4-19.1,8.4c-10.2,0-18.6-3.4-19.1-8.4c0-0.1,0-9.7,0-9.7s2.1,7.3,19.1,7.4
			C842.7,332.8,845.2,325.2,845.2,325.2z"/>
		<path d="M845.2,338.3c0,0,0,9.5,0,9.7c-0.5,5-8.8,8.4-19.1,8.4c-10.2,0-18.6-3.4-19.1-8.4c0-0.1,0-9.7,0-9.7s2.1,7.3,19.1,7.4
			C842.7,345.9,845.2,338.3,845.2,338.3z"/>
	</g>
	<g>
		<path class="st32" d="M800.9,256.8c0,0-1.1-5.2,2.6-5.5l-1.4-5.5c0,0-4.8-0.2-2.8,8.4C801.2,262.7,800.9,256.8,800.9,256.8z"/>
		<g>
			<path class="st33" d="M799.7,245.8c0,0,3.4,20,11.1,25.5c2.1,1.5,13.1,5.8,21.5,0.1c4.8-3.2,6.1-8.4,11.4-20.3
				c0,0-11.4,12.3-41.3-0.5"/>
			<path d="M837,244.8c0.8,4-5.3,7.2-13.4,7.2c-8.2,0-15.5-3.2-16.2-7.2c-0.8-4,5.3-7.2,13.4-7.2C828.9,237.6,836.2,240.8,837,244.8
				z"/>
			<path d="M845.4,245.6c1.2,6.7-8.1,12.2-20.8,12.2c-12.7,0-23.9-5.4-25.1-12.2c-1.2-6.7,8.1-12.2,20.8-12.2
				C832.9,233.4,844.2,238.9,845.4,245.6z M820.7,236.1c-9.9,0-17.2,4.1-16.3,9.2c0.9,5.1,9.6,9.2,19.5,9.2c9.9,0,17.2-4.1,16.3-9.2
				C839.3,240.2,830.6,236.1,820.7,236.1z"/>
			<line class="st34" x1="816.3" y1="250.7" x2="826.1" y2="238.1"/>
			<line class="st35" x1="809.2" y1="241.3" x2="836.6" y2="247.2"/>
			<g>
				<path class="st36" d="M819.5,242.3L819,244c0,0,1.2,1.5,4.5,0.8c0,0,1-0.4,1.1-0.7c0.1-0.5-0.8-1.7-0.8-1.7s0.4,1.2-2,1.2
					C820.2,243.6,819.5,243,819.5,242.3z"/>
				<path class="st37" d="M823.9,242.6c0.1,0.6-0.8,1-2,1c-1.2,0-2.3-0.5-2.4-1c-0.1-0.6,0.8-1,2-1
					C822.7,241.6,823.8,242.1,823.9,242.6z"/>
			</g>
			<path d="M799.7,246.8c0,0-5.2,13.3,21.5,16.6c0,0,15.3-0.2,17.7-3.4l0.6-2.3l4.2-2.7l1.7,2.7c0,0,5.3-2.9-3.8-5.7
				c-1.5-0.5,1.3-6.1,1.3-6.1s11,9.2,5.3,14.1c-5.8,4.9-24.1,10.1-37.1,6.1c-5.6-1.7-12.3-7.1-12.3-7.1S797.1,250.7,799.7,246.8z"/>
			<path d="M809.2,263.4l1.9,8.1c0,0-4.3-4.3-5.3-10.1c-0.4-2.5-5.6,12.6-5.6,12.6l-2-0.3c0,0-1.6,2.8,1.4,4.2c0,0,13.1,6.5,21,5.9
				c0.2,0,0.3,0,0.5-0.1l15.4,0.1l11.8-6l-3-9.4l-23.8,3.5l-4.1-7L809.2,263.4z"/>
			<path class="st38" d="M821.7,271.9l-4.1-7l1.4-1.2l2.8,6.5c0,0,20.1-2,20.5-5.6l-3.4-0.9l8.5-3c0,0,7,2.1,6.2,2.8l-8.1,4.9
				l-23.7,4.1"/>
			<polygon class="st39" points="845.5,268.4 853.6,263.6 855.3,272.5 848.4,277.9 			"/>
		</g>
	</g>
	<g>
		<path class="st1" d="M708,709.3c-1.7,0-3,0.5-4,1.6c-1,1.1-1.4,2.5-1.4,4.4c0,1.9,0.5,3.4,1.4,4.5c0.9,1.1,2.2,1.6,3.9,1.6
			c1.1,0,2.2-0.1,3.1-0.4v0.8c-0.9,0.3-2,0.5-3.3,0.5c-1.9,0-3.4-0.6-4.4-1.8c-1.1-1.2-1.6-2.9-1.6-5.1c0-1.4,0.3-2.6,0.8-3.6
			c0.5-1,1.3-1.8,2.2-2.4c1-0.6,2.1-0.8,3.4-0.8c1.3,0,2.5,0.2,3.5,0.7l-0.4,0.8C710.1,709.5,709.1,709.3,708,709.3z"/>
		<path class="st1" d="M722,717c0,1.6-0.4,2.9-1.2,3.8s-1.9,1.4-3.3,1.4c-0.9,0-1.6-0.2-2.3-0.6c-0.7-0.4-1.2-1-1.5-1.8
			s-0.5-1.7-0.5-2.7c0-1.6,0.4-2.9,1.2-3.8s1.9-1.4,3.2-1.4c1.4,0,2.4,0.5,3.2,1.4C721.6,714.2,722,715.4,722,717z M714.1,717
			c0,1.4,0.3,2.4,0.9,3.2c0.6,0.8,1.5,1.1,2.6,1.1s2-0.4,2.6-1.1s0.9-1.8,0.9-3.2c0-1.4-0.3-2.4-0.9-3.2c-0.6-0.8-1.5-1.1-2.6-1.1
			s-1.9,0.4-2.5,1.1C714.4,714.6,714.1,715.7,714.1,717z"/>
		<path class="st1" d="M737.2,722v-6.5c0-1-0.2-1.7-0.6-2.1s-1-0.7-1.7-0.7c-1,0-1.8,0.3-2.3,0.8c-0.5,0.6-0.7,1.4-0.7,2.6v5.8h-0.9
			v-6.8c0-1.7-0.8-2.5-2.3-2.5c-1,0-1.8,0.3-2.3,0.9c-0.5,0.6-0.7,1.6-0.7,2.9v5.5h-0.9v-10h0.8l0.2,1.4h0.1
			c0.3-0.5,0.7-0.9,1.2-1.2c0.5-0.3,1.1-0.4,1.7-0.4c1.6,0,2.6,0.6,3,1.8h0c0.3-0.6,0.8-1,1.3-1.3c0.5-0.3,1.2-0.5,1.9-0.5
			c1.1,0,1.9,0.3,2.4,0.9c0.5,0.6,0.8,1.5,0.8,2.8v6.5H737.2z"/>
		<path class="st1" d="M751.3,722h-0.9l-7.9-11.9h-0.1c0.1,1.4,0.1,2.5,0.1,3.2v8.7h-0.9v-13.4h0.9l7.9,11.9h0.1
			c-0.1-1.1-0.1-2.1-0.1-3.1v-8.7h0.9V722z"/>
		<path class="st1" d="M758.9,722.2c-1.4,0-2.6-0.4-3.4-1.3c-0.8-0.9-1.2-2.1-1.2-3.7c0-1.6,0.4-2.9,1.2-3.8c0.8-1,1.8-1.4,3.2-1.4
			c1.2,0,2.1,0.4,2.8,1.2s1,1.9,1,3.3v0.7h-7.2c0,1.4,0.3,2.4,1,3.1s1.5,1.1,2.7,1.1c0.6,0,1.1,0,1.5-0.1c0.4-0.1,1-0.2,1.6-0.5v0.8
			c-0.6,0.2-1.1,0.4-1.6,0.5C760,722.2,759.4,722.2,758.9,722.2z M758.6,712.7c-1,0-1.7,0.3-2.3,0.9c-0.6,0.6-0.9,1.5-1,2.7h6.2
			c0-1.2-0.2-2.1-0.8-2.7C760.2,713,759.5,712.7,758.6,712.7z"/>
		<path class="st1" d="M767.8,721.4c0.6,0,1.1,0,1.5-0.1v0.7c-0.4,0.1-0.9,0.2-1.5,0.2c-0.9,0-1.5-0.2-1.9-0.7
			c-0.4-0.5-0.6-1.2-0.6-2.2v-6.4h-1.5v-0.5l1.5-0.4l0.5-2.3h0.5v2.4h2.9v0.8h-2.9v6.3c0,0.8,0.1,1.3,0.4,1.7
			C766.8,721.2,767.2,721.4,767.8,721.4z"/>
	</g>
</g>
<path class="st2" d="M739.7,967.5l-4-0.5l6.2-104.7l-29.6,5.6l26.6-131.6l4,0.5l-8,108.5l27.1-4L739.7,967.5z M746.2,857.4
	l-4.5,75.5l15.4-86.7l-26.5,4l6-82l-19.2,94.7L746.2,857.4z"/>
<g>
	<path class="st40" d="M681.5,842.8c0,0.9-0.3,1.7-0.8,2.3s-1.3,1-2.3,1.3v0.1c1.2,0.1,2.1,0.5,2.7,1.1c0.6,0.6,0.9,1.4,0.9,2.4
		c0,1.4-0.5,2.5-1.5,3.3c-1,0.8-2.4,1.2-4.3,1.2c-1.6,0-3-0.3-4.2-0.8v-2.1c0.6,0.3,1.3,0.5,2,0.7s1.4,0.3,2,0.3
		c1.1,0,2-0.2,2.6-0.6s0.9-1.1,0.9-2c0-0.8-0.3-1.4-0.9-1.7c-0.6-0.4-1.6-0.6-3-0.6h-1.3v-1.9h1.3c2.4,0,3.5-0.8,3.5-2.5
		c0-0.6-0.2-1.1-0.6-1.5c-0.4-0.3-1-0.5-1.8-0.5c-0.6,0-1.1,0.1-1.6,0.2c-0.5,0.2-1.1,0.5-1.8,0.9l-1.2-1.7c1.4-1,2.9-1.5,4.7-1.5
		c1.5,0,2.7,0.3,3.5,1S681.5,841.7,681.5,842.8z"/>
	<path class="st40" d="M691,846.2h5.5v7.4c-0.9,0.3-1.7,0.5-2.6,0.6c-0.8,0.1-1.7,0.2-2.7,0.2c-2.2,0-4-0.7-5.2-2s-1.8-3.2-1.8-5.6
		c0-2.4,0.7-4.2,2.1-5.6s3.3-2,5.7-2c1.5,0,3,0.3,4.4,0.9l-0.9,2c-1.2-0.6-2.4-0.8-3.6-0.8c-1.6,0-2.8,0.5-3.7,1.5s-1.4,2.4-1.4,4.1
		c0,1.8,0.4,3.2,1.2,4.1c0.8,0.9,2,1.4,3.6,1.4c0.8,0,1.6-0.1,2.5-0.3v-3.8H691V846.2z"/>
</g>
<g>
	<path class="st40" d="M786,867.2c0,1.3-0.5,2.4-1.4,3.1c-1,0.8-2.3,1.1-3.9,1.1c-1.7,0-3-0.3-4.1-0.8v-2.3c0.7,0.3,1.4,0.6,2.2,0.8
		c0.8,0.2,1.5,0.3,2.1,0.3c1,0,1.7-0.2,2.1-0.5c0.5-0.4,0.7-0.9,0.7-1.5c0-0.6-0.2-1-0.6-1.4s-1.3-0.8-2.6-1.4
		c-1.4-0.5-2.3-1.2-2.9-1.9c-0.6-0.7-0.8-1.5-0.8-2.5c0-1.2,0.4-2.2,1.3-2.9c0.9-0.7,2.1-1.1,3.5-1.1c1.4,0,2.8,0.3,4.2,0.9l-0.8,2
		c-1.3-0.6-2.5-0.8-3.5-0.8c-0.8,0-1.4,0.2-1.8,0.5s-0.6,0.8-0.6,1.4c0,0.4,0.1,0.7,0.2,1c0.2,0.3,0.4,0.5,0.8,0.8
		c0.4,0.2,1,0.6,2,1c1.1,0.5,1.9,0.9,2.4,1.3s0.9,0.8,1.1,1.3S786,866.5,786,867.2z"/>
	<path class="st40" d="M798,871.2l-1.5-4.1h-5.7l-1.4,4.1h-2.6l5.5-14.9h2.6l5.5,14.9H798z M795.9,865l-1.4-4
		c-0.1-0.3-0.2-0.7-0.4-1.3s-0.3-1-0.4-1.3c-0.2,0.8-0.4,1.7-0.8,2.7l-1.3,3.9H795.9z"/>
	<path class="st40" d="M807.7,871.2h-2.4v-12.7h-4.4v-2.1H812v2.1h-4.4V871.2z"/>
	<path class="st40" d="M822.7,871.2h-8.4v-14.8h8.4v2h-6v4h5.6v2h-5.6v4.7h6V871.2z"/>
	<path class="st40" d="M825.9,871.2v-14.8h2.4v12.7h6.3v2.1H825.9z"/>
	<path class="st40" d="M837.1,871.2v-14.8h2.4v12.7h6.3v2.1H837.1z"/>
	<path class="st40" d="M848.4,871.2v-14.8h2.4v14.8H848.4z"/>
	<path class="st40" d="M859.8,871.2h-2.4v-12.7H853v-2.1h11.1v2.1h-4.4V871.2z"/>
	<path class="st40" d="M874.8,871.2h-8.4v-14.8h8.4v2h-6v4h5.6v2h-5.6v4.7h6V871.2z"/>
</g>
<g>
	<path class="st40" d="M671.5,902.6l-4.3-12.4h-0.1c0.1,1.8,0.2,3.6,0.2,5.2v7.2h-2.2v-14.8h3.4l4.1,11.8h0.1l4.2-11.8h3.4v14.8H678
		v-7.3c0-0.7,0-1.7,0.1-2.9c0-1.2,0.1-1.9,0.1-2.1H678l-4.4,12.4H671.5z"/>
	<path class="st40" d="M686.6,902.6h-2.4v-14.8h8.4v2h-6v4.6h5.6v2.1h-5.6V902.6z"/>
	<path class="st40" d="M701.2,887.8l-5.5,14.8h-2.2l5.5-14.8H701.2z"/>
	<path class="st40" d="M715,902.6h-2.4V896h-6.8v6.7h-2.4v-14.8h2.4v6.1h6.8v-6.1h2.4V902.6z"/>
	<path class="st40" d="M721.3,902.6h-2.4v-14.8h8.4v2h-6v4.6h5.6v2.1h-5.6V902.6z"/>
</g>
<g>
	<path class="st40" d="M227.7,67.4l-8.2-17.3l-5.7,16.9h-4.3l9.3-27.2h0.3l8.7,19.5l8.7-19.5h0.3l9.3,27.2h-4.3l-5.7-16.9L228,67.4
		H227.7z"/>
	<path class="st40" d="M275.1,53.6c0,5.8-3,13.9-13.3,13.9c-10.3,0-13.3-8.1-13.3-13.9c0-5.6,3-13.8,13.3-13.8
		C272.1,39.7,275.1,47.9,275.1,53.6z M271.1,53.6c0-2.6-1.2-10.3-9.3-10.3c-8.1,0-9.3,7.7-9.3,10.3s1.2,10.4,9.3,10.4
		C269.9,63.9,271.1,56.2,271.1,53.6z"/>
	<path class="st40" d="M300.6,59.5c0,3.2-2.2,7.6-9.4,7.6h-10v-27h10c7.2,0,9.4,4.5,9.4,7.7c0,2-1,4.4-3.3,5.8
		C299.6,54.8,300.6,57.7,300.6,59.5z M296.6,47.8c0-1-0.7-4.2-4.9-4.2h-6.5V52h6.6C295.9,52,296.6,49.1,296.6,47.8z M296.6,59.5
		c0-1.5-0.7-3.9-4.8-3.9h-6.6v8.1h6.5C295.9,63.6,296.6,60.5,296.6,59.5z"/>
	<path class="st40" d="M310.8,67.1h-4v-27h4V67.1z"/>
	<path class="st40" d="M322.4,63.6h10.3v3.5h-14.3v-27h4V63.6z"/>
	<path class="st40" d="M342.8,55.5v8.1h13.8v3.5h-17.7v-27h17.7v3.5h-13.8v8.5h10.8v3.5H342.8z"/>
	<path class="st40" d="M399.5,53.6c0,5.8-3,13.9-13.3,13.9s-13.3-8.1-13.3-13.9c0-5.6,3-13.8,13.3-13.8S399.5,47.9,399.5,53.6z
		 M395.4,53.6c0-2.6-1.2-10.3-9.3-10.3s-9.3,7.7-9.3,10.3s1.2,10.4,9.3,10.4S395.4,56.2,395.4,53.6z"/>
	<path class="st40" d="M409.6,67.1h-4v-27h10.1c7.2,0,9.4,5,9.4,8.4c0,5.1-4.5,8.5-8.8,8.5h-6.6V67.1z M421.1,48.6
		c0-1.7-0.9-5-5.2-5h-6.3v10h6.4C420.2,53.5,421.1,50.1,421.1,48.6z"/>
	<path class="st40" d="M435.2,55.5v8.1H449v3.5h-17.7v-27H449v3.5h-13.8v8.5h10.8v3.5H435.2z"/>
	<path class="st40" d="M459,67.1h-3.9v-27h10c7.2,0,9.4,5,9.4,8.4c0,4-2.8,6.9-6,8.1l4.9,10.5h-4.2l-4.7-10H459V67.1z M470.5,48.6
		c0-1.7-0.9-5-5.2-5H459v10h6.4C469.6,53.5,470.5,50.1,470.5,48.6z"/>
	<path class="st40" d="M494.9,60h-9.7l-3,7.2h-4.3l12-27.2h0.3l12,27.2h-4.3L494.9,60z M486.6,56.5h6.8l-3.4-8.2L486.6,56.5z"/>
	<path class="st40" d="M509.1,43.6h-7.8v-3.5h19.7v3.5H513v23.5h-4V43.6z"/>
	<path class="st40" d="M530.5,67.1h-4v-27h4V67.1z"/>
	<path class="st40" d="M563.3,53.6c0,5.8-3,13.9-13.3,13.9s-13.3-8.1-13.3-13.9c0-5.6,3-13.8,13.3-13.8S563.3,47.9,563.3,53.6z
		 M559.3,53.6c0-2.6-1.2-10.3-9.3-10.3s-9.3,7.7-9.3,10.3s1.2,10.4,9.3,10.4S559.3,56.2,559.3,53.6z"/>
	<path class="st40" d="M587.4,40.1h4v27.1l-0.3,0.2l-17.5-18.3h0v18h-4V40l0.3-0.2L587.4,58V40.1z"/>
	<path class="st40" d="M616.8,60.1c0,4.1-4.1,7.3-9.6,7.3c-4,0-6.8-0.8-9.8-2.4l1.5-3.1c2.4,1.2,5,2,8,2c3,0,5.7-1.5,5.7-3.9
		c0-7.3-15-3.2-15-12.9c0-4.7,3.5-7.4,8.4-7.4c1.6,0,5.2,0.3,9.2,2.2l-1.5,3.3c-1.8-0.7-5.1-1.7-6.9-1.7c-2.9,0-5.1,0.6-5.3,3.4
		C601.7,53,616.8,49.5,616.8,60.1z"/>
	<path class="st40" d="M653.8,46.6c-1.5-1.7-4.4-3.4-7.4-3.4c-8.1,0-9.3,7.7-9.3,10.3s1.2,10.3,9.3,10.3c3.1,0,5.9-1.7,7.6-3.2
		l2.3,2.9c-2.4,2.4-5.5,3.9-9.9,3.9c-10.3,0-13.3-8.1-13.3-13.9c0-5.6,3-13.8,13.3-13.8c4.6,0,7.6,1.7,10,4.4L653.8,46.6z"/>
	<path class="st40" d="M666.4,55.5v8.1h13.8v3.5h-17.7v-27h17.7v3.5h-13.8v8.5h10.8v3.5H666.4z"/>
	<path class="st40" d="M704.3,40.1h4v27.1l-0.3,0.2l-17.5-18.3h0v18h-4V40l0.3-0.2L704.3,58V40.1z"/>
	<path class="st40" d="M721.3,43.6h-7.8v-3.5h19.7v3.5h-7.9v23.5h-4V43.6z"/>
	<path class="st40" d="M742.7,55.5v8.1h13.8v3.5h-17.7v-27h17.7v3.5h-13.8v8.5h10.8v3.5H742.7z"/>
	<path class="st40" d="M766.5,67.1h-3.9v-27h10c7.2,0,9.4,5,9.4,8.4c0,4-2.8,6.9-6,8.1l4.9,10.5h-4.2l-4.7-10h-5.4V67.1z M778,48.6
		c0-1.7-0.9-5-5.2-5h-6.3v10h6.4C777.1,53.5,778,50.1,778,48.6z"/>
</g>
</svg>
