<?xml version="1.0" encoding="utf-8"?>
<!-- Generator: Adobe Illustrator 19.2.1, SVG Export Plug-In . SVG Version: 6.00 Build 0)  -->
<svg version="1.1" id="Layer_1" xmlns="http://www.w3.org/2000/svg" xmlns:xlink="http://www.w3.org/1999/xlink" x="0px" y="0px"
	 viewBox="0 0 918.9 714.2" style="enable-background:new 0 0 918.9 714.2;" xml:space="preserve">
<style type="text/css">
	.st0{fill:#58595B;}
	.st1{fill:#748F8D;}
	.st2{fill:#02666A;}
	.st3{fill:#01556F;}
	.st4{fill:#2F5C72;}
	.st5{fill:#264A65;}
	.st6{fill:#5F686F;}
	.st7{fill:#454748;}
	.st8{fill:#617B79;}
	.st9{fill:#005256;}
	.st10{fill:#00415B;}
	.st11{fill:#1C495E;}
	.st12{fill:#103651;}
	.st13{fill:#4B545B;}
	.st14{fill:#FFFFFF;}
	.st15{fill:none;stroke:#E9EDF1;stroke-width:5;stroke-miterlimit:10;}
	.st16{fill:#E9EDF1;}
</style>
<polygon class="st0" points="-0.3,147.7 192,147.7 273.8,64.9 644.9,64.9 726.7,147.9 919.2,147.7 919.2,632.2 726.6,632.2 
	645,714.2 273.8,714.2 191.9,631.8 -0.3,632.2 "/>
<g>
	<rect x="726.6" y="147.7" class="st0" width="192.5" height="70"/>
	<rect x="726.4" y="286.5" class="st1" width="192.5" height="69.1"/>
	<rect x="726.6" y="355.5" class="st2" width="192.5" height="69.1"/>
	<rect x="726.6" y="424.4" class="st3" width="192.5" height="69.1"/>
	<rect x="726.6" y="493.5" class="st4" width="192.5" height="69.1"/>
	<polygon class="st5" points="919.2,632.2 726.6,632.2 726.5,562.6 919.1,562.6 	"/>
	<rect x="726.6" y="217.6" class="st6" width="192.5" height="69.1"/>
</g>
<g>
	<rect x="-0.3" y="147.7" class="st0" width="192.5" height="70"/>
	<rect x="-0.6" y="286.5" class="st1" width="192.5" height="69.1"/>
	<rect x="-0.3" y="355.5" class="st2" width="192.5" height="69.1"/>
	<rect x="-0.3" y="424.4" class="st3" width="192.5" height="69.1"/>
	<rect x="-0.3" y="493.5" class="st4" width="192.5" height="69.1"/>
	<polygon class="st5" points="192.2,632.2 -0.3,632.2 -0.4,562.6 192.1,562.6 	"/>
	<rect x="-0.3" y="217.6" class="st6" width="192.5" height="69.1"/>
</g>
<g>
	<polygon class="st7" points="644.9,158.7 726.7,217.7 726.7,147.9 644.9,64.9 	"/>
	<polygon class="st8" points="644.9,343.6 726.7,355.6 726.6,286.8 644.9,250.9 	"/>
	<polygon class="st9" points="644.9,436.1 726.6,424.7 726.7,355.5 644.9,343.5 	"/>
	<polygon class="st10" points="644.9,528.4 726.7,493.4 726.6,424.7 644.9,435.8 	"/>
	<polygon class="st11" points="644.9,621 726.6,562.6 726.7,493.3 644.9,528.3 	"/>
	<polygon class="st12" points="644.9,714.2 726.6,632.2 726.6,562.6 644.5,621 	"/>
	<polygon class="st13" points="644.9,251.4 726.6,286.8 726.7,217.7 644.9,158.7 	"/>
</g>
<g>
	<polygon class="st7" points="273.8,158.7 192,217.7 192,147.7 273.8,64.9 	"/>
	<polygon class="st8" points="273.8,343.6 192,355.6 192,286.8 273.8,250.9 	"/>
	<polygon class="st9" points="273.8,436.1 192,425.1 192,355.6 273.8,343.5 	"/>
	<polygon class="st10" points="273.8,528.4 192,493.4 192,424.4 273.8,435.8 	"/>
	<polygon class="st11" points="273.8,621.6 191.9,562.6 192,493.4 273.8,528.4 	"/>
	<polygon class="st12" points="273.8,714.2 191.9,631.8 191.9,562.6 273.8,621 	"/>
	<polygon class="st13" points="273.8,251.4 192,286.8 192,217.7 273.8,158.7 	"/>
</g>
<g>
	<path class="st14" d="M86.8,586.2l24.5,0.2v4.3l-24.5-0.2v4.5h-4l0.1-13.5h4L86.8,586.2z"/>
	<path class="st14" d="M105.2,571v4.6l6.3,1v4.2L82.9,576v-5.6l28.6-4.8v4.4L105.2,571z M101.2,571.6l-11.4,1.6l11.4,1.7V571.6z"/>
	<path class="st14" d="M92.6,549v4.3c-1.9,0-3.1,0-3.6,0.1c-0.7,0.1-1.3,0.3-1.7,0.8c-0.4,0.4-0.6,0.9-0.6,1.5
		c0,1.1,0.6,1.9,1.9,2.2c0.5,0.1,2,0.2,4.3,0.2l9,0.1c2.5,0,4-0.1,4.6-0.2c1.1-0.4,1.6-1.1,1.6-2.1c0-0.9-0.4-1.5-1.1-1.9
		c-0.5-0.3-1.5-0.5-3-0.5c-1.2,0-2-0.1-2.4-0.1v-4.3h1.8c1.6,0,2.8,0.1,3.6,0.3c1.7,0.4,2.9,1.2,3.8,2.4c0.9,1.1,1.3,2.5,1.3,4
		c0,2.1-0.8,3.8-2.3,5c-1.1,0.8-2.2,1.3-3.4,1.5c-1,0.1-2.5,0.2-4.3,0.2l-9.6-0.1c-2.8,0-4.7-0.2-5.7-0.6c-1.5-0.6-2.6-1.6-3.3-2.9
		c-0.5-1-0.8-2.1-0.8-3.3c0-1.8,0.6-3.3,1.7-4.5c1-1.1,2.2-1.8,3.8-2c0.6-0.1,1.5-0.1,2.7-0.1L92.6,549z"/>
	<path class="st14" d="M87.2,538l24.5,0.2v4.3l-24.5-0.2v4.5h-4l0.1-13.5h4L87.2,538z"/>
	<path class="st14" d="M83.3,526.5l28.5,0.2v4.3l-28.5-0.2V526.5z"/>
	<path class="st14" d="M92.8,509v4.3c-1.9,0-3.1,0-3.6,0.1c-0.7,0.1-1.3,0.3-1.7,0.8c-0.4,0.4-0.6,0.9-0.6,1.5
		c0,1.1,0.6,1.9,1.9,2.2c0.5,0.1,2,0.2,4.3,0.2l9,0.1c2.5,0,4-0.1,4.6-0.2c1.1-0.4,1.6-1.1,1.6-2.1c0-0.9-0.4-1.5-1.1-1.9
		c-0.5-0.3-1.5-0.5-3-0.5c-1.2,0-2-0.1-2.4-0.1v-4.3h1.8c1.6,0,2.8,0.1,3.6,0.3c1.7,0.4,2.9,1.2,3.8,2.4c0.9,1.1,1.3,2.5,1.3,4
		c0,2.1-0.8,3.8-2.3,5c-1.1,0.8-2.2,1.3-3.4,1.5c-1,0.1-2.5,0.2-4.3,0.2l-9.6-0.1c-2.8,0-4.7-0.2-5.7-0.6c-1.5-0.6-2.6-1.6-3.3-2.9
		c-0.5-1-0.8-2.1-0.8-3.3c0-1.8,0.6-3.3,1.7-4.5c1-1.1,2.2-1.8,3.8-2c0.6-0.1,1.5-0.1,2.7-0.1L92.8,509z"/>
	<path class="st14" d="M105.7,496.3v4.6l6.3,1v4.2l-28.5-4.9v-5.6L112,491v4.4L105.7,496.3z M101.7,496.9l-11.4,1.6l11.4,1.7V496.9z
		"/>
	<path class="st14" d="M108.2,476.2h4l-0.1,11.4l-28.5-0.2v-4.3l24.5,0.2L108.2,476.2z"/>
	<path class="st14" d="M112.2,462.7l-28.5-0.2v-6.1c0-4.8,2.7-7.2,8.1-7.2l12.4,0.1c5.4,0,8,2.4,8,7.3V462.7z M108.3,458.4v-1.3
		c0-1.2-0.4-2.1-1.1-2.7c-0.5-0.4-1-0.6-1.7-0.7c-0.5-0.1-1.2-0.1-2-0.1l-10.8-0.1c-1.4,0-2.3,0.1-2.7,0.2c-1.4,0.4-2.1,1.5-2.1,3.1
		v1.3L108.3,458.4z"/>
	<path class="st14" d="M83.9,440.8l28.5,0.2v4.3l-28.5-0.2V440.8z"/>
	<path class="st14" d="M90.4,423.9L91,428c-1.1,0.1-1.8,0.3-2.3,0.5c-0.8,0.4-1.2,1-1.2,2c0,0.7,0.2,1.3,0.7,1.7
		c0.5,0.5,1.2,0.7,2.1,0.7s1.8-0.2,2.7-0.8c0.7-0.4,1.8-1.4,3.2-3c1.9-2.1,3.4-3.5,4.5-4.2c1.4-0.9,3-1.3,4.8-1.3c2,0,3.7,0.6,5,1.7
		c1.5,1.3,2.2,3,2.2,5.1c0,2.6-1.1,4.6-3.3,5.9c-1.2,0.7-2.7,1.1-4.4,1.1l-0.7-4.1c2.9-0.1,4.4-1.1,4.4-3c0-0.8-0.3-1.5-0.9-1.9
		c-0.6-0.5-1.3-0.7-2.2-0.7c-1.1,0-2.1,0.4-3.1,1.1c-0.7,0.5-1.8,1.6-3.4,3.3c-1.6,1.7-3,2.9-4.2,3.6c-1.4,0.9-3,1.3-4.6,1.3
		c-2.3,0-4.1-0.7-5.4-2.1c-1.1-1.2-1.7-2.7-1.7-4.6c0-2.3,0.9-4.1,2.7-5.2C87.2,424.5,88.6,424.1,90.4,423.9z"/>
	<path class="st14" d="M100.8,416.1l11.8,0.1v4.3L84,420.2v-6c0-1.7,0.2-2.9,0.6-3.8c0.6-1.5,1.7-2.5,3.4-3c1.1-0.4,2.6-0.5,4.5-0.5
		c2.3,0,4,0.3,5.1,0.9c1.5,0.7,2.5,1.8,2.9,3.3c0.2,0.8,0.3,1.9,0.3,3.2V416.1z M96.8,416.1v-1.4c0-1.3-0.3-2.2-0.8-2.7
		c-0.4-0.4-0.9-0.6-1.5-0.7s-1.3-0.1-2-0.1c-1.3,0-2.1,0.1-2.7,0.3c-0.8,0.3-1.3,0.7-1.5,1.4c-0.1,0.4-0.2,1-0.2,1.8v1.4L96.8,416.1
		z"/>
	<path class="st14" d="M108.7,392.1h4l-0.1,11.4l-28.5-0.2V399l24.5,0.2L108.7,392.1z"/>
	<path class="st14" d="M106.5,379.2v4.6l6.3,1v4.2l-28.5-4.9v-5.6l28.6-4.8v4.4L106.5,379.2z M102.5,379.8l-11.4,1.6l11.4,1.7V379.8
		z"/>
	<path class="st14" d="M101.4,363.6l11.5,0.1v4.3l-11.5-0.1l-17,5.2v-4.5l11.2-3l-11.2-3v-4.3L101.4,363.6z"/>
	<path class="st14" d="M84.6,333.3h4l-0.1,7.2l7.8,0.1v-5.2h4v5.2l12.8,0.1v4.3l-28.5-0.2L84.6,333.3z"/>
	<path class="st14" d="M101.3,326.1l11.9,0.1v4.3l-28.5-0.2v-6c0-2.3,0.6-3.9,1.6-5c1.4-1.4,3.6-2.1,6.7-2.1c2.1,0,3.8,0.3,5.1,1
		c0.8,0.4,1.5,1.1,2.1,1.9l13.1-3.2v4.6l-11.9,2.6L101.3,326.1z M97.3,326.1v-1.4c0-0.9-0.1-1.6-0.3-1.9c-0.6-0.9-1.9-1.3-3.9-1.3
		c-1.7,0-2.9,0.3-3.6,0.8c-0.3,0.2-0.4,0.4-0.5,0.7c-0.1,0.3-0.2,0.9-0.2,1.7v1.4L97.3,326.1z"/>
	<path class="st14" d="M107.1,304.3v4.6l6.3,1v4.2l-28.5-4.9v-5.6l28.6-4.8v4.4L107.1,304.3z M103.1,305l-11.4,1.6l11.4,1.7V305z"/>
	<path class="st14" d="M113.5,277.3v4l-19.7-0.1l19.7,4.3v1.9l-19.8,4.2l19.7,0.1v4l-28.5-0.2v-5.8l17.4-3.4L85,282.9v-5.8
		L113.5,277.3z"/>
	<path class="st14" d="M85.1,261.2h4l-0.1,7.4l7.8,0.1v-5.3h4v5.3l8.8,0.1l0.1-7.4h4l-0.1,11.7L85,272.9L85.1,261.2z"/>
	<path class="st14" d="M113.8,241.3v3.7l-17.3,2.8l17.3,2.9v3.7l-28.6,4.1v-4.3l17.1-2l-17.1-2.8v-3.6l17.1-2.7l-17.1-2.3v-4.1
		L113.8,241.3z"/>
	<path class="st14" d="M94.7,220.3l9.9,0.1c2.7,0,4.5,0.2,5.5,0.6c1.5,0.6,2.6,1.6,3.4,2.9c0.5,1,0.8,2.1,0.8,3.2
		c0,2.1-0.8,3.8-2.3,5c-1,0.8-2.1,1.3-3.4,1.5c-1.1,0.1-2.5,0.2-4.1,0.2l-9.9-0.1c-2.7,0-4.5-0.2-5.6-0.6c-1.5-0.6-2.6-1.6-3.3-2.9
		c-0.5-1-0.8-2.1-0.8-3.2c0-2.1,0.8-3.8,2.3-5c1-0.8,2.1-1.3,3.4-1.4C91.7,220.4,93.1,220.3,94.7,220.3z M95.1,229.4l9,0.1
		c2.5,0,4-0.1,4.6-0.3c1.1-0.4,1.6-1.1,1.6-2.1c0-1.2-0.6-1.9-1.9-2.2c-0.5-0.1-2-0.2-4.3-0.2l-9-0.1c-2.5,0-4,0.1-4.6,0.2
		c-1.1,0.4-1.6,1.1-1.6,2.1c0,1.2,0.6,1.9,1.9,2.2C91.3,229.3,92.8,229.4,95.1,229.4z"/>
	<path class="st14" d="M102.1,211.9L114,212v4.3l-28.5-0.2v-6c0-2.3,0.6-3.9,1.6-5c1.4-1.4,3.6-2.1,6.7-2.1c2.1,0,3.8,0.3,5.1,1
		c0.8,0.4,1.5,1.1,2.1,1.9l13.1-3.2v4.6l-11.9,2.6L102.1,211.9z M98.1,211.9v-1.4c0-0.9-0.1-1.6-0.3-1.9c-0.6-0.9-1.9-1.3-3.9-1.3
		c-1.7,0-2.9,0.3-3.6,0.8c-0.3,0.2-0.4,0.4-0.5,0.7s-0.2,0.9-0.2,1.7v1.4H98.1z"/>
	<path class="st14" d="M85.6,199v-4.3l11.4,0.1l-11.4-5.1v-4.5l9.9,5l18.6-5.4v4.5l-13.3,3.6l3.9,2l9.3,0.1v4.3L85.6,199z"/>
</g>
<g>
	<path class="st14" d="M815.3,580.2v4.3c-1.9,0-3.1,0-3.6,0.1c-0.7,0.1-1.3,0.3-1.7,0.8c-0.4,0.4-0.6,0.9-0.6,1.5
		c0,1.1,0.6,1.9,1.9,2.2c0.5,0.1,2,0.2,4.3,0.2l9,0.1c2.5,0,4-0.1,4.6-0.2c1.1-0.4,1.6-1.1,1.6-2.1c0-0.9-0.4-1.5-1.1-1.9
		c-0.5-0.3-1.5-0.5-3-0.5c-1.2,0-2-0.1-2.4-0.1v-4.3h1.8c1.6,0,2.8,0.1,3.6,0.3c1.7,0.4,2.9,1.2,3.8,2.4c0.9,1.1,1.3,2.5,1.3,4
		c0,2.1-0.8,3.8-2.3,5c-1.1,0.8-2.2,1.3-3.4,1.5c-1,0.1-2.5,0.2-4.3,0.2l-9.6-0.1c-2.8,0-4.7-0.2-5.7-0.6c-1.5-0.6-2.6-1.6-3.3-2.9
		c-0.5-1-0.8-2.1-0.8-3.3c0-1.8,0.6-3.3,1.7-4.5c1-1.1,2.2-1.8,3.8-2c0.6-0.1,1.5-0.1,2.7-0.1L815.3,580.2z"/>
	<path class="st14" d="M815.3,563l9.9,0.1c2.7,0,4.5,0.2,5.5,0.6c1.5,0.6,2.6,1.6,3.4,2.9c0.5,1,0.8,2.1,0.8,3.2
		c0,2.1-0.8,3.8-2.3,5c-1,0.8-2.1,1.3-3.4,1.5c-1.1,0.1-2.5,0.2-4.1,0.2l-9.9-0.1c-2.7,0-4.5-0.2-5.6-0.6c-1.5-0.6-2.6-1.6-3.3-2.9
		c-0.5-1-0.8-2.1-0.8-3.2c0-2.1,0.8-3.8,2.3-5c1-0.8,2.1-1.3,3.4-1.4C812.3,563,813.6,563,815.3,563z M815.6,572.1l9,0.1
		c2.5,0,4-0.1,4.6-0.3c1.1-0.4,1.6-1.1,1.6-2.1c0-1.2-0.6-1.9-1.9-2.2c-0.5-0.1-2-0.2-4.3-0.2l-9-0.1c-2.5,0-4,0.1-4.6,0.2
		c-1.1,0.4-1.6,1.1-1.6,2.1c0,1.2,0.6,1.9,1.9,2.2C811.9,572,813.3,572.1,815.6,572.1z"/>
	<path class="st14" d="M834.7,540.7v4l-19.7-0.1l19.7,4.3v1.9l-19.8,4.2l19.7,0.1v4l-28.5-0.2v-5.8l17.4-3.4l-17.4-3.4v-5.8
		L834.7,540.7z"/>
	<path class="st14" d="M834.8,518.1v4l-19.7-0.1l19.7,4.3v1.9l-19.8,4.2l19.7,0.1v4l-28.5-0.2v-5.8l17.4-3.4l-17.4-3.4v-5.8
		L834.8,518.1z"/>
	<path class="st14" d="M815.7,500.4l9.9,0.1c2.7,0,4.5,0.2,5.5,0.6c1.5,0.6,2.6,1.6,3.4,2.9c0.5,1,0.8,2.1,0.8,3.2
		c0,2.1-0.8,3.8-2.3,5c-1,0.8-2.1,1.3-3.4,1.5c-1.1,0.1-2.5,0.2-4.1,0.2l-9.9-0.1c-2.7,0-4.5-0.2-5.6-0.6c-1.5-0.6-2.6-1.6-3.3-2.9
		c-0.5-1-0.8-2.1-0.8-3.2c0-2.1,0.8-3.8,2.3-5c1-0.8,2.1-1.3,3.4-1.4C812.7,500.4,814.1,500.4,815.7,500.4z M816.1,509.5l9,0.1
		c2.5,0,4-0.1,4.6-0.3c1.1-0.4,1.6-1.1,1.6-2.1c0-1.2-0.6-1.9-1.9-2.2c-0.5-0.1-2-0.2-4.3-0.2l-9-0.1c-2.5,0-4,0.1-4.6,0.2
		c-1.1,0.4-1.6,1.1-1.6,2.1c0,1.2,0.6,1.9,1.9,2.2C812.3,509.4,813.8,509.5,816.1,509.5z"/>
	<path class="st14" d="M835.1,482.2v4l-17.7,6.1l17.6,0.1v4l-28.5-0.2v-4.3l17-5.7l-16.9-0.1v-4L835.1,482.2z"/>
	<path class="st14" d="M813.2,452.2l0.6,4.1c-1.1,0.1-1.8,0.3-2.3,0.5c-0.8,0.4-1.2,1-1.2,2c0,0.7,0.2,1.3,0.7,1.7
		c0.5,0.5,1.2,0.7,2.1,0.7c0.9,0,1.8-0.3,2.7-0.8c0.7-0.4,1.8-1.4,3.2-3c1.9-2.1,3.4-3.5,4.5-4.2c1.4-0.9,3-1.3,4.8-1.3
		c2,0,3.7,0.6,5,1.7c1.5,1.3,2.2,3,2.2,5.1c0,2.6-1.1,4.6-3.3,5.9c-1.2,0.7-2.7,1.1-4.4,1.1l-0.7-4.1c2.9-0.1,4.4-1.1,4.4-3
		c0-0.8-0.3-1.5-0.9-1.9c-0.6-0.5-1.3-0.7-2.2-0.7c-1.1,0-2.1,0.4-3.1,1.1c-0.7,0.5-1.8,1.6-3.4,3.3c-1.6,1.7-3,2.9-4.2,3.6
		c-1.4,0.9-3,1.3-4.6,1.3c-2.3,0-4.1-0.7-5.4-2.1c-1.1-1.2-1.7-2.7-1.7-4.6c0-2.3,0.9-4.1,2.7-5.2
		C810.1,452.8,811.4,452.4,813.2,452.2z"/>
	<path class="st14" d="M807,436.9h4l-0.1,7.4l7.8,0.1v-5.3h4v5.3l8.8,0.1l0.1-7.4h4l-0.1,11.7l-28.5-0.2V436.9z"/>
	<path class="st14" d="M823.6,429l11.9,0.1v4.3l-28.5-0.2v-6c0-2.3,0.6-3.9,1.6-5c1.4-1.4,3.6-2.1,6.7-2.1c2.1,0,3.8,0.3,5,1
		c0.8,0.4,1.5,1.1,2.1,1.9l13.1-3.2v4.6l-11.9,2.6L823.6,429z M819.6,429v-1.4c0-0.9-0.1-1.6-0.3-1.9c-0.6-0.9-1.9-1.3-3.9-1.3
		c-1.7,0-2.9,0.3-3.6,0.8c-0.3,0.2-0.4,0.4-0.5,0.7c-0.1,0.3-0.2,0.9-0.2,1.7v1.4L819.6,429z"/>
	<path class="st14" d="M835.7,407.5v4.5l-28.6,5.3v-4.4l18.3-3.2l-18.2-3v-4.2L835.7,407.5z"/>
	<path class="st14" d="M807.2,395.1l28.5,0.2v4.3l-28.5-0.2V395.1z"/>
	<path class="st14" d="M816.8,377.7v4.3c-1.9,0-3.1,0-3.6,0.1c-0.7,0.1-1.3,0.3-1.7,0.8c-0.4,0.4-0.6,0.9-0.6,1.5
		c0,1.1,0.6,1.9,1.9,2.2c0.5,0.1,2,0.2,4.3,0.2l9,0.1c2.5,0,4-0.1,4.6-0.2c1.1-0.4,1.6-1.1,1.6-2.1c0-0.9-0.4-1.5-1.1-1.9
		c-0.5-0.3-1.5-0.5-3-0.5c-1.2,0-2-0.1-2.4-0.1v-4.3h1.8c1.6,0,2.8,0.1,3.6,0.3c1.7,0.4,2.9,1.2,3.8,2.4c0.9,1.1,1.3,2.5,1.3,4
		c0,2.1-0.8,3.8-2.3,5c-1.1,0.8-2.2,1.3-3.4,1.5c-1,0.1-2.5,0.2-4.3,0.2l-9.6-0.1c-2.8,0-4.7-0.2-5.7-0.6c-1.5-0.6-2.6-1.6-3.3-2.9
		c-0.5-1-0.8-2.1-0.8-3.3c0-1.8,0.6-3.3,1.7-4.5c1-1.1,2.2-1.8,3.8-2c0.6-0.1,1.5-0.1,2.7-0.1H816.8z"/>
	<path class="st14" d="M807.5,362.2h4l-0.1,7.4l7.8,0.1v-5.3h4v5.3l8.8,0.1l0.1-7.4h4l-0.1,11.7l-28.5-0.2V362.2z"/>
	<path class="st14" d="M807.7,336.4h4v7.2l7.8,0.1v-5.2h4v5.2l12.8,0.1v4.3l-28.5-0.2L807.7,336.4z"/>
	<path class="st14" d="M824.3,329.1l11.9,0.1v4.3l-28.5-0.2v-6c0-2.3,0.6-3.9,1.6-5c1.4-1.4,3.6-2.1,6.7-2.1c2.1,0,3.8,0.3,5,1
		c0.8,0.4,1.5,1.1,2.1,1.9l13.1-3.2v4.6l-11.9,2.6L824.3,329.1z M820.3,329.1v-1.4c0-0.9-0.1-1.6-0.3-1.9c-0.6-0.9-1.9-1.3-3.9-1.3
		c-1.7,0-2.9,0.3-3.6,0.8c-0.3,0.2-0.4,0.4-0.5,0.7c-0.1,0.3-0.2,0.9-0.2,1.7v1.4L820.3,329.1z"/>
	<path class="st14" d="M830.1,307.3v4.6l6.3,1v4.2l-28.5-4.9v-5.6l28.6-4.8v4.4L830.1,307.3z M826.1,308l-11.4,1.6l11.4,1.7V308z"/>
	<path class="st14" d="M836.6,280.4v4l-19.7-0.1l19.7,4.3v1.9l-19.8,4.2l19.7,0.1v4l-28.5-0.2v-5.8l17.4-3.4L808,286v-5.8
		L836.6,280.4z"/>
	<path class="st14" d="M808.2,264.2h4l-0.1,7.4l7.8,0.1v-5.3h4v5.3l8.8,0.1l0.1-7.4h4l-0.1,11.7l-28.5-0.2V264.2z"/>
	<path class="st14" d="M836.8,244.3v3.7l-17.3,2.8l17.3,2.9v3.7l-28.6,4.1v-4.3l17.1-2l-17.1-2.8v-3.6l17.1-2.7l-17.1-2.3v-4.1
		L836.8,244.3z"/>
	<path class="st14" d="M817.7,223.3l9.9,0.1c2.7,0,4.5,0.2,5.5,0.6c1.5,0.6,2.6,1.6,3.4,2.9c0.5,1,0.8,2.1,0.8,3.2
		c0,2.1-0.8,3.8-2.3,5c-1,0.8-2.1,1.3-3.4,1.5c-1.1,0.1-2.5,0.2-4.1,0.2l-9.9-0.1c-2.7,0-4.5-0.2-5.6-0.6c-1.5-0.6-2.6-1.6-3.3-2.9
		c-0.5-1-0.8-2.1-0.8-3.2c0-2.1,0.8-3.8,2.3-5c1-0.8,2.1-1.3,3.4-1.4C814.7,223.4,816.1,223.3,817.7,223.3z M818.1,232.4l9,0.1
		c2.5,0,4-0.1,4.6-0.3c1.1-0.4,1.6-1.1,1.6-2.1c0-1.2-0.6-1.9-1.9-2.2c-0.5-0.1-2-0.2-4.3-0.2l-9-0.1c-2.5,0-4,0.1-4.6,0.2
		c-1.1,0.4-1.6,1.1-1.6,2.1c0,1.2,0.6,1.9,1.9,2.2C814.4,232.3,815.8,232.4,818.1,232.4z"/>
	<path class="st14" d="M825.1,214.9L837,215v4.3l-28.5-0.2v-6c0-2.3,0.6-3.9,1.6-5c1.4-1.4,3.6-2.1,6.7-2.1c2.1,0,3.8,0.3,5.1,1
		c0.8,0.4,1.5,1.1,2.1,1.9l13.1-3.2v4.6l-11.9,2.6L825.1,214.9z M821.1,214.9v-1.4c0-0.9-0.1-1.6-0.3-1.9c-0.6-0.9-1.9-1.3-3.9-1.3
		c-1.7,0-2.9,0.3-3.6,0.8c-0.3,0.2-0.4,0.4-0.5,0.7s-0.2,0.9-0.2,1.7v1.4H821.1z"/>
	<path class="st14" d="M808.6,202.1v-4.3l11.4,0.1l-11.4-5.1v-4.5l9.9,5l18.6-5.4v4.5l-13.3,3.6l3.9,2l9.3,0.1v4.3L808.6,202.1z"/>
</g>
<g>
	<path d="M16.6,86.2V92L6.1,91.9L6,103.1l7.6,0.1v5.8L6,108.9l-0.1,18.5h-6.2L0,86.1L16.6,86.2z"/>
	<path d="M26.4,110.3l-0.1,17.2h-6.2l0.3-41.3l8.7,0.1c3.3,0,5.7,0.8,7.3,2.3c2,2,3,5.2,3,9.7c0,3.1-0.5,5.5-1.4,7.3
		c-0.6,1.1-1.5,2.2-2.8,3.1l4.6,18.9h-6.6l-3.8-17.3H26.4z M26.5,104.5h2c1.4,0,2.3-0.2,2.8-0.5c1.2-0.8,1.9-2.7,1.9-5.7
		c0-2.4-0.4-4.1-1.2-5.2c-0.3-0.4-0.6-0.6-1-0.8c-0.5-0.2-1.3-0.3-2.5-0.3h-2V104.5z"/>
	<path d="M63.8,100l-0.1,14.4c0,3.9-0.3,6.5-0.9,8c-0.9,2.2-2.3,3.8-4.2,4.9c-1.4,0.8-3,1.1-4.7,1.1c-3.1,0-5.5-1.1-7.2-3.3
		c-1.2-1.5-1.9-3.1-2.1-4.9c-0.2-1.6-0.3-3.6-0.3-6l0.1-14.4c0-3.9,0.3-6.6,0.9-8c0.9-2.2,2.3-3.8,4.2-4.8c1.4-0.8,3-1.1,4.7-1.1
		c3.1,0,5.5,1.1,7.2,3.3c1.2,1.5,1.9,3.1,2.1,4.9C63.7,95.6,63.8,97.6,63.8,100z M50.6,100.5l-0.1,13.1c0,3.6,0.1,5.8,0.4,6.6
		c0.5,1.6,1.5,2.3,3.1,2.4c1.7,0,2.7-0.9,3.2-2.7c0.2-0.8,0.3-2.8,0.3-6.2l0.1-13.1c0-3.6-0.1-5.8-0.3-6.6c-0.5-1.6-1.6-2.3-3.1-2.4
		c-1.7,0-2.7,0.9-3.2,2.7C50.7,95.1,50.6,97.2,50.6,100.5z"/>
	<path d="M89.5,128h-5.8l-8.8-25.6l-0.2,25.5h-5.8l0.3-41.3h6.3l8.3,24.6L84,86.6h5.8L89.5,128z"/>
	<path d="M105.7,92.6l-0.2,35.5h-6.2l0.2-35.5h-6.6v-5.8l19.5,0.1v5.8L105.7,92.6z"/>
	<path d="M121.3,109.7v5.6l-8.7-0.1v-5.6L121.3,109.7z"/>
	<path d="M141.1,87v5.8l-10.7-0.1l-0.1,11.2l7.7,0.1v5.8l-7.7-0.1l-0.1,12.7l10.7,0.1v5.8l-16.9-0.1l0.3-41.3L141.1,87z"/>
	<path d="M166.1,128.5h-5.8l-8.8-25.6l-0.2,25.5h-5.8l0.3-41.3h6.3l8.3,24.6l0.2-24.5h5.8L166.1,128.5z"/>
	<path d="M171.6,128.6l0.3-41.3l8.8,0.1c7,0,10.5,4,10.4,11.8l-0.1,17.9c0,7.8-3.5,11.7-10.5,11.6L171.6,128.6z M177.8,122.8h1.9
		c1.8,0,3-0.5,3.9-1.6c0.5-0.7,0.8-1.5,1-2.5c0.1-0.8,0.1-1.7,0.1-2.9l0.1-15.7c0-2-0.1-3.3-0.3-4c-0.6-2-2.1-3-4.5-3.1h-1.9
		L177.8,122.8z"/>
</g>
<g>
	<path d="M731.2,127.4l0.3-41.3l8.6,0.1c2.8,0,5,0.6,6.6,1.8c2.5,1.8,3.7,4.8,3.7,9c0,2.6-0.6,4.7-1.6,6.4c-0.6,1-1.5,1.9-2.8,2.8
		c1.3,0.7,2.3,1.5,3,2.4c1.3,1.9,2,4.5,2,7.9c0,4.1-1.1,7.1-3.1,9c-1,1-2.2,1.6-3.6,1.8c-1,0.2-2.3,0.3-3.9,0.2L731.2,127.4z
		 M737.5,121.7h2.3c1.7,0,2.8-0.4,3.5-1.2c0.9-1,1.4-2.6,1.4-4.8c0-2.8-0.6-4.7-1.9-5.8c-0.7-0.6-2-0.9-3.7-0.9h-1.5L737.5,121.7z
		 M737.6,103.2h1.3c1.7,0,2.9-0.3,3.6-1c1.1-1,1.7-2.7,1.7-5.1c0-3.4-1.4-5.2-4.3-5.2h-2.3V103.2z"/>
	<path d="M769.1,118.6h-6.7l-1.5,9.1h-6.1l7-41.2l8.1,0.1l6.9,41.3h-6.4L769.1,118.6z M768.2,112.8l-2.4-16.5l-2.5,16.4L768.2,112.8
		z"/>
	<path d="M800.2,100.3h-6.3c0-2.7,0-4.5-0.1-5.3c-0.1-1-0.5-1.8-1.1-2.4c-0.6-0.5-1.3-0.8-2.2-0.8c-1.7,0-2.7,0.9-3.2,2.7
		c-0.2,0.8-0.3,2.8-0.3,6.2l-0.1,13.1c0,3.6,0.1,5.8,0.3,6.6c0.5,1.6,1.5,2.3,3,2.4c1.2,0,2.2-0.5,2.7-1.6c0.4-0.8,0.7-2.2,0.7-4.4
		c0.1-1.7,0.1-2.9,0.1-3.4h6.3v2.6c0,2.3-0.2,4-0.5,5.2c-0.6,2.4-1.8,4.3-3.5,5.6c-1.6,1.2-3.6,1.9-5.8,1.8c-3.1,0-5.5-1.1-7.2-3.3
		c-1.2-1.5-1.9-3.1-2.1-4.9c-0.2-1.5-0.3-3.6-0.3-6.2l0.1-13.9c0-4.1,0.3-6.8,0.9-8.2c0.9-2.2,2.3-3.8,4.2-4.8
		c1.4-0.8,3-1.2,4.7-1.1c2.6,0,4.7,0.8,6.5,2.4c1.6,1.4,2.5,3.2,2.9,5.5c0.1,0.9,0.2,2.2,0.2,4L800.2,100.3z"/>
	<path d="M805.3,86.6h6.2l-0.1,16.5l7.4-16.5h6.5l-7.2,14.3l7.9,27h-6.6l-5.2-19.2l-2.9,5.7l-0.1,13.5H805L805.3,86.6z"/>
	<path d="M835.7,109.7v5.6l-8.7-0.1v-5.6L835.7,109.7z"/>
	<path d="M855.5,87v5.8l-10.7-0.1l-0.1,11.2l7.7,0.1v5.8l-7.7-0.1l-0.1,12.7l10.7,0.1v5.8l-16.9-0.1l0.3-41.3L855.5,87z"/>
	<path d="M880.5,128.5h-5.8l-8.8-25.6l-0.2,25.5h-5.8l0.3-41.3h6.3l8.3,24.6l0.2-24.5h5.8L880.5,128.5z"/>
	<path d="M886,128.5l0.3-41.3l8.8,0.1c7,0,10.5,4,10.4,11.8l-0.1,17.9c0,7.8-3.5,11.7-10.5,11.6L886,128.5z M892.2,122.8h1.9
		c1.8,0,3-0.5,3.9-1.6c0.5-0.7,0.8-1.5,1-2.5c0.1-0.8,0.1-1.7,0.1-2.9l0.1-15.7c0-2-0.1-3.3-0.3-4c-0.6-2-2.1-3.1-4.5-3.1h-1.9
		L892.2,122.8z"/>
</g>
<g>
	<path d="M279.6,12.7l-6,0.9c-0.2-1.6-0.4-2.7-0.7-3.3c-0.6-1.1-1.5-1.7-2.8-1.7c-1,0-1.9,0.3-2.5,1c-0.7,0.7-1,1.8-1,3
		c0,1.4,0.4,2.7,1.1,3.9c0.6,1.1,2.1,2.6,4.4,4.7c3,2.8,5,5,6,6.6c1.3,2,1.9,4.3,1.9,7c0,2.9-0.9,5.4-2.5,7.3
		c-1.9,2.2-4.3,3.2-7.4,3.2c-3.8,0-6.6-1.6-8.6-4.8c-1-1.7-1.6-3.8-1.6-6.4l5.9-1c0.2,4.3,1.6,6.4,4.4,6.4c1.2,0,2.1-0.4,2.8-1.3
		c0.7-0.8,1-1.9,1-3.2c0-1.6-0.5-3.1-1.6-4.5c-0.7-1-2.3-2.6-4.8-4.9c-2.4-2.3-4.2-4.3-5.2-6c-1.2-2.1-1.8-4.3-1.8-6.7
		c0-3.3,1-5.9,3.1-7.8c1.7-1.6,4-2.4,6.7-2.4c3.4,0,5.9,1.3,7.6,4C278.7,8.1,279.3,10.1,279.6,12.7z"/>
	<path d="M297.2,26.2h-6.9l-0.1,18.6H284l0.3-41.3h6.2l-0.1,16.9h6.9l0.1-16.9h6.2l-0.3,41.3h-6.2L297.2,26.2z"/>
	<path d="M322,36h-6.7l-1.5,9.1h-6.1l7-41.2l8.1,0.1l6.9,41.3h-6.4L322,36z M321.1,30.2l-2.4-16.5l-2.5,16.4L321.1,30.2z"/>
	<path d="M340.2,27.9l-0.1,17.2h-6.2l0.3-41.3l8.7,0.1c3.3,0,5.7,0.8,7.3,2.3c2,2,3,5.2,3,9.7c0,3.1-0.5,5.5-1.4,7.3
		c-0.6,1.1-1.5,2.2-2.8,3.1l4.6,18.9H347L343.2,28L340.2,27.9z M340.3,22.2h2c1.4,0,2.3-0.2,2.8-0.5c1.2-0.8,1.9-2.7,1.9-5.7
		c0-2.4-0.4-4.1-1.2-5.2c-0.3-0.4-0.6-0.6-1-0.8c-0.5-0.2-1.3-0.3-2.5-0.3h-2L340.3,22.2z"/>
	<path d="M375.1,4.1v5.8l-10.7-0.1L364.3,21l7.7,0.1v5.8l-7.7-0.1l-0.1,12.7l10.7,0.1v5.8L358,45.3L358.3,4L375.1,4.1z"/>
	<path d="M379.6,45.5l0.3-41.3l8.8,0.1c7,0,10.5,4,10.4,11.8L399,34c0,7.8-3.5,11.7-10.5,11.6L379.6,45.5z M385.8,39.7h1.9
		c1.8,0,3-0.5,3.9-1.6c0.5-0.7,0.8-1.5,1-2.5c0.1-0.8,0.1-1.7,0.1-2.9l0.1-15.7c0-2-0.1-3.3-0.3-4c-0.6-2-2.1-3.1-4.5-3.1h-1.9
		L385.8,39.7z"/>
	<path d="M434.6,18.2h-6.3c0-2.7,0-4.5-0.1-5.3c-0.1-1-0.5-1.8-1.1-2.4c-0.6-0.5-1.3-0.8-2.2-0.8c-1.7,0-2.7,0.9-3.2,2.7
		c-0.2,0.8-0.3,2.8-0.3,6.2l-0.1,13.1c0,3.6,0.1,5.8,0.3,6.6c0.5,1.6,1.5,2.3,3,2.4c1.3,0,2.2-0.5,2.7-1.6c0.4-0.8,0.7-2.2,0.7-4.4
		c0.1-1.7,0.1-2.9,0.1-3.4h6.3v2.6c0,2.3-0.2,4-0.5,5.2c-0.6,2.4-1.8,4.3-3.5,5.6c-1.6,1.2-3.6,1.9-5.8,1.8c-3.1,0-5.5-1.1-7.2-3.3
		c-1.2-1.5-1.9-3.1-2.1-4.9c-0.2-1.5-0.3-3.6-0.3-6.2l0.1-13.9c0-4.1,0.3-6.8,0.9-8.2c0.9-2.2,2.3-3.8,4.2-4.8
		c1.4-0.8,3-1.2,4.7-1.1c2.6,0,4.7,0.8,6.5,2.4c1.6,1.4,2.5,3.2,2.9,5.5c0.1,0.9,0.2,2.2,0.2,4L434.6,18.2z"/>
	<path d="M458.9,18.2l-0.1,14.4c0,3.9-0.3,6.5-0.9,8c-0.9,2.2-2.3,3.8-4.2,4.9c-1.4,0.8-3,1.1-4.7,1.1c-3.1,0-5.5-1.1-7.2-3.3
		c-1.2-1.5-1.9-3.1-2.1-4.9c-0.2-1.6-0.3-3.6-0.3-6l0.1-14.4c0-3.9,0.3-6.6,0.9-8c0.9-2.2,2.3-3.8,4.2-4.8c1.4-0.8,3-1.1,4.7-1.1
		c3.1,0,5.5,1.1,7.2,3.3c1.2,1.5,1.9,3.1,2.1,4.9C458.8,13.8,458.9,15.8,458.9,18.2z M445.7,18.7l-0.1,13.1c0,3.6,0.1,5.8,0.4,6.6
		c0.5,1.6,1.5,2.3,3.1,2.4c1.7,0,2.7-0.9,3.2-2.7c0.2-0.8,0.3-2.8,0.3-6.2l0.1-13.1c0-3.6-0.1-5.8-0.3-6.6c-0.5-1.6-1.6-2.3-3.1-2.4
		c-1.7,0-2.7,0.9-3.2,2.7C445.8,13.3,445.7,15.4,445.7,18.7z"/>
	<path d="M490.6,46.2h-5.8l0.2-28.6l-6.2,28.5H476l-6-28.6l-0.2,28.6H464l0.3-41.3l8.4,0.1l4.9,25.2L482.5,5l8.4,0.1L490.6,46.2z"/>
	<path d="M502.5,29.3l-0.1,17.1h-6.2L496.4,5l8.7,0.1c2.4,0,4.3,0.3,5.5,0.8c2.1,0.9,3.6,2.5,4.3,4.9c0.5,1.6,0.8,3.8,0.7,6.5
		c0,3.3-0.4,5.8-1.2,7.4c-1,2.2-2.6,3.6-4.8,4.2c-1.1,0.3-2.7,0.5-4.7,0.5L502.5,29.3z M502.5,23.5h2c1.9,0,3.2-0.4,3.9-1.2
		c0.5-0.6,0.9-1.3,1-2.2c0.1-0.9,0.2-1.8,0.2-2.9c0-1.8-0.1-3.1-0.4-3.8c-0.4-1.1-1.1-1.8-2-2.2c-0.6-0.2-1.4-0.3-2.5-0.3h-2
		L502.5,23.5z"/>
	<path d="M539.5,18.7l-0.1,14.4c0,3.9-0.3,6.5-0.9,8c-0.9,2.2-2.3,3.8-4.2,4.9c-1.4,0.8-3,1.1-4.7,1.1c-3.1,0-5.5-1.1-7.2-3.3
		c-1.2-1.5-1.9-3.1-2.1-4.9c-0.2-1.6-0.3-3.6-0.3-6l0.1-14.4c0-3.9,0.3-6.6,0.9-8c0.9-2.2,2.3-3.8,4.2-4.8c1.4-0.8,3-1.1,4.7-1.1
		c3.1,0,5.5,1.1,7.2,3.3c1.2,1.5,1.9,3.1,2.1,4.9C539.4,14.4,539.5,16.4,539.5,18.7z M526.3,19.3l-0.1,13.1c0,3.6,0.1,5.8,0.4,6.6
		c0.5,1.6,1.5,2.3,3.1,2.4c1.7,0,2.7-0.9,3.2-2.7c0.2-0.8,0.3-2.8,0.3-6.2l0.1-13.1c0-3.6-0.1-5.8-0.3-6.6c-0.5-1.6-1.6-2.3-3.1-2.4
		c-1.7,0-2.7,0.9-3.2,2.7C526.4,13.9,526.3,15.9,526.3,19.3z"/>
	<path d="M565.2,46.8h-5.8l-8.8-25.6l-0.2,25.5h-5.8L545,5.3h6.3l8.3,24.6l0.2-24.5h5.8L565.2,46.8z"/>
	<path d="M587.9,5.6v5.8l-10.7-0.1l-0.1,11.2l7.7,0.1v5.8l-7.7-0.1L577,41.1l10.7,0.1V47l-16.9-0.1L571,5.5L587.9,5.6z"/>
	<path d="M612.8,47.1H607l-8.8-25.6L598.1,47h-5.8l0.3-41.3h6.3l8.3,24.6l0.2-24.5h5.8L612.8,47.1z"/>
	<path d="M629,11.7l-0.2,35.5h-6.2l0.2-35.5h-6.6V5.9L635.8,6v5.8L629,11.7z"/>
	<path d="M658.5,15.4l-6,0.9c-0.2-1.6-0.4-2.7-0.7-3.3c-0.6-1.1-1.5-1.7-2.8-1.7c-1,0-1.9,0.3-2.5,1c-0.7,0.7-1,1.8-1,3
		c0,1.4,0.4,2.7,1.1,3.9c0.6,1.1,2.1,2.6,4.4,4.7c3,2.8,5,5,6,6.6c1.3,2,1.9,4.3,1.9,7c0,2.9-0.9,5.4-2.5,7.3
		c-1.9,2.2-4.3,3.2-7.4,3.2c-3.8,0-6.6-1.6-8.6-4.8c-1-1.7-1.6-3.8-1.6-6.4l5.9-1c0.2,4.3,1.6,6.4,4.4,6.4c1.2,0,2.1-0.4,2.8-1.3
		c0.7-0.8,1-1.9,1-3.2c0-1.6-0.5-3.1-1.6-4.5c-0.7-1-2.3-2.6-4.8-4.9c-2.4-2.3-4.2-4.3-5.2-6c-1.2-2.1-1.8-4.3-1.8-6.7
		c0-3.3,1-5.9,3.1-7.8c1.7-1.6,4-2.4,6.7-2.4c3.4,0,5.9,1.3,7.6,4C657.6,10.8,658.2,12.8,658.5,15.4z"/>
</g>
<g>
	<rect x="273.8" y="64.9" class="st0" width="371.1" height="93.8"/>
	<rect x="273.8" y="250.9" class="st1" width="371.1" height="92.7"/>
	<rect x="273.8" y="343.5" class="st2" width="371.1" height="92.7"/>
	<rect x="273.8" y="435.8" class="st3" width="371.1" height="92.7"/>
	<rect x="273.8" y="528.3" class="st4" width="371.1" height="92.7"/>
	<polygon class="st5" points="645,714.2 273.8,714.2 273.6,621 644.8,621 	"/>
	<rect x="273.8" y="158.7" class="st6" width="371.1" height="92.7"/>
</g>
<g>
	<g id="BEUN46_1_">
		<g>
			<path class="st14" d="M483.6,650.2L483.6,650.2L483.6,650.2z"/>
			<path class="st14" d="M498.8,652.5c0-0.4-0.1-0.7-0.1-1.1C498.8,652.1,498.8,652.7,498.8,652.5z"/>
			<path class="st14" d="M434.1,685.6c-2.9,2.9-7.5,5.9-8.4,10.1c-0.4,2,0.7,5.4,0.7,5.4s3.5-3.5,8.4-8.4v-7.9
				C434.5,685.2,434.3,685.4,434.1,685.6z"/>
			<path class="st14" d="M430.5,701.4c0,0,2,0.3,4.2,0v-4.1L430.5,701.4z"/>
			<path class="st14" d="M498.7,651.4c0.1,0.4,0.1,0.7,0.1,1.1C498.4,648,498.6,649.9,498.7,651.4z"/>
			<path class="st14" d="M483.8,650.2h0.1H483.8z"/>
			<path class="st14" d="M481.8,650.1C481.6,650.1,481.7,650.1,481.8,650.1L481.8,650.1z"/>
			<path class="st14" d="M484.1,650.2C484.2,650.2,484.2,650.2,484.1,650.2L484.1,650.2z"/>
			<path class="st14" d="M498.7,651.4c-1.9-13-14.8-23-28-19.5c-12,3.2-16.7,16-13.1,27.2c-1.8,0.3-10.2,0.1-6.3,4.2
				c1.7,1.7,3.2,1.7,1.2,3.9c-1.8,1.9-3.6,3.8-5.5,5.6c-4.1,4.1-8.2,8.2-12.3,12.2v7.9c10.6-10.5,27.7-27.5,30.4-29.4
				c-1.3,1.6-2.7,6.3-2.7,6.3l-27.7,27.5v4.1c1.6-0.2,3.4-0.8,4.6-2c1.4-1.4,1.2-2.4,1.3-4.3c0.1-2.6,2-1.5,3.9-1.6
				c4.2-0.1,6.1-1.6,5.8-6c-0.1-2.4-0.6-3.2,2-3.2c1.8,0,3.7,0,5.5,0c-0.2-4.3,0.4-6,3.2-9c1.8-1.9,3.3,1.2,4.6,2.7
				c2.6,3.1,3.5-0.7,3.9-2.8c0.6-3.5,0.9-3,4.2-2.2c13.8,3.3,25.2-6.7,25.2-20.5C498.8,652.7,498.8,652.1,498.7,651.4z M483.6,650.2
				c0.1,0,0.1,0,0.2,0h0.1c0.1,0,0.1,0,0.2,0s0.1,0,0,0c0,0-0.1,0-0.2,0h-0.1C483.7,650.2,483.7,650.2,483.6,650.2
				c-1.1,0-1.6,0-1.8,0c-0.1,0-0.1,0,0,0C482.1,650.1,483,650.1,483.6,650.2c-4.7,0-6.7-6.9-2.2-9
				C488.7,637.8,491.1,650.2,483.6,650.2z"/>
		</g>
	</g>
	<g>
		<g>
			<path class="st14" d="M496.9,219.7c-0.6-1.1-1.7-1.8-3-1.8h-1.5v-8c0-3.1-2-5.1-4.7-6.1c-1.1-0.4-2.4-0.6-3.7-0.6h-2.9
				c-4.6,0-8.3,3.7-8.3,8.3v6.4h-1.4c-1.9,0-3.5,1.6-3.5,3.5V239c0,1.8,1.4,3.2,3.2,3.2H484h9.4c1.9,0,3.4-1.5,3.4-3.4v-19.1H496.9z
				 M487.5,217.9h-9.8v-8.1c0-2.4,4.9-2.4,4.9-2.4s4.9,0,4.9,2.4V217.9z"/>
		</g>
		<g>
			<g>
				<g>
					<g>
						<path class="st14" d="M467.9,209.5c-4.8,4-4.4,5.9-13.9,6.4c-11-0.4-13.3-3.8-16.2-7.6c-16.3,7.9-14.1,27.7-14.1,27.7h40.2
							l0.2-15.3c0.8-4.2,0.5-5.2,6.2-7.2v-3C469.3,210.2,468.4,209.8,467.9,209.5z"/>
					</g>
					<g>
						<path class="st14" d="M468.7,191c0,11.2-7.1,20.3-15.8,20.3c-8.7,0-15.8-9.1-15.8-20.3s7.1-20.3,15.8-20.3
							S468.7,179.8,468.7,191z"/>
					</g>
				</g>
			</g>
		</g>
	</g>
	<g>
		<path class="st14" d="M458.1,443.9c3.1,0,6.2,0,9.4,0c0.9,3.7,2.4,6.9,3.5,10.4c0.4,1.1,4.6,2.7,5.9,2.8c3.8-1.2,6.9-3.1,10.1-4.9
			c1.6,0.5,2.4,2.1,3.5,3.1c1,1,2.3,1.8,3.1,3.1c-1.5,3.4-2.9,7-4.9,10.1c0.7,2.2,1.8,4,2.4,6.3c3.5,1.2,6.9,2.6,10.8,3.5
			c0,3.1,0,6.2,0,9.4c-3.8,0.8-6.8,2.4-10.4,3.5c-1.2,1.7-1.4,4.3-2.8,5.9c1.8,3.3,3.2,6.9,5.2,10.1c-0.5,1.6-2.1,2.4-3.1,3.5
			c-1,1-1.8,2.3-3.1,3.1c-3.4-1.6-7-2.9-10.1-4.9c-2.3,0.7-4,2-6.6,2.4c-0.6,4-2.4,6.9-3.1,10.8c-3.1,0-6.2,0-9.4,0
			c-0.8-3.8-2.5-6.7-3.5-10.4c-1.8-1-3.9-1.7-5.9-2.4c-3.8,1.2-6.9,3.1-10.1,4.9c-1.6-0.5-2.4-2.1-3.5-3.1c-1-1-2.3-1.8-3.1-3.1
			c1.2-3.8,3.4-6.6,4.5-10.4c-0.4-2.3-1.7-3.6-2.1-5.9c-3.7-1.2-7-2.7-11.1-3.5c0-3.1,0-6.2,0-9.4c3.9-0.9,6.9-2.6,10.8-3.5
			c0.7-2.2,2-3.8,2.4-6.2c-1.4-3.6-3.3-6.7-4.9-10.1c0.8-1.3,2.1-2.1,3.1-3.1c1.1-1.1,1.8-2.6,3.5-3.1c3.6,1.4,6.4,3.5,10.4,4.5
			c2.1-0.7,3.9-1.7,5.9-2.4C455.8,450.9,457.3,447.7,458.1,443.9z M462.8,460.9c-12.2,0-22.1,9.9-22.1,22.1s9.9,22.1,22.1,22.1
			s22.1-9.9,22.1-22.1S475,460.9,462.8,460.9z"/>
		<path class="st14" d="M481.6,483c0,10.4-8.4,18.8-18.8,18.8S444,493.4,444,483s8.4-18.8,18.8-18.8
			C473.2,464.1,481.6,472.6,481.6,483z M462.8,469.3c-7.6,0-13.7,6.1-13.7,13.7s6.1,13.7,13.7,13.7s13.7-6.1,13.7-13.7
			S470.4,469.3,462.8,469.3z"/>
	</g>
	<g>
		<path class="st14" d="M492.7,311.9h-63.9c-2.2,0-4.1,1.8-4.1,4.1v7.7c0,2.2,1.8,4.1,4.1,4.1h63.9c2.2,0,4.1-1.8,4.1-4.1V316
			C496.7,313.7,494.9,311.9,492.7,311.9z M483.8,324.6c-1,0-1.8-0.8-1.8-1.8s0.8-1.8,1.8-1.8s1.8,0.8,1.8,1.8
			C485.6,323.9,484.8,324.6,483.8,324.6z M490,324.6c-1,0-1.8-0.8-1.8-1.8s0.8-1.8,1.8-1.8s1.8,0.8,1.8,1.8
			C491.8,323.9,491,324.6,490,324.6z"/>
		<path class="st14" d="M489.5,262H432c-4,0-7.2,3.3-7.2,7.2v32.6c0,4,3.3,7.2,7.2,7.2h57.5c4,0,7.2-3.3,7.2-7.2v-32.6
			C496.7,265.3,493.5,262,489.5,262z M491.3,297.5c0,3.4-2.8,6.1-6.1,6.1h-48.8c-3.4,0-6.1-2.8-6.1-6.1v-23.9c0-3.4,2.8-6.1,6.1-6.1
			h48.8c3.4,0,6.1,2.8,6.1,6.1V297.5z"/>
		<g>
			<g>
				<path class="st14" d="M477,294.2l-13.3-22c-1.1-1.8-2.3-2.1-3.2-2.1c-1.7,0.1-2.6,1.7-2.9,2.2l-13.2,21.8
					c-0.9,1.5-0.7,2.6-0.3,3.3c0.8,1.6,2.8,1.8,3.2,1.8h0.1l0,0h26.7c1.9,0,2.8-0.8,3.2-1.5C478.2,296.1,477.2,294.5,477,294.2z
					 M447.5,295.9c-0.1,0-0.2,0-0.3-0.1c0,0,0,0,0-0.1l13.2-21.9l0.1-0.1c0,0,0.1-0.1,0.1-0.2c0.1,0.1,0.1,0.2,0.2,0.3l13.3,22l0,0
					h-26.6V295.9z"/>
			</g>
			<g>
				<path class="st14" d="M458.4,278.9l1.1,10.3h2.2l1.4-10.3C460.6,276.8,458.4,278.9,458.4,278.9z"/>
			</g>
			<g>
				<circle class="st14" cx="460.7" cy="293.1" r="2.3"/>
			</g>
		</g>
	</g>
	<g>
		<path class="st14" d="M480.1,79.1h-0.7l-0.1,2.9c0,2.3-1.9,4.2-4.2,4.2h-0.3c-2.3,0-4.2-1.9-4.2-4.2l0.1-2.9h-5.3l-0.1,2.9
			c0,2.3-1.9,4.2-4.2,4.2h-0.3c-2.3,0-4.2-1.9-4.2-4.2l0.1-2.9h-6l-0.1,2.9c0,2.3-1.9,4.2-4.2,4.2h-0.3c-2.3,0-4.2-1.9-4.2-4.2
			l0.1-2.9h-1c-4.8,0-8.7,3.9-8.7,8.7V140c0,4.8,3.9,8.7,8.7,8.7h39c4.8,0,8.7-3.9,8.7-8.7V87.7C488.8,83,484.9,79.1,480.1,79.1z
			 M484.5,138.3c0,3.7-3.2,6.6-7.1,6.6h-33.2c-3.9,0-7.1-3-7.1-6.6V97.1h47.5L484.5,138.3L484.5,138.3z"/>
		<path class="st14" d="M446.5,84.1L446.5,84.1c-1.3,0-2.4-1.1-2.4-2.4v-5.2c0-1.3,1.1-2.4,2.4-2.4l0,0c1.3,0,2.4,1.1,2.4,2.4v5.2
			C448.9,83,447.8,84.1,446.5,84.1z"/>
		<path class="st14" d="M461.1,84.1L461.1,84.1c-1.3,0-2.4-1.1-2.4-2.4v-5.2c0-1.3,1.1-2.4,2.4-2.4l0,0c1.3,0,2.4,1.1,2.4,2.4v5.2
			C463.5,83,462.4,84.1,461.1,84.1z"/>
		<path class="st14" d="M475.1,84.1L475.1,84.1c-1.3,0-2.4-1.1-2.4-2.4v-5.2c0-1.3,1.1-2.4,2.4-2.4l0,0c1.3,0,2.4,1.1,2.4,2.4v5.2
			C477.5,83,476.4,84.1,475.1,84.1z"/>
		<polygon class="st14" points="456,136.5 449.5,123.2 445.3,128.9 437,128.9 437,124.6 443.2,124.6 450.3,115.1 455.8,126.4 
			464.5,107 469.1,127.2 471.5,124.9 474.5,127.9 466.7,135.6 463.2,120.5 		"/>
		<path class="st14" d="M505.7,97.3c0.7-1.2,0.7-1.9,0.7-2.2c-0.5-3.2-1.9-5.7-4.1-7.2c-3.7-2.7-8.3-1.9-8.5-1.9l-0.2,0.1
			c-0.4,0.2-0.7,0.5-0.9,0.7l-0.1-0.1l-2,2.9l0,0L474,111.5l0,0l-0.8,1.1l-2.1,16.6l15.5-6.6l0.2-0.3l0,0l17.3-22.8l0,0l1.3-1.7
			l0.1,0.1L505.7,97.3L505.7,97.3L505.7,97.3z M477.3,125.4L473,122l1.1-8.9c3.8,4.3,9.8,7.6,11.7,8.7L477.3,125.4z M504.7,97.4
			l-1.2,1.6l-7.1-5.3l-5-3.8l1.2-1.7l11.2,8.4L504.7,97.4z"/>
	</g>
	<g>
		<path class="st14" d="M466.7,598.8L466.7,598.8c-5.9,0-21.1,0.4-24.4-4.1c0,0,6.4-7.8,6.4-11.7v-12c0-9.9,8.1-18,18-18l0,0
			c9.9,0,18,8.1,18,18v12c0,4.9,5.7,12.7,5.7,12.7C487.1,598.9,471.7,598.8,466.7,598.8z"/>
		<path class="st14" d="M471.3,600.2c0,3.2-2.2,4.8-4.9,4.8c-2.7,0-4.9-1.5-4.9-4.8c0,0,1.8,0,4.9,0
			C469.3,600.2,471.3,600.2,471.3,600.2z"/>
		<path class="st14" d="M441.8,568.2c-0.1,0-0.1,0-0.2,0c-0.8-0.1-1.4-0.8-1.3-1.6c1.6-15.2,12.4-18.6,12.8-18.7
			c0.8-0.2,1.6,0.2,1.9,1c0.2,0.8-0.2,1.6-1,1.9c-0.4,0.1-9.3,3.1-10.7,16.2C443.2,567.6,442.5,568.2,441.8,568.2z"/>
		<path class="st14" d="M432.9,566.8c-0.1,0-0.2,0-0.3,0c-0.8-0.2-1.3-1-1.2-1.8c4.1-20.2,17.1-24.4,17.7-24.5
			c0.8-0.2,1.6,0.2,1.9,1c0.2,0.8-0.2,1.6-1,1.9c-0.5,0.2-11.9,3.9-15.6,22.3C434.3,566.3,433.6,566.8,432.9,566.8z"/>
		<path class="st14" d="M491.1,568.1c-0.7,0-1.4-0.5-1.5-1.3c-2-13-11.1-15.5-11.5-15.6c-0.8-0.2-1.3-1-1.1-1.8
			c0.2-0.8,1-1.3,1.8-1.1c0.5,0.1,11.4,3,13.7,18.1c0.1,0.8-0.4,1.6-1.3,1.7C491.2,568.1,491.1,568.1,491.1,568.1z"/>
		<path class="st14" d="M499.8,566.3c-0.7,0-1.3-0.5-1.5-1.1c-4.6-18.2-16.2-21.4-16.7-21.5c-0.8-0.2-1.3-1-1.1-1.8s1-1.3,1.8-1.1
			c0.6,0.1,13.8,3.7,18.9,23.7c0.2,0.8-0.3,1.6-1.1,1.8C500.1,566.3,500,566.3,499.8,566.3z"/>
	</g>
	<g>
		<g>
			<path class="st14" d="M447.9,401.2c-13.3,0-24.1-10.8-24.1-24.1c0-13.3,10.8-24.1,24.1-24.1c13.3,0,24.1,10.8,24.1,24.1
				C472,390.4,461.2,401.2,447.9,401.2z M447.9,357.3c-10.9,0-19.7,8.9-19.7,19.7c0,10.9,8.9,19.7,19.7,19.7
				c10.9,0,19.7-8.9,19.7-19.7C467.6,366.2,458.8,357.3,447.9,357.3z"/>
			<polygon class="st14" points="489,427.9 499.1,418.8 474.6,394.5 464.9,404.3 			"/>
			<polygon class="st14" points="465.5,401.3 465.5,394.9 470.7,394.9 			"/>
		</g>
		<g>
			<path class="st14" d="M462.3,367.7l-4.8,3.7c0,0-4,0.1-2.2-2.7c0.8-1.2,4.3-4,5.1-5.2c0,0-1.9-3-6.8-1.4c-1.1,0.3-3,1.6-3.5,2.8
				c0,0-0.9,1.5-1,3.5s-0.6,4.1-1.4,5.4l-0.6,0.7l4.8,4.8c1.5-1.2,3.1-2,4.6-1.9l0.8,0.7C457.3,378.1,464.8,371.9,462.3,367.7z"/>
			<path class="st14" d="M432.7,390.9c0,0-0.3,2.3,1.4,3.6c1.7,1.3,3.9,0.6,3.9,0.6s5.6-6.8,9.3-11.1l-4.6-4.4L432.7,390.9z
				 M437.6,393.1c-0.3,0.5-1.3,0.5-2.2,0c-0.8-0.6-1.3-1.4-0.9-2c0.3-0.5,1.3-0.5,2.2,0C437.5,391.6,437.9,392.5,437.6,393.1z"/>
		</g>
		<path class="st14" d="M462.4,388.3c0,0-4-4.4-6.7-6.6s-4.6-0.5-4.6-0.5l-10-10.3c-0.4-1.5-0.9-2.9-0.9-2.9l-5.5-3.2l-0.8,0.9
			l-0.9,0.8l3.1,5.5c0,0,1.6,0.2,3.1,0.6l10,10.3c0,0-1.7,1.9,0.5,4.6s6.5,6.7,6.5,6.7s2.8,3.1,6.1,0.1l0,0
			C465.4,391.1,462.4,388.3,462.4,388.3z"/>
	</g>
	<g>
		<g>
			<line class="st15" x1="313.5" y1="207.6" x2="366.4" y2="207.3"/>
			<g>
				<polygon class="st16" points="362.8,219.8 384.3,207.3 362.7,194.9 				"/>
			</g>
		</g>
	</g>
	<g>
		<g>
			<line class="st15" x1="313.5" y1="293.8" x2="366.4" y2="293.5"/>
			<g>
				<polygon class="st16" points="362.8,306 384.3,293.5 362.7,281.1 				"/>
			</g>
		</g>
	</g>
	<g>
		<g>
			<line class="st15" x1="313.5" y1="120.5" x2="366.4" y2="120.2"/>
			<g>
				<polygon class="st16" points="362.8,132.7 384.3,120.2 362.7,107.8 				"/>
			</g>
		</g>
	</g>
	<g>
		<g>
			<line class="st15" x1="313.5" y1="389.6" x2="366.4" y2="389.3"/>
			<g>
				<polygon class="st16" points="362.8,401.8 384.3,389.3 362.7,376.9 				"/>
			</g>
		</g>
	</g>
	<g>
		<g>
			<line class="st15" x1="313.5" y1="480.8" x2="366.4" y2="480.5"/>
			<g>
				<polygon class="st16" points="362.8,493 384.3,480.5 362.7,468.1 				"/>
			</g>
		</g>
	</g>
	<g>
		<g>
			<line class="st15" x1="315.9" y1="570.3" x2="368.8" y2="570"/>
			<g>
				<polygon class="st16" points="365.2,582.5 386.7,570 365.1,557.6 				"/>
			</g>
		</g>
	</g>
	<g>
		<g>
			<line class="st15" x1="313.5" y1="666.8" x2="366.4" y2="666.5"/>
			<g>
				<polygon class="st16" points="362.8,679 384.3,666.5 362.7,654.1 				"/>
			</g>
		</g>
	</g>
	<g>
		<g>
			<line class="st15" x1="552.4" y1="206.6" x2="604.3" y2="206.9"/>
			<g>
				<polygon class="st16" points="556.1,194.2 534.5,206.6 556,219.1 				"/>
			</g>
		</g>
	</g>
	<g>
		<g>
			<line class="st15" x1="552.4" y1="292.8" x2="604.3" y2="293.1"/>
			<g>
				<polygon class="st16" points="556.1,280.4 534.5,292.8 556,305.3 				"/>
			</g>
		</g>
	</g>
	<g>
		<g>
			<line class="st15" x1="552.4" y1="119.5" x2="604.3" y2="119.8"/>
			<g>
				<polygon class="st16" points="556.1,107.1 534.5,119.5 556,132 				"/>
			</g>
		</g>
	</g>
	<g>
		<g>
			<line class="st15" x1="552.4" y1="388.6" x2="604.3" y2="388.9"/>
			<g>
				<polygon class="st16" points="556.1,376.2 534.5,388.6 556,401.1 				"/>
			</g>
		</g>
	</g>
	<g>
		<g>
			<line class="st15" x1="552.4" y1="571.6" x2="604.3" y2="571.9"/>
			<g>
				<polygon class="st16" points="556.1,559.2 534.5,571.6 556,584.1 				"/>
			</g>
		</g>
	</g>
	<g>
		<g>
			<line class="st15" x1="552.4" y1="665.8" x2="604.3" y2="666.1"/>
			<g>
				<polygon class="st16" points="556.1,653.4 534.5,665.8 556,678.3 				"/>
			</g>
		</g>
	</g>
	<g>
		<g>
			<line class="st15" x1="552.4" y1="483.8" x2="604.3" y2="484.1"/>
			<g>
				<polygon class="st16" points="556.1,471.4 534.5,483.8 556,496.3 				"/>
			</g>
		</g>
	</g>
</g>
</svg>
